<?xml version="1.0" encoding="UTF-8" standalone="no"?>
<!-- Created with Inkscape (http://www.inkscape.org/) -->

<svg
   xmlns:dc="http://purl.org/dc/elements/1.1/"
   xmlns:cc="http://creativecommons.org/ns#"
   xmlns:rdf="http://www.w3.org/1999/02/22-rdf-syntax-ns#"
   xmlns:svg="http://www.w3.org/2000/svg"
   xmlns="http://www.w3.org/2000/svg"
   xmlns:sodipodi="http://sodipodi.sourceforge.net/DTD/sodipodi-0.dtd"
   xmlns:inkscape="http://www.inkscape.org/namespaces/inkscape"
   width="340mm"
   height="340mm"
   viewBox="0 0 340 340"
   version="1.1"
   id="svg8"
   inkscape:version="0.92.3 (2405546, 2018-03-11)"
   sodipodi:docname="feather.svg">
  <defs
     id="defs2" />
  <sodipodi:namedview
     id="base"
     pagecolor="#ffffff"
     bordercolor="#666666"
     borderopacity="1.0"
     inkscape:pageopacity="0.0"
     inkscape:pageshadow="2"
     inkscape:zoom="0.49497475"
     inkscape:cx="790.07133"
     inkscape:cy="315.21035"
     inkscape:document-units="mm"
     inkscape:current-layer="layer1"
     showgrid="false"
     inkscape:pagecheckerboard="true"
     inkscape:window-width="3750"
     inkscape:window-height="2049"
     inkscape:window-x="90"
     inkscape:window-y="55"
     inkscape:window-maximized="1" />
  <metadata
     id="metadata5">
    <rdf:RDF>
      <cc:Work
         rdf:about="">
        <dc:format>image/svg+xml</dc:format>
        <dc:type
           rdf:resource="http://purl.org/dc/dcmitype/StillImage" />
        <dc:title></dc:title>
      </cc:Work>
    </rdf:RDF>
  </metadata>
  <g
     inkscape:label="Layer 1"
     inkscape:groupmode="layer"
     id="layer1"
     transform="translate(721.60866,120.85304)">
    <path
       style="opacity:1;fill:#782121;fill-opacity:0.74865346;stroke:none;stroke-width:188.97637939;stroke-linecap:butt;stroke-linejoin:round;stroke-miterlimit:4;stroke-dasharray:none;stroke-opacity:1;paint-order:markers stroke fill"
       d="m -2656.1836,-447.12305 c -69.1305,0.12269 -89.2366,90.33728 -54.3887,147.875 8.1852,21.79166 14.821,35.81069 23.9133,57.21488 l 173.2625,55.52926 -162.9785,-29.62769 c 8.4744,19.05263 20.5679,46.1405 29.7012,64.88746 l 202.1035,55.521484 -184.119,-22.838474 c 10.4026,20.263822 20.8736,43.030788 31.9686,62.938083 l 224.0628,45.6900113 -211.1741,-22.8989953 c 55.6588,97.010244 119.0078,189.784101 186.4824,278.617191 144.2233,199.52749 350.5297,340.48614 561.7695,461.26757 l 183.4766,-23.94921 -162.0293,36.14062 c 0.6898,0.38959 1.3785,0.78464 2.0683,1.17383 26.3828,15.10738 54.7071,33.40341 84.1856,47.0293 l 128.3027,-56.06055 -85.8187,74.73005 c -57.634,43.60415 84.1512,-22.72213 112.3647,-43.66158 40.3021,-49.73678 177.9887,-158.8637 104.3017,-131.03917 l -59.6328,57.54492 47.873,-77.71094 c -6.3625,-10.00287 -12.7044,-20.02364 -19.0117,-30.07422 l -53.3574,101.34375 36.5117,-128.31055 c -17.3711,-27.93554 -34.6161,-55.9869 -51.9063,-84.02148 l -18.6972,164.22461 -0.918,-195.9668 c -82.124,-132.49069 -166.9308,-263.32051 -273.6855,-377.585935 -8.9475,-9.331422 -17.9302,-18.628016 -26.9629,-27.876953 -103.2387,-114.858412 -231.3435,-202.374742 -362.3594,-282.332032 -113.651,-80.35271 -241.2367,-143.54446 -377.6328,-173.51562 -9.9575,-2.92975 -19.1861,-4.27288 -27.6758,-4.25782 z"
       transform="scale(0.26458333)"
       id="path815"
       inkscape:connector-curvature="0"
       sodipodi:nodetypes="sccccccccccccccccccccccccccccccccs" />
    <path
       style="fill:#ac9d93;fill-opacity:1;stroke:#000000;stroke-width:0.26458332px;stroke-linecap:butt;stroke-linejoin:miter;stroke-opacity:1"
       d="m -716.5496,-113.79326 327.40517,332.75055 6.94902,-7.21627 z"
       id="path818"
       inkscape:connector-curvature="0" />
  </g>
</svg>
