<?xml version="1.0" encoding="UTF-8" standalone="no"?>
<!DOCTYPE svg PUBLIC "-//W3C//DTD SVG 1.1//EN"
 "http://www.w3.org/Graphics/SVG/1.1/DTD/svg11.dtd">
<!-- Generated by graphviz version 2.43.0 (0)
 -->
<!-- Title: MyGraph Pages: 1 -->
<svg width="2963pt" height="679pt"
 viewBox="0.00 0.00 2962.94 679.00" xmlns="http://www.w3.org/2000/svg" xmlns:xlink="http://www.w3.org/1999/xlink">
<g id="graph0" class="graph" transform="scale(1 1) rotate(0) translate(4 675)">
<title>MyGraph</title>
<polygon fill="white" stroke="transparent" points="-4,4 -4,-675 2958.94,-675 2958.94,4 -4,4"/>
<!-- Initialized&#45;&gt;ServantAccepted -->
<g id="edge1" class="edge">
<title>Initialized&#45;&gt;ServantAccepted</title>
<path fill="none" stroke="black" d="M111.14,-634.8C111.14,-623.16 111.14,-607.55 111.14,-594.24"/>
<polygon fill="black" stroke="black" points="114.64,-594.18 111.14,-584.18 107.64,-594.18 114.64,-594.18"/>
<text text-anchor="start" x="111.14" y="-606.8" font-family="Times,serif" font-size="14.00"> </text>
<text text-anchor="start" x="116.14" y="-606.8" font-family="Times,serif" font-weight="bold" font-size="14.00">DialogueStoryTrigger</text>
<text text-anchor="start" x="286.14" y="-606.8" font-family="Times,serif" font-size="14.00"> </text>
<polyline fill="none" stroke="black" points="291.14,-602 111.14,-602 111.14,-609.19 "/>
</g>
<!-- ServantAccepted&#45;&gt;TempleBuilt -->
<g id="edge2" class="edge">
<title>ServantAccepted&#45;&gt;TempleBuilt</title>
<path fill="none" stroke="black" d="M111.14,-547.8C111.14,-536.16 111.14,-520.55 111.14,-507.24"/>
<polygon fill="black" stroke="black" points="114.64,-507.18 111.14,-497.18 107.64,-507.18 114.64,-507.18"/>
<text text-anchor="start" x="111.14" y="-519.8" font-family="Times,serif" font-size="14.00"> </text>
<text text-anchor="start" x="116.14" y="-519.8" font-family="Times,serif" font-weight="bold" font-size="14.00">BuildingBuilt(Temple)</text>
<text text-anchor="start" x="295.14" y="-519.8" font-family="Times,serif" font-size="14.00"> </text>
<polyline fill="none" stroke="black" points="300.14,-515 111.14,-515 111.14,-522.19 "/>
</g>
<!-- TempleBuilt&#45;&gt;BuildingWatergate -->
<g id="edge3" class="edge">
<title>TempleBuilt&#45;&gt;BuildingWatergate</title>
<path fill="none" stroke="black" d="M111.14,-460.8C111.14,-449.16 111.14,-433.55 111.14,-420.24"/>
<polygon fill="black" stroke="black" points="114.64,-420.18 111.14,-410.18 107.64,-420.18 114.64,-420.18"/>
<text text-anchor="start" x="111.14" y="-432.8" font-family="Times,serif" font-size="14.00"> </text>
<text text-anchor="start" x="116.14" y="-432.8" font-family="Times,serif" font-weight="bold" font-size="14.00">DialogueStoryTrigger</text>
<text text-anchor="start" x="286.14" y="-432.8" font-family="Times,serif" font-size="14.00"> </text>
<polyline fill="none" stroke="black" points="291.14,-428 111.14,-428 111.14,-435.19 "/>
</g>
<!-- BuildingWatergate&#45;&gt;WatergateBuilt -->
<g id="edge4" class="edge">
<title>BuildingWatergate&#45;&gt;WatergateBuilt</title>
<path fill="none" stroke="black" d="M111.14,-373.8C111.14,-362.16 111.14,-346.55 111.14,-333.24"/>
<polygon fill="black" stroke="black" points="114.64,-333.18 111.14,-323.18 107.64,-333.18 114.64,-333.18"/>
<text text-anchor="start" x="111.14" y="-345.8" font-family="Times,serif" font-size="14.00"> </text>
<text text-anchor="start" x="116.14" y="-345.8" font-family="Times,serif" font-weight="bold" font-size="14.00">BuildingBuilt(Watergate)</text>
<text text-anchor="start" x="319.14" y="-345.8" font-family="Times,serif" font-size="14.00"> </text>
<polyline fill="none" stroke="black" points="324.14,-341 111.14,-341 111.14,-348.19 "/>
</g>
<!-- WatergateBuilt&#45;&gt;VisitorArrived -->
<g id="edge5" class="edge">
<title>WatergateBuilt&#45;&gt;VisitorArrived</title>
<path fill="none" stroke="black" d="M111.14,-286.93C111.14,-272.12 111.14,-250.43 111.14,-233.23"/>
<polygon fill="black" stroke="black" points="114.64,-233.2 111.14,-223.2 107.64,-233.2 114.64,-233.2"/>
<text text-anchor="start" x="314.14" y="-258.8" font-family="Times,serif" font-size="14.00"> </text>
<text text-anchor="start" x="319.14" y="-258.8" font-family="Times,serif" font-weight="bold" font-size="14.00">DialogueStoryTrigger</text>
<text text-anchor="start" x="489.14" y="-258.8" font-family="Times,serif" font-size="14.00"> </text>
<text text-anchor="start" x="111.14" y="-244.8" font-family="Times,serif" font-size="14.00">SendHobo([VisitorDefinition { typ: Yellow, level: HoboLevel(0), hurried: false }, ]) </text>
<polyline fill="none" stroke="black" points="697.14,-241 111.14,-241 111.14,-254.77 "/>
</g>
<!-- VisitorArrived&#45;&gt;VisitorArrived -->
<g id="edge6" class="edge">
<title>VisitorArrived&#45;&gt;VisitorArrived</title>
<path fill="none" stroke="transparent" d="M176.62,-214.25C192.97,-213.6 205.18,-210.52 205.18,-205 205.18,-200.69 197.73,-197.87 186.67,-196.53"/>
<polygon fill="transparent" stroke="transparent" points="186.86,-193.03 176.62,-195.75 186.33,-200.01 186.86,-193.03"/>
<text text-anchor="start" x="205.18" y="-208.8" font-family="Times,serif" font-size="14.00"> </text>
<text text-anchor="start" x="210.18" y="-208.8" font-family="Times,serif" font-weight="bold" font-size="14.00">DialogueStoryTrigger</text>
<text text-anchor="start" x="380.18" y="-208.8" font-family="Times,serif" font-size="14.00"> </text>
<text text-anchor="start" x="208.18" y="-194.8" font-family="Times,serif" font-size="14.00">StartQuest(HelloWorld) </text>
<polyline fill="none" stroke="black" points="385.18,-191 205.18,-191 205.18,-204.95 "/>
</g>
<!-- VisitorArrived&#45;&gt;FirstVisitorWelcomed -->
<g id="edge7" class="edge">
<title>VisitorArrived&#45;&gt;FirstVisitorWelcomed</title>
<path fill="none" stroke="black" d="M111.14,-186.93C111.14,-172.12 111.14,-150.43 111.14,-133.23"/>
<polygon fill="black" stroke="black" points="114.64,-133.2 111.14,-123.2 107.64,-133.2 114.64,-133.2"/>
<text text-anchor="start" x="111.14" y="-158.8" font-family="Times,serif" font-size="14.00"> </text>
<text text-anchor="start" x="116.14" y="-158.8" font-family="Times,serif" font-weight="bold" font-size="14.00">FinishedQuest(HelloWorld)</text>
<text text-anchor="start" x="333.14" y="-158.8" font-family="Times,serif" font-size="14.00"> </text>
<text text-anchor="start" x="130.64" y="-144.8" font-family="Times,serif" font-size="14.00">StartQuest(CreateForest) </text>
<polyline fill="none" stroke="black" points="338.14,-141 111.14,-141 111.14,-154.77 "/>
</g>
<!-- FirstVisitorWelcomed&#45;&gt;FirstVisitorWelcomed -->
<g id="edge8" class="edge">
<title>FirstVisitorWelcomed&#45;&gt;FirstVisitorWelcomed</title>
<path fill="none" stroke="transparent" d="M220.43,-108.31C232.49,-107.68 240.28,-106.58 240.28,-105 240.28,-103.94 236.76,-103.09 230.8,-102.46"/>
<polygon fill="transparent" stroke="transparent" points="230.66,-98.94 220.43,-101.69 230.14,-105.92 230.66,-98.94"/>
<text text-anchor="start" x="240.28" y="-108.8" font-family="Times,serif" font-size="14.00"> </text>
<text text-anchor="start" x="245.28" y="-108.8" font-family="Times,serif" font-weight="bold" font-size="14.00">FinishedQuest(CreateForest)</text>
<text text-anchor="start" x="476.28" y="-108.8" font-family="Times,serif" font-size="14.00"> </text>
<text text-anchor="start" x="241.28" y="-94.8" font-family="Times,serif" font-size="14.00">StartQuest(BuildBundligStation) </text>
<polyline fill="none" stroke="black" points="481.28,-91 240.28,-91 240.28,-104.98 "/>
</g>
<!-- FirstVisitorWelcomed&#45;&gt;FirstVisitorWelcomed -->
<g id="edge9" class="edge">
<title>FirstVisitorWelcomed&#45;&gt;FirstVisitorWelcomed</title>
<path fill="none" stroke="transparent" d="M214.49,-111.66C325.61,-114.53 481.28,-112.31 481.28,-105 481.28,-97.91 334.89,-95.61 224.7,-98.09"/>
<polygon fill="transparent" stroke="transparent" points="224.41,-94.6 214.49,-98.34 224.57,-101.6 224.41,-94.6"/>
<text text-anchor="start" x="481.28" y="-108.8" font-family="Times,serif" font-size="14.00"> </text>
<text text-anchor="start" x="486.28" y="-108.8" font-family="Times,serif" font-weight="bold" font-size="14.00">FinishedQuest(BuildBundligStation)</text>
<text text-anchor="start" x="778.28" y="-108.8" font-family="Times,serif" font-size="14.00"> </text>
<text text-anchor="start" x="517.78" y="-94.8" font-family="Times,serif" font-size="14.00">StartQuest(UseBundligStation) </text>
<polyline fill="none" stroke="black" points="783.28,-91 481.28,-91 481.28,-104.98 "/>
</g>
<!-- FirstVisitorWelcomed&#45;&gt;GatheringSticks -->
<g id="edge10" class="edge">
<title>FirstVisitorWelcomed&#45;&gt;GatheringSticks</title>
<path fill="none" stroke="black" d="M111.14,-86.8C111.14,-75.16 111.14,-59.55 111.14,-46.24"/>
<polygon fill="black" stroke="black" points="114.64,-46.18 111.14,-36.18 107.64,-46.18 114.64,-46.18"/>
<text text-anchor="start" x="111.14" y="-58.8" font-family="Times,serif" font-size="14.00"> </text>
<text text-anchor="start" x="116.14" y="-58.8" font-family="Times,serif" font-weight="bold" font-size="14.00">FinishedQuest(UseBundligStation)</text>
<text text-anchor="start" x="394.14" y="-58.8" font-family="Times,serif" font-size="14.00"> </text>
<polyline fill="none" stroke="black" points="399.14,-54 111.14,-54 111.14,-61.19 "/>
</g>
<!-- Initialized -->
<g id="node1" class="node">
<title>Initialized</title>
<ellipse fill="none" stroke="black" cx="111.14" cy="-653" rx="57.39" ry="18"/>
<text text-anchor="middle" x="111.14" y="-649.3" font-family="Times,serif" font-size="14.00">Initialized</text>
</g>
<!-- ServantAccepted -->
<g id="node2" class="node">
<title>ServantAccepted</title>
<ellipse fill="none" stroke="black" cx="111.14" cy="-566" rx="89.88" ry="18"/>
<text text-anchor="middle" x="111.14" y="-562.3" font-family="Times,serif" font-size="14.00">ServantAccepted</text>
</g>
<!-- TempleBuilt -->
<g id="node3" class="node">
<title>TempleBuilt</title>
<ellipse fill="none" stroke="black" cx="111.14" cy="-479" rx="66.89" ry="18"/>
<text text-anchor="middle" x="111.14" y="-475.3" font-family="Times,serif" font-size="14.00">TempleBuilt</text>
</g>
<!-- BuildingWatergate -->
<g id="node4" class="node">
<title>BuildingWatergate</title>
<ellipse fill="none" stroke="black" cx="111.14" cy="-392" rx="98.28" ry="18"/>
<text text-anchor="middle" x="111.14" y="-388.3" font-family="Times,serif" font-size="14.00">BuildingWatergate</text>
</g>
<!-- WatergateBuilt -->
<g id="node5" class="node">
<title>WatergateBuilt</title>
<ellipse fill="none" stroke="black" cx="111.14" cy="-305" rx="81.49" ry="18"/>
<text text-anchor="middle" x="111.14" y="-301.3" font-family="Times,serif" font-size="14.00">WatergateBuilt</text>
</g>
<!-- VisitorArrived -->
<g id="node6" class="node">
<title>VisitorArrived</title>
<ellipse fill="none" stroke="black" cx="111.14" cy="-205" rx="76.09" ry="18"/>
<text text-anchor="middle" x="111.14" y="-201.3" font-family="Times,serif" font-size="14.00">VisitorArrived</text>
</g>
<!-- FirstVisitorWelcomed -->
<g id="node7" class="node">
<title>FirstVisitorWelcomed</title>
<ellipse fill="none" stroke="black" cx="111.14" cy="-105" rx="111.28" ry="18"/>
<text text-anchor="middle" x="111.14" y="-101.3" font-family="Times,serif" font-size="14.00">FirstVisitorWelcomed</text>
</g>
<!-- FlowerPlanted -->
<g id="node8" class="node">
<title>FlowerPlanted</title>
<ellipse fill="none" stroke="black" cx="265.14" cy="-653" rx="78.79" ry="18"/>
<text text-anchor="middle" x="265.14" y="-649.3" font-family="Times,serif" font-size="14.00">FlowerPlanted</text>
</g>
<!-- MoreHappyVisitors -->
<g id="node9" class="node">
<title>MoreHappyVisitors</title>
<ellipse fill="none" stroke="black" cx="462.14" cy="-653" rx="100.98" ry="18"/>
<text text-anchor="middle" x="462.14" y="-649.3" font-family="Times,serif" font-size="14.00">MoreHappyVisitors</text>
</g>
<!-- TreePlanted -->
<g id="node10" class="node">
<title>TreePlanted</title>
<ellipse fill="none" stroke="black" cx="648.14" cy="-653" rx="67.69" ry="18"/>
<text text-anchor="middle" x="648.14" y="-649.3" font-family="Times,serif" font-size="14.00">TreePlanted</text>
</g>
<!-- StickGatheringStationBuild -->
<g id="node11" class="node">
<title>StickGatheringStationBuild</title>
<ellipse fill="none" stroke="black" cx="873.14" cy="-653" rx="139.18" ry="18"/>
<text text-anchor="middle" x="873.14" y="-649.3" font-family="Times,serif" font-size="14.00">StickGatheringStationBuild</text>
</g>
<!-- GatheringSticks -->
<g id="node12" class="node">
<title>GatheringSticks</title>
<ellipse fill="none" stroke="black" cx="111.14" cy="-18" rx="85.59" ry="18"/>
<text text-anchor="middle" x="111.14" y="-14.3" font-family="Times,serif" font-size="14.00">GatheringSticks</text>
</g>
<!-- PickingPrimaryCivBonus -->
<g id="node13" class="node">
<title>PickingPrimaryCivBonus</title>
<ellipse fill="none" stroke="black" cx="1156.14" cy="-653" rx="126.18" ry="18"/>
<text text-anchor="middle" x="1156.14" y="-649.3" font-family="Times,serif" font-size="14.00">PickingPrimaryCivBonus</text>
</g>
<!-- SolvingPrimaryCivQuestPartA -->
<g id="node14" class="node">
<title>SolvingPrimaryCivQuestPartA</title>
<ellipse fill="none" stroke="black" cx="1452.14" cy="-653" rx="151.37" ry="18"/>
<text text-anchor="middle" x="1452.14" y="-649.3" font-family="Times,serif" font-size="14.00">SolvingPrimaryCivQuestPartA</text>
</g>
<!-- SolvingPrimaryCivQuestPartB -->
<g id="node15" class="node">
<title>SolvingPrimaryCivQuestPartB</title>
<ellipse fill="none" stroke="black" cx="1773.14" cy="-653" rx="151.37" ry="18"/>
<text text-anchor="middle" x="1773.14" y="-649.3" font-family="Times,serif" font-size="14.00">SolvingPrimaryCivQuestPartB</text>
</g>
<!-- PickingSecondaryCivBonus -->
<g id="node16" class="node">
<title>PickingSecondaryCivBonus</title>
<ellipse fill="none" stroke="black" cx="2080.14" cy="-653" rx="137.58" ry="18"/>
<text text-anchor="middle" x="2080.14" y="-649.3" font-family="Times,serif" font-size="14.00">PickingSecondaryCivBonus</text>
</g>
<!-- SolvingSecondaryQuestPartA -->
<g id="node17" class="node">
<title>SolvingSecondaryQuestPartA</title>
<ellipse fill="none" stroke="black" cx="2383.14" cy="-653" rx="147.57" ry="18"/>
<text text-anchor="middle" x="2383.14" y="-649.3" font-family="Times,serif" font-size="14.00">SolvingSecondaryQuestPartA</text>
</g>
<!-- SolvingSecondaryQuestPartB -->
<g id="node18" class="node">
<title>SolvingSecondaryQuestPartB</title>
<ellipse fill="none" stroke="black" cx="2696.14" cy="-653" rx="147.57" ry="18"/>
<text text-anchor="middle" x="2696.14" y="-649.3" font-family="Times,serif" font-size="14.00">SolvingSecondaryQuestPartB</text>
</g>
<!-- AllDone -->
<g id="node19" class="node">
<title>AllDone</title>
<ellipse fill="none" stroke="black" cx="2908.14" cy="-653" rx="46.59" ry="18"/>
<text text-anchor="middle" x="2908.14" y="-649.3" font-family="Times,serif" font-size="14.00">AllDone</text>
</g>
</g>
</svg>
