<?xml version="1.0" encoding="UTF-8" standalone="no"?>
<!DOCTYPE svg PUBLIC "-//W3C//DTD SVG 1.1//EN"
 "http://www.w3.org/Graphics/SVG/1.1/DTD/svg11.dtd">
<!-- Generated by graphviz version 2.43.0 (0)
 -->
<!-- Title: MyGraph Pages: 1 -->
<svg width="1102pt" height="1604pt"
 viewBox="0.00 0.00 1102.18 1604.00" xmlns="http://www.w3.org/2000/svg" xmlns:xlink="http://www.w3.org/1999/xlink">
<g id="graph0" class="graph" transform="scale(1 1) rotate(0) translate(4 1600)">
<title>MyGraph</title>
<polygon fill="white" stroke="transparent" points="-4,4 -4,-1600 1098.18,-1600 1098.18,4 -4,4"/>
<!-- Initialized&#45;&gt;ServantAccepted -->
<g id="edge1" class="edge">
<title>Initialized&#45;&gt;ServantAccepted</title>
<path fill="none" stroke="black" d="M387.04,-1559.8C387.04,-1548.16 387.04,-1532.55 387.04,-1519.24"/>
<polygon fill="black" stroke="black" points="390.54,-1519.18 387.04,-1509.18 383.54,-1519.18 390.54,-1519.18"/>
<text text-anchor="start" x="387.04" y="-1531.8" font-family="Times,serif" font-size="14.00"> </text>
<text text-anchor="start" x="392.04" y="-1531.8" font-family="Times,serif" font-weight="bold" font-size="14.00">DialogueStoryTrigger</text>
<text text-anchor="start" x="562.04" y="-1531.8" font-family="Times,serif" font-size="14.00"> </text>
<polyline fill="none" stroke="black" points="567.04,-1527 387.04,-1527 387.04,-1534.19 "/>
</g>
<!-- ServantAccepted&#45;&gt;TempleBuilt -->
<g id="edge2" class="edge">
<title>ServantAccepted&#45;&gt;TempleBuilt</title>
<path fill="none" stroke="black" d="M387.04,-1472.8C387.04,-1461.16 387.04,-1445.55 387.04,-1432.24"/>
<polygon fill="black" stroke="black" points="390.54,-1432.18 387.04,-1422.18 383.54,-1432.18 390.54,-1432.18"/>
<text text-anchor="start" x="387.04" y="-1444.8" font-family="Times,serif" font-size="14.00"> </text>
<text text-anchor="start" x="392.04" y="-1444.8" font-family="Times,serif" font-weight="bold" font-size="14.00">BuildingBuilt(Temple)</text>
<text text-anchor="start" x="571.04" y="-1444.8" font-family="Times,serif" font-size="14.00"> </text>
<polyline fill="none" stroke="black" points="576.04,-1440 387.04,-1440 387.04,-1447.19 "/>
</g>
<!-- TempleBuilt&#45;&gt;BuildingWatergate -->
<g id="edge3" class="edge">
<title>TempleBuilt&#45;&gt;BuildingWatergate</title>
<path fill="none" stroke="black" d="M387.04,-1385.8C387.04,-1374.16 387.04,-1358.55 387.04,-1345.24"/>
<polygon fill="black" stroke="black" points="390.54,-1345.18 387.04,-1335.18 383.54,-1345.18 390.54,-1345.18"/>
<text text-anchor="start" x="387.04" y="-1357.8" font-family="Times,serif" font-size="14.00"> </text>
<text text-anchor="start" x="392.04" y="-1357.8" font-family="Times,serif" font-weight="bold" font-size="14.00">DialogueStoryTrigger</text>
<text text-anchor="start" x="562.04" y="-1357.8" font-family="Times,serif" font-size="14.00"> </text>
<polyline fill="none" stroke="black" points="567.04,-1353 387.04,-1353 387.04,-1360.19 "/>
</g>
<!-- BuildingWatergate&#45;&gt;WatergateBuilt -->
<g id="edge4" class="edge">
<title>BuildingWatergate&#45;&gt;WatergateBuilt</title>
<path fill="none" stroke="black" d="M387.04,-1298.8C387.04,-1287.16 387.04,-1271.55 387.04,-1258.24"/>
<polygon fill="black" stroke="black" points="390.54,-1258.18 387.04,-1248.18 383.54,-1258.18 390.54,-1258.18"/>
<text text-anchor="start" x="387.04" y="-1270.8" font-family="Times,serif" font-size="14.00"> </text>
<text text-anchor="start" x="392.04" y="-1270.8" font-family="Times,serif" font-weight="bold" font-size="14.00">BuildingBuilt(Watergate)</text>
<text text-anchor="start" x="595.04" y="-1270.8" font-family="Times,serif" font-size="14.00"> </text>
<polyline fill="none" stroke="black" points="600.04,-1266 387.04,-1266 387.04,-1273.19 "/>
</g>
<!-- WatergateBuilt&#45;&gt;VisitorQueued -->
<g id="edge5" class="edge">
<title>WatergateBuilt&#45;&gt;VisitorQueued</title>
<path fill="none" stroke="black" d="M387.04,-1211.93C387.04,-1197.12 387.04,-1175.43 387.04,-1158.23"/>
<polygon fill="black" stroke="black" points="390.54,-1158.2 387.04,-1148.2 383.54,-1158.2 390.54,-1158.2"/>
<text text-anchor="start" x="590.04" y="-1183.8" font-family="Times,serif" font-size="14.00"> </text>
<text text-anchor="start" x="595.04" y="-1183.8" font-family="Times,serif" font-weight="bold" font-size="14.00">DialogueStoryTrigger</text>
<text text-anchor="start" x="765.04" y="-1183.8" font-family="Times,serif" font-size="14.00"> </text>
<text text-anchor="start" x="387.04" y="-1169.8" font-family="Times,serif" font-size="14.00">SendHobo([VisitorDefinition { typ: Yellow, level: HoboLevel(0), hurried: false }, ]) </text>
<polyline fill="none" stroke="black" points="973.04,-1166 387.04,-1166 387.04,-1179.77 "/>
</g>
<!-- VisitorQueued&#45;&gt;VisitorArrived -->
<g id="edge6" class="edge">
<title>VisitorQueued&#45;&gt;VisitorArrived</title>
<path fill="none" stroke="black" d="M387.04,-1111.8C387.04,-1100.16 387.04,-1084.55 387.04,-1071.24"/>
<polygon fill="black" stroke="black" points="390.54,-1071.18 387.04,-1061.18 383.54,-1071.18 390.54,-1071.18"/>
<text text-anchor="start" x="387.04" y="-1083.8" font-family="Times,serif" font-size="14.00"> </text>
<text text-anchor="start" x="392.04" y="-1083.8" font-family="Times,serif" font-weight="bold" font-size="14.00">LetVisitorIn</text>
<text text-anchor="start" x="488.04" y="-1083.8" font-family="Times,serif" font-size="14.00"> </text>
<polyline fill="none" stroke="black" points="493.04,-1079 387.04,-1079 387.04,-1086.19 "/>
</g>
<!-- VisitorArrived&#45;&gt;WelcomeVisitorQuestStarted -->
<g id="edge7" class="edge">
<title>VisitorArrived&#45;&gt;WelcomeVisitorQuestStarted</title>
<path fill="none" stroke="black" d="M387.04,-1024.99C387.04,-1007.06 387.04,-978.56 387.04,-957.44"/>
<polygon fill="black" stroke="black" points="390.54,-957.17 387.04,-947.17 383.54,-957.17 390.54,-957.17"/>
<text text-anchor="start" x="387.04" y="-996.8" font-family="Times,serif" font-size="14.00"> </text>
<text text-anchor="start" x="392.04" y="-996.8" font-family="Times,serif" font-weight="bold" font-size="14.00">DialogueStoryTrigger</text>
<text text-anchor="start" x="562.04" y="-996.8" font-family="Times,serif" font-size="14.00"> </text>
<text text-anchor="start" x="390.04" y="-982.8" font-family="Times,serif" font-size="14.00">StartQuest(HelloWorld) </text>
<text text-anchor="start" x="426.54" y="-968.8" font-family="Times,serif" font-size="14.00">AddMana(10) </text>
<polyline fill="none" stroke="black" points="567.04,-965 387.04,-965 387.04,-986.2 "/>
</g>
<!-- WelcomeVisitorQuestStarted&#45;&gt;FirstVisitorWelcomed -->
<g id="edge8" class="edge">
<title>WelcomeVisitorQuestStarted&#45;&gt;FirstVisitorWelcomed</title>
<path fill="none" stroke="black" d="M387.04,-910.93C387.04,-896.12 387.04,-874.43 387.04,-857.23"/>
<polygon fill="black" stroke="black" points="390.54,-857.2 387.04,-847.2 383.54,-857.2 390.54,-857.2"/>
<text text-anchor="start" x="387.04" y="-882.8" font-family="Times,serif" font-size="14.00"> </text>
<text text-anchor="start" x="392.04" y="-882.8" font-family="Times,serif" font-weight="bold" font-size="14.00">FinishedQuest(HelloWorld)</text>
<text text-anchor="start" x="609.04" y="-882.8" font-family="Times,serif" font-size="14.00"> </text>
<text text-anchor="start" x="406.54" y="-868.8" font-family="Times,serif" font-size="14.00">StartQuest(CreateForest) </text>
<polyline fill="none" stroke="black" points="614.04,-865 387.04,-865 387.04,-878.77 "/>
</g>
<!-- FirstVisitorWelcomed&#45;&gt;FirstVisitorWelcomed -->
<g id="edge9" class="edge">
<title>FirstVisitorWelcomed&#45;&gt;FirstVisitorWelcomed</title>
<path fill="none" stroke="transparent" d="M496.33,-832.31C508.39,-831.68 516.18,-830.58 516.18,-829 516.18,-827.94 512.66,-827.09 506.7,-826.46"/>
<polygon fill="transparent" stroke="transparent" points="506.56,-822.94 496.33,-825.69 506.04,-829.92 506.56,-822.94"/>
<text text-anchor="start" x="519.68" y="-832.8" font-family="Times,serif" font-size="14.00"> </text>
<text text-anchor="start" x="524.68" y="-832.8" font-family="Times,serif" font-weight="bold" font-size="14.00">FinishedQuest(CreateForest)</text>
<text text-anchor="start" x="755.68" y="-832.8" font-family="Times,serif" font-size="14.00"> </text>
<text text-anchor="start" x="516.18" y="-818.8" font-family="Times,serif" font-size="14.00">StartQuest(BuildBundlingStation) </text>
<polyline fill="none" stroke="black" points="764.18,-815 516.18,-815 516.18,-828.98 "/>
</g>
<!-- FirstVisitorWelcomed&#45;&gt;FirstVisitorWelcomed -->
<g id="edge10" class="edge">
<title>FirstVisitorWelcomed&#45;&gt;FirstVisitorWelcomed</title>
<path fill="none" stroke="transparent" d="M490.51,-835.62C603.77,-838.55 764.18,-836.34 764.18,-829 764.18,-821.87 613.03,-819.58 500.58,-822.13"/>
<polygon fill="transparent" stroke="transparent" points="500.42,-818.63 490.51,-822.38 500.59,-825.63 500.42,-818.63"/>
<text text-anchor="start" x="764.18" y="-832.8" font-family="Times,serif" font-size="14.00"> </text>
<text text-anchor="start" x="769.18" y="-832.8" font-family="Times,serif" font-weight="bold" font-size="14.00">FinishedQuest(BuildBundlingStation)</text>
<text text-anchor="start" x="1071.18" y="-832.8" font-family="Times,serif" font-size="14.00"> </text>
<text text-anchor="start" x="801.18" y="-818.8" font-family="Times,serif" font-size="14.00">StartQuest(UseBundlingStation) </text>
<polyline fill="none" stroke="black" points="1076.18,-815 764.18,-815 764.18,-828.98 "/>
</g>
<!-- FirstVisitorWelcomed&#45;&gt;PickingPrimaryCivBonus -->
<g id="edge11" class="edge">
<title>FirstVisitorWelcomed&#45;&gt;PickingPrimaryCivBonus</title>
<path fill="none" stroke="black" d="M387.04,-810.8C387.04,-799.16 387.04,-783.55 387.04,-770.24"/>
<polygon fill="black" stroke="black" points="390.54,-770.18 387.04,-760.18 383.54,-770.18 390.54,-770.18"/>
<text text-anchor="start" x="387.04" y="-782.8" font-family="Times,serif" font-size="14.00"> </text>
<text text-anchor="start" x="392.04" y="-782.8" font-family="Times,serif" font-weight="bold" font-size="14.00">FinishedQuest(UseBundlingStation)</text>
<text text-anchor="start" x="681.04" y="-782.8" font-family="Times,serif" font-size="14.00"> </text>
<polyline fill="none" stroke="black" points="686.04,-778 387.04,-778 387.04,-785.19 "/>
</g>
<!-- PickingPrimaryCivBonus&#45;&gt;SolvingPrimaryCivQuestPartA -->
<g id="edge12" class="edge">
<title>PickingPrimaryCivBonus&#45;&gt;SolvingPrimaryCivQuestPartA</title>
<path fill="none" stroke="black" d="M270.37,-735.07C228.02,-730.26 187.29,-721.6 174.04,-706 161.96,-691.77 161.96,-678.23 174.04,-664 184.59,-651.57 212.57,-643.55 244.91,-638.37"/>
<polygon fill="black" stroke="black" points="245.7,-641.8 255.08,-636.86 244.67,-634.87 245.7,-641.8"/>
<text text-anchor="start" x="174.04" y="-688.8" font-family="Times,serif" font-size="14.00"> </text>
<text text-anchor="start" x="179.04" y="-688.8" font-family="Times,serif" font-weight="bold" font-size="14.00">DialogueChoice(StoryChoice { chosen_option: 1 })</text>
<text text-anchor="start" x="574.04" y="-688.8" font-family="Times,serif" font-size="14.00"> </text>
<text text-anchor="start" x="298.04" y="-674.8" font-family="Times,serif" font-size="14.00">StartQuest(Socialize) </text>
<polyline fill="none" stroke="black" points="579.04,-671 174.04,-671 270.36,-735.07 "/>
</g>
<!-- PickingPrimaryCivBonus&#45;&gt;SolvingPrimaryCivQuestPartA -->
<g id="edge13" class="edge">
<title>PickingPrimaryCivBonus&#45;&gt;SolvingPrimaryCivQuestPartA</title>
<path fill="none" stroke="black" d="M496.74,-733.09C533.3,-728 567.64,-719.66 579.04,-706 591,-691.67 591,-678.33 579.04,-664 569.99,-653.15 546.45,-645.65 518.83,-640.48"/>
<polygon fill="black" stroke="black" points="519.36,-637.02 508.9,-638.74 518.15,-643.91 519.36,-637.02"/>
<text text-anchor="start" x="587.04" y="-695.8" font-family="Times,serif" font-size="14.00"> </text>
<text text-anchor="start" x="592.04" y="-695.8" font-family="Times,serif" font-weight="bold" font-size="14.00">DialogueChoice(StoryChoice { chosen_option: 2 })</text>
<text text-anchor="start" x="987.04" y="-695.8" font-family="Times,serif" font-size="14.00"> </text>
<text text-anchor="start" x="706.54" y="-681.8" font-family="Times,serif" font-size="14.00">StartQuest(BuildNest) </text>
<text text-anchor="start" x="694.04" y="-667.8" font-family="Times,serif" font-size="14.00">UnlockPerk(NestBuilding) </text>
<polyline fill="none" stroke="black" points="992.04,-664 587.04,-664 588.01,-685 "/>
</g>
<!-- SolvingPrimaryCivQuestPartA&#45;&gt;SolvingPrimaryCivQuestPartB -->
<g id="edge15" class="edge">
<title>SolvingPrimaryCivQuestPartA&#45;&gt;SolvingPrimaryCivQuestPartB</title>
<path fill="none" stroke="black" d="M384.8,-609.99C383.11,-596.26 380.93,-576.42 380.04,-559 378.2,-523.22 381.27,-481.94 383.9,-455.44"/>
<polygon fill="black" stroke="black" points="387.39,-455.68 384.95,-445.37 380.43,-454.96 387.39,-455.68"/>
<text text-anchor="start" x="380.04" y="-544.8" font-family="Times,serif" font-size="14.00"> </text>
<text text-anchor="start" x="385.04" y="-544.8" font-family="Times,serif" font-weight="bold" font-size="14.00">FinishedQuest(BuildNest)</text>
<text text-anchor="start" x="593.04" y="-544.8" font-family="Times,serif" font-size="14.00"> </text>
<text text-anchor="start" x="385.04" y="-530.8" font-family="Times,serif" font-size="14.00">StartQuest(GrowPopulation) </text>
<polyline fill="none" stroke="black" points="598.04,-527 380.04,-527 379.53,-542.77 "/>
</g>
<!-- SolvingPrimaryCivQuestPartA&#45;&gt;UnlockingInvitationPathA -->
<g id="edge14" class="edge">
<title>SolvingPrimaryCivQuestPartA&#45;&gt;UnlockingInvitationPathA</title>
<path fill="none" stroke="black" d="M450.42,-611.61C511.1,-596.87 602.5,-574.67 665.7,-559.32"/>
<polygon fill="black" stroke="black" points="666.7,-562.68 675.6,-556.92 665.05,-555.88 666.7,-562.68"/>
<text text-anchor="start" x="582.04" y="-581.8" font-family="Times,serif" font-size="14.00"> </text>
<text text-anchor="start" x="587.04" y="-581.8" font-family="Times,serif" font-weight="bold" font-size="14.00">FinishedQuest(Socialize)</text>
<text text-anchor="start" x="785.04" y="-581.8" font-family="Times,serif" font-size="14.00"> </text>
<polyline fill="none" stroke="black" points="790.04,-577 582.04,-577 665.69,-559.33 "/>
</g>
<!-- SolvingPrimaryCivQuestPartB&#45;&gt;DialogueBalanceA -->
<g id="edge16" class="edge">
<title>SolvingPrimaryCivQuestPartB&#45;&gt;DialogueBalanceA</title>
<path fill="none" stroke="black" d="M309.18,-411.51C289.37,-406.37 268.49,-399.65 250.04,-391 235.13,-384.01 220.14,-373.64 207.96,-364.16"/>
<polygon fill="black" stroke="black" points="210,-361.31 200.01,-357.79 205.63,-366.77 210,-361.31"/>
<text text-anchor="start" x="250.04" y="-380.8" font-family="Times,serif" font-size="14.00"> </text>
<text text-anchor="start" x="255.04" y="-380.8" font-family="Times,serif" font-weight="bold" font-size="14.00">FinishedQuest(SocializeMore)</text>
<text text-anchor="start" x="494.04" y="-380.8" font-family="Times,serif" font-size="14.00"> </text>
<polyline fill="none" stroke="black" points="499.04,-376 250.04,-376 309.17,-411.51 "/>
</g>
<!-- SolvingPrimaryCivQuestPartB&#45;&gt;DialogueBalanceB -->
<g id="edge17" class="edge">
<title>SolvingPrimaryCivQuestPartB&#45;&gt;DialogueBalanceB</title>
<path fill="none" stroke="black" d="M467.6,-411.64C480.48,-406.68 492.88,-399.99 503.04,-391 509.98,-384.85 514.83,-376.11 518.17,-367.65"/>
<polygon fill="black" stroke="black" points="521.54,-368.62 521.43,-358.02 514.91,-366.37 521.54,-368.62"/>
<text text-anchor="start" x="513.04" y="-380.8" font-family="Times,serif" font-size="14.00"> </text>
<text text-anchor="start" x="518.04" y="-380.8" font-family="Times,serif" font-weight="bold" font-size="14.00">FinishedQuest(GrowPopulation)</text>
<text text-anchor="start" x="773.04" y="-380.8" font-family="Times,serif" font-size="14.00"> </text>
<polyline fill="none" stroke="black" points="778.04,-376 513.04,-376 518.17,-367.66 "/>
</g>
<!-- UnlockingInvitationPathA&#45;&gt;SolvingPrimaryCivQuestPartB -->
<g id="edge18" class="edge">
<title>UnlockingInvitationPathA&#45;&gt;SolvingPrimaryCivQuestPartB</title>
<path fill="none" stroke="black" d="M688,-524.31C624.8,-504.08 514.95,-468.93 446.88,-447.15"/>
<polygon fill="black" stroke="black" points="447.75,-443.75 437.16,-444.04 445.61,-450.42 447.75,-443.75"/>
<text text-anchor="start" x="630.54" y="-494.8" font-family="Times,serif" font-size="14.00"> </text>
<text text-anchor="start" x="635.54" y="-494.8" font-family="Times,serif" font-weight="bold" font-size="14.00">DialogueStoryTrigger</text>
<text text-anchor="start" x="805.54" y="-494.8" font-family="Times,serif" font-size="14.00"> </text>
<text text-anchor="start" x="623.04" y="-480.8" font-family="Times,serif" font-size="14.00">StartQuest(SocializeMore) </text>
<text text-anchor="start" x="637.54" y="-466.8" font-family="Times,serif" font-size="14.00">UnlockPerk(Invitation) </text>
<polyline fill="none" stroke="black" points="818.04,-463 623.04,-463 687.99,-524.31 "/>
</g>
<!-- UnlockingInvitationPathB&#45;&gt;AllDone -->
<g id="edge19" class="edge">
<title>UnlockingInvitationPathB&#45;&gt;AllDone</title>
<path fill="none" stroke="black" d="M471.31,-102.01C392.17,-82.47 255.37,-48.7 183.05,-30.85"/>
<polygon fill="black" stroke="black" points="183.84,-27.44 173.29,-28.44 182.16,-34.24 183.84,-27.44"/>
<text text-anchor="start" x="381.04" y="-71.8" font-family="Times,serif" font-size="14.00"> </text>
<text text-anchor="start" x="386.04" y="-71.8" font-family="Times,serif" font-weight="bold" font-size="14.00">DialogueStoryTrigger</text>
<text text-anchor="start" x="556.04" y="-71.8" font-family="Times,serif" font-size="14.00"> </text>
<text text-anchor="start" x="388.04" y="-57.8" font-family="Times,serif" font-size="14.00">UnlockPerk(Invitation) </text>
<polyline fill="none" stroke="black" points="561.04,-54 381.04,-54 463.24,-100.02 "/>
</g>
<!-- DialogueBalanceA&#45;&gt;SolvingSecondaryQuestA -->
<g id="edge20" class="edge">
<title>DialogueBalanceA&#45;&gt;SolvingSecondaryQuestA</title>
<path fill="none" stroke="black" d="M175.57,-321.86C166.36,-293.03 147.71,-234.62 136.71,-200.16"/>
<polygon fill="black" stroke="black" points="139.94,-198.76 133.56,-190.3 133.27,-200.89 139.94,-198.76"/>
<text text-anchor="start" x="184.04" y="-293.8" font-family="Times,serif" font-size="14.00"> </text>
<text text-anchor="start" x="189.04" y="-293.8" font-family="Times,serif" font-weight="bold" font-size="14.00">DialogueStoryTrigger</text>
<text text-anchor="start" x="359.04" y="-293.8" font-family="Times,serif" font-size="14.00"> </text>
<text text-anchor="start" x="170.04" y="-279.8" font-family="Times,serif" font-size="14.00">StartQuest(GrowPopulation) </text>
<text text-anchor="start" x="178.54" y="-265.8" font-family="Times,serif" font-size="14.00">UnlockPerk(NestBuilding) </text>
<polyline fill="none" stroke="black" points="378.04,-262 170.04,-262 173.49,-315.36 "/>
</g>
<!-- DialogueBalanceB&#45;&gt;SolvingSecondaryQuestB -->
<g id="edge21" class="edge">
<title>DialogueBalanceB&#45;&gt;SolvingSecondaryQuestB</title>
<path fill="none" stroke="black" d="M525.8,-321.99C526.6,-304.06 527.87,-275.56 528.81,-254.44"/>
<polygon fill="black" stroke="black" points="532.32,-254.32 529.27,-244.17 525.33,-254 532.32,-254.32"/>
<text text-anchor="start" x="535.54" y="-286.8" font-family="Times,serif" font-size="14.00"> </text>
<text text-anchor="start" x="540.54" y="-286.8" font-family="Times,serif" font-weight="bold" font-size="14.00">DialogueStoryTrigger</text>
<text text-anchor="start" x="710.54" y="-286.8" font-family="Times,serif" font-size="14.00"> </text>
<text text-anchor="start" x="528.04" y="-272.8" font-family="Times,serif" font-size="14.00">StartQuest(SocializeMore) </text>
<polyline fill="none" stroke="black" points="723.04,-269 528.04,-269 527.73,-278.67 "/>
</g>
<!-- SolvingSecondaryQuestA&#45;&gt;AllDone -->
<g id="edge22" class="edge">
<title>SolvingSecondaryQuestA&#45;&gt;AllDone</title>
<path fill="none" stroke="black" d="M127.62,-153.77C127.38,-139.39 127.25,-118.35 128.04,-100 128.81,-82.01 130.56,-61.84 132.11,-46.12"/>
<polygon fill="black" stroke="black" points="135.6,-46.34 133.14,-36.04 128.64,-45.63 135.6,-46.34"/>
<text text-anchor="start" x="128.04" y="-115.3" font-family="Times,serif" font-size="14.00"> </text>
<text text-anchor="start" x="133.04" y="-115.3" font-family="Times,serif" font-weight="bold" font-size="14.00">FinishedQuest(GrowPopulation)</text>
<text text-anchor="start" x="388.04" y="-115.3" font-family="Times,serif" font-size="14.00"> </text>
<polyline fill="none" stroke="black" points="393.04,-110.5 128.04,-110.5 127.58,-115.46 "/>
</g>
<!-- SolvingSecondaryQuestB&#45;&gt;UnlockingInvitationPathB -->
<g id="edge23" class="edge">
<title>SolvingSecondaryQuestB&#45;&gt;UnlockingInvitationPathB</title>
<path fill="none" stroke="black" d="M530.36,-207.97C530.67,-191.38 531.15,-165.88 531.52,-146.43"/>
<polygon fill="black" stroke="black" points="535.02,-146.4 531.71,-136.34 528.02,-146.27 535.02,-146.4"/>
<text text-anchor="start" x="531.04" y="-169.3" font-family="Times,serif" font-size="14.00"> </text>
<text text-anchor="start" x="536.04" y="-169.3" font-family="Times,serif" font-weight="bold" font-size="14.00">FinishedQuest(SocializeMore)</text>
<text text-anchor="start" x="775.04" y="-169.3" font-family="Times,serif" font-size="14.00"> </text>
<polyline fill="none" stroke="black" points="780.04,-164.5 531.04,-164.5 531.08,-169.56 "/>
</g>
<!-- Initialized -->
<g id="node1" class="node">
<title>Initialized</title>
<ellipse fill="none" stroke="black" cx="387.04" cy="-1578" rx="57.39" ry="18"/>
<text text-anchor="middle" x="387.04" y="-1574.3" font-family="Times,serif" font-size="14.00">Initialized</text>
</g>
<!-- ServantAccepted -->
<g id="node2" class="node">
<title>ServantAccepted</title>
<ellipse fill="none" stroke="black" cx="387.04" cy="-1491" rx="89.88" ry="18"/>
<text text-anchor="middle" x="387.04" y="-1487.3" font-family="Times,serif" font-size="14.00">ServantAccepted</text>
</g>
<!-- TempleBuilt -->
<g id="node3" class="node">
<title>TempleBuilt</title>
<ellipse fill="none" stroke="black" cx="387.04" cy="-1404" rx="66.89" ry="18"/>
<text text-anchor="middle" x="387.04" y="-1400.3" font-family="Times,serif" font-size="14.00">TempleBuilt</text>
</g>
<!-- BuildingWatergate -->
<g id="node4" class="node">
<title>BuildingWatergate</title>
<ellipse fill="none" stroke="black" cx="387.04" cy="-1317" rx="98.28" ry="18"/>
<text text-anchor="middle" x="387.04" y="-1313.3" font-family="Times,serif" font-size="14.00">BuildingWatergate</text>
</g>
<!-- WatergateBuilt -->
<g id="node5" class="node">
<title>WatergateBuilt</title>
<ellipse fill="none" stroke="black" cx="387.04" cy="-1230" rx="81.49" ry="18"/>
<text text-anchor="middle" x="387.04" y="-1226.3" font-family="Times,serif" font-size="14.00">WatergateBuilt</text>
</g>
<!-- VisitorQueued -->
<g id="node6" class="node">
<title>VisitorQueued</title>
<ellipse fill="none" stroke="black" cx="387.04" cy="-1130" rx="77.19" ry="18"/>
<text text-anchor="middle" x="387.04" y="-1126.3" font-family="Times,serif" font-size="14.00">VisitorQueued</text>
</g>
<!-- VisitorArrived -->
<g id="node7" class="node">
<title>VisitorArrived</title>
<ellipse fill="none" stroke="black" cx="387.04" cy="-1043" rx="76.09" ry="18"/>
<text text-anchor="middle" x="387.04" y="-1039.3" font-family="Times,serif" font-size="14.00">VisitorArrived</text>
</g>
<!-- WelcomeVisitorQuestStarted -->
<g id="node8" class="node">
<title>WelcomeVisitorQuestStarted</title>
<ellipse fill="none" stroke="black" cx="387.04" cy="-929" rx="145.67" ry="18"/>
<text text-anchor="middle" x="387.04" y="-925.3" font-family="Times,serif" font-size="14.00">WelcomeVisitorQuestStarted</text>
</g>
<!-- FirstVisitorWelcomed -->
<g id="node9" class="node">
<title>FirstVisitorWelcomed</title>
<ellipse fill="none" stroke="black" cx="387.04" cy="-829" rx="111.28" ry="18"/>
<text text-anchor="middle" x="387.04" y="-825.3" font-family="Times,serif" font-size="14.00">FirstVisitorWelcomed</text>
</g>
<!-- PickingPrimaryCivBonus -->
<g id="node10" class="node">
<title>PickingPrimaryCivBonus</title>
<ellipse fill="none" stroke="black" cx="387.04" cy="-742" rx="126.18" ry="18"/>
<text text-anchor="middle" x="387.04" y="-738.3" font-family="Times,serif" font-size="14.00">PickingPrimaryCivBonus</text>
</g>
<!-- SolvingPrimaryCivQuestPartA -->
<g id="node11" class="node">
<title>SolvingPrimaryCivQuestPartA</title>
<ellipse fill="none" stroke="black" cx="387.04" cy="-628" rx="151.37" ry="18"/>
<text text-anchor="middle" x="387.04" y="-624.3" font-family="Times,serif" font-size="14.00">SolvingPrimaryCivQuestPartA</text>
</g>
<!-- SolvingPrimaryCivQuestPartB -->
<g id="node12" class="node">
<title>SolvingPrimaryCivQuestPartB</title>
<ellipse fill="none" stroke="black" cx="387.04" cy="-427" rx="151.37" ry="18"/>
<text text-anchor="middle" x="387.04" y="-423.3" font-family="Times,serif" font-size="14.00">SolvingPrimaryCivQuestPartB</text>
</g>
<!-- UnlockingInvitationPathA -->
<g id="node13" class="node">
<title>UnlockingInvitationPathA</title>
<ellipse fill="none" stroke="black" cx="737.04" cy="-541" rx="129.98" ry="18"/>
<text text-anchor="middle" x="737.04" y="-537.3" font-family="Times,serif" font-size="14.00">UnlockingInvitationPathA</text>
</g>
<!-- UnlockingInvitationPathB -->
<g id="node14" class="node">
<title>UnlockingInvitationPathB</title>
<ellipse fill="none" stroke="black" cx="532.04" cy="-118" rx="129.98" ry="18"/>
<text text-anchor="middle" x="532.04" y="-114.3" font-family="Times,serif" font-size="14.00">UnlockingInvitationPathB</text>
</g>
<!-- DialogueBalanceA -->
<g id="node15" class="node">
<title>DialogueBalanceA</title>
<ellipse fill="none" stroke="black" cx="181.04" cy="-340" rx="94.78" ry="18"/>
<text text-anchor="middle" x="181.04" y="-336.3" font-family="Times,serif" font-size="14.00">DialogueBalanceA</text>
</g>
<!-- DialogueBalanceB -->
<g id="node16" class="node">
<title>DialogueBalanceB</title>
<ellipse fill="none" stroke="black" cx="525.04" cy="-340" rx="94.78" ry="18"/>
<text text-anchor="middle" x="525.04" y="-336.3" font-family="Times,serif" font-size="14.00">DialogueBalanceB</text>
</g>
<!-- SolvingSecondaryQuestA -->
<g id="node17" class="node">
<title>SolvingSecondaryQuestA</title>
<ellipse fill="none" stroke="black" cx="128.04" cy="-172" rx="128.08" ry="18"/>
<text text-anchor="middle" x="128.04" y="-168.3" font-family="Times,serif" font-size="14.00">SolvingSecondaryQuestA</text>
</g>
<!-- SolvingSecondaryQuestB -->
<g id="node18" class="node">
<title>SolvingSecondaryQuestB</title>
<ellipse fill="none" stroke="black" cx="530.04" cy="-226" rx="128.08" ry="18"/>
<text text-anchor="middle" x="530.04" y="-222.3" font-family="Times,serif" font-size="14.00">SolvingSecondaryQuestB</text>
</g>
<!-- AllDone -->
<g id="node19" class="node">
<title>AllDone</title>
<ellipse fill="none" stroke="black" cx="135.04" cy="-18" rx="46.59" ry="18"/>
<text text-anchor="middle" x="135.04" y="-14.3" font-family="Times,serif" font-size="14.00">AllDone</text>
</g>
</g>
</svg>
