<?xml version="1.0" encoding="UTF-8" standalone="no"?>
<!DOCTYPE svg PUBLIC "-//W3C//DTD SVG 1.1//EN"
 "http://www.w3.org/Graphics/SVG/1.1/DTD/svg11.dtd">
<!-- Generated by graphviz version 2.43.0 (0)
 -->
<!-- Title: MyGraph Pages: 1 -->
<svg width="3979pt" height="1805pt"
 viewBox="0.00 0.00 3978.79 1805.00" xmlns="http://www.w3.org/2000/svg" xmlns:xlink="http://www.w3.org/1999/xlink">
<g id="graph0" class="graph" transform="scale(1 1) rotate(0) translate(4 1801)">
<title>MyGraph</title>
<polygon fill="white" stroke="transparent" points="-4,4 -4,-1801 3974.79,-1801 3974.79,4 -4,4"/>
<!-- Initialized&#45;&gt;ServantAccepted -->
<g id="edge1" class="edge">
<title>Initialized&#45;&gt;ServantAccepted</title>
<path fill="none" stroke="black" d="M1207.79,-1760.8C1207.79,-1749.16 1207.79,-1733.55 1207.79,-1720.24"/>
<polygon fill="black" stroke="black" points="1211.29,-1720.18 1207.79,-1710.18 1204.29,-1720.18 1211.29,-1720.18"/>
<text text-anchor="start" x="1207.79" y="-1732.8" font-family="Times,serif" font-size="14.00"> </text>
<text text-anchor="start" x="1212.79" y="-1732.8" font-family="Times,serif" font-weight="bold" font-size="14.00">DialogueStoryTrigger</text>
<text text-anchor="start" x="1382.79" y="-1732.8" font-family="Times,serif" font-size="14.00"> </text>
<polyline fill="none" stroke="black" points="1387.79,-1728 1207.79,-1728 1207.79,-1735.19 "/>
</g>
<!-- ServantAccepted&#45;&gt;TempleBuilt -->
<g id="edge2" class="edge">
<title>ServantAccepted&#45;&gt;TempleBuilt</title>
<path fill="none" stroke="black" d="M1207.79,-1673.8C1207.79,-1662.16 1207.79,-1646.55 1207.79,-1633.24"/>
<polygon fill="black" stroke="black" points="1211.29,-1633.18 1207.79,-1623.18 1204.29,-1633.18 1211.29,-1633.18"/>
<text text-anchor="start" x="1207.79" y="-1645.8" font-family="Times,serif" font-size="14.00"> </text>
<text text-anchor="start" x="1212.79" y="-1645.8" font-family="Times,serif" font-weight="bold" font-size="14.00">BuildingBuilt(Temple)</text>
<text text-anchor="start" x="1391.79" y="-1645.8" font-family="Times,serif" font-size="14.00"> </text>
<polyline fill="none" stroke="black" points="1396.79,-1641 1207.79,-1641 1207.79,-1648.19 "/>
</g>
<!-- TempleBuilt&#45;&gt;BuildingWatergate -->
<g id="edge3" class="edge">
<title>TempleBuilt&#45;&gt;BuildingWatergate</title>
<path fill="none" stroke="black" d="M1207.79,-1586.8C1207.79,-1575.16 1207.79,-1559.55 1207.79,-1546.24"/>
<polygon fill="black" stroke="black" points="1211.29,-1546.18 1207.79,-1536.18 1204.29,-1546.18 1211.29,-1546.18"/>
<text text-anchor="start" x="1207.79" y="-1558.8" font-family="Times,serif" font-size="14.00"> </text>
<text text-anchor="start" x="1212.79" y="-1558.8" font-family="Times,serif" font-weight="bold" font-size="14.00">DialogueStoryTrigger</text>
<text text-anchor="start" x="1382.79" y="-1558.8" font-family="Times,serif" font-size="14.00"> </text>
<polyline fill="none" stroke="black" points="1387.79,-1554 1207.79,-1554 1207.79,-1561.19 "/>
</g>
<!-- BuildingWatergate&#45;&gt;WatergateBuilt -->
<g id="edge4" class="edge">
<title>BuildingWatergate&#45;&gt;WatergateBuilt</title>
<path fill="none" stroke="black" d="M1207.79,-1499.8C1207.79,-1488.16 1207.79,-1472.55 1207.79,-1459.24"/>
<polygon fill="black" stroke="black" points="1211.29,-1459.18 1207.79,-1449.18 1204.29,-1459.18 1211.29,-1459.18"/>
<text text-anchor="start" x="1207.79" y="-1471.8" font-family="Times,serif" font-size="14.00"> </text>
<text text-anchor="start" x="1212.79" y="-1471.8" font-family="Times,serif" font-weight="bold" font-size="14.00">BuildingBuilt(Watergate)</text>
<text text-anchor="start" x="1415.79" y="-1471.8" font-family="Times,serif" font-size="14.00"> </text>
<polyline fill="none" stroke="black" points="1420.79,-1467 1207.79,-1467 1207.79,-1474.19 "/>
</g>
<!-- WatergateBuilt&#45;&gt;VisitorQueued -->
<g id="edge5" class="edge">
<title>WatergateBuilt&#45;&gt;VisitorQueued</title>
<path fill="none" stroke="black" d="M1207.79,-1412.93C1207.79,-1398.12 1207.79,-1376.43 1207.79,-1359.23"/>
<polygon fill="black" stroke="black" points="1211.29,-1359.2 1207.79,-1349.2 1204.29,-1359.2 1211.29,-1359.2"/>
<text text-anchor="start" x="1671.79" y="-1384.8" font-family="Times,serif" font-size="14.00"> </text>
<text text-anchor="start" x="1676.79" y="-1384.8" font-family="Times,serif" font-weight="bold" font-size="14.00">DialogueStoryTrigger</text>
<text text-anchor="start" x="1846.79" y="-1384.8" font-family="Times,serif" font-size="14.00"> </text>
<text text-anchor="start" x="1207.79" y="-1370.8" font-family="Times,serif" font-size="14.00">SendHobo(StoryVisitDefinition { fixed_travel_time_s: None, visitors: [VisitorDefinition { typ: Yellow, level: HoboLevel(0), hp: Some(1), hurried: false }, ] }) </text>
<polyline fill="none" stroke="black" points="2315.79,-1367 1207.79,-1367 1207.79,-1380.77 "/>
</g>
<!-- VisitorQueued&#45;&gt;VisitorArrived -->
<g id="edge6" class="edge">
<title>VisitorQueued&#45;&gt;VisitorArrived</title>
<path fill="none" stroke="black" d="M1207.79,-1312.8C1207.79,-1301.16 1207.79,-1285.55 1207.79,-1272.24"/>
<polygon fill="black" stroke="black" points="1211.29,-1272.18 1207.79,-1262.18 1204.29,-1272.18 1211.29,-1272.18"/>
<text text-anchor="start" x="1207.79" y="-1284.8" font-family="Times,serif" font-size="14.00"> </text>
<text text-anchor="start" x="1212.79" y="-1284.8" font-family="Times,serif" font-weight="bold" font-size="14.00">LetVisitorIn</text>
<text text-anchor="start" x="1308.79" y="-1284.8" font-family="Times,serif" font-size="14.00"> </text>
<polyline fill="none" stroke="black" points="1313.79,-1280 1207.79,-1280 1207.79,-1287.19 "/>
</g>
<!-- VisitorArrived&#45;&gt;WelcomeVisitorQuestStarted -->
<g id="edge7" class="edge">
<title>VisitorArrived&#45;&gt;WelcomeVisitorQuestStarted</title>
<path fill="none" stroke="black" d="M1207.79,-1225.99C1207.79,-1208.06 1207.79,-1179.56 1207.79,-1158.44"/>
<polygon fill="black" stroke="black" points="1211.29,-1158.17 1207.79,-1148.17 1204.29,-1158.17 1211.29,-1158.17"/>
<text text-anchor="start" x="1207.79" y="-1197.8" font-family="Times,serif" font-size="14.00"> </text>
<text text-anchor="start" x="1212.79" y="-1197.8" font-family="Times,serif" font-weight="bold" font-size="14.00">DialogueStoryTrigger</text>
<text text-anchor="start" x="1382.79" y="-1197.8" font-family="Times,serif" font-size="14.00"> </text>
<text text-anchor="start" x="1210.79" y="-1183.8" font-family="Times,serif" font-size="14.00">StartQuest(HelloWorld) </text>
<text text-anchor="start" x="1247.29" y="-1169.8" font-family="Times,serif" font-size="14.00">AddMana(50) </text>
<polyline fill="none" stroke="black" points="1387.79,-1166 1207.79,-1166 1207.79,-1187.2 "/>
</g>
<!-- WelcomeVisitorQuestStarted&#45;&gt;FirstVisitorWelcomed -->
<g id="edge8" class="edge">
<title>WelcomeVisitorQuestStarted&#45;&gt;FirstVisitorWelcomed</title>
<path fill="none" stroke="black" d="M1207.79,-1111.93C1207.79,-1097.12 1207.79,-1075.43 1207.79,-1058.23"/>
<polygon fill="black" stroke="black" points="1211.29,-1058.2 1207.79,-1048.2 1204.29,-1058.2 1211.29,-1058.2"/>
<text text-anchor="start" x="1207.79" y="-1083.8" font-family="Times,serif" font-size="14.00"> </text>
<text text-anchor="start" x="1212.79" y="-1083.8" font-family="Times,serif" font-weight="bold" font-size="14.00">FinishedQuest(HelloWorld)</text>
<text text-anchor="start" x="1429.79" y="-1083.8" font-family="Times,serif" font-size="14.00"> </text>
<text text-anchor="start" x="1227.29" y="-1069.8" font-family="Times,serif" font-size="14.00">StartQuest(CreateForest) </text>
<polyline fill="none" stroke="black" points="1434.79,-1066 1207.79,-1066 1207.79,-1079.77 "/>
</g>
<!-- FirstVisitorWelcomed&#45;&gt;FirstVisitorWelcomed -->
<g id="edge9" class="edge">
<title>FirstVisitorWelcomed&#45;&gt;FirstVisitorWelcomed</title>
<path fill="none" stroke="transparent" d="M1317.08,-1033.31C1329.14,-1032.68 1336.93,-1031.58 1336.93,-1030 1336.93,-1028.94 1333.42,-1028.09 1327.45,-1027.46"/>
<polygon fill="transparent" stroke="transparent" points="1327.31,-1023.94 1317.08,-1026.69 1326.79,-1030.92 1327.31,-1023.94"/>
<text text-anchor="start" x="1340.43" y="-1033.8" font-family="Times,serif" font-size="14.00"> </text>
<text text-anchor="start" x="1345.43" y="-1033.8" font-family="Times,serif" font-weight="bold" font-size="14.00">FinishedQuest(CreateForest)</text>
<text text-anchor="start" x="1576.43" y="-1033.8" font-family="Times,serif" font-size="14.00"> </text>
<text text-anchor="start" x="1336.93" y="-1019.8" font-family="Times,serif" font-size="14.00">StartQuest(BuildBundlingStation) </text>
<polyline fill="none" stroke="black" points="1584.93,-1016 1336.93,-1016 1336.93,-1029.98 "/>
</g>
<!-- FirstVisitorWelcomed&#45;&gt;FirstVisitorWelcomed -->
<g id="edge10" class="edge">
<title>FirstVisitorWelcomed&#45;&gt;FirstVisitorWelcomed</title>
<path fill="none" stroke="transparent" d="M1311.26,-1036.62C1424.52,-1039.55 1584.93,-1037.34 1584.93,-1030 1584.93,-1022.87 1433.79,-1020.58 1321.33,-1023.13"/>
<polygon fill="transparent" stroke="transparent" points="1321.17,-1019.63 1311.26,-1023.38 1321.34,-1026.63 1321.17,-1019.63"/>
<text text-anchor="start" x="1584.93" y="-1033.8" font-family="Times,serif" font-size="14.00"> </text>
<text text-anchor="start" x="1589.93" y="-1033.8" font-family="Times,serif" font-weight="bold" font-size="14.00">FinishedQuest(BuildBundlingStation)</text>
<text text-anchor="start" x="1891.93" y="-1033.8" font-family="Times,serif" font-size="14.00"> </text>
<text text-anchor="start" x="1621.93" y="-1019.8" font-family="Times,serif" font-size="14.00">StartQuest(UseBundlingStation) </text>
<polyline fill="none" stroke="black" points="1896.93,-1016 1584.93,-1016 1584.93,-1029.98 "/>
</g>
<!-- FirstVisitorWelcomed&#45;&gt;PickingPrimaryCivBonus -->
<g id="edge11" class="edge">
<title>FirstVisitorWelcomed&#45;&gt;PickingPrimaryCivBonus</title>
<path fill="none" stroke="black" d="M1207.79,-1011.8C1207.79,-1000.16 1207.79,-984.55 1207.79,-971.24"/>
<polygon fill="black" stroke="black" points="1211.29,-971.18 1207.79,-961.18 1204.29,-971.18 1211.29,-971.18"/>
<text text-anchor="start" x="1207.79" y="-983.8" font-family="Times,serif" font-size="14.00"> </text>
<text text-anchor="start" x="1212.79" y="-983.8" font-family="Times,serif" font-weight="bold" font-size="14.00">FinishedQuest(UseBundlingStation)</text>
<text text-anchor="start" x="1501.79" y="-983.8" font-family="Times,serif" font-size="14.00"> </text>
<polyline fill="none" stroke="black" points="1506.79,-979 1207.79,-979 1207.79,-986.19 "/>
</g>
<!-- PickingPrimaryCivBonus&#45;&gt;SolvingPrimaryCivQuestPartA -->
<g id="edge12" class="edge">
<title>PickingPrimaryCivBonus&#45;&gt;SolvingPrimaryCivQuestPartA</title>
<path fill="none" stroke="black" d="M1081.84,-941.36C850.58,-939.57 379.52,-932.76 354.79,-907 320.32,-871.09 320.32,-830.91 354.79,-795 378.32,-770.49 805.77,-763.14 1046.44,-760.93"/>
<polygon fill="black" stroke="black" points="1046.72,-764.43 1056.69,-760.84 1046.66,-757.43 1046.72,-764.43"/>
<text text-anchor="start" x="994.79" y="-896.8" font-family="Times,serif" font-size="14.00"> </text>
<text text-anchor="start" x="999.79" y="-896.8" font-family="Times,serif" font-weight="bold" font-size="14.00">DialogueChoice(StoryChoice { chosen_option: 1 })</text>
<text text-anchor="start" x="1394.79" y="-896.8" font-family="Times,serif" font-size="14.00"> </text>
<text text-anchor="start" x="1118.79" y="-882.8" font-family="Times,serif" font-size="14.00">StartQuest(Socialize) </text>
<text text-anchor="start" x="643.29" y="-868.8" font-family="Times,serif" font-size="14.00">SendHobo(StoryVisitDefinition { fixed_travel_time_s: None, visitors: [VisitorDefinition { typ: Yellow, level: HoboLevel(0), hp: Some(1), hurried: false }, ] }) </text>
<text text-anchor="start" x="645.29" y="-854.8" font-family="Times,serif" font-size="14.00">SendHobo(StoryVisitDefinition { fixed_travel_time_s: None, visitors: [VisitorDefinition { typ: Yellow, level: HoboLevel(0), hp: Some(1), hurried: true }, ] }) </text>
<text text-anchor="start" x="354.79" y="-840.8" font-family="Times,serif" font-size="14.00">SendHobo(StoryVisitDefinition { fixed_travel_time_s: None, visitors: [VisitorDefinition { typ: Yellow, level: HoboLevel(0), hp: Some(1), hurried: true }, VisitorDefinition { typ: Yellow, level: HoboLevel(0), hp: Some(1), hurried: false }, ] }) </text>
<text text-anchor="start" x="354.79" y="-826.8" font-family="Times,serif" font-size="14.00">SendHobo(StoryVisitDefinition { fixed_travel_time_s: None, visitors: [VisitorDefinition { typ: Yellow, level: HoboLevel(0), hp: Some(1), hurried: true }, VisitorDefinition { typ: Yellow, level: HoboLevel(0), hp: Some(1), hurried: false }, ] }) </text>
<text text-anchor="start" x="354.79" y="-812.8" font-family="Times,serif" font-size="14.00">SendHobo(StoryVisitDefinition { fixed_travel_time_s: None, visitors: [VisitorDefinition { typ: Yellow, level: HoboLevel(0), hp: Some(1), hurried: true }, VisitorDefinition { typ: Yellow, level: HoboLevel(0), hp: Some(1), hurried: false }, ] }) </text>
<text text-anchor="start" x="354.79" y="-798.8" font-family="Times,serif" font-size="14.00">SendHobo(StoryVisitDefinition { fixed_travel_time_s: None, visitors: [VisitorDefinition { typ: Yellow, level: HoboLevel(0), hp: Some(1), hurried: true }, VisitorDefinition { typ: Yellow, level: HoboLevel(0), hp: Some(1), hurried: false }, ] }) </text>
<polyline fill="none" stroke="black" points="2039.79,-795 354.79,-795 1081.84,-941.36 "/>
</g>
<!-- PickingPrimaryCivBonus&#45;&gt;SolvingPrimaryCivQuestPartA -->
<g id="edge13" class="edge">
<title>PickingPrimaryCivBonus&#45;&gt;SolvingPrimaryCivQuestPartA</title>
<path fill="none" stroke="black" d="M1333.29,-941.23C1559.78,-939.21 2015.78,-932.05 2039.79,-907 2074.24,-871.07 2074.24,-830.93 2039.79,-795 2016.97,-771.19 1603.83,-763.54 1368.5,-761.11"/>
<polygon fill="black" stroke="black" points="1368.51,-757.61 1358.47,-761.01 1368.44,-764.61 1368.51,-757.61"/>
<text text-anchor="start" x="2704.79" y="-882.8" font-family="Times,serif" font-size="14.00"> </text>
<text text-anchor="start" x="2709.79" y="-882.8" font-family="Times,serif" font-weight="bold" font-size="14.00">DialogueChoice(StoryChoice { chosen_option: 2 })</text>
<text text-anchor="start" x="3104.79" y="-882.8" font-family="Times,serif" font-size="14.00"> </text>
<text text-anchor="start" x="2824.29" y="-868.8" font-family="Times,serif" font-size="14.00">StartQuest(BuildNest) </text>
<text text-anchor="start" x="2811.79" y="-854.8" font-family="Times,serif" font-size="14.00">UnlockPerk(NestBuilding) </text>
<text text-anchor="start" x="2353.29" y="-840.8" font-family="Times,serif" font-size="14.00">SendHobo(StoryVisitDefinition { fixed_travel_time_s: None, visitors: [VisitorDefinition { typ: Yellow, level: HoboLevel(0), hp: Some(1), hurried: false }, ] }) </text>
<text text-anchor="start" x="2355.29" y="-826.8" font-family="Times,serif" font-size="14.00">SendHobo(StoryVisitDefinition { fixed_travel_time_s: None, visitors: [VisitorDefinition { typ: Yellow, level: HoboLevel(0), hp: Some(1), hurried: true }, ] }) </text>
<text text-anchor="start" x="2064.79" y="-812.8" font-family="Times,serif" font-size="14.00">SendHobo(StoryVisitDefinition { fixed_travel_time_s: None, visitors: [VisitorDefinition { typ: Yellow, level: HoboLevel(0), hp: Some(1), hurried: true }, VisitorDefinition { typ: Yellow, level: HoboLevel(0), hp: Some(1), hurried: false }, ] }) </text>
<polyline fill="none" stroke="black" points="3749.79,-809 2064.79,-809 2065.63,-851 "/>
</g>
<!-- SolvingPrimaryCivQuestPartA&#45;&gt;SolvingPrimaryCivQuestPartB -->
<g id="edge15" class="edge">
<title>SolvingPrimaryCivQuestPartA&#45;&gt;SolvingPrimaryCivQuestPartB</title>
<path fill="none" stroke="black" d="M1205.55,-740.99C1203.86,-727.26 1201.69,-707.42 1200.79,-690 1198.04,-636.33 1202.19,-573.56 1205.18,-538.43"/>
<polygon fill="black" stroke="black" points="1208.7,-538.31 1206.1,-528.04 1201.73,-537.69 1208.7,-538.31"/>
<text text-anchor="start" x="1934.29" y="-679.8" font-family="Times,serif" font-size="14.00"> </text>
<text text-anchor="start" x="1939.29" y="-679.8" font-family="Times,serif" font-weight="bold" font-size="14.00">FinishedQuest(BuildNest)</text>
<text text-anchor="start" x="2147.29" y="-679.8" font-family="Times,serif" font-size="14.00"> </text>
<text text-anchor="start" x="1939.29" y="-665.8" font-family="Times,serif" font-size="14.00">StartQuest(GrowPopulation) </text>
<text text-anchor="start" x="1200.79" y="-651.8" font-family="Times,serif" font-size="14.00">SendHobo(StoryVisitDefinition { fixed_travel_time_s: None, visitors: [VisitorDefinition { typ: Yellow, level: HoboLevel(0), hp: Some(1), hurried: true }, VisitorDefinition { typ: Yellow, level: HoboLevel(0), hp: Some(1), hurried: false }, ] }) </text>
<polyline fill="none" stroke="black" points="2885.79,-648 1200.79,-648 1205.55,-740.99 "/>
</g>
<!-- SolvingPrimaryCivQuestPartA&#45;&gt;UnlockingInvitationPathA -->
<g id="edge14" class="edge">
<title>SolvingPrimaryCivQuestPartA&#45;&gt;UnlockingInvitationPathA</title>
<path fill="none" stroke="black" d="M1358.36,-756.79C1651.84,-753.34 2320.73,-740.16 2880.79,-690 2897.39,-688.51 2915.01,-686.46 2932.02,-684.24"/>
<polygon fill="black" stroke="black" points="2932.5,-687.7 2941.95,-682.91 2931.57,-680.77 2932.5,-687.7"/>
<text text-anchor="start" x="2653.79" y="-712.8" font-family="Times,serif" font-size="14.00"> </text>
<text text-anchor="start" x="2658.79" y="-712.8" font-family="Times,serif" font-weight="bold" font-size="14.00">FinishedQuest(Socialize)</text>
<text text-anchor="start" x="2856.79" y="-712.8" font-family="Times,serif" font-size="14.00"> </text>
<polyline fill="none" stroke="black" points="2861.79,-708 2653.79,-708 2880.79,-690 "/>
</g>
<!-- SolvingPrimaryCivQuestPartB&#45;&gt;DialogueBalanceA -->
<g id="edge16" class="edge">
<title>SolvingPrimaryCivQuestPartB&#45;&gt;DialogueBalanceA</title>
<path fill="none" stroke="black" d="M1104.1,-496.79C938.93,-477.33 618.96,-439.64 464.06,-421.4"/>
<polygon fill="black" stroke="black" points="464.44,-417.92 454.1,-420.22 463.62,-424.87 464.44,-417.92"/>
<text text-anchor="start" x="890.79" y="-457.3" font-family="Times,serif" font-size="14.00"> </text>
<text text-anchor="start" x="895.79" y="-457.3" font-family="Times,serif" font-weight="bold" font-size="14.00">FinishedQuest(SocializeMore)</text>
<text text-anchor="start" x="1134.79" y="-457.3" font-family="Times,serif" font-size="14.00"> </text>
<polyline fill="none" stroke="black" points="1139.79,-452.5 890.79,-452.5 1012.32,-485.98 "/>
</g>
<!-- SolvingPrimaryCivQuestPartB&#45;&gt;DialogueBalanceB -->
<g id="edge17" class="edge">
<title>SolvingPrimaryCivQuestPartB&#45;&gt;DialogueBalanceB</title>
<path fill="none" stroke="black" d="M1270.26,-493.58C1343.71,-475.45 1465.06,-445.49 1539.65,-427.08"/>
<polygon fill="black" stroke="black" points="1540.54,-430.47 1549.41,-424.67 1538.86,-423.67 1540.54,-430.47"/>
<text text-anchor="start" x="2141.29" y="-463.8" font-family="Times,serif" font-size="14.00"> </text>
<text text-anchor="start" x="2146.29" y="-463.8" font-family="Times,serif" font-weight="bold" font-size="14.00">FinishedQuest(GrowPopulation)</text>
<text text-anchor="start" x="2401.29" y="-463.8" font-family="Times,serif" font-size="14.00"> </text>
<text text-anchor="start" x="1452.79" y="-449.8" font-family="Times,serif" font-size="14.00">SendHobo(StoryVisitDefinition { fixed_travel_time_s: None, visitors: [VisitorDefinition { typ: Yellow, level: HoboLevel(0), hp: None, hurried: true }, VisitorDefinition { typ: Yellow, level: HoboLevel(0), hp: None, hurried: false }, ] }) </text>
<polyline fill="none" stroke="black" points="3094.79,-446 1452.79,-446 1539.65,-427.08 "/>
</g>
<!-- UnlockingInvitationPathA&#45;&gt;SolvingPrimaryCivQuestPartB -->
<g id="edge18" class="edge">
<title>UnlockingInvitationPathA&#45;&gt;SolvingPrimaryCivQuestPartB</title>
<path fill="none" stroke="black" d="M2942.34,-654.99C2922.25,-652.25 2900.79,-649.69 2880.79,-648 2617.16,-625.77 2549.71,-648.53 2285.79,-630 1927.81,-604.87 1505.36,-551.2 1312.85,-525.41"/>
<polygon fill="black" stroke="black" points="1313.11,-521.92 1302.74,-524.06 1312.18,-528.86 1313.11,-521.92"/>
<text text-anchor="start" x="3038.29" y="-619.8" font-family="Times,serif" font-size="14.00"> </text>
<text text-anchor="start" x="3043.29" y="-619.8" font-family="Times,serif" font-weight="bold" font-size="14.00">DialogueStoryTrigger</text>
<text text-anchor="start" x="3213.29" y="-619.8" font-family="Times,serif" font-size="14.00"> </text>
<text text-anchor="start" x="3030.79" y="-605.8" font-family="Times,serif" font-size="14.00">StartQuest(SocializeMore) </text>
<text text-anchor="start" x="3045.29" y="-591.8" font-family="Times,serif" font-size="14.00">UnlockPerk(Invitation) </text>
<text text-anchor="start" x="2307.29" y="-577.8" font-family="Times,serif" font-size="14.00">SendHobo(StoryVisitDefinition { fixed_travel_time_s: None, visitors: [VisitorDefinition { typ: Yellow, level: HoboLevel(0), hp: None, hurried: true }, VisitorDefinition { typ: Yellow, level: HoboLevel(0), hp: None, hurried: false }, ] }) </text>
<text text-anchor="start" x="2285.79" y="-563.8" font-family="Times,serif" font-size="14.00">SendHobo(StoryVisitDefinition { fixed_travel_time_s: None, visitors: [VisitorDefinition { typ: Yellow, level: HoboLevel(0), hp: Some(1), hurried: true }, VisitorDefinition { typ: Yellow, level: HoboLevel(0), hp: Some(1), hurried: false }, ] }) </text>
<text text-anchor="start" x="2285.79" y="-549.8" font-family="Times,serif" font-size="14.00">SendHobo(StoryVisitDefinition { fixed_travel_time_s: None, visitors: [VisitorDefinition { typ: Yellow, level: HoboLevel(0), hp: Some(1), hurried: true }, VisitorDefinition { typ: Yellow, level: HoboLevel(0), hp: Some(1), hurried: false }, ] }) </text>
<polyline fill="none" stroke="black" points="3970.79,-546 2285.79,-546 2942.34,-654.99 "/>
</g>
<!-- UnlockingInvitationPathB&#45;&gt;AllDone -->
<g id="edge19" class="edge">
<title>UnlockingInvitationPathB&#45;&gt;AllDone</title>
<path fill="none" stroke="black" d="M1459.19,-103.43C1344.77,-83.15 1132.25,-45.49 1034.47,-28.16"/>
<polygon fill="black" stroke="black" points="1034.98,-24.69 1024.53,-26.4 1033.76,-31.59 1034.98,-24.69"/>
<text text-anchor="start" x="1324.79" y="-71.8" font-family="Times,serif" font-size="14.00"> </text>
<text text-anchor="start" x="1329.79" y="-71.8" font-family="Times,serif" font-weight="bold" font-size="14.00">DialogueStoryTrigger</text>
<text text-anchor="start" x="1499.79" y="-71.8" font-family="Times,serif" font-size="14.00"> </text>
<text text-anchor="start" x="1331.79" y="-57.8" font-family="Times,serif" font-size="14.00">UnlockPerk(Invitation) </text>
<polyline fill="none" stroke="black" points="1504.79,-54 1324.79,-54 1412.2,-95.1 "/>
</g>
<!-- DialogueBalanceA&#45;&gt;SolvingSecondaryQuestA -->
<g id="edge20" class="edge">
<title>DialogueBalanceA&#45;&gt;SolvingSecondaryQuestA</title>
<path fill="none" stroke="black" d="M282.91,-406.07C184.8,-401.99 41.87,-392.87 24.79,-374 -8.62,-337.1 -7.85,-299.58 24.79,-262 57.54,-224.29 358.87,-195.39 532.29,-181.71"/>
<polygon fill="black" stroke="black" points="532.81,-185.18 542.5,-180.91 532.26,-178.2 532.81,-185.18"/>
<text text-anchor="start" x="755.79" y="-335.8" font-family="Times,serif" font-size="14.00"> </text>
<text text-anchor="start" x="760.79" y="-335.8" font-family="Times,serif" font-weight="bold" font-size="14.00">DialogueStoryTrigger</text>
<text text-anchor="start" x="930.79" y="-335.8" font-family="Times,serif" font-size="14.00"> </text>
<text text-anchor="start" x="741.79" y="-321.8" font-family="Times,serif" font-size="14.00">StartQuest(GrowPopulation) </text>
<text text-anchor="start" x="750.29" y="-307.8" font-family="Times,serif" font-size="14.00">UnlockPerk(NestBuilding) </text>
<text text-anchor="start" x="24.79" y="-293.8" font-family="Times,serif" font-size="14.00">SendHobo(StoryVisitDefinition { fixed_travel_time_s: None, visitors: [VisitorDefinition { typ: Yellow, level: HoboLevel(0), hp: None, hurried: true }, VisitorDefinition { typ: Yellow, level: HoboLevel(0), hp: None, hurried: false }, ] }) </text>
<polyline fill="none" stroke="black" points="1666.79,-290 24.79,-290 532.29,-181.71 "/>
</g>
<!-- DialogueBalanceB&#45;&gt;SolvingSecondaryQuestB -->
<g id="edge21" class="edge">
<title>DialogueBalanceB&#45;&gt;SolvingSecondaryQuestB</title>
<path fill="none" stroke="black" d="M1649.26,-393.95C1657.83,-388.96 1665.71,-382.45 1670.79,-374 1696.45,-331.35 1682.5,-310.38 1670.79,-262 1670.1,-259.14 1669.13,-256.24 1667.99,-253.41"/>
<polygon fill="black" stroke="black" points="1671.07,-251.74 1663.67,-244.17 1664.73,-254.71 1671.07,-251.74"/>
<text text-anchor="start" x="2437.29" y="-363.8" font-family="Times,serif" font-size="14.00"> </text>
<text text-anchor="start" x="2442.29" y="-363.8" font-family="Times,serif" font-weight="bold" font-size="14.00">DialogueStoryTrigger</text>
<text text-anchor="start" x="2612.29" y="-363.8" font-family="Times,serif" font-size="14.00"> </text>
<text text-anchor="start" x="2429.79" y="-349.8" font-family="Times,serif" font-size="14.00">StartQuest(SocializeMore) </text>
<text text-anchor="start" x="1684.79" y="-335.8" font-family="Times,serif" font-size="14.00">SendHobo(StoryVisitDefinition { fixed_travel_time_s: None, visitors: [VisitorDefinition { typ: Yellow, level: HoboLevel(0), hp: Some(1), hurried: true }, VisitorDefinition { typ: Yellow, level: HoboLevel(0), hp: Some(1), hurried: false }, ] }) </text>
<text text-anchor="start" x="1706.29" y="-321.8" font-family="Times,serif" font-size="14.00">SendHobo(StoryVisitDefinition { fixed_travel_time_s: None, visitors: [VisitorDefinition { typ: Yellow, level: HoboLevel(0), hp: None, hurried: true }, VisitorDefinition { typ: Yellow, level: HoboLevel(0), hp: None, hurried: false }, ] }) </text>
<text text-anchor="start" x="1684.79" y="-307.8" font-family="Times,serif" font-size="14.00">SendHobo(StoryVisitDefinition { fixed_travel_time_s: None, visitors: [VisitorDefinition { typ: Yellow, level: HoboLevel(0), hp: Some(1), hurried: true }, VisitorDefinition { typ: Yellow, level: HoboLevel(0), hp: Some(1), hurried: false }, ] }) </text>
<text text-anchor="start" x="1706.29" y="-293.8" font-family="Times,serif" font-size="14.00">SendHobo(StoryVisitDefinition { fixed_travel_time_s: None, visitors: [VisitorDefinition { typ: Yellow, level: HoboLevel(0), hp: None, hurried: true }, VisitorDefinition { typ: Yellow, level: HoboLevel(0), hp: None, hurried: false }, ] }) </text>
<text text-anchor="start" x="1684.79" y="-279.8" font-family="Times,serif" font-size="14.00">SendHobo(StoryVisitDefinition { fixed_travel_time_s: None, visitors: [VisitorDefinition { typ: Yellow, level: HoboLevel(0), hp: Some(1), hurried: true }, VisitorDefinition { typ: Yellow, level: HoboLevel(0), hp: Some(1), hurried: false }, ] }) </text>
<text text-anchor="start" x="1706.29" y="-265.8" font-family="Times,serif" font-size="14.00">SendHobo(StoryVisitDefinition { fixed_travel_time_s: None, visitors: [VisitorDefinition { typ: Yellow, level: HoboLevel(0), hp: None, hurried: true }, VisitorDefinition { typ: Yellow, level: HoboLevel(0), hp: None, hurried: false }, ] }) </text>
<polyline fill="none" stroke="black" points="3369.79,-262 1684.79,-262 1684.81,-320.15 "/>
</g>
<!-- SolvingSecondaryQuestA&#45;&gt;AllDone -->
<g id="edge22" class="edge">
<title>SolvingSecondaryQuestA&#45;&gt;AllDone</title>
<path fill="none" stroke="black" d="M689.31,-154.59C751.74,-125.75 880.58,-66.22 944.75,-36.58"/>
<polygon fill="black" stroke="black" points="946.49,-39.63 954.1,-32.25 943.56,-33.27 946.49,-39.63"/>
<text text-anchor="start" x="804.79" y="-115.3" font-family="Times,serif" font-size="14.00"> </text>
<text text-anchor="start" x="809.79" y="-115.3" font-family="Times,serif" font-weight="bold" font-size="14.00">FinishedQuest(GrowPopulation)</text>
<text text-anchor="start" x="1064.79" y="-115.3" font-family="Times,serif" font-size="14.00"> </text>
<polyline fill="none" stroke="black" points="1069.79,-110.5 804.79,-110.5 907.56,-53.76 "/>
</g>
<!-- SolvingSecondaryQuestB&#45;&gt;UnlockingInvitationPathB -->
<g id="edge23" class="edge">
<title>SolvingSecondaryQuestB&#45;&gt;UnlockingInvitationPathB</title>
<path fill="none" stroke="black" d="M1633.99,-207.97C1614.55,-190.35 1584.02,-162.7 1562.17,-142.89"/>
<polygon fill="black" stroke="black" points="1564.3,-140.11 1554.54,-135.99 1559.6,-145.3 1564.3,-140.11"/>
<text text-anchor="start" x="1610.79" y="-169.3" font-family="Times,serif" font-size="14.00"> </text>
<text text-anchor="start" x="1615.79" y="-169.3" font-family="Times,serif" font-weight="bold" font-size="14.00">FinishedQuest(SocializeMore)</text>
<text text-anchor="start" x="1854.79" y="-169.3" font-family="Times,serif" font-size="14.00"> </text>
<polyline fill="none" stroke="black" points="1859.79,-164.5 1610.79,-164.5 1633.99,-207.97 "/>
</g>
<!-- Initialized -->
<g id="node1" class="node">
<title>Initialized</title>
<ellipse fill="none" stroke="black" cx="1207.79" cy="-1779" rx="57.39" ry="18"/>
<text text-anchor="middle" x="1207.79" y="-1775.3" font-family="Times,serif" font-size="14.00">Initialized</text>
</g>
<!-- ServantAccepted -->
<g id="node2" class="node">
<title>ServantAccepted</title>
<ellipse fill="none" stroke="black" cx="1207.79" cy="-1692" rx="89.88" ry="18"/>
<text text-anchor="middle" x="1207.79" y="-1688.3" font-family="Times,serif" font-size="14.00">ServantAccepted</text>
</g>
<!-- TempleBuilt -->
<g id="node3" class="node">
<title>TempleBuilt</title>
<ellipse fill="none" stroke="black" cx="1207.79" cy="-1605" rx="66.89" ry="18"/>
<text text-anchor="middle" x="1207.79" y="-1601.3" font-family="Times,serif" font-size="14.00">TempleBuilt</text>
</g>
<!-- BuildingWatergate -->
<g id="node4" class="node">
<title>BuildingWatergate</title>
<ellipse fill="none" stroke="black" cx="1207.79" cy="-1518" rx="98.28" ry="18"/>
<text text-anchor="middle" x="1207.79" y="-1514.3" font-family="Times,serif" font-size="14.00">BuildingWatergate</text>
</g>
<!-- WatergateBuilt -->
<g id="node5" class="node">
<title>WatergateBuilt</title>
<ellipse fill="none" stroke="black" cx="1207.79" cy="-1431" rx="81.49" ry="18"/>
<text text-anchor="middle" x="1207.79" y="-1427.3" font-family="Times,serif" font-size="14.00">WatergateBuilt</text>
</g>
<!-- VisitorQueued -->
<g id="node6" class="node">
<title>VisitorQueued</title>
<ellipse fill="none" stroke="black" cx="1207.79" cy="-1331" rx="77.19" ry="18"/>
<text text-anchor="middle" x="1207.79" y="-1327.3" font-family="Times,serif" font-size="14.00">VisitorQueued</text>
</g>
<!-- VisitorArrived -->
<g id="node7" class="node">
<title>VisitorArrived</title>
<ellipse fill="none" stroke="black" cx="1207.79" cy="-1244" rx="76.09" ry="18"/>
<text text-anchor="middle" x="1207.79" y="-1240.3" font-family="Times,serif" font-size="14.00">VisitorArrived</text>
</g>
<!-- WelcomeVisitorQuestStarted -->
<g id="node8" class="node">
<title>WelcomeVisitorQuestStarted</title>
<ellipse fill="none" stroke="black" cx="1207.79" cy="-1130" rx="145.67" ry="18"/>
<text text-anchor="middle" x="1207.79" y="-1126.3" font-family="Times,serif" font-size="14.00">WelcomeVisitorQuestStarted</text>
</g>
<!-- FirstVisitorWelcomed -->
<g id="node9" class="node">
<title>FirstVisitorWelcomed</title>
<ellipse fill="none" stroke="black" cx="1207.79" cy="-1030" rx="111.28" ry="18"/>
<text text-anchor="middle" x="1207.79" y="-1026.3" font-family="Times,serif" font-size="14.00">FirstVisitorWelcomed</text>
</g>
<!-- PickingPrimaryCivBonus -->
<g id="node10" class="node">
<title>PickingPrimaryCivBonus</title>
<ellipse fill="none" stroke="black" cx="1207.79" cy="-943" rx="126.18" ry="18"/>
<text text-anchor="middle" x="1207.79" y="-939.3" font-family="Times,serif" font-size="14.00">PickingPrimaryCivBonus</text>
</g>
<!-- SolvingPrimaryCivQuestPartA -->
<g id="node11" class="node">
<title>SolvingPrimaryCivQuestPartA</title>
<ellipse fill="none" stroke="black" cx="1207.79" cy="-759" rx="151.37" ry="18"/>
<text text-anchor="middle" x="1207.79" y="-755.3" font-family="Times,serif" font-size="14.00">SolvingPrimaryCivQuestPartA</text>
</g>
<!-- SolvingPrimaryCivQuestPartB -->
<g id="node12" class="node">
<title>SolvingPrimaryCivQuestPartB</title>
<ellipse fill="none" stroke="black" cx="1207.79" cy="-510" rx="151.37" ry="18"/>
<text text-anchor="middle" x="1207.79" y="-506.3" font-family="Times,serif" font-size="14.00">SolvingPrimaryCivQuestPartB</text>
</g>
<!-- UnlockingInvitationPathA -->
<g id="node13" class="node">
<title>UnlockingInvitationPathA</title>
<ellipse fill="none" stroke="black" cx="3024.79" cy="-669" rx="129.98" ry="18"/>
<text text-anchor="middle" x="3024.79" y="-665.3" font-family="Times,serif" font-size="14.00">UnlockingInvitationPathA</text>
</g>
<!-- UnlockingInvitationPathB -->
<g id="node14" class="node">
<title>UnlockingInvitationPathB</title>
<ellipse fill="none" stroke="black" cx="1535.79" cy="-118" rx="129.98" ry="18"/>
<text text-anchor="middle" x="1535.79" y="-114.3" font-family="Times,serif" font-size="14.00">UnlockingInvitationPathB</text>
</g>
<!-- DialogueBalanceA -->
<g id="node15" class="node">
<title>DialogueBalanceA</title>
<ellipse fill="none" stroke="black" cx="375.79" cy="-410" rx="94.78" ry="18"/>
<text text-anchor="middle" x="375.79" y="-406.3" font-family="Times,serif" font-size="14.00">DialogueBalanceA</text>
</g>
<!-- DialogueBalanceB -->
<g id="node16" class="node">
<title>DialogueBalanceB</title>
<ellipse fill="none" stroke="black" cx="1604.79" cy="-410" rx="94.78" ry="18"/>
<text text-anchor="middle" x="1604.79" y="-406.3" font-family="Times,serif" font-size="14.00">DialogueBalanceB</text>
</g>
<!-- SolvingSecondaryQuestA -->
<g id="node17" class="node">
<title>SolvingSecondaryQuestA</title>
<ellipse fill="none" stroke="black" cx="653.79" cy="-172" rx="128.08" ry="18"/>
<text text-anchor="middle" x="653.79" y="-168.3" font-family="Times,serif" font-size="14.00">SolvingSecondaryQuestA</text>
</g>
<!-- SolvingSecondaryQuestB -->
<g id="node18" class="node">
<title>SolvingSecondaryQuestB</title>
<ellipse fill="none" stroke="black" cx="1652.79" cy="-226" rx="128.08" ry="18"/>
<text text-anchor="middle" x="1652.79" y="-222.3" font-family="Times,serif" font-size="14.00">SolvingSecondaryQuestB</text>
</g>
<!-- AllDone -->
<g id="node19" class="node">
<title>AllDone</title>
<ellipse fill="none" stroke="black" cx="982.79" cy="-18" rx="46.59" ry="18"/>
<text text-anchor="middle" x="982.79" y="-14.3" font-family="Times,serif" font-size="14.00">AllDone</text>
</g>
</g>
</svg>
