<?xml version="1.0" encoding="UTF-8" standalone="no"?>
<!DOCTYPE svg PUBLIC "-//W3C//DTD SVG 1.1//EN"
 "http://www.w3.org/Graphics/SVG/1.1/DTD/svg11.dtd">
<!-- Generated by graphviz version 2.43.0 (0)
 -->
<!-- Title: MyGraph Pages: 1 -->
<svg width="3018pt" height="1805pt"
 viewBox="0.00 0.00 3018.04 1805.00" xmlns="http://www.w3.org/2000/svg" xmlns:xlink="http://www.w3.org/1999/xlink">
<g id="graph0" class="graph" transform="scale(1 1) rotate(0) translate(4 1801)">
<title>MyGraph</title>
<polygon fill="white" stroke="transparent" points="-4,4 -4,-1801 3014.04,-1801 3014.04,4 -4,4"/>
<!-- Initialized&#45;&gt;ServantAccepted -->
<g id="edge1" class="edge">
<title>Initialized&#45;&gt;ServantAccepted</title>
<path fill="none" stroke="black" d="M887.04,-1760.8C887.04,-1749.16 887.04,-1733.55 887.04,-1720.24"/>
<polygon fill="black" stroke="black" points="890.54,-1720.18 887.04,-1710.18 883.54,-1720.18 890.54,-1720.18"/>
<text text-anchor="start" x="887.04" y="-1732.8" font-family="Times,serif" font-size="14.00"> </text>
<text text-anchor="start" x="892.04" y="-1732.8" font-family="Times,serif" font-weight="bold" font-size="14.00">DialogueStoryTrigger</text>
<text text-anchor="start" x="1062.04" y="-1732.8" font-family="Times,serif" font-size="14.00"> </text>
<polyline fill="none" stroke="black" points="1067.04,-1728 887.04,-1728 887.04,-1735.19 "/>
</g>
<!-- ServantAccepted&#45;&gt;TempleBuilt -->
<g id="edge2" class="edge">
<title>ServantAccepted&#45;&gt;TempleBuilt</title>
<path fill="none" stroke="black" d="M887.04,-1673.8C887.04,-1662.16 887.04,-1646.55 887.04,-1633.24"/>
<polygon fill="black" stroke="black" points="890.54,-1633.18 887.04,-1623.18 883.54,-1633.18 890.54,-1633.18"/>
<text text-anchor="start" x="887.04" y="-1645.8" font-family="Times,serif" font-size="14.00"> </text>
<text text-anchor="start" x="892.04" y="-1645.8" font-family="Times,serif" font-weight="bold" font-size="14.00">BuildingBuilt(Temple)</text>
<text text-anchor="start" x="1071.04" y="-1645.8" font-family="Times,serif" font-size="14.00"> </text>
<polyline fill="none" stroke="black" points="1076.04,-1641 887.04,-1641 887.04,-1648.19 "/>
</g>
<!-- TempleBuilt&#45;&gt;BuildingWatergate -->
<g id="edge3" class="edge">
<title>TempleBuilt&#45;&gt;BuildingWatergate</title>
<path fill="none" stroke="black" d="M887.04,-1586.8C887.04,-1575.16 887.04,-1559.55 887.04,-1546.24"/>
<polygon fill="black" stroke="black" points="890.54,-1546.18 887.04,-1536.18 883.54,-1546.18 890.54,-1546.18"/>
<text text-anchor="start" x="887.04" y="-1558.8" font-family="Times,serif" font-size="14.00"> </text>
<text text-anchor="start" x="892.04" y="-1558.8" font-family="Times,serif" font-weight="bold" font-size="14.00">DialogueStoryTrigger</text>
<text text-anchor="start" x="1062.04" y="-1558.8" font-family="Times,serif" font-size="14.00"> </text>
<polyline fill="none" stroke="black" points="1067.04,-1554 887.04,-1554 887.04,-1561.19 "/>
</g>
<!-- BuildingWatergate&#45;&gt;WatergateBuilt -->
<g id="edge4" class="edge">
<title>BuildingWatergate&#45;&gt;WatergateBuilt</title>
<path fill="none" stroke="black" d="M887.04,-1499.8C887.04,-1488.16 887.04,-1472.55 887.04,-1459.24"/>
<polygon fill="black" stroke="black" points="890.54,-1459.18 887.04,-1449.18 883.54,-1459.18 890.54,-1459.18"/>
<text text-anchor="start" x="887.04" y="-1471.8" font-family="Times,serif" font-size="14.00"> </text>
<text text-anchor="start" x="892.04" y="-1471.8" font-family="Times,serif" font-weight="bold" font-size="14.00">BuildingBuilt(Watergate)</text>
<text text-anchor="start" x="1095.04" y="-1471.8" font-family="Times,serif" font-size="14.00"> </text>
<polyline fill="none" stroke="black" points="1100.04,-1467 887.04,-1467 887.04,-1474.19 "/>
</g>
<!-- WatergateBuilt&#45;&gt;VisitorQueued -->
<g id="edge5" class="edge">
<title>WatergateBuilt&#45;&gt;VisitorQueued</title>
<path fill="none" stroke="black" d="M887.04,-1412.93C887.04,-1398.12 887.04,-1376.43 887.04,-1359.23"/>
<polygon fill="black" stroke="black" points="890.54,-1359.2 887.04,-1349.2 883.54,-1359.2 890.54,-1359.2"/>
<text text-anchor="start" x="1137.54" y="-1384.8" font-family="Times,serif" font-size="14.00"> </text>
<text text-anchor="start" x="1142.54" y="-1384.8" font-family="Times,serif" font-weight="bold" font-size="14.00">DialogueStoryTrigger</text>
<text text-anchor="start" x="1312.54" y="-1384.8" font-family="Times,serif" font-size="14.00"> </text>
<text text-anchor="start" x="887.04" y="-1370.8" font-family="Times,serif" font-size="14.00">SendHobo([VisitorDefinition { typ: Yellow, level: HoboLevel(0), hp: Some(1), hurried: false }, ]) </text>
<polyline fill="none" stroke="black" points="1568.04,-1367 887.04,-1367 887.04,-1380.77 "/>
</g>
<!-- VisitorQueued&#45;&gt;VisitorArrived -->
<g id="edge6" class="edge">
<title>VisitorQueued&#45;&gt;VisitorArrived</title>
<path fill="none" stroke="black" d="M887.04,-1312.8C887.04,-1301.16 887.04,-1285.55 887.04,-1272.24"/>
<polygon fill="black" stroke="black" points="890.54,-1272.18 887.04,-1262.18 883.54,-1272.18 890.54,-1272.18"/>
<text text-anchor="start" x="887.04" y="-1284.8" font-family="Times,serif" font-size="14.00"> </text>
<text text-anchor="start" x="892.04" y="-1284.8" font-family="Times,serif" font-weight="bold" font-size="14.00">LetVisitorIn</text>
<text text-anchor="start" x="988.04" y="-1284.8" font-family="Times,serif" font-size="14.00"> </text>
<polyline fill="none" stroke="black" points="993.04,-1280 887.04,-1280 887.04,-1287.19 "/>
</g>
<!-- VisitorArrived&#45;&gt;WelcomeVisitorQuestStarted -->
<g id="edge7" class="edge">
<title>VisitorArrived&#45;&gt;WelcomeVisitorQuestStarted</title>
<path fill="none" stroke="black" d="M887.04,-1225.99C887.04,-1208.06 887.04,-1179.56 887.04,-1158.44"/>
<polygon fill="black" stroke="black" points="890.54,-1158.17 887.04,-1148.17 883.54,-1158.17 890.54,-1158.17"/>
<text text-anchor="start" x="887.04" y="-1197.8" font-family="Times,serif" font-size="14.00"> </text>
<text text-anchor="start" x="892.04" y="-1197.8" font-family="Times,serif" font-weight="bold" font-size="14.00">DialogueStoryTrigger</text>
<text text-anchor="start" x="1062.04" y="-1197.8" font-family="Times,serif" font-size="14.00"> </text>
<text text-anchor="start" x="890.04" y="-1183.8" font-family="Times,serif" font-size="14.00">StartQuest(HelloWorld) </text>
<text text-anchor="start" x="926.54" y="-1169.8" font-family="Times,serif" font-size="14.00">AddMana(50) </text>
<polyline fill="none" stroke="black" points="1067.04,-1166 887.04,-1166 887.04,-1187.2 "/>
</g>
<!-- WelcomeVisitorQuestStarted&#45;&gt;FirstVisitorWelcomed -->
<g id="edge8" class="edge">
<title>WelcomeVisitorQuestStarted&#45;&gt;FirstVisitorWelcomed</title>
<path fill="none" stroke="black" d="M887.04,-1111.93C887.04,-1097.12 887.04,-1075.43 887.04,-1058.23"/>
<polygon fill="black" stroke="black" points="890.54,-1058.2 887.04,-1048.2 883.54,-1058.2 890.54,-1058.2"/>
<text text-anchor="start" x="887.04" y="-1083.8" font-family="Times,serif" font-size="14.00"> </text>
<text text-anchor="start" x="892.04" y="-1083.8" font-family="Times,serif" font-weight="bold" font-size="14.00">FinishedQuest(HelloWorld)</text>
<text text-anchor="start" x="1109.04" y="-1083.8" font-family="Times,serif" font-size="14.00"> </text>
<text text-anchor="start" x="906.54" y="-1069.8" font-family="Times,serif" font-size="14.00">StartQuest(CreateForest) </text>
<polyline fill="none" stroke="black" points="1114.04,-1066 887.04,-1066 887.04,-1079.77 "/>
</g>
<!-- FirstVisitorWelcomed&#45;&gt;FirstVisitorWelcomed -->
<g id="edge9" class="edge">
<title>FirstVisitorWelcomed&#45;&gt;FirstVisitorWelcomed</title>
<path fill="none" stroke="transparent" d="M996.33,-1033.31C1008.39,-1032.68 1016.18,-1031.58 1016.18,-1030 1016.18,-1028.94 1012.67,-1028.09 1006.7,-1027.46"/>
<polygon fill="transparent" stroke="transparent" points="1006.56,-1023.94 996.33,-1026.69 1006.04,-1030.92 1006.56,-1023.94"/>
<text text-anchor="start" x="1019.68" y="-1033.8" font-family="Times,serif" font-size="14.00"> </text>
<text text-anchor="start" x="1024.68" y="-1033.8" font-family="Times,serif" font-weight="bold" font-size="14.00">FinishedQuest(CreateForest)</text>
<text text-anchor="start" x="1255.68" y="-1033.8" font-family="Times,serif" font-size="14.00"> </text>
<text text-anchor="start" x="1016.18" y="-1019.8" font-family="Times,serif" font-size="14.00">StartQuest(BuildBundlingStation) </text>
<polyline fill="none" stroke="black" points="1264.18,-1016 1016.18,-1016 1016.18,-1029.98 "/>
</g>
<!-- FirstVisitorWelcomed&#45;&gt;FirstVisitorWelcomed -->
<g id="edge10" class="edge">
<title>FirstVisitorWelcomed&#45;&gt;FirstVisitorWelcomed</title>
<path fill="none" stroke="transparent" d="M990.51,-1036.62C1103.78,-1039.55 1264.18,-1037.34 1264.18,-1030 1264.18,-1022.87 1113.04,-1020.58 1000.58,-1023.13"/>
<polygon fill="transparent" stroke="transparent" points="1000.43,-1019.63 990.51,-1023.38 1000.6,-1026.63 1000.43,-1019.63"/>
<text text-anchor="start" x="1264.18" y="-1033.8" font-family="Times,serif" font-size="14.00"> </text>
<text text-anchor="start" x="1269.18" y="-1033.8" font-family="Times,serif" font-weight="bold" font-size="14.00">FinishedQuest(BuildBundlingStation)</text>
<text text-anchor="start" x="1571.18" y="-1033.8" font-family="Times,serif" font-size="14.00"> </text>
<text text-anchor="start" x="1301.18" y="-1019.8" font-family="Times,serif" font-size="14.00">StartQuest(UseBundlingStation) </text>
<polyline fill="none" stroke="black" points="1576.18,-1016 1264.18,-1016 1264.18,-1029.98 "/>
</g>
<!-- FirstVisitorWelcomed&#45;&gt;PickingPrimaryCivBonus -->
<g id="edge11" class="edge">
<title>FirstVisitorWelcomed&#45;&gt;PickingPrimaryCivBonus</title>
<path fill="none" stroke="black" d="M887.04,-1011.8C887.04,-1000.16 887.04,-984.55 887.04,-971.24"/>
<polygon fill="black" stroke="black" points="890.54,-971.18 887.04,-961.18 883.54,-971.18 890.54,-971.18"/>
<text text-anchor="start" x="887.04" y="-983.8" font-family="Times,serif" font-size="14.00"> </text>
<text text-anchor="start" x="892.04" y="-983.8" font-family="Times,serif" font-weight="bold" font-size="14.00">FinishedQuest(UseBundlingStation)</text>
<text text-anchor="start" x="1181.04" y="-983.8" font-family="Times,serif" font-size="14.00"> </text>
<polyline fill="none" stroke="black" points="1186.04,-979 887.04,-979 887.04,-986.19 "/>
</g>
<!-- PickingPrimaryCivBonus&#45;&gt;SolvingPrimaryCivQuestPartA -->
<g id="edge12" class="edge">
<title>PickingPrimaryCivBonus&#45;&gt;SolvingPrimaryCivQuestPartA</title>
<path fill="none" stroke="black" d="M763.2,-939.54C582.36,-935.34 265.46,-925.39 248.04,-907 213.82,-870.85 213.82,-831.15 248.04,-795 264.4,-777.72 545.13,-767.89 729,-763.28"/>
<polygon fill="black" stroke="black" points="729.14,-766.78 739.05,-763.03 728.97,-759.78 729.14,-766.78"/>
<text text-anchor="start" x="674.54" y="-896.8" font-family="Times,serif" font-size="14.00"> </text>
<text text-anchor="start" x="679.54" y="-896.8" font-family="Times,serif" font-weight="bold" font-size="14.00">DialogueChoice(StoryChoice { chosen_option: 1 })</text>
<text text-anchor="start" x="1074.54" y="-896.8" font-family="Times,serif" font-size="14.00"> </text>
<text text-anchor="start" x="798.54" y="-882.8" font-family="Times,serif" font-size="14.00">StartQuest(Socialize) </text>
<text text-anchor="start" x="536.54" y="-868.8" font-family="Times,serif" font-size="14.00">SendHobo([VisitorDefinition { typ: Yellow, level: HoboLevel(0), hp: Some(1), hurried: false }, ]) </text>
<text text-anchor="start" x="538.54" y="-854.8" font-family="Times,serif" font-size="14.00">SendHobo([VisitorDefinition { typ: Yellow, level: HoboLevel(0), hp: Some(1), hurried: true }, ]) </text>
<text text-anchor="start" x="248.04" y="-840.8" font-family="Times,serif" font-size="14.00">SendHobo([VisitorDefinition { typ: Yellow, level: HoboLevel(0), hp: Some(1), hurried: true }, VisitorDefinition { typ: Yellow, level: HoboLevel(0), hp: Some(1), hurried: false }, ]) </text>
<text text-anchor="start" x="248.04" y="-826.8" font-family="Times,serif" font-size="14.00">SendHobo([VisitorDefinition { typ: Yellow, level: HoboLevel(0), hp: Some(1), hurried: true }, VisitorDefinition { typ: Yellow, level: HoboLevel(0), hp: Some(1), hurried: false }, ]) </text>
<text text-anchor="start" x="248.04" y="-812.8" font-family="Times,serif" font-size="14.00">SendHobo([VisitorDefinition { typ: Yellow, level: HoboLevel(0), hp: Some(1), hurried: true }, VisitorDefinition { typ: Yellow, level: HoboLevel(0), hp: Some(1), hurried: false }, ]) </text>
<text text-anchor="start" x="248.04" y="-798.8" font-family="Times,serif" font-size="14.00">SendHobo([VisitorDefinition { typ: Yellow, level: HoboLevel(0), hp: Some(1), hurried: true }, VisitorDefinition { typ: Yellow, level: HoboLevel(0), hp: Some(1), hurried: false }, ]) </text>
<polyline fill="none" stroke="black" points="1506.04,-795 248.04,-795 763.2,-939.54 "/>
</g>
<!-- PickingPrimaryCivBonus&#45;&gt;SolvingPrimaryCivQuestPartA -->
<g id="edge13" class="edge">
<title>PickingPrimaryCivBonus&#45;&gt;SolvingPrimaryCivQuestPartA</title>
<path fill="none" stroke="black" d="M1010.63,-939.31C1186.39,-934.88 1489.3,-924.71 1506.04,-907 1540.23,-870.82 1540.23,-831.18 1506.04,-795 1490.33,-778.37 1222.41,-768.39 1044.25,-763.56"/>
<polygon fill="black" stroke="black" points="1044.33,-760.07 1034.24,-763.3 1044.14,-767.06 1044.33,-760.07"/>
<text text-anchor="start" x="1957.54" y="-882.8" font-family="Times,serif" font-size="14.00"> </text>
<text text-anchor="start" x="1962.54" y="-882.8" font-family="Times,serif" font-weight="bold" font-size="14.00">DialogueChoice(StoryChoice { chosen_option: 2 })</text>
<text text-anchor="start" x="2357.54" y="-882.8" font-family="Times,serif" font-size="14.00"> </text>
<text text-anchor="start" x="2077.04" y="-868.8" font-family="Times,serif" font-size="14.00">StartQuest(BuildNest) </text>
<text text-anchor="start" x="2064.54" y="-854.8" font-family="Times,serif" font-size="14.00">UnlockPerk(NestBuilding) </text>
<text text-anchor="start" x="1819.54" y="-840.8" font-family="Times,serif" font-size="14.00">SendHobo([VisitorDefinition { typ: Yellow, level: HoboLevel(0), hp: Some(1), hurried: false }, ]) </text>
<text text-anchor="start" x="1821.54" y="-826.8" font-family="Times,serif" font-size="14.00">SendHobo([VisitorDefinition { typ: Yellow, level: HoboLevel(0), hp: Some(1), hurried: true }, ]) </text>
<text text-anchor="start" x="1531.04" y="-812.8" font-family="Times,serif" font-size="14.00">SendHobo([VisitorDefinition { typ: Yellow, level: HoboLevel(0), hp: Some(1), hurried: true }, VisitorDefinition { typ: Yellow, level: HoboLevel(0), hp: Some(1), hurried: false }, ]) </text>
<polyline fill="none" stroke="black" points="2789.04,-809 1531.04,-809 1531.69,-851 "/>
</g>
<!-- SolvingPrimaryCivQuestPartA&#45;&gt;SolvingPrimaryCivQuestPartB -->
<g id="edge15" class="edge">
<title>SolvingPrimaryCivQuestPartA&#45;&gt;SolvingPrimaryCivQuestPartB</title>
<path fill="none" stroke="black" d="M884.8,-740.99C883.11,-727.26 880.94,-707.42 880.04,-690 877.29,-636.33 881.44,-573.56 884.43,-538.43"/>
<polygon fill="black" stroke="black" points="887.96,-538.31 885.35,-528.04 880.98,-537.69 887.96,-538.31"/>
<text text-anchor="start" x="1400.04" y="-679.8" font-family="Times,serif" font-size="14.00"> </text>
<text text-anchor="start" x="1405.04" y="-679.8" font-family="Times,serif" font-weight="bold" font-size="14.00">FinishedQuest(BuildNest)</text>
<text text-anchor="start" x="1613.04" y="-679.8" font-family="Times,serif" font-size="14.00"> </text>
<text text-anchor="start" x="1405.04" y="-665.8" font-family="Times,serif" font-size="14.00">StartQuest(GrowPopulation) </text>
<text text-anchor="start" x="880.04" y="-651.8" font-family="Times,serif" font-size="14.00">SendHobo([VisitorDefinition { typ: Yellow, level: HoboLevel(0), hp: Some(1), hurried: true }, VisitorDefinition { typ: Yellow, level: HoboLevel(0), hp: Some(1), hurried: false }, ]) </text>
<polyline fill="none" stroke="black" points="2138.04,-648 880.04,-648 884.8,-740.95 "/>
</g>
<!-- SolvingPrimaryCivQuestPartA&#45;&gt;UnlockingInvitationPathA -->
<g id="edge14" class="edge">
<title>SolvingPrimaryCivQuestPartA&#45;&gt;UnlockingInvitationPathA</title>
<path fill="none" stroke="black" d="M1032.65,-754C1265.53,-746.71 1736,-728.34 2133.04,-690 2149.27,-688.43 2166.48,-686.38 2183.14,-684.19"/>
<polygon fill="black" stroke="black" points="2183.98,-687.61 2193.42,-682.82 2183.05,-680.68 2183.98,-687.61"/>
<text text-anchor="start" x="1895.04" y="-712.8" font-family="Times,serif" font-size="14.00"> </text>
<text text-anchor="start" x="1900.04" y="-712.8" font-family="Times,serif" font-weight="bold" font-size="14.00">FinishedQuest(Socialize)</text>
<text text-anchor="start" x="2098.04" y="-712.8" font-family="Times,serif" font-size="14.00"> </text>
<polyline fill="none" stroke="black" points="2103.04,-708 1895.04,-708 2133.04,-690 "/>
</g>
<!-- SolvingPrimaryCivQuestPartB&#45;&gt;DialogueBalanceA -->
<g id="edge16" class="edge">
<title>SolvingPrimaryCivQuestPartB&#45;&gt;DialogueBalanceA</title>
<path fill="none" stroke="black" d="M799.99,-495.22C679.79,-476.19 464.66,-442.13 348.21,-423.69"/>
<polygon fill="black" stroke="black" points="348.71,-420.23 338.28,-422.12 347.61,-427.14 348.71,-420.23"/>
<text text-anchor="start" x="652.04" y="-457.3" font-family="Times,serif" font-size="14.00"> </text>
<text text-anchor="start" x="657.04" y="-457.3" font-family="Times,serif" font-weight="bold" font-size="14.00">FinishedQuest(SocializeMore)</text>
<text text-anchor="start" x="896.04" y="-457.3" font-family="Times,serif" font-size="14.00"> </text>
<polyline fill="none" stroke="black" points="901.04,-452.5 652.04,-452.5 771.74,-490.75 "/>
</g>
<!-- SolvingPrimaryCivQuestPartB&#45;&gt;DialogueBalanceB -->
<g id="edge17" class="edge">
<title>SolvingPrimaryCivQuestPartB&#45;&gt;DialogueBalanceB</title>
<path fill="none" stroke="black" d="M940.68,-493.13C960.6,-487.19 983.37,-480.35 1004.04,-474 1052.75,-459.04 1107.98,-441.61 1148.04,-428.88"/>
<polygon fill="black" stroke="black" points="1149.16,-432.2 1157.63,-425.83 1147.04,-425.53 1149.16,-432.2"/>
<text text-anchor="start" x="1566.04" y="-463.8" font-family="Times,serif" font-size="14.00"> </text>
<text text-anchor="start" x="1571.04" y="-463.8" font-family="Times,serif" font-weight="bold" font-size="14.00">FinishedQuest(GrowPopulation)</text>
<text text-anchor="start" x="1826.04" y="-463.8" font-family="Times,serif" font-size="14.00"> </text>
<text text-anchor="start" x="1091.04" y="-449.8" font-family="Times,serif" font-size="14.00">SendHobo([VisitorDefinition { typ: Yellow, level: HoboLevel(0), hp: None, hurried: true }, VisitorDefinition { typ: Yellow, level: HoboLevel(0), hp: None, hurried: false }, ]) </text>
<polyline fill="none" stroke="black" points="2306.04,-446 1091.04,-446 1148.04,-428.88 "/>
</g>
<!-- UnlockingInvitationPathA&#45;&gt;SolvingPrimaryCivQuestPartB -->
<g id="edge18" class="edge">
<title>UnlockingInvitationPathA&#45;&gt;SolvingPrimaryCivQuestPartB</title>
<path fill="none" stroke="black" d="M2193.81,-655.13C2173.94,-652.42 2152.77,-649.83 2133.04,-648 1964.25,-632.32 1920.85,-645.57 1752.04,-630 1470.11,-604 1139.13,-552.6 980.74,-526.7"/>
<polygon fill="black" stroke="black" points="981,-523.19 970.56,-525.03 979.86,-530.1 981,-523.19"/>
<text text-anchor="start" x="2291.04" y="-619.8" font-family="Times,serif" font-size="14.00"> </text>
<text text-anchor="start" x="2296.04" y="-619.8" font-family="Times,serif" font-weight="bold" font-size="14.00">DialogueStoryTrigger</text>
<text text-anchor="start" x="2466.04" y="-619.8" font-family="Times,serif" font-size="14.00"> </text>
<text text-anchor="start" x="2283.54" y="-605.8" font-family="Times,serif" font-size="14.00">StartQuest(SocializeMore) </text>
<text text-anchor="start" x="2298.04" y="-591.8" font-family="Times,serif" font-size="14.00">UnlockPerk(Invitation) </text>
<text text-anchor="start" x="1773.54" y="-577.8" font-family="Times,serif" font-size="14.00">SendHobo([VisitorDefinition { typ: Yellow, level: HoboLevel(0), hp: None, hurried: true }, VisitorDefinition { typ: Yellow, level: HoboLevel(0), hp: None, hurried: false }, ]) </text>
<text text-anchor="start" x="1752.04" y="-563.8" font-family="Times,serif" font-size="14.00">SendHobo([VisitorDefinition { typ: Yellow, level: HoboLevel(0), hp: Some(1), hurried: true }, VisitorDefinition { typ: Yellow, level: HoboLevel(0), hp: Some(1), hurried: false }, ]) </text>
<text text-anchor="start" x="1752.04" y="-549.8" font-family="Times,serif" font-size="14.00">SendHobo([VisitorDefinition { typ: Yellow, level: HoboLevel(0), hp: Some(1), hurried: true }, VisitorDefinition { typ: Yellow, level: HoboLevel(0), hp: Some(1), hurried: false }, ]) </text>
<polyline fill="none" stroke="black" points="3010.04,-546 1752.04,-546 2193.81,-655.13 "/>
</g>
<!-- UnlockingInvitationPathB&#45;&gt;AllDone -->
<g id="edge19" class="edge">
<title>UnlockingInvitationPathB&#45;&gt;AllDone</title>
<path fill="none" stroke="black" d="M1089.4,-102.96C986.96,-82.88 801.14,-46.46 711.76,-28.94"/>
<polygon fill="black" stroke="black" points="712.35,-25.49 701.86,-27 711,-32.36 712.35,-25.49"/>
<text text-anchor="start" x="970.04" y="-71.8" font-family="Times,serif" font-size="14.00"> </text>
<text text-anchor="start" x="975.04" y="-71.8" font-family="Times,serif" font-weight="bold" font-size="14.00">DialogueStoryTrigger</text>
<text text-anchor="start" x="1145.04" y="-71.8" font-family="Times,serif" font-size="14.00"> </text>
<text text-anchor="start" x="977.04" y="-57.8" font-family="Times,serif" font-size="14.00">UnlockPerk(Invitation) </text>
<polyline fill="none" stroke="black" points="1150.04,-54 970.04,-54 1054.42,-96.1 "/>
</g>
<!-- DialogueBalanceA&#45;&gt;SolvingSecondaryQuestA -->
<g id="edge20" class="edge">
<title>DialogueBalanceA&#45;&gt;SolvingSecondaryQuestA</title>
<path fill="none" stroke="black" d="M173.61,-407.82C113.53,-404.83 43.49,-396.43 24.04,-374 -8.56,-336.39 -7.25,-300.71 24.04,-262 60.59,-216.78 209.81,-193.49 318.88,-182.28"/>
<polygon fill="black" stroke="black" points="319.37,-185.74 328.97,-181.26 318.67,-178.78 319.37,-185.74"/>
<text text-anchor="start" x="541.54" y="-335.8" font-family="Times,serif" font-size="14.00"> </text>
<text text-anchor="start" x="546.54" y="-335.8" font-family="Times,serif" font-weight="bold" font-size="14.00">DialogueStoryTrigger</text>
<text text-anchor="start" x="716.54" y="-335.8" font-family="Times,serif" font-size="14.00"> </text>
<text text-anchor="start" x="527.54" y="-321.8" font-family="Times,serif" font-size="14.00">StartQuest(GrowPopulation) </text>
<text text-anchor="start" x="536.04" y="-307.8" font-family="Times,serif" font-size="14.00">UnlockPerk(NestBuilding) </text>
<text text-anchor="start" x="24.04" y="-293.8" font-family="Times,serif" font-size="14.00">SendHobo([VisitorDefinition { typ: Yellow, level: HoboLevel(0), hp: None, hurried: true }, VisitorDefinition { typ: Yellow, level: HoboLevel(0), hp: None, hurried: false }, ]) </text>
<polyline fill="none" stroke="black" points="1239.04,-290 24.04,-290 318.88,-182.28 "/>
</g>
<!-- DialogueBalanceB&#45;&gt;SolvingSecondaryQuestB -->
<g id="edge21" class="edge">
<title>DialogueBalanceB&#45;&gt;SolvingSecondaryQuestB</title>
<path fill="none" stroke="black" d="M1228.98,-392.28C1234.66,-387.15 1239.93,-380.98 1243.04,-374 1260.35,-335.21 1253.47,-284.75 1246.53,-254.17"/>
<polygon fill="black" stroke="black" points="1249.88,-253.12 1244.12,-244.24 1243.08,-254.78 1249.88,-253.12"/>
<text text-anchor="start" x="1792.04" y="-363.8" font-family="Times,serif" font-size="14.00"> </text>
<text text-anchor="start" x="1797.04" y="-363.8" font-family="Times,serif" font-weight="bold" font-size="14.00">DialogueStoryTrigger</text>
<text text-anchor="start" x="1967.04" y="-363.8" font-family="Times,serif" font-size="14.00"> </text>
<text text-anchor="start" x="1784.54" y="-349.8" font-family="Times,serif" font-size="14.00">StartQuest(SocializeMore) </text>
<text text-anchor="start" x="1253.04" y="-335.8" font-family="Times,serif" font-size="14.00">SendHobo([VisitorDefinition { typ: Yellow, level: HoboLevel(0), hp: Some(1), hurried: true }, VisitorDefinition { typ: Yellow, level: HoboLevel(0), hp: Some(1), hurried: false }, ]) </text>
<text text-anchor="start" x="1274.54" y="-321.8" font-family="Times,serif" font-size="14.00">SendHobo([VisitorDefinition { typ: Yellow, level: HoboLevel(0), hp: None, hurried: true }, VisitorDefinition { typ: Yellow, level: HoboLevel(0), hp: None, hurried: false }, ]) </text>
<text text-anchor="start" x="1253.04" y="-307.8" font-family="Times,serif" font-size="14.00">SendHobo([VisitorDefinition { typ: Yellow, level: HoboLevel(0), hp: Some(1), hurried: true }, VisitorDefinition { typ: Yellow, level: HoboLevel(0), hp: Some(1), hurried: false }, ]) </text>
<text text-anchor="start" x="1274.54" y="-293.8" font-family="Times,serif" font-size="14.00">SendHobo([VisitorDefinition { typ: Yellow, level: HoboLevel(0), hp: None, hurried: true }, VisitorDefinition { typ: Yellow, level: HoboLevel(0), hp: None, hurried: false }, ]) </text>
<text text-anchor="start" x="1253.04" y="-279.8" font-family="Times,serif" font-size="14.00">SendHobo([VisitorDefinition { typ: Yellow, level: HoboLevel(0), hp: Some(1), hurried: true }, VisitorDefinition { typ: Yellow, level: HoboLevel(0), hp: Some(1), hurried: false }, ]) </text>
<text text-anchor="start" x="1274.54" y="-265.8" font-family="Times,serif" font-size="14.00">SendHobo([VisitorDefinition { typ: Yellow, level: HoboLevel(0), hp: None, hurried: true }, VisitorDefinition { typ: Yellow, level: HoboLevel(0), hp: None, hurried: false }, ]) </text>
<polyline fill="none" stroke="black" points="2511.04,-262 1253.04,-262 1253.88,-311 "/>
</g>
<!-- SolvingSecondaryQuestA&#45;&gt;AllDone -->
<g id="edge22" class="edge">
<title>SolvingSecondaryQuestA&#45;&gt;AllDone</title>
<path fill="none" stroke="black" d="M463.65,-154.15C504.5,-126.18 586.21,-70.23 630.62,-39.83"/>
<polygon fill="black" stroke="black" points="632.71,-42.64 638.98,-34.11 628.75,-36.87 632.71,-42.64"/>
<text text-anchor="start" x="541.04" y="-115.3" font-family="Times,serif" font-size="14.00"> </text>
<text text-anchor="start" x="546.04" y="-115.3" font-family="Times,serif" font-weight="bold" font-size="14.00">FinishedQuest(GrowPopulation)</text>
<text text-anchor="start" x="801.04" y="-115.3" font-family="Times,serif" font-size="14.00"> </text>
<polyline fill="none" stroke="black" points="806.04,-110.5 541.04,-110.5 623.58,-44.65 "/>
</g>
<!-- SolvingSecondaryQuestB&#45;&gt;UnlockingInvitationPathB -->
<g id="edge23" class="edge">
<title>SolvingSecondaryQuestB&#45;&gt;UnlockingInvitationPathB</title>
<path fill="none" stroke="black" d="M1226.51,-207.97C1213.83,-190.74 1194.08,-163.9 1179.59,-144.21"/>
<polygon fill="black" stroke="black" points="1182.29,-141.97 1173.54,-135.99 1176.65,-146.12 1182.29,-141.97"/>
<text text-anchor="start" x="1211.04" y="-169.3" font-family="Times,serif" font-size="14.00"> </text>
<text text-anchor="start" x="1216.04" y="-169.3" font-family="Times,serif" font-weight="bold" font-size="14.00">FinishedQuest(SocializeMore)</text>
<text text-anchor="start" x="1455.04" y="-169.3" font-family="Times,serif" font-size="14.00"> </text>
<polyline fill="none" stroke="black" points="1460.04,-164.5 1211.04,-164.5 1226.51,-207.97 "/>
</g>
<!-- Initialized -->
<g id="node1" class="node">
<title>Initialized</title>
<ellipse fill="none" stroke="black" cx="887.04" cy="-1779" rx="57.39" ry="18"/>
<text text-anchor="middle" x="887.04" y="-1775.3" font-family="Times,serif" font-size="14.00">Initialized</text>
</g>
<!-- ServantAccepted -->
<g id="node2" class="node">
<title>ServantAccepted</title>
<ellipse fill="none" stroke="black" cx="887.04" cy="-1692" rx="89.88" ry="18"/>
<text text-anchor="middle" x="887.04" y="-1688.3" font-family="Times,serif" font-size="14.00">ServantAccepted</text>
</g>
<!-- TempleBuilt -->
<g id="node3" class="node">
<title>TempleBuilt</title>
<ellipse fill="none" stroke="black" cx="887.04" cy="-1605" rx="66.89" ry="18"/>
<text text-anchor="middle" x="887.04" y="-1601.3" font-family="Times,serif" font-size="14.00">TempleBuilt</text>
</g>
<!-- BuildingWatergate -->
<g id="node4" class="node">
<title>BuildingWatergate</title>
<ellipse fill="none" stroke="black" cx="887.04" cy="-1518" rx="98.28" ry="18"/>
<text text-anchor="middle" x="887.04" y="-1514.3" font-family="Times,serif" font-size="14.00">BuildingWatergate</text>
</g>
<!-- WatergateBuilt -->
<g id="node5" class="node">
<title>WatergateBuilt</title>
<ellipse fill="none" stroke="black" cx="887.04" cy="-1431" rx="81.49" ry="18"/>
<text text-anchor="middle" x="887.04" y="-1427.3" font-family="Times,serif" font-size="14.00">WatergateBuilt</text>
</g>
<!-- VisitorQueued -->
<g id="node6" class="node">
<title>VisitorQueued</title>
<ellipse fill="none" stroke="black" cx="887.04" cy="-1331" rx="77.19" ry="18"/>
<text text-anchor="middle" x="887.04" y="-1327.3" font-family="Times,serif" font-size="14.00">VisitorQueued</text>
</g>
<!-- VisitorArrived -->
<g id="node7" class="node">
<title>VisitorArrived</title>
<ellipse fill="none" stroke="black" cx="887.04" cy="-1244" rx="76.09" ry="18"/>
<text text-anchor="middle" x="887.04" y="-1240.3" font-family="Times,serif" font-size="14.00">VisitorArrived</text>
</g>
<!-- WelcomeVisitorQuestStarted -->
<g id="node8" class="node">
<title>WelcomeVisitorQuestStarted</title>
<ellipse fill="none" stroke="black" cx="887.04" cy="-1130" rx="145.67" ry="18"/>
<text text-anchor="middle" x="887.04" y="-1126.3" font-family="Times,serif" font-size="14.00">WelcomeVisitorQuestStarted</text>
</g>
<!-- FirstVisitorWelcomed -->
<g id="node9" class="node">
<title>FirstVisitorWelcomed</title>
<ellipse fill="none" stroke="black" cx="887.04" cy="-1030" rx="111.28" ry="18"/>
<text text-anchor="middle" x="887.04" y="-1026.3" font-family="Times,serif" font-size="14.00">FirstVisitorWelcomed</text>
</g>
<!-- PickingPrimaryCivBonus -->
<g id="node10" class="node">
<title>PickingPrimaryCivBonus</title>
<ellipse fill="none" stroke="black" cx="887.04" cy="-943" rx="126.18" ry="18"/>
<text text-anchor="middle" x="887.04" y="-939.3" font-family="Times,serif" font-size="14.00">PickingPrimaryCivBonus</text>
</g>
<!-- SolvingPrimaryCivQuestPartA -->
<g id="node11" class="node">
<title>SolvingPrimaryCivQuestPartA</title>
<ellipse fill="none" stroke="black" cx="887.04" cy="-759" rx="151.37" ry="18"/>
<text text-anchor="middle" x="887.04" y="-755.3" font-family="Times,serif" font-size="14.00">SolvingPrimaryCivQuestPartA</text>
</g>
<!-- SolvingPrimaryCivQuestPartB -->
<g id="node12" class="node">
<title>SolvingPrimaryCivQuestPartB</title>
<ellipse fill="none" stroke="black" cx="887.04" cy="-510" rx="151.37" ry="18"/>
<text text-anchor="middle" x="887.04" y="-506.3" font-family="Times,serif" font-size="14.00">SolvingPrimaryCivQuestPartB</text>
</g>
<!-- UnlockingInvitationPathA -->
<g id="node13" class="node">
<title>UnlockingInvitationPathA</title>
<ellipse fill="none" stroke="black" cx="2277.04" cy="-669" rx="129.98" ry="18"/>
<text text-anchor="middle" x="2277.04" y="-665.3" font-family="Times,serif" font-size="14.00">UnlockingInvitationPathA</text>
</g>
<!-- UnlockingInvitationPathB -->
<g id="node14" class="node">
<title>UnlockingInvitationPathB</title>
<ellipse fill="none" stroke="black" cx="1161.04" cy="-118" rx="129.98" ry="18"/>
<text text-anchor="middle" x="1161.04" y="-114.3" font-family="Times,serif" font-size="14.00">UnlockingInvitationPathB</text>
</g>
<!-- DialogueBalanceA -->
<g id="node15" class="node">
<title>DialogueBalanceA</title>
<ellipse fill="none" stroke="black" cx="268.04" cy="-410" rx="94.78" ry="18"/>
<text text-anchor="middle" x="268.04" y="-406.3" font-family="Times,serif" font-size="14.00">DialogueBalanceA</text>
</g>
<!-- DialogueBalanceB -->
<g id="node16" class="node">
<title>DialogueBalanceB</title>
<ellipse fill="none" stroke="black" cx="1204.04" cy="-410" rx="94.78" ry="18"/>
<text text-anchor="middle" x="1204.04" y="-406.3" font-family="Times,serif" font-size="14.00">DialogueBalanceB</text>
</g>
<!-- SolvingSecondaryQuestA -->
<g id="node17" class="node">
<title>SolvingSecondaryQuestA</title>
<ellipse fill="none" stroke="black" cx="439.04" cy="-172" rx="128.08" ry="18"/>
<text text-anchor="middle" x="439.04" y="-168.3" font-family="Times,serif" font-size="14.00">SolvingSecondaryQuestA</text>
</g>
<!-- SolvingSecondaryQuestB -->
<g id="node18" class="node">
<title>SolvingSecondaryQuestB</title>
<ellipse fill="none" stroke="black" cx="1239.04" cy="-226" rx="128.08" ry="18"/>
<text text-anchor="middle" x="1239.04" y="-222.3" font-family="Times,serif" font-size="14.00">SolvingSecondaryQuestB</text>
</g>
<!-- AllDone -->
<g id="node19" class="node">
<title>AllDone</title>
<ellipse fill="none" stroke="black" cx="661.04" cy="-18" rx="46.59" ry="18"/>
<text text-anchor="middle" x="661.04" y="-14.3" font-family="Times,serif" font-size="14.00">AllDone</text>
</g>
</g>
</svg>
