<?xml version="1.0" encoding="UTF-8" standalone="no"?>
<!DOCTYPE svg PUBLIC "-//W3C//DTD SVG 1.1//EN"
 "http://www.w3.org/Graphics/SVG/1.1/DTD/svg11.dtd">
<!-- Generated by graphviz version 2.43.0 (0)
 -->
<!-- Title: MyGraph Pages: 1 -->
<svg width="3752pt" height="1735pt"
 viewBox="0.00 0.00 3751.61 1735.00" xmlns="http://www.w3.org/2000/svg" xmlns:xlink="http://www.w3.org/1999/xlink">
<g id="graph0" class="graph" transform="scale(1 1) rotate(0) translate(4 1731)">
<title>MyGraph</title>
<polygon fill="white" stroke="transparent" points="-4,4 -4,-1731 3747.61,-1731 3747.61,4 -4,4"/>
<!-- Initialized&#45;&gt;ServantAccepted -->
<g id="edge1" class="edge">
<title>Initialized&#45;&gt;ServantAccepted</title>
<path fill="none" stroke="black" d="M1201.61,-1690.8C1201.61,-1679.16 1201.61,-1663.55 1201.61,-1650.24"/>
<polygon fill="black" stroke="black" points="1205.11,-1650.18 1201.61,-1640.18 1198.11,-1650.18 1205.11,-1650.18"/>
<text text-anchor="start" x="1201.61" y="-1662.8" font-family="Times,serif" font-size="14.00"> </text>
<text text-anchor="start" x="1206.61" y="-1662.8" font-family="Times,serif" font-weight="bold" font-size="14.00">DialogueStoryTrigger</text>
<text text-anchor="start" x="1376.61" y="-1662.8" font-family="Times,serif" font-size="14.00"> </text>
<polyline fill="none" stroke="black" points="1381.61,-1658 1201.61,-1658 1201.61,-1665.19 "/>
</g>
<!-- ServantAccepted&#45;&gt;TempleBuilt -->
<g id="edge2" class="edge">
<title>ServantAccepted&#45;&gt;TempleBuilt</title>
<path fill="none" stroke="black" d="M1201.61,-1603.8C1201.61,-1592.16 1201.61,-1576.55 1201.61,-1563.24"/>
<polygon fill="black" stroke="black" points="1205.11,-1563.18 1201.61,-1553.18 1198.11,-1563.18 1205.11,-1563.18"/>
<text text-anchor="start" x="1201.61" y="-1575.8" font-family="Times,serif" font-size="14.00"> </text>
<text text-anchor="start" x="1206.61" y="-1575.8" font-family="Times,serif" font-weight="bold" font-size="14.00">BuildingBuilt(Temple)</text>
<text text-anchor="start" x="1385.61" y="-1575.8" font-family="Times,serif" font-size="14.00"> </text>
<polyline fill="none" stroke="black" points="1390.61,-1571 1201.61,-1571 1201.61,-1578.19 "/>
</g>
<!-- TempleBuilt&#45;&gt;BuildingWatergate -->
<g id="edge3" class="edge">
<title>TempleBuilt&#45;&gt;BuildingWatergate</title>
<path fill="none" stroke="black" d="M1201.61,-1516.8C1201.61,-1505.16 1201.61,-1489.55 1201.61,-1476.24"/>
<polygon fill="black" stroke="black" points="1205.11,-1476.18 1201.61,-1466.18 1198.11,-1476.18 1205.11,-1476.18"/>
<text text-anchor="start" x="1201.61" y="-1488.8" font-family="Times,serif" font-size="14.00"> </text>
<text text-anchor="start" x="1206.61" y="-1488.8" font-family="Times,serif" font-weight="bold" font-size="14.00">DialogueStoryTrigger</text>
<text text-anchor="start" x="1376.61" y="-1488.8" font-family="Times,serif" font-size="14.00"> </text>
<polyline fill="none" stroke="black" points="1381.61,-1484 1201.61,-1484 1201.61,-1491.19 "/>
</g>
<!-- BuildingWatergate&#45;&gt;WatergateBuilt -->
<g id="edge4" class="edge">
<title>BuildingWatergate&#45;&gt;WatergateBuilt</title>
<path fill="none" stroke="black" d="M1201.61,-1429.8C1201.61,-1418.16 1201.61,-1402.55 1201.61,-1389.24"/>
<polygon fill="black" stroke="black" points="1205.11,-1389.18 1201.61,-1379.18 1198.11,-1389.18 1205.11,-1389.18"/>
<text text-anchor="start" x="1201.61" y="-1401.8" font-family="Times,serif" font-size="14.00"> </text>
<text text-anchor="start" x="1206.61" y="-1401.8" font-family="Times,serif" font-weight="bold" font-size="14.00">BuildingBuilt(Watergate)</text>
<text text-anchor="start" x="1409.61" y="-1401.8" font-family="Times,serif" font-size="14.00"> </text>
<polyline fill="none" stroke="black" points="1414.61,-1397 1201.61,-1397 1201.61,-1404.19 "/>
</g>
<!-- WatergateBuilt&#45;&gt;VisitorQueued -->
<g id="edge5" class="edge">
<title>WatergateBuilt&#45;&gt;VisitorQueued</title>
<path fill="none" stroke="black" d="M1201.61,-1342.93C1201.61,-1328.12 1201.61,-1306.43 1201.61,-1289.23"/>
<polygon fill="black" stroke="black" points="1205.11,-1289.2 1201.61,-1279.2 1198.11,-1289.2 1205.11,-1289.2"/>
<text text-anchor="start" x="1676.11" y="-1314.8" font-family="Times,serif" font-size="14.00"> </text>
<text text-anchor="start" x="1681.11" y="-1314.8" font-family="Times,serif" font-weight="bold" font-size="14.00">DialogueStoryTrigger</text>
<text text-anchor="start" x="1851.11" y="-1314.8" font-family="Times,serif" font-size="14.00"> </text>
<text text-anchor="start" x="1201.61" y="-1300.8" font-family="Times,serif" font-size="14.00">SendHobo(StoryVisitDefinition { fixed_travel_time_s: Some(0), visitors: [VisitorDefinition { typ: Yellow, level: HoboLevel(0), hp: Some(1), hurried: false }, ] }) </text>
<polyline fill="none" stroke="black" points="2330.61,-1297 1201.61,-1297 1201.61,-1310.77 "/>
</g>
<!-- VisitorQueued&#45;&gt;VisitorArrived -->
<g id="edge6" class="edge">
<title>VisitorQueued&#45;&gt;VisitorArrived</title>
<path fill="none" stroke="black" d="M1201.61,-1242.8C1201.61,-1231.16 1201.61,-1215.55 1201.61,-1202.24"/>
<polygon fill="black" stroke="black" points="1205.11,-1202.18 1201.61,-1192.18 1198.11,-1202.18 1205.11,-1202.18"/>
<text text-anchor="start" x="1201.61" y="-1214.8" font-family="Times,serif" font-size="14.00"> </text>
<text text-anchor="start" x="1206.61" y="-1214.8" font-family="Times,serif" font-weight="bold" font-size="14.00">LetVisitorIn</text>
<text text-anchor="start" x="1302.61" y="-1214.8" font-family="Times,serif" font-size="14.00"> </text>
<polyline fill="none" stroke="black" points="1307.61,-1210 1201.61,-1210 1201.61,-1217.19 "/>
</g>
<!-- VisitorArrived&#45;&gt;WelcomeVisitorQuestStarted -->
<g id="edge7" class="edge">
<title>VisitorArrived&#45;&gt;WelcomeVisitorQuestStarted</title>
<path fill="none" stroke="black" d="M1201.61,-1155.99C1201.61,-1138.06 1201.61,-1109.56 1201.61,-1088.44"/>
<polygon fill="black" stroke="black" points="1205.11,-1088.17 1201.61,-1078.17 1198.11,-1088.17 1205.11,-1088.17"/>
<text text-anchor="start" x="1201.61" y="-1127.8" font-family="Times,serif" font-size="14.00"> </text>
<text text-anchor="start" x="1206.61" y="-1127.8" font-family="Times,serif" font-weight="bold" font-size="14.00">DialogueStoryTrigger</text>
<text text-anchor="start" x="1376.61" y="-1127.8" font-family="Times,serif" font-size="14.00"> </text>
<text text-anchor="start" x="1204.61" y="-1113.8" font-family="Times,serif" font-size="14.00">StartQuest(HelloWorld) </text>
<text text-anchor="start" x="1241.11" y="-1099.8" font-family="Times,serif" font-size="14.00">AddMana(50) </text>
<polyline fill="none" stroke="black" points="1381.61,-1096 1201.61,-1096 1201.61,-1117.2 "/>
</g>
<!-- WelcomeVisitorQuestStarted&#45;&gt;FirstVisitorWelcomed -->
<g id="edge8" class="edge">
<title>WelcomeVisitorQuestStarted&#45;&gt;FirstVisitorWelcomed</title>
<path fill="none" stroke="black" d="M1201.61,-1041.93C1201.61,-1027.12 1201.61,-1005.43 1201.61,-988.23"/>
<polygon fill="black" stroke="black" points="1205.11,-988.2 1201.61,-978.2 1198.11,-988.2 1205.11,-988.2"/>
<text text-anchor="start" x="1201.61" y="-1013.8" font-family="Times,serif" font-size="14.00"> </text>
<text text-anchor="start" x="1206.61" y="-1013.8" font-family="Times,serif" font-weight="bold" font-size="14.00">FinishedQuest(HelloWorld)</text>
<text text-anchor="start" x="1423.61" y="-1013.8" font-family="Times,serif" font-size="14.00"> </text>
<text text-anchor="start" x="1221.11" y="-999.8" font-family="Times,serif" font-size="14.00">StartQuest(CreateForest) </text>
<polyline fill="none" stroke="black" points="1428.61,-996 1201.61,-996 1201.61,-1009.77 "/>
</g>
<!-- FirstVisitorWelcomed&#45;&gt;FirstVisitorWelcomed -->
<g id="edge9" class="edge">
<title>FirstVisitorWelcomed&#45;&gt;FirstVisitorWelcomed</title>
<path fill="none" stroke="transparent" d="M1310.9,-963.31C1322.96,-962.68 1330.75,-961.58 1330.75,-960 1330.75,-958.94 1327.24,-958.09 1321.27,-957.46"/>
<polygon fill="transparent" stroke="transparent" points="1321.13,-953.94 1310.9,-956.69 1320.61,-960.92 1321.13,-953.94"/>
<text text-anchor="start" x="1334.25" y="-963.8" font-family="Times,serif" font-size="14.00"> </text>
<text text-anchor="start" x="1339.25" y="-963.8" font-family="Times,serif" font-weight="bold" font-size="14.00">FinishedQuest(CreateForest)</text>
<text text-anchor="start" x="1570.25" y="-963.8" font-family="Times,serif" font-size="14.00"> </text>
<text text-anchor="start" x="1330.75" y="-949.8" font-family="Times,serif" font-size="14.00">StartQuest(BuildBundlingStation) </text>
<polyline fill="none" stroke="black" points="1578.75,-946 1330.75,-946 1330.75,-959.98 "/>
</g>
<!-- FirstVisitorWelcomed&#45;&gt;FirstVisitorWelcomed -->
<g id="edge10" class="edge">
<title>FirstVisitorWelcomed&#45;&gt;FirstVisitorWelcomed</title>
<path fill="none" stroke="transparent" d="M1305.08,-966.62C1418.34,-969.55 1578.75,-967.34 1578.75,-960 1578.75,-952.87 1427.61,-950.58 1315.15,-953.13"/>
<polygon fill="transparent" stroke="transparent" points="1315,-949.63 1305.08,-953.38 1315.16,-956.63 1315,-949.63"/>
<text text-anchor="start" x="1578.75" y="-963.8" font-family="Times,serif" font-size="14.00"> </text>
<text text-anchor="start" x="1583.75" y="-963.8" font-family="Times,serif" font-weight="bold" font-size="14.00">FinishedQuest(BuildBundlingStation)</text>
<text text-anchor="start" x="1885.75" y="-963.8" font-family="Times,serif" font-size="14.00"> </text>
<text text-anchor="start" x="1615.75" y="-949.8" font-family="Times,serif" font-size="14.00">StartQuest(UseBundlingStation) </text>
<polyline fill="none" stroke="black" points="1890.75,-946 1578.75,-946 1578.75,-959.98 "/>
</g>
<!-- FirstVisitorWelcomed&#45;&gt;PickingPrimaryCivBonus -->
<g id="edge11" class="edge">
<title>FirstVisitorWelcomed&#45;&gt;PickingPrimaryCivBonus</title>
<path fill="none" stroke="black" d="M1201.61,-941.8C1201.61,-930.16 1201.61,-914.55 1201.61,-901.24"/>
<polygon fill="black" stroke="black" points="1205.11,-901.18 1201.61,-891.18 1198.11,-901.18 1205.11,-901.18"/>
<text text-anchor="start" x="1201.61" y="-913.8" font-family="Times,serif" font-size="14.00"> </text>
<text text-anchor="start" x="1206.61" y="-913.8" font-family="Times,serif" font-weight="bold" font-size="14.00">FinishedQuest(UseBundlingStation)</text>
<text text-anchor="start" x="1495.61" y="-913.8" font-family="Times,serif" font-size="14.00"> </text>
<polyline fill="none" stroke="black" points="1500.61,-909 1201.61,-909 1201.61,-916.19 "/>
</g>
<!-- PickingPrimaryCivBonus&#45;&gt;SolvingPrimaryCivQuestPartA -->
<g id="edge12" class="edge">
<title>PickingPrimaryCivBonus&#45;&gt;SolvingPrimaryCivQuestPartA</title>
<path fill="none" stroke="black" d="M1075.66,-871.36C844.4,-869.57 373.34,-862.76 348.61,-837 314.14,-801.09 314.14,-760.91 348.61,-725 372.14,-700.49 799.59,-693.14 1040.26,-690.93"/>
<polygon fill="black" stroke="black" points="1040.54,-694.43 1050.51,-690.84 1040.48,-687.43 1040.54,-694.43"/>
<text text-anchor="start" x="988.61" y="-826.8" font-family="Times,serif" font-size="14.00"> </text>
<text text-anchor="start" x="993.61" y="-826.8" font-family="Times,serif" font-weight="bold" font-size="14.00">DialogueChoice(StoryChoice { chosen_option: 1 })</text>
<text text-anchor="start" x="1388.61" y="-826.8" font-family="Times,serif" font-size="14.00"> </text>
<text text-anchor="start" x="1112.61" y="-812.8" font-family="Times,serif" font-size="14.00">StartQuest(Socialize) </text>
<text text-anchor="start" x="637.11" y="-798.8" font-family="Times,serif" font-size="14.00">SendHobo(StoryVisitDefinition { fixed_travel_time_s: None, visitors: [VisitorDefinition { typ: Yellow, level: HoboLevel(0), hp: Some(1), hurried: false }, ] }) </text>
<text text-anchor="start" x="639.11" y="-784.8" font-family="Times,serif" font-size="14.00">SendHobo(StoryVisitDefinition { fixed_travel_time_s: None, visitors: [VisitorDefinition { typ: Yellow, level: HoboLevel(0), hp: Some(1), hurried: true }, ] }) </text>
<text text-anchor="start" x="348.61" y="-770.8" font-family="Times,serif" font-size="14.00">SendHobo(StoryVisitDefinition { fixed_travel_time_s: None, visitors: [VisitorDefinition { typ: Yellow, level: HoboLevel(0), hp: Some(1), hurried: true }, VisitorDefinition { typ: Yellow, level: HoboLevel(0), hp: Some(1), hurried: false }, ] }) </text>
<text text-anchor="start" x="348.61" y="-756.8" font-family="Times,serif" font-size="14.00">SendHobo(StoryVisitDefinition { fixed_travel_time_s: None, visitors: [VisitorDefinition { typ: Yellow, level: HoboLevel(0), hp: Some(1), hurried: true }, VisitorDefinition { typ: Yellow, level: HoboLevel(0), hp: Some(1), hurried: false }, ] }) </text>
<text text-anchor="start" x="348.61" y="-742.8" font-family="Times,serif" font-size="14.00">SendHobo(StoryVisitDefinition { fixed_travel_time_s: None, visitors: [VisitorDefinition { typ: Yellow, level: HoboLevel(0), hp: Some(1), hurried: true }, VisitorDefinition { typ: Yellow, level: HoboLevel(0), hp: Some(1), hurried: false }, ] }) </text>
<text text-anchor="start" x="348.61" y="-728.8" font-family="Times,serif" font-size="14.00">SendHobo(StoryVisitDefinition { fixed_travel_time_s: None, visitors: [VisitorDefinition { typ: Yellow, level: HoboLevel(0), hp: Some(1), hurried: true }, VisitorDefinition { typ: Yellow, level: HoboLevel(0), hp: Some(1), hurried: false }, ] }) </text>
<polyline fill="none" stroke="black" points="2033.61,-725 348.61,-725 1075.66,-871.36 "/>
</g>
<!-- PickingPrimaryCivBonus&#45;&gt;SolvingPrimaryCivQuestPartA -->
<g id="edge13" class="edge">
<title>PickingPrimaryCivBonus&#45;&gt;SolvingPrimaryCivQuestPartA</title>
<path fill="none" stroke="black" d="M1327.11,-871.23C1553.6,-869.21 2009.6,-862.05 2033.61,-837 2068.06,-801.07 2068.06,-760.93 2033.61,-725 2010.79,-701.19 1597.66,-693.54 1362.32,-691.11"/>
<polygon fill="black" stroke="black" points="1362.33,-687.61 1352.29,-691.01 1362.26,-694.61 1362.33,-687.61"/>
<text text-anchor="start" x="2698.61" y="-812.8" font-family="Times,serif" font-size="14.00"> </text>
<text text-anchor="start" x="2703.61" y="-812.8" font-family="Times,serif" font-weight="bold" font-size="14.00">DialogueChoice(StoryChoice { chosen_option: 2 })</text>
<text text-anchor="start" x="3098.61" y="-812.8" font-family="Times,serif" font-size="14.00"> </text>
<text text-anchor="start" x="2818.11" y="-798.8" font-family="Times,serif" font-size="14.00">StartQuest(BuildNest) </text>
<text text-anchor="start" x="2805.61" y="-784.8" font-family="Times,serif" font-size="14.00">UnlockPerk(NestBuilding) </text>
<text text-anchor="start" x="2347.11" y="-770.8" font-family="Times,serif" font-size="14.00">SendHobo(StoryVisitDefinition { fixed_travel_time_s: None, visitors: [VisitorDefinition { typ: Yellow, level: HoboLevel(0), hp: Some(1), hurried: false }, ] }) </text>
<text text-anchor="start" x="2349.11" y="-756.8" font-family="Times,serif" font-size="14.00">SendHobo(StoryVisitDefinition { fixed_travel_time_s: None, visitors: [VisitorDefinition { typ: Yellow, level: HoboLevel(0), hp: Some(1), hurried: true }, ] }) </text>
<text text-anchor="start" x="2058.61" y="-742.8" font-family="Times,serif" font-size="14.00">SendHobo(StoryVisitDefinition { fixed_travel_time_s: None, visitors: [VisitorDefinition { typ: Yellow, level: HoboLevel(0), hp: Some(1), hurried: true }, VisitorDefinition { typ: Yellow, level: HoboLevel(0), hp: Some(1), hurried: false }, ] }) </text>
<polyline fill="none" stroke="black" points="3743.61,-739 2058.61,-739 2059.45,-781 "/>
</g>
<!-- SolvingPrimaryCivQuestPartA&#45;&gt;SolvingPrimaryCivQuestPartB -->
<g id="edge15" class="edge">
<title>SolvingPrimaryCivQuestPartA&#45;&gt;SolvingPrimaryCivQuestPartB</title>
<path fill="none" stroke="black" d="M1199.37,-670.99C1197.68,-657.26 1195.51,-637.42 1194.61,-620 1192.66,-582 1195.87,-538.06 1198.56,-510.4"/>
<polygon fill="black" stroke="black" points="1202.06,-510.61 1199.59,-500.3 1195.1,-509.89 1202.06,-510.61"/>
<text text-anchor="start" x="1928.11" y="-609.8" font-family="Times,serif" font-size="14.00"> </text>
<text text-anchor="start" x="1933.11" y="-609.8" font-family="Times,serif" font-weight="bold" font-size="14.00">FinishedQuest(BuildNest)</text>
<text text-anchor="start" x="2141.11" y="-609.8" font-family="Times,serif" font-size="14.00"> </text>
<text text-anchor="start" x="1933.11" y="-595.8" font-family="Times,serif" font-size="14.00">StartQuest(GrowPopulation) </text>
<text text-anchor="start" x="1194.61" y="-581.8" font-family="Times,serif" font-size="14.00">SendHobo(StoryVisitDefinition { fixed_travel_time_s: None, visitors: [VisitorDefinition { typ: Yellow, level: HoboLevel(0), hp: Some(1), hurried: true }, VisitorDefinition { typ: Yellow, level: HoboLevel(0), hp: Some(1), hurried: false }, ] }) </text>
<polyline fill="none" stroke="black" points="2879.61,-578 1194.61,-578 1199.37,-670.99 "/>
</g>
<!-- SolvingPrimaryCivQuestPartA&#45;&gt;UnlockingInvitationPathA -->
<g id="edge14" class="edge">
<title>SolvingPrimaryCivQuestPartA&#45;&gt;UnlockingInvitationPathA</title>
<path fill="none" stroke="black" d="M1352.18,-686.79C1645.66,-683.34 2314.55,-670.16 2874.61,-620 2891.21,-618.51 2908.83,-616.46 2925.84,-614.24"/>
<polygon fill="black" stroke="black" points="2926.32,-617.7 2935.77,-612.91 2925.39,-610.77 2926.32,-617.7"/>
<text text-anchor="start" x="2647.61" y="-642.8" font-family="Times,serif" font-size="14.00"> </text>
<text text-anchor="start" x="2652.61" y="-642.8" font-family="Times,serif" font-weight="bold" font-size="14.00">FinishedQuest(Socialize)</text>
<text text-anchor="start" x="2850.61" y="-642.8" font-family="Times,serif" font-size="14.00"> </text>
<polyline fill="none" stroke="black" points="2855.61,-638 2647.61,-638 2874.61,-620 "/>
</g>
<!-- SolvingPrimaryCivQuestPartB&#45;&gt;DialogueBalanceA -->
<g id="edge16" class="edge">
<title>SolvingPrimaryCivQuestPartB&#45;&gt;DialogueBalanceA</title>
<path fill="none" stroke="black" d="M1097.92,-468.79C932.75,-449.33 612.78,-411.64 457.88,-393.4"/>
<polygon fill="black" stroke="black" points="458.26,-389.92 447.92,-392.22 457.44,-396.87 458.26,-389.92"/>
<text text-anchor="start" x="884.61" y="-429.3" font-family="Times,serif" font-size="14.00"> </text>
<text text-anchor="start" x="889.61" y="-429.3" font-family="Times,serif" font-weight="bold" font-size="14.00">FinishedQuest(SocializeMore)</text>
<text text-anchor="start" x="1128.61" y="-429.3" font-family="Times,serif" font-size="14.00"> </text>
<polyline fill="none" stroke="black" points="1133.61,-424.5 884.61,-424.5 1006.14,-457.98 "/>
</g>
<!-- SolvingPrimaryCivQuestPartB&#45;&gt;DialogueBalanceB -->
<g id="edge17" class="edge">
<title>SolvingPrimaryCivQuestPartB&#45;&gt;DialogueBalanceB</title>
<path fill="none" stroke="black" d="M1264.08,-465.58C1337.54,-447.45 1458.88,-417.49 1533.47,-399.08"/>
<polygon fill="black" stroke="black" points="1534.36,-402.47 1543.23,-396.67 1532.68,-395.67 1534.36,-402.47"/>
<text text-anchor="start" x="2135.11" y="-435.8" font-family="Times,serif" font-size="14.00"> </text>
<text text-anchor="start" x="2140.11" y="-435.8" font-family="Times,serif" font-weight="bold" font-size="14.00">FinishedQuest(GrowPopulation)</text>
<text text-anchor="start" x="2395.11" y="-435.8" font-family="Times,serif" font-size="14.00"> </text>
<text text-anchor="start" x="1446.61" y="-421.8" font-family="Times,serif" font-size="14.00">SendHobo(StoryVisitDefinition { fixed_travel_time_s: None, visitors: [VisitorDefinition { typ: Yellow, level: HoboLevel(0), hp: None, hurried: true }, VisitorDefinition { typ: Yellow, level: HoboLevel(0), hp: None, hurried: false }, ] }) </text>
<polyline fill="none" stroke="black" points="3088.61,-418 1446.61,-418 1533.47,-399.08 "/>
</g>
<!-- UnlockingInvitationPathA&#45;&gt;SolvingPrimaryCivQuestPartB -->
<g id="edge18" class="edge">
<title>UnlockingInvitationPathA&#45;&gt;SolvingPrimaryCivQuestPartB</title>
<path fill="none" stroke="black" d="M2934.99,-585.21C2915.23,-582.52 2894.21,-579.91 2874.61,-578 2317.52,-523.59 1652.78,-497.3 1356.9,-487.6"/>
<polygon fill="black" stroke="black" points="1356.64,-484.09 1346.54,-487.26 1356.42,-491.09 1356.64,-484.09"/>
<text text-anchor="start" x="2655.11" y="-549.8" font-family="Times,serif" font-size="14.00"> </text>
<text text-anchor="start" x="2660.11" y="-549.8" font-family="Times,serif" font-weight="bold" font-size="14.00">DialogueStoryTrigger</text>
<text text-anchor="start" x="2830.11" y="-549.8" font-family="Times,serif" font-size="14.00"> </text>
<text text-anchor="start" x="2647.61" y="-535.8" font-family="Times,serif" font-size="14.00">StartQuest(SocializeMore) </text>
<text text-anchor="start" x="2662.11" y="-521.8" font-family="Times,serif" font-size="14.00">UnlockPerk(Invitation) </text>
<polyline fill="none" stroke="black" points="2842.61,-518 2647.61,-518 2742.72,-565.79 "/>
</g>
<!-- UnlockingInvitationPathB&#45;&gt;AllDone -->
<g id="edge19" class="edge">
<title>UnlockingInvitationPathB&#45;&gt;AllDone</title>
<path fill="none" stroke="black" d="M1453.01,-103.43C1338.59,-83.15 1126.07,-45.49 1028.29,-28.16"/>
<polygon fill="black" stroke="black" points="1028.8,-24.69 1018.35,-26.4 1027.58,-31.59 1028.8,-24.69"/>
<text text-anchor="start" x="1318.61" y="-71.8" font-family="Times,serif" font-size="14.00"> </text>
<text text-anchor="start" x="1323.61" y="-71.8" font-family="Times,serif" font-weight="bold" font-size="14.00">DialogueStoryTrigger</text>
<text text-anchor="start" x="1493.61" y="-71.8" font-family="Times,serif" font-size="14.00"> </text>
<text text-anchor="start" x="1325.61" y="-57.8" font-family="Times,serif" font-size="14.00">UnlockPerk(Invitation) </text>
<polyline fill="none" stroke="black" points="1498.61,-54 1318.61,-54 1406.02,-95.1 "/>
</g>
<!-- DialogueBalanceA&#45;&gt;SolvingSecondaryQuestA -->
<g id="edge20" class="edge">
<title>DialogueBalanceA&#45;&gt;SolvingSecondaryQuestA</title>
<path fill="none" stroke="black" d="M276.73,-378.07C178.62,-373.99 35.69,-364.87 18.61,-346 -6.44,-318.32 -5.87,-290.19 18.61,-262 51.36,-224.29 352.69,-195.39 526.12,-181.71"/>
<polygon fill="black" stroke="black" points="526.63,-185.18 536.32,-180.91 526.08,-178.2 526.63,-185.18"/>
<text text-anchor="start" x="749.61" y="-321.8" font-family="Times,serif" font-size="14.00"> </text>
<text text-anchor="start" x="754.61" y="-321.8" font-family="Times,serif" font-weight="bold" font-size="14.00">DialogueStoryTrigger</text>
<text text-anchor="start" x="924.61" y="-321.8" font-family="Times,serif" font-size="14.00"> </text>
<text text-anchor="start" x="735.61" y="-307.8" font-family="Times,serif" font-size="14.00">StartQuest(GrowPopulation) </text>
<text text-anchor="start" x="744.11" y="-293.8" font-family="Times,serif" font-size="14.00">UnlockPerk(NestBuilding) </text>
<text text-anchor="start" x="18.61" y="-279.8" font-family="Times,serif" font-size="14.00">SendHobo(StoryVisitDefinition { fixed_travel_time_s: None, visitors: [VisitorDefinition { typ: Yellow, level: HoboLevel(0), hp: None, hurried: true }, VisitorDefinition { typ: Yellow, level: HoboLevel(0), hp: None, hurried: false }, ] }) </text>
<polyline fill="none" stroke="black" points="1660.61,-276 18.61,-276 526.11,-181.71 "/>
</g>
<!-- DialogueBalanceB&#45;&gt;SolvingSecondaryQuestB -->
<g id="edge21" class="edge">
<title>DialogueBalanceB&#45;&gt;SolvingSecondaryQuestB</title>
<path fill="none" stroke="black" d="M1643.08,-365.95C1651.65,-360.96 1659.53,-354.45 1664.61,-346 1683.86,-314.01 1673.4,-298.29 1664.61,-262 1663.92,-259.14 1662.95,-256.24 1661.81,-253.41"/>
<polygon fill="black" stroke="black" points="1664.89,-251.74 1657.49,-244.17 1658.55,-254.71 1664.89,-251.74"/>
<text text-anchor="start" x="2427.11" y="-335.8" font-family="Times,serif" font-size="14.00"> </text>
<text text-anchor="start" x="2432.11" y="-335.8" font-family="Times,serif" font-weight="bold" font-size="14.00">DialogueStoryTrigger</text>
<text text-anchor="start" x="2602.11" y="-335.8" font-family="Times,serif" font-size="14.00"> </text>
<text text-anchor="start" x="2419.61" y="-321.8" font-family="Times,serif" font-size="14.00">StartQuest(SocializeMore) </text>
<text text-anchor="start" x="1674.61" y="-307.8" font-family="Times,serif" font-size="14.00">SendHobo(StoryVisitDefinition { fixed_travel_time_s: None, visitors: [VisitorDefinition { typ: Yellow, level: HoboLevel(0), hp: Some(1), hurried: true }, VisitorDefinition { typ: Yellow, level: HoboLevel(0), hp: Some(1), hurried: false }, ] }) </text>
<text text-anchor="start" x="1696.11" y="-293.8" font-family="Times,serif" font-size="14.00">SendHobo(StoryVisitDefinition { fixed_travel_time_s: None, visitors: [VisitorDefinition { typ: Yellow, level: HoboLevel(0), hp: None, hurried: true }, VisitorDefinition { typ: Yellow, level: HoboLevel(0), hp: None, hurried: false }, ] }) </text>
<text text-anchor="start" x="1674.61" y="-279.8" font-family="Times,serif" font-size="14.00">SendHobo(StoryVisitDefinition { fixed_travel_time_s: None, visitors: [VisitorDefinition { typ: Yellow, level: HoboLevel(0), hp: Some(1), hurried: true }, VisitorDefinition { typ: Yellow, level: HoboLevel(0), hp: Some(1), hurried: false }, ] }) </text>
<text text-anchor="start" x="1696.11" y="-265.8" font-family="Times,serif" font-size="14.00">SendHobo(StoryVisitDefinition { fixed_travel_time_s: None, visitors: [VisitorDefinition { typ: Yellow, level: HoboLevel(0), hp: None, hurried: true }, VisitorDefinition { typ: Yellow, level: HoboLevel(0), hp: None, hurried: false }, ] }) </text>
<polyline fill="none" stroke="black" points="3359.61,-262 1674.61,-262 1675.12,-305.61 "/>
</g>
<!-- SolvingSecondaryQuestA&#45;&gt;AllDone -->
<g id="edge22" class="edge">
<title>SolvingSecondaryQuestA&#45;&gt;AllDone</title>
<path fill="none" stroke="black" d="M683.13,-154.59C745.56,-125.75 874.4,-66.22 938.57,-36.58"/>
<polygon fill="black" stroke="black" points="940.31,-39.63 947.92,-32.25 937.38,-33.27 940.31,-39.63"/>
<text text-anchor="start" x="798.61" y="-115.3" font-family="Times,serif" font-size="14.00"> </text>
<text text-anchor="start" x="803.61" y="-115.3" font-family="Times,serif" font-weight="bold" font-size="14.00">FinishedQuest(GrowPopulation)</text>
<text text-anchor="start" x="1058.61" y="-115.3" font-family="Times,serif" font-size="14.00"> </text>
<polyline fill="none" stroke="black" points="1063.61,-110.5 798.61,-110.5 901.38,-53.76 "/>
</g>
<!-- SolvingSecondaryQuestB&#45;&gt;UnlockingInvitationPathB -->
<g id="edge23" class="edge">
<title>SolvingSecondaryQuestB&#45;&gt;UnlockingInvitationPathB</title>
<path fill="none" stroke="black" d="M1627.81,-207.97C1608.37,-190.35 1577.84,-162.7 1555.99,-142.89"/>
<polygon fill="black" stroke="black" points="1558.12,-140.11 1548.36,-135.99 1553.42,-145.3 1558.12,-140.11"/>
<text text-anchor="start" x="1604.61" y="-169.3" font-family="Times,serif" font-size="14.00"> </text>
<text text-anchor="start" x="1609.61" y="-169.3" font-family="Times,serif" font-weight="bold" font-size="14.00">FinishedQuest(SocializeMore)</text>
<text text-anchor="start" x="1848.61" y="-169.3" font-family="Times,serif" font-size="14.00"> </text>
<polyline fill="none" stroke="black" points="1853.61,-164.5 1604.61,-164.5 1627.81,-207.97 "/>
</g>
<!-- Initialized -->
<g id="node1" class="node">
<title>Initialized</title>
<ellipse fill="none" stroke="black" cx="1201.61" cy="-1709" rx="57.39" ry="18"/>
<text text-anchor="middle" x="1201.61" y="-1705.3" font-family="Times,serif" font-size="14.00">Initialized</text>
</g>
<!-- ServantAccepted -->
<g id="node2" class="node">
<title>ServantAccepted</title>
<ellipse fill="none" stroke="black" cx="1201.61" cy="-1622" rx="89.88" ry="18"/>
<text text-anchor="middle" x="1201.61" y="-1618.3" font-family="Times,serif" font-size="14.00">ServantAccepted</text>
</g>
<!-- TempleBuilt -->
<g id="node3" class="node">
<title>TempleBuilt</title>
<ellipse fill="none" stroke="black" cx="1201.61" cy="-1535" rx="66.89" ry="18"/>
<text text-anchor="middle" x="1201.61" y="-1531.3" font-family="Times,serif" font-size="14.00">TempleBuilt</text>
</g>
<!-- BuildingWatergate -->
<g id="node4" class="node">
<title>BuildingWatergate</title>
<ellipse fill="none" stroke="black" cx="1201.61" cy="-1448" rx="98.28" ry="18"/>
<text text-anchor="middle" x="1201.61" y="-1444.3" font-family="Times,serif" font-size="14.00">BuildingWatergate</text>
</g>
<!-- WatergateBuilt -->
<g id="node5" class="node">
<title>WatergateBuilt</title>
<ellipse fill="none" stroke="black" cx="1201.61" cy="-1361" rx="81.49" ry="18"/>
<text text-anchor="middle" x="1201.61" y="-1357.3" font-family="Times,serif" font-size="14.00">WatergateBuilt</text>
</g>
<!-- VisitorQueued -->
<g id="node6" class="node">
<title>VisitorQueued</title>
<ellipse fill="none" stroke="black" cx="1201.61" cy="-1261" rx="77.19" ry="18"/>
<text text-anchor="middle" x="1201.61" y="-1257.3" font-family="Times,serif" font-size="14.00">VisitorQueued</text>
</g>
<!-- VisitorArrived -->
<g id="node7" class="node">
<title>VisitorArrived</title>
<ellipse fill="none" stroke="black" cx="1201.61" cy="-1174" rx="76.09" ry="18"/>
<text text-anchor="middle" x="1201.61" y="-1170.3" font-family="Times,serif" font-size="14.00">VisitorArrived</text>
</g>
<!-- WelcomeVisitorQuestStarted -->
<g id="node8" class="node">
<title>WelcomeVisitorQuestStarted</title>
<ellipse fill="none" stroke="black" cx="1201.61" cy="-1060" rx="145.67" ry="18"/>
<text text-anchor="middle" x="1201.61" y="-1056.3" font-family="Times,serif" font-size="14.00">WelcomeVisitorQuestStarted</text>
</g>
<!-- FirstVisitorWelcomed -->
<g id="node9" class="node">
<title>FirstVisitorWelcomed</title>
<ellipse fill="none" stroke="black" cx="1201.61" cy="-960" rx="111.28" ry="18"/>
<text text-anchor="middle" x="1201.61" y="-956.3" font-family="Times,serif" font-size="14.00">FirstVisitorWelcomed</text>
</g>
<!-- PickingPrimaryCivBonus -->
<g id="node10" class="node">
<title>PickingPrimaryCivBonus</title>
<ellipse fill="none" stroke="black" cx="1201.61" cy="-873" rx="126.18" ry="18"/>
<text text-anchor="middle" x="1201.61" y="-869.3" font-family="Times,serif" font-size="14.00">PickingPrimaryCivBonus</text>
</g>
<!-- SolvingPrimaryCivQuestPartA -->
<g id="node11" class="node">
<title>SolvingPrimaryCivQuestPartA</title>
<ellipse fill="none" stroke="black" cx="1201.61" cy="-689" rx="151.37" ry="18"/>
<text text-anchor="middle" x="1201.61" y="-685.3" font-family="Times,serif" font-size="14.00">SolvingPrimaryCivQuestPartA</text>
</g>
<!-- SolvingPrimaryCivQuestPartB -->
<g id="node12" class="node">
<title>SolvingPrimaryCivQuestPartB</title>
<ellipse fill="none" stroke="black" cx="1201.61" cy="-482" rx="151.37" ry="18"/>
<text text-anchor="middle" x="1201.61" y="-478.3" font-family="Times,serif" font-size="14.00">SolvingPrimaryCivQuestPartB</text>
</g>
<!-- UnlockingInvitationPathA -->
<g id="node13" class="node">
<title>UnlockingInvitationPathA</title>
<ellipse fill="none" stroke="black" cx="3018.61" cy="-599" rx="129.98" ry="18"/>
<text text-anchor="middle" x="3018.61" y="-595.3" font-family="Times,serif" font-size="14.00">UnlockingInvitationPathA</text>
</g>
<!-- UnlockingInvitationPathB -->
<g id="node14" class="node">
<title>UnlockingInvitationPathB</title>
<ellipse fill="none" stroke="black" cx="1529.61" cy="-118" rx="129.98" ry="18"/>
<text text-anchor="middle" x="1529.61" y="-114.3" font-family="Times,serif" font-size="14.00">UnlockingInvitationPathB</text>
</g>
<!-- DialogueBalanceA -->
<g id="node15" class="node">
<title>DialogueBalanceA</title>
<ellipse fill="none" stroke="black" cx="369.61" cy="-382" rx="94.78" ry="18"/>
<text text-anchor="middle" x="369.61" y="-378.3" font-family="Times,serif" font-size="14.00">DialogueBalanceA</text>
</g>
<!-- DialogueBalanceB -->
<g id="node16" class="node">
<title>DialogueBalanceB</title>
<ellipse fill="none" stroke="black" cx="1598.61" cy="-382" rx="94.78" ry="18"/>
<text text-anchor="middle" x="1598.61" y="-378.3" font-family="Times,serif" font-size="14.00">DialogueBalanceB</text>
</g>
<!-- SolvingSecondaryQuestA -->
<g id="node17" class="node">
<title>SolvingSecondaryQuestA</title>
<ellipse fill="none" stroke="black" cx="647.61" cy="-172" rx="128.08" ry="18"/>
<text text-anchor="middle" x="647.61" y="-168.3" font-family="Times,serif" font-size="14.00">SolvingSecondaryQuestA</text>
</g>
<!-- SolvingSecondaryQuestB -->
<g id="node18" class="node">
<title>SolvingSecondaryQuestB</title>
<ellipse fill="none" stroke="black" cx="1646.61" cy="-226" rx="128.08" ry="18"/>
<text text-anchor="middle" x="1646.61" y="-222.3" font-family="Times,serif" font-size="14.00">SolvingSecondaryQuestB</text>
</g>
<!-- AllDone -->
<g id="node19" class="node">
<title>AllDone</title>
<ellipse fill="none" stroke="black" cx="976.61" cy="-18" rx="46.59" ry="18"/>
<text text-anchor="middle" x="976.61" y="-14.3" font-family="Times,serif" font-size="14.00">AllDone</text>
</g>
</g>
</svg>
