<?xml version="1.0" encoding="UTF-8" standalone="no"?>
<!DOCTYPE svg PUBLIC "-//W3C//DTD SVG 1.1//EN"
 "http://www.w3.org/Graphics/SVG/1.1/DTD/svg11.dtd">
<!-- Generated by graphviz version 2.43.0 (0)
 -->
<!-- Title: MyGraph Pages: 1 -->
<svg width="980pt" height="1201pt"
 viewBox="0.00 0.00 980.18 1201.00" xmlns="http://www.w3.org/2000/svg" xmlns:xlink="http://www.w3.org/1999/xlink">
<g id="graph0" class="graph" transform="scale(1 1) rotate(0) translate(4 1197)">
<title>MyGraph</title>
<polygon fill="white" stroke="transparent" points="-4,4 -4,-1197 976.18,-1197 976.18,4 -4,4"/>
<!-- Initialized&#45;&gt;ServantAccepted -->
<g id="edge1" class="edge">
<title>Initialized&#45;&gt;ServantAccepted</title>
<path fill="none" stroke="black" d="M265.04,-1156.8C265.04,-1145.16 265.04,-1129.55 265.04,-1116.24"/>
<polygon fill="black" stroke="black" points="268.54,-1116.18 265.04,-1106.18 261.54,-1116.18 268.54,-1116.18"/>
<text text-anchor="start" x="265.04" y="-1128.8" font-family="Times,serif" font-size="14.00"> </text>
<text text-anchor="start" x="270.04" y="-1128.8" font-family="Times,serif" font-weight="bold" font-size="14.00">DialogueStoryTrigger</text>
<text text-anchor="start" x="440.04" y="-1128.8" font-family="Times,serif" font-size="14.00"> </text>
<polyline fill="none" stroke="black" points="445.04,-1124 265.04,-1124 265.04,-1131.19 "/>
</g>
<!-- ServantAccepted&#45;&gt;TempleBuilt -->
<g id="edge2" class="edge">
<title>ServantAccepted&#45;&gt;TempleBuilt</title>
<path fill="none" stroke="black" d="M265.04,-1069.8C265.04,-1058.16 265.04,-1042.55 265.04,-1029.24"/>
<polygon fill="black" stroke="black" points="268.54,-1029.18 265.04,-1019.18 261.54,-1029.18 268.54,-1029.18"/>
<text text-anchor="start" x="265.04" y="-1041.8" font-family="Times,serif" font-size="14.00"> </text>
<text text-anchor="start" x="270.04" y="-1041.8" font-family="Times,serif" font-weight="bold" font-size="14.00">BuildingBuilt(Temple)</text>
<text text-anchor="start" x="449.04" y="-1041.8" font-family="Times,serif" font-size="14.00"> </text>
<polyline fill="none" stroke="black" points="454.04,-1037 265.04,-1037 265.04,-1044.19 "/>
</g>
<!-- TempleBuilt&#45;&gt;BuildingWatergate -->
<g id="edge3" class="edge">
<title>TempleBuilt&#45;&gt;BuildingWatergate</title>
<path fill="none" stroke="black" d="M265.04,-982.8C265.04,-971.16 265.04,-955.55 265.04,-942.24"/>
<polygon fill="black" stroke="black" points="268.54,-942.18 265.04,-932.18 261.54,-942.18 268.54,-942.18"/>
<text text-anchor="start" x="265.04" y="-954.8" font-family="Times,serif" font-size="14.00"> </text>
<text text-anchor="start" x="270.04" y="-954.8" font-family="Times,serif" font-weight="bold" font-size="14.00">DialogueStoryTrigger</text>
<text text-anchor="start" x="440.04" y="-954.8" font-family="Times,serif" font-size="14.00"> </text>
<polyline fill="none" stroke="black" points="445.04,-950 265.04,-950 265.04,-957.19 "/>
</g>
<!-- BuildingWatergate&#45;&gt;WatergateBuilt -->
<g id="edge4" class="edge">
<title>BuildingWatergate&#45;&gt;WatergateBuilt</title>
<path fill="none" stroke="black" d="M265.04,-895.8C265.04,-884.16 265.04,-868.55 265.04,-855.24"/>
<polygon fill="black" stroke="black" points="268.54,-855.18 265.04,-845.18 261.54,-855.18 268.54,-855.18"/>
<text text-anchor="start" x="265.04" y="-867.8" font-family="Times,serif" font-size="14.00"> </text>
<text text-anchor="start" x="270.04" y="-867.8" font-family="Times,serif" font-weight="bold" font-size="14.00">BuildingBuilt(Watergate)</text>
<text text-anchor="start" x="473.04" y="-867.8" font-family="Times,serif" font-size="14.00"> </text>
<polyline fill="none" stroke="black" points="478.04,-863 265.04,-863 265.04,-870.19 "/>
</g>
<!-- WatergateBuilt&#45;&gt;VisitorArrived -->
<g id="edge5" class="edge">
<title>WatergateBuilt&#45;&gt;VisitorArrived</title>
<path fill="none" stroke="black" d="M265.04,-808.87C265.04,-793.41 265.04,-770.42 265.04,-752.41"/>
<polygon fill="black" stroke="black" points="268.54,-752.22 265.04,-742.22 261.54,-752.22 268.54,-752.22"/>
<text text-anchor="start" x="468.04" y="-780.8" font-family="Times,serif" font-size="14.00"> </text>
<text text-anchor="start" x="473.04" y="-780.8" font-family="Times,serif" font-weight="bold" font-size="14.00">DialogueStoryTrigger</text>
<text text-anchor="start" x="643.04" y="-780.8" font-family="Times,serif" font-size="14.00"> </text>
<text text-anchor="start" x="265.04" y="-766.8" font-family="Times,serif" font-size="14.00">SendHobo([VisitorDefinition { typ: Yellow, level: HoboLevel(0), hurried: false }, ]) </text>
<polyline fill="none" stroke="black" points="851.04,-763 265.04,-763 265.04,-776.92 "/>
</g>
<!-- VisitorArrived&#45;&gt;VisitorArrived -->
<g id="edge6" class="edge">
<title>VisitorArrived&#45;&gt;VisitorArrived</title>
<path fill="none" stroke="transparent" d="M329.21,-733.66C346.21,-733.11 359.08,-729.89 359.08,-724 359.08,-719.35 351.07,-716.37 339.34,-715.04"/>
<polygon fill="transparent" stroke="transparent" points="339.43,-711.54 329.21,-714.34 338.95,-718.52 339.43,-711.54"/>
<text text-anchor="start" x="359.08" y="-734.8" font-family="Times,serif" font-size="14.00"> </text>
<text text-anchor="start" x="364.08" y="-734.8" font-family="Times,serif" font-weight="bold" font-size="14.00">DialogueStoryTrigger</text>
<text text-anchor="start" x="534.08" y="-734.8" font-family="Times,serif" font-size="14.00"> </text>
<text text-anchor="start" x="362.08" y="-720.8" font-family="Times,serif" font-size="14.00">StartQuest(HelloWorld) </text>
<text text-anchor="start" x="398.58" y="-706.8" font-family="Times,serif" font-size="14.00">AddMana(10) </text>
<polyline fill="none" stroke="black" points="539.08,-703 359.08,-703 359.08,-723.95 "/>
</g>
<!-- VisitorArrived&#45;&gt;FirstVisitorWelcomed -->
<g id="edge7" class="edge">
<title>VisitorArrived&#45;&gt;FirstVisitorWelcomed</title>
<path fill="none" stroke="black" d="M265.04,-705.87C265.04,-690.41 265.04,-667.42 265.04,-649.41"/>
<polygon fill="black" stroke="black" points="268.54,-649.22 265.04,-639.22 261.54,-649.22 268.54,-649.22"/>
<text text-anchor="start" x="265.04" y="-674.8" font-family="Times,serif" font-size="14.00"> </text>
<text text-anchor="start" x="270.04" y="-674.8" font-family="Times,serif" font-weight="bold" font-size="14.00">FinishedQuest(HelloWorld)</text>
<text text-anchor="start" x="487.04" y="-674.8" font-family="Times,serif" font-size="14.00"> </text>
<text text-anchor="start" x="284.54" y="-660.8" font-family="Times,serif" font-size="14.00">StartQuest(CreateForest) </text>
<polyline fill="none" stroke="black" points="492.04,-657 265.04,-657 265.04,-670.64 "/>
</g>
<!-- FirstVisitorWelcomed&#45;&gt;FirstVisitorWelcomed -->
<g id="edge8" class="edge">
<title>FirstVisitorWelcomed&#45;&gt;FirstVisitorWelcomed</title>
<path fill="none" stroke="transparent" d="M374.33,-624.31C386.39,-623.68 394.18,-622.58 394.18,-621 394.18,-619.94 390.66,-619.09 384.7,-618.46"/>
<polygon fill="transparent" stroke="transparent" points="384.56,-614.94 374.33,-617.69 384.04,-621.92 384.56,-614.94"/>
<text text-anchor="start" x="397.68" y="-624.8" font-family="Times,serif" font-size="14.00"> </text>
<text text-anchor="start" x="402.68" y="-624.8" font-family="Times,serif" font-weight="bold" font-size="14.00">FinishedQuest(CreateForest)</text>
<text text-anchor="start" x="633.68" y="-624.8" font-family="Times,serif" font-size="14.00"> </text>
<text text-anchor="start" x="394.18" y="-610.8" font-family="Times,serif" font-size="14.00">StartQuest(BuildBundlingStation) </text>
<polyline fill="none" stroke="black" points="642.18,-607 394.18,-607 394.18,-620.98 "/>
</g>
<!-- FirstVisitorWelcomed&#45;&gt;FirstVisitorWelcomed -->
<g id="edge9" class="edge">
<title>FirstVisitorWelcomed&#45;&gt;FirstVisitorWelcomed</title>
<path fill="none" stroke="transparent" d="M368.51,-627.62C481.77,-630.55 642.18,-628.34 642.18,-621 642.18,-613.87 491.03,-611.58 378.58,-614.13"/>
<polygon fill="transparent" stroke="transparent" points="378.42,-610.63 368.51,-614.38 378.59,-617.63 378.42,-610.63"/>
<text text-anchor="start" x="642.18" y="-624.8" font-family="Times,serif" font-size="14.00"> </text>
<text text-anchor="start" x="647.18" y="-624.8" font-family="Times,serif" font-weight="bold" font-size="14.00">FinishedQuest(BuildBundlingStation)</text>
<text text-anchor="start" x="949.18" y="-624.8" font-family="Times,serif" font-size="14.00"> </text>
<text text-anchor="start" x="679.18" y="-610.8" font-family="Times,serif" font-size="14.00">StartQuest(UseBundlingStation) </text>
<polyline fill="none" stroke="black" points="954.18,-607 642.18,-607 642.18,-620.98 "/>
</g>
<!-- FirstVisitorWelcomed&#45;&gt;PickingPrimaryCivBonus -->
<g id="edge10" class="edge">
<title>FirstVisitorWelcomed&#45;&gt;PickingPrimaryCivBonus</title>
<path fill="none" stroke="black" d="M265.04,-602.8C265.04,-591.16 265.04,-575.55 265.04,-562.24"/>
<polygon fill="black" stroke="black" points="268.54,-562.18 265.04,-552.18 261.54,-562.18 268.54,-562.18"/>
<text text-anchor="start" x="265.04" y="-574.8" font-family="Times,serif" font-size="14.00"> </text>
<text text-anchor="start" x="270.04" y="-574.8" font-family="Times,serif" font-weight="bold" font-size="14.00">FinishedQuest(UseBundlingStation)</text>
<text text-anchor="start" x="559.04" y="-574.8" font-family="Times,serif" font-size="14.00"> </text>
<polyline fill="none" stroke="black" points="564.04,-570 265.04,-570 265.04,-577.19 "/>
</g>
<!-- PickingPrimaryCivBonus&#45;&gt;SolvingPrimaryCivQuestPartA -->
<g id="edge11" class="edge">
<title>PickingPrimaryCivBonus&#45;&gt;SolvingPrimaryCivQuestPartA</title>
<path fill="none" stroke="black" d="M148.37,-527.07C106.02,-522.26 65.29,-513.6 52.04,-498 39.96,-483.77 39.96,-470.23 52.04,-456 62.59,-443.57 90.57,-435.55 122.91,-430.37"/>
<polygon fill="black" stroke="black" points="123.7,-433.8 133.08,-428.86 122.67,-426.87 123.7,-433.8"/>
<text text-anchor="start" x="52.04" y="-480.8" font-family="Times,serif" font-size="14.00"> </text>
<text text-anchor="start" x="57.04" y="-480.8" font-family="Times,serif" font-weight="bold" font-size="14.00">DialogueChoice(StoryChoice { chosen_option: 0 })</text>
<text text-anchor="start" x="452.04" y="-480.8" font-family="Times,serif" font-size="14.00"> </text>
<text text-anchor="start" x="176.04" y="-466.8" font-family="Times,serif" font-size="14.00">StartQuest(Socialize) </text>
<polyline fill="none" stroke="black" points="457.04,-463 52.04,-463 148.36,-527.07 "/>
</g>
<!-- PickingPrimaryCivBonus&#45;&gt;SolvingPrimaryCivQuestPartA -->
<g id="edge12" class="edge">
<title>PickingPrimaryCivBonus&#45;&gt;SolvingPrimaryCivQuestPartA</title>
<path fill="none" stroke="black" d="M374.74,-525.09C411.3,-520 445.64,-511.66 457.04,-498 469,-483.67 469,-470.33 457.04,-456 447.99,-445.15 424.45,-437.65 396.83,-432.48"/>
<polygon fill="black" stroke="black" points="397.36,-429.02 386.9,-430.74 396.15,-435.91 397.36,-429.02"/>
<text text-anchor="start" x="466.04" y="-487.8" font-family="Times,serif" font-size="14.00"> </text>
<text text-anchor="start" x="471.04" y="-487.8" font-family="Times,serif" font-weight="bold" font-size="14.00">DialogueChoice(StoryChoice { chosen_option: 1 })</text>
<text text-anchor="start" x="866.04" y="-487.8" font-family="Times,serif" font-size="14.00"> </text>
<text text-anchor="start" x="585.54" y="-473.8" font-family="Times,serif" font-size="14.00">StartQuest(BuildNest) </text>
<text text-anchor="start" x="573.04" y="-459.8" font-family="Times,serif" font-size="14.00">UnlockPerk(NestBuilding) </text>
<polyline fill="none" stroke="black" points="871.04,-456 466.04,-456 466.01,-477 "/>
</g>
<!-- SolvingPrimaryCivQuestPartA&#45;&gt;SolvingPrimaryCivQuestPartB -->
<g id="edge13" class="edge">
<title>SolvingPrimaryCivQuestPartA&#45;&gt;SolvingPrimaryCivQuestPartB</title>
<path fill="none" stroke="black" d="M177.36,-405.23C167.09,-400.12 157.87,-393.24 151.04,-384 139.94,-368.99 139.94,-357.01 151.04,-342 155.84,-335.5 161.83,-330.17 168.53,-325.81"/>
<polygon fill="black" stroke="black" points="170.4,-328.77 177.36,-320.77 166.94,-322.68 170.4,-328.77"/>
<text text-anchor="start" x="151.04" y="-373.8" font-family="Times,serif" font-size="14.00"> </text>
<text text-anchor="start" x="156.04" y="-373.8" font-family="Times,serif" font-weight="bold" font-size="14.00">FinishedQuest(Socialize)</text>
<text text-anchor="start" x="354.04" y="-373.8" font-family="Times,serif" font-size="14.00"> </text>
<text text-anchor="start" x="157.54" y="-359.8" font-family="Times,serif" font-size="14.00">StartQuest(SocializeMore) </text>
<text text-anchor="start" x="172.04" y="-345.8" font-family="Times,serif" font-size="14.00">UnlockPerk(Invitation) </text>
<polyline fill="none" stroke="black" points="359.04,-342 151.04,-342 177.35,-405.22 "/>
</g>
<!-- SolvingPrimaryCivQuestPartA&#45;&gt;SolvingPrimaryCivQuestPartB -->
<g id="edge14" class="edge">
<title>SolvingPrimaryCivQuestPartA&#45;&gt;SolvingPrimaryCivQuestPartB</title>
<path fill="none" stroke="black" d="M335.49,-403.96C344.75,-399.06 353.08,-392.58 359.04,-384 369.69,-368.67 369.69,-357.33 359.04,-342 355.03,-336.23 349.96,-331.42 344.25,-327.39"/>
<polygon fill="black" stroke="black" points="345.84,-324.26 335.49,-322.04 342.2,-330.24 345.84,-324.26"/>
<text text-anchor="start" x="367.04" y="-366.8" font-family="Times,serif" font-size="14.00"> </text>
<text text-anchor="start" x="372.04" y="-366.8" font-family="Times,serif" font-weight="bold" font-size="14.00">FinishedQuest(BuildNest)</text>
<text text-anchor="start" x="580.04" y="-366.8" font-family="Times,serif" font-size="14.00"> </text>
<text text-anchor="start" x="372.04" y="-352.8" font-family="Times,serif" font-size="14.00">StartQuest(GrowPopulation) </text>
<polyline fill="none" stroke="black" points="585.04,-349 367.04,-349 367.03,-363 "/>
</g>
<!-- SolvingPrimaryCivQuestPartB&#45;&gt;DialogueBalanceA -->
<g id="edge15" class="edge">
<title>SolvingPrimaryCivQuestPartB&#45;&gt;DialogueBalanceA</title>
<path fill="none" stroke="black" d="M179.87,-291.01C157.76,-285.62 138.13,-278.64 131.04,-270 125.9,-263.74 124.1,-255.41 123.89,-247.35"/>
<polygon fill="black" stroke="black" points="127.4,-247.27 124.39,-237.11 120.41,-246.93 127.4,-247.27"/>
<text text-anchor="start" x="131.04" y="-259.8" font-family="Times,serif" font-size="14.00"> </text>
<text text-anchor="start" x="136.04" y="-259.8" font-family="Times,serif" font-weight="bold" font-size="14.00">FinishedQuest(SocializeMore)</text>
<text text-anchor="start" x="375.04" y="-259.8" font-family="Times,serif" font-size="14.00"> </text>
<polyline fill="none" stroke="black" points="380.04,-255 131.04,-255 179.87,-291.01 "/>
</g>
<!-- SolvingPrimaryCivQuestPartB&#45;&gt;DialogueBalanceB -->
<g id="edge16" class="edge">
<title>SolvingPrimaryCivQuestPartB&#45;&gt;DialogueBalanceB</title>
<path fill="none" stroke="black" d="M344.62,-290.66C357.49,-285.69 369.89,-279 380.04,-270 386.97,-263.85 391.82,-255.1 395.16,-246.64"/>
<polygon fill="black" stroke="black" points="398.53,-247.61 398.43,-237.02 391.9,-245.36 398.53,-247.61"/>
<text text-anchor="start" x="391.04" y="-259.8" font-family="Times,serif" font-size="14.00"> </text>
<text text-anchor="start" x="396.04" y="-259.8" font-family="Times,serif" font-weight="bold" font-size="14.00">FinishedQuest(GrowPopulation)</text>
<text text-anchor="start" x="651.04" y="-259.8" font-family="Times,serif" font-size="14.00"> </text>
<polyline fill="none" stroke="black" points="656.04,-255 391.04,-255 395.16,-246.65 "/>
</g>
<!-- DialogueBalanceA&#45;&gt;SolvingSecondaryQuestA -->
<g id="edge17" class="edge">
<title>DialogueBalanceA&#45;&gt;SolvingSecondaryQuestA</title>
<path fill="none" stroke="black" d="M128.04,-200.99C128.04,-183.06 128.04,-154.56 128.04,-133.44"/>
<polygon fill="black" stroke="black" points="131.54,-133.17 128.04,-123.17 124.54,-133.17 131.54,-133.17"/>
<text text-anchor="start" x="142.04" y="-165.8" font-family="Times,serif" font-size="14.00"> </text>
<text text-anchor="start" x="147.04" y="-165.8" font-family="Times,serif" font-weight="bold" font-size="14.00">DialogueStoryTrigger</text>
<text text-anchor="start" x="317.04" y="-165.8" font-family="Times,serif" font-size="14.00"> </text>
<text text-anchor="start" x="128.04" y="-151.8" font-family="Times,serif" font-size="14.00">StartQuest(GrowPopulation) </text>
<polyline fill="none" stroke="black" points="336.04,-148 128.04,-148 128.04,-162.2 "/>
</g>
<!-- DialogueBalanceB&#45;&gt;SolvingSecondaryQuestB -->
<g id="edge18" class="edge">
<title>DialogueBalanceB&#45;&gt;SolvingSecondaryQuestB</title>
<path fill="none" stroke="black" d="M402.49,-200.99C402.97,-183.06 403.74,-154.56 404.3,-133.44"/>
<polygon fill="black" stroke="black" points="407.81,-133.26 404.58,-123.17 400.81,-133.07 407.81,-133.26"/>
<text text-anchor="start" x="412.54" y="-172.8" font-family="Times,serif" font-size="14.00"> </text>
<text text-anchor="start" x="417.54" y="-172.8" font-family="Times,serif" font-weight="bold" font-size="14.00">DialogueStoryTrigger</text>
<text text-anchor="start" x="587.54" y="-172.8" font-family="Times,serif" font-size="14.00"> </text>
<text text-anchor="start" x="419.54" y="-158.8" font-family="Times,serif" font-size="14.00">UnlockPerk(Invitation) </text>
<text text-anchor="start" x="405.04" y="-144.8" font-family="Times,serif" font-size="14.00">StartQuest(SocializeMore) </text>
<polyline fill="none" stroke="black" points="600.04,-141 405.04,-141 403.62,-159.08 "/>
</g>
<!-- SolvingSecondaryQuestA&#45;&gt;AllDone -->
<g id="edge19" class="edge">
<title>SolvingSecondaryQuestA&#45;&gt;AllDone</title>
<path fill="none" stroke="black" d="M120.16,-86.56C116.73,-76.09 114.91,-63.08 122.04,-54 133.06,-39.95 174.64,-30.82 210.15,-25.41"/>
<polygon fill="black" stroke="black" points="211.05,-28.82 220.45,-23.92 210.05,-21.89 211.05,-28.82"/>
<text text-anchor="start" x="122.04" y="-58.8" font-family="Times,serif" font-size="14.00"> </text>
<text text-anchor="start" x="127.04" y="-58.8" font-family="Times,serif" font-weight="bold" font-size="14.00">FinishedQuest(GrowPopulation)</text>
<text text-anchor="start" x="382.04" y="-58.8" font-family="Times,serif" font-size="14.00"> </text>
<polyline fill="none" stroke="black" points="387.04,-54 122.04,-54 210.14,-25.41 "/>
</g>
<!-- SolvingSecondaryQuestB&#45;&gt;AllDone -->
<g id="edge20" class="edge">
<title>SolvingSecondaryQuestB&#45;&gt;AllDone</title>
<path fill="none" stroke="black" d="M402.92,-86.99C400.71,-76.15 396.2,-62.57 387.04,-54 369.17,-37.28 343.84,-28.48 320.89,-23.87"/>
<polygon fill="black" stroke="black" points="321.35,-20.4 310.89,-22.09 320.12,-27.29 321.35,-20.4"/>
<text text-anchor="start" x="397.04" y="-58.8" font-family="Times,serif" font-size="14.00"> </text>
<text text-anchor="start" x="402.04" y="-58.8" font-family="Times,serif" font-weight="bold" font-size="14.00">FinishedQuest(SocializeMore)</text>
<text text-anchor="start" x="641.04" y="-58.8" font-family="Times,serif" font-size="14.00"> </text>
<polyline fill="none" stroke="black" points="646.04,-54 397.04,-54 402.81,-86.48 "/>
</g>
<!-- Initialized -->
<g id="node1" class="node">
<title>Initialized</title>
<ellipse fill="none" stroke="black" cx="265.04" cy="-1175" rx="57.39" ry="18"/>
<text text-anchor="middle" x="265.04" y="-1171.3" font-family="Times,serif" font-size="14.00">Initialized</text>
</g>
<!-- ServantAccepted -->
<g id="node2" class="node">
<title>ServantAccepted</title>
<ellipse fill="none" stroke="black" cx="265.04" cy="-1088" rx="89.88" ry="18"/>
<text text-anchor="middle" x="265.04" y="-1084.3" font-family="Times,serif" font-size="14.00">ServantAccepted</text>
</g>
<!-- TempleBuilt -->
<g id="node3" class="node">
<title>TempleBuilt</title>
<ellipse fill="none" stroke="black" cx="265.04" cy="-1001" rx="66.89" ry="18"/>
<text text-anchor="middle" x="265.04" y="-997.3" font-family="Times,serif" font-size="14.00">TempleBuilt</text>
</g>
<!-- BuildingWatergate -->
<g id="node4" class="node">
<title>BuildingWatergate</title>
<ellipse fill="none" stroke="black" cx="265.04" cy="-914" rx="98.28" ry="18"/>
<text text-anchor="middle" x="265.04" y="-910.3" font-family="Times,serif" font-size="14.00">BuildingWatergate</text>
</g>
<!-- WatergateBuilt -->
<g id="node5" class="node">
<title>WatergateBuilt</title>
<ellipse fill="none" stroke="black" cx="265.04" cy="-827" rx="81.49" ry="18"/>
<text text-anchor="middle" x="265.04" y="-823.3" font-family="Times,serif" font-size="14.00">WatergateBuilt</text>
</g>
<!-- VisitorArrived -->
<g id="node6" class="node">
<title>VisitorArrived</title>
<ellipse fill="none" stroke="black" cx="265.04" cy="-724" rx="76.09" ry="18"/>
<text text-anchor="middle" x="265.04" y="-720.3" font-family="Times,serif" font-size="14.00">VisitorArrived</text>
</g>
<!-- FirstVisitorWelcomed -->
<g id="node7" class="node">
<title>FirstVisitorWelcomed</title>
<ellipse fill="none" stroke="black" cx="265.04" cy="-621" rx="111.28" ry="18"/>
<text text-anchor="middle" x="265.04" y="-617.3" font-family="Times,serif" font-size="14.00">FirstVisitorWelcomed</text>
</g>
<!-- PickingPrimaryCivBonus -->
<g id="node8" class="node">
<title>PickingPrimaryCivBonus</title>
<ellipse fill="none" stroke="black" cx="265.04" cy="-534" rx="126.18" ry="18"/>
<text text-anchor="middle" x="265.04" y="-530.3" font-family="Times,serif" font-size="14.00">PickingPrimaryCivBonus</text>
</g>
<!-- SolvingPrimaryCivQuestPartA -->
<g id="node9" class="node">
<title>SolvingPrimaryCivQuestPartA</title>
<ellipse fill="none" stroke="black" cx="265.04" cy="-420" rx="151.37" ry="18"/>
<text text-anchor="middle" x="265.04" y="-416.3" font-family="Times,serif" font-size="14.00">SolvingPrimaryCivQuestPartA</text>
</g>
<!-- SolvingPrimaryCivQuestPartB -->
<g id="node10" class="node">
<title>SolvingPrimaryCivQuestPartB</title>
<ellipse fill="none" stroke="black" cx="265.04" cy="-306" rx="151.37" ry="18"/>
<text text-anchor="middle" x="265.04" y="-302.3" font-family="Times,serif" font-size="14.00">SolvingPrimaryCivQuestPartB</text>
</g>
<!-- DialogueBalanceA -->
<g id="node11" class="node">
<title>DialogueBalanceA</title>
<ellipse fill="none" stroke="black" cx="128.04" cy="-219" rx="94.78" ry="18"/>
<text text-anchor="middle" x="128.04" y="-215.3" font-family="Times,serif" font-size="14.00">DialogueBalanceA</text>
</g>
<!-- DialogueBalanceB -->
<g id="node12" class="node">
<title>DialogueBalanceB</title>
<ellipse fill="none" stroke="black" cx="402.04" cy="-219" rx="94.78" ry="18"/>
<text text-anchor="middle" x="402.04" y="-215.3" font-family="Times,serif" font-size="14.00">DialogueBalanceB</text>
</g>
<!-- SolvingSecondaryQuestA -->
<g id="node13" class="node">
<title>SolvingSecondaryQuestA</title>
<ellipse fill="none" stroke="black" cx="128.04" cy="-105" rx="128.08" ry="18"/>
<text text-anchor="middle" x="128.04" y="-101.3" font-family="Times,serif" font-size="14.00">SolvingSecondaryQuestA</text>
</g>
<!-- SolvingSecondaryQuestB -->
<g id="node14" class="node">
<title>SolvingSecondaryQuestB</title>
<ellipse fill="none" stroke="black" cx="405.04" cy="-105" rx="128.08" ry="18"/>
<text text-anchor="middle" x="405.04" y="-101.3" font-family="Times,serif" font-size="14.00">SolvingSecondaryQuestB</text>
</g>
<!-- AllDone -->
<g id="node15" class="node">
<title>AllDone</title>
<ellipse fill="none" stroke="black" cx="265.04" cy="-18" rx="46.59" ry="18"/>
<text text-anchor="middle" x="265.04" y="-14.3" font-family="Times,serif" font-size="14.00">AllDone</text>
</g>
</g>
</svg>
