<?xml version="1.0" encoding="UTF-8" standalone="no"?>
<!-- Created with Inkscape (http://www.inkscape.org/) -->

<svg
   xmlns:dc="http://purl.org/dc/elements/1.1/"
   xmlns:cc="http://creativecommons.org/ns#"
   xmlns:rdf="http://www.w3.org/1999/02/22-rdf-syntax-ns#"
   xmlns:svg="http://www.w3.org/2000/svg"
   xmlns="http://www.w3.org/2000/svg"
   xmlns:sodipodi="http://sodipodi.sourceforge.net/DTD/sodipodi-0.dtd"
   xmlns:inkscape="http://www.inkscape.org/namespaces/inkscape"
   width="510.75098mm"
   height="510.75098mm"
   viewBox="0 0 510.75099 510.75098"
   version="1.1"
   id="svg8"
   inkscape:version="0.92.3 (2405546, 2018-03-11)"
   sodipodi:docname="logo_shilouette.svg"
   inkscape:export-filename="/home/jakmeier/fun/gamedev/paddlers/paddlers-frontend/art/logo_round.png"
   inkscape:export-xdpi="8.9515247"
   inkscape:export-ydpi="8.9515247">
  <defs
     id="defs2" />
  <sodipodi:namedview
     id="base"
     pagecolor="#ffffff"
     bordercolor="#666666"
     borderopacity="1.0"
     inkscape:pageopacity="0.0"
     inkscape:pageshadow="2"
     inkscape:zoom="0.22627417"
     inkscape:cx="-824.62683"
     inkscape:cy="579.33203"
     inkscape:document-units="mm"
     inkscape:current-layer="layer1"
     showgrid="false"
     inkscape:window-width="3750"
     inkscape:window-height="2049"
     inkscape:window-x="90"
     inkscape:window-y="55"
     inkscape:window-maximized="1" />
  <metadata
     id="metadata5">
    <rdf:RDF>
      <cc:Work
         rdf:about="">
        <dc:format>image/svg+xml</dc:format>
        <dc:type
           rdf:resource="http://purl.org/dc/dcmitype/StillImage" />
        <dc:title />
      </cc:Work>
    </rdf:RDF>
  </metadata>
  <g
     inkscape:label="Layer 1"
     inkscape:groupmode="layer"
     id="layer1"
     transform="translate(838.91191,140.91134)"
     style="display:inline">
    <path
       style="opacity:1;fill:#4099e5;fill-opacity:1;stroke-width:0.99999994"
       d="m 962.32031,0.00585938 c -2.52204,-0.00879048 -5.04458,-0.00742303 -7.5664,0.00390625 C 703.69239,1.1376582 454.12151,102.01566 285.125,311.25195 145.59879,470.51987 60.10184,679.87579 46.505859,895.37109 -17.00838,1518.0183 602.38224,2066.4335 1178.9688,1900.3496 1766.2124,1779.6492 2085.2074,999.19775 1762.4492,472.04492 1604.0538,164.42419 1282.6199,1.1222498 962.32031,0.00585938 Z M 678.75781,566.29688 c 59.38918,-0.12328 117.99194,28.88789 158.65039,71.92773 41.11711,41.9689 72.08264,95.39811 84.11133,153.02148 -0.50748,41.94364 -40.34394,68.90764 -75.93945,81.84571 -132.035,52.24751 -278.08033,53.18728 -417.71289,43.77539 -66.92398,2.46735 -122.79143,-70.59555 -102.16016,-134.49414 13.08737,-38.11048 39.30197,-70.9015 68.73633,-97.83594 67.70665,-58.88174 156.02103,-83.45153 239.03125,-112.2168 14.95651,-4.06783 30.14479,-5.99207 45.2832,-6.02343 z m 574.61719,18.78124 c 22.0335,-0.0292 44.0351,3.90001 64.916,12.47266 87.5141,29.80558 181.8855,59.02187 245.0332,130.71484 21.8255,28.20859 46.2783,59.16983 47.5703,96.45704 3.483,58.00059 -47.5943,112.42425 -106.0625,110.89453 -96.7775,7.19066 -194.6704,7.21969 -290.6601,-8.48633 -47.7573,-8.30547 -95.1121,-21.25409 -139.6524,-40.55078 -32.0439,-14.02601 -65.5958,-41.68422 -63.2226,-80.1582 16.6591,-66.39154 54.5904,-127.73172 107.789,-171.00391 37.1869,-31.05686 85.8153,-50.27555 134.2891,-50.33985 z m -606.45898,86.3418 c -8.52275,0.1031 -17.15526,1.26967 -25.75977,3.625 -99.11501,20.99334 -118.19222,170.42566 -30.49414,218.66211 75.8996,51.59616 184.39914,-21.69139 172.64258,-110.52539 -2.40217,-61.06235 -56.72945,-112.4834 -116.38867,-111.76172 z m 638.86518,18.75 c -59.6591,-0.7217 -113.9865,50.69938 -116.3886,111.76172 -11.7565,88.83401 96.7429,162.12154 172.6426,110.52539 87.6981,-48.23645 68.6209,-197.66878 -30.4942,-218.66211 -8.6045,-2.35534 -17.237,-3.5219 -25.7598,-3.625 z m -595.84565,58.59766 c 13.0985,0.24256 25.98414,8.75789 27.34765,26.2207 4.42821,36.53387 -55.66058,40.65404 -56.25,3.84766 -1.0628,-19.99324 14.05738,-30.34326 28.90235,-30.06836 z m 639.52535,20.56445 c 14.9426,0.15258 29.911,10.47564 28.1407,29.81641 -0.5894,36.80639 -60.6763,32.68622 -56.2481,-3.84766 0.7764,-17.11825 13.4986,-25.50597 26.6621,-25.95117 0.4814,-0.0163 0.9633,-0.0225 1.4453,-0.0176 z M 955.58008,885.83984 c 17.37615,-0.35918 34.09474,5.68488 49.54292,13.09961 113.5358,69.61638 243.9363,109.83225 376.4454,120.84375 25.1646,29.6603 -29.6656,64.8275 -60.9454,67.8047 -38.0968,9.1011 -108.141,30.3949 -84.1152,82.7226 34.2628,99.889 115.5836,172.2363 183.4414,249.5743 30.2453,23.8455 61.1148,97.3659 -4.1074,91.7949 -4.6306,-0.6916 -9.2659,-1.3311 -13.9043,-1.9434 9.6116,15.4644 18.6117,31.351 26.8711,47.7422 6.9035,18.2702 10.628,39.1058 3.4258,57.8926 -186.5621,37.8456 -381.4793,70.4519 -570.02542,26.5605 -110.88437,-23.3868 -189.95007,-123.4601 -219.05859,-228.6953 -27.11603,-85.3927 -19.5425,-176.6524 -10.19531,-264.289 0.27387,-2.1433 0.61532,-4.291 1.0039,-6.4395 -17.56327,-20.2449 -43.2103,-35.1501 -66.24414,-47.3574 -32.98454,-15.9883 -103.16813,-68.1234 -63.52539,-101.58009 72.57343,-27.42395 153.4395,-0.02 226.80274,-24.91601 81.79275,-5.15135 148.98811,-57.38085 224.58789,-82.81446 z"
       transform="matrix(0.26458333,0,0,0.26458333,-838.91191,-140.91134)"
       id="path823"
       inkscape:connector-curvature="0" />
    <path
       style="fill:none;stroke:none;stroke-width:0.26458332px;stroke-linecap:butt;stroke-linejoin:miter;stroke-opacity:1"
       d="m -594.89015,-165.54393 c -425.81855,-55.65502 -151.47289,65.4081 -8.17696,75.212506"
       id="path825"
       inkscape:connector-curvature="0"
       sodipodi:nodetypes="cc" />
    <path
       style="fill:none;stroke:none;stroke-width:0.26458332px;stroke-linecap:butt;stroke-linejoin:miter;stroke-opacity:1"
       d="M -152.90533,-0.0892841 C 30.791115,79.28571 307.46966,-619.21429 105.63038,196.45834"
       id="path837"
       inkscape:connector-curvature="0"
       sodipodi:nodetypes="cc" />
    <g
       style="display:inline"
       transform="translate(-3.898541e-5,1.3824971e-4)"
       id="layer1-3"
       inkscape:label="Layer 1">
      <path
         sodipodi:nodetypes="cc"
         inkscape:connector-curvature="0"
         id="path825-6"
         d="m -594.89015,-165.54393 c -425.81855,-55.65502 -151.47289,65.4081 -8.17696,75.212506"
         style="fill:none;stroke:none;stroke-width:0.26458332px;stroke-linecap:butt;stroke-linejoin:miter;stroke-opacity:1" />
      <path
         sodipodi:nodetypes="cc"
         inkscape:connector-curvature="0"
         id="path837-2"
         d="M -152.90533,-0.0892841 C 30.791115,79.28571 307.46966,-619.21429 105.63038,196.45834"
         style="fill:none;stroke:none;stroke-width:0.26458332px;stroke-linecap:butt;stroke-linejoin:miter;stroke-opacity:1" />
    </g>
  </g>
</svg>
