<?xml version="1.0" encoding="UTF-8" standalone="no"?>
<!-- Created with Inkscape (http://www.inkscape.org/) -->

<svg
   xmlns:dc="http://purl.org/dc/elements/1.1/"
   xmlns:cc="http://creativecommons.org/ns#"
   xmlns:rdf="http://www.w3.org/1999/02/22-rdf-syntax-ns#"
   xmlns:svg="http://www.w3.org/2000/svg"
   xmlns="http://www.w3.org/2000/svg"
   xmlns:sodipodi="http://sodipodi.sourceforge.net/DTD/sodipodi-0.dtd"
   xmlns:inkscape="http://www.inkscape.org/namespaces/inkscape"
   width="200mm"
   height="100mm"
   viewBox="0 0 200 100"
   version="1.1"
   id="svg8"
   inkscape:version="0.92.5 (2060ec1f9f, 2020-04-08)"
   sodipodi:docname="religion.svg">
  <defs
     id="defs2" />
  <sodipodi:namedview
     id="base"
     pagecolor="#ffffff"
     bordercolor="#666666"
     borderopacity="1.0"
     inkscape:pageopacity="0.0"
     inkscape:pageshadow="2"
     inkscape:zoom="0.70710678"
     inkscape:cx="612.91026"
     inkscape:cy="150.28026"
     inkscape:document-units="mm"
     inkscape:current-layer="layer1"
     showgrid="false"
     inkscape:window-width="1848"
     inkscape:window-height="2032"
     inkscape:window-x="144"
     inkscape:window-y="54"
     inkscape:window-maximized="0" />
  <metadata
     id="metadata5">
    <rdf:RDF>
      <cc:Work
         rdf:about="">
        <dc:format>image/svg+xml</dc:format>
        <dc:type
           rdf:resource="http://purl.org/dc/dcmitype/StillImage" />
        <dc:title></dc:title>
      </cc:Work>
    </rdf:RDF>
  </metadata>
  <g
     inkscape:label="Layer 1"
     inkscape:groupmode="layer"
     id="layer1"
     transform="translate(0,-197)">
    <rect
       style="fill:#000000;fill-opacity:1;stroke:none;stroke-width:4.21586752;stroke-miterlimit:4;stroke-dasharray:none;stroke-dashoffset:0;stroke-opacity:1"
       id="rect815"
       width="200"
       height="100"
       x="-0.00014765511"
       y="197"
       ry="0.3001757" />
    <path
       style="fill:#ffffff;fill-opacity:1;stroke:none;stroke-width:2.04171968;stroke-miterlimit:4;stroke-dasharray:none;stroke-dashoffset:0;stroke-opacity:1"
       d="m 92.061187,206.43235 c 1.214384,4.55826 11.236573,6.07723 10.001393,24.39772 -2.659145,10.18204 -7.916565,12.50718 -14.100011,18.92816 -5.515759,5.75401 -6.68773,7.60457 -7.023328,17.32963 -1.1e-5,11.11344 9.009214,20.12266 20.122649,20.12266 11.11345,0 20.99051,-7.32583 24.9415,-17.71324 15.96039,-41.9609 -20.82588,-59.38473 -33.942203,-63.06493 z"
       id="path819"
       inkscape:connector-curvature="0"
       sodipodi:nodetypes="cccccsc" />
    <path
       style="fill:#ffffff;fill-opacity:1;stroke:none;stroke-width:0.75384349;stroke-miterlimit:4;stroke-dasharray:none;stroke-dashoffset:0;stroke-opacity:1"
       d="m 53.890474,261.30498 c -0.448375,-1.683 -4.148765,-2.24383 -3.692711,-9.00812 0.981807,-3.75941 2.922951,-4.6179 5.206002,-6.98865 2.036528,-2.1245 2.469243,-2.80776 2.593152,-6.39845 4e-6,-4.1033 -3.326381,-7.42968 -7.429683,-7.42968 -4.103302,0 -7.750115,2.70484 -9.208899,6.54008 -5.892887,15.4928 7.689332,21.92602 12.532139,23.28482 z"
       id="path819-6"
       inkscape:connector-curvature="0"
       sodipodi:nodetypes="cccccsc" />
    <path
       style="fill:#ffffff;fill-opacity:1;stroke:none;stroke-width:0.75384355;stroke-miterlimit:4;stroke-dasharray:none;stroke-dashoffset:0;stroke-opacity:1"
       d="m 154.76474,261.11244 c 0.44838,-1.683 4.14877,-2.24383 3.69272,-9.00812 -0.98181,-3.75941 -2.92296,-4.6179 -5.20601,-6.98865 -2.03652,-2.1245 -2.46924,-2.80776 -2.59315,-6.39845 0,-4.1033 3.32638,-7.42968 7.42968,-7.42968 4.10331,0 7.75012,2.70484 9.2089,6.54008 5.89289,15.4928 -7.68933,21.92602 -12.53214,23.28482 z"
       id="path819-6-5"
       inkscape:connector-curvature="0"
       sodipodi:nodetypes="cccccsc" />
    <path
       style="fill:#ffffff;fill-opacity:1;stroke:none;stroke-width:0.75384355;stroke-miterlimit:4;stroke-dasharray:none;stroke-dashoffset:0;stroke-opacity:1"
       d="m 53.770932,229.03217 c -0.448375,-1.683 -4.148764,-2.24383 -3.692711,-9.00812 0.981807,-3.75941 2.922951,-4.6179 5.206002,-6.98865 2.036528,-2.1245 2.469243,-2.80776 2.593152,-6.39845 4e-6,-4.1033 -3.326381,-7.42968 -7.429683,-7.42968 -4.103302,0 -7.750115,2.70484 -9.208899,6.54008 -5.892887,15.4928 7.689332,21.92602 12.532139,23.28482 z"
       id="path819-6-3"
       inkscape:connector-curvature="0"
       sodipodi:nodetypes="cccccsc" />
    <path
       style="fill:#ffffff;fill-opacity:1;stroke:none;stroke-width:0.75384355;stroke-miterlimit:4;stroke-dasharray:none;stroke-dashoffset:0;stroke-opacity:1"
       d="m 52.461312,293.95194 c -0.448375,-1.683 -4.148765,-2.24383 -3.692711,-9.00812 0.981807,-3.75941 2.922951,-4.6179 5.206002,-6.98865 2.036528,-2.1245 2.469243,-2.80776 2.593152,-6.39845 4e-6,-4.1033 -3.326381,-7.42968 -7.429683,-7.42968 -4.103302,0 -7.750115,2.70484 -9.208899,6.54008 -5.892887,15.4928 7.689332,21.92602 12.532139,23.28482 z"
       id="path819-6-56"
       inkscape:connector-curvature="0"
       sodipodi:nodetypes="cccccsc" />
    <path
       style="fill:#ffffff;fill-opacity:1;stroke:none;stroke-width:0.75384361;stroke-miterlimit:4;stroke-dasharray:none;stroke-dashoffset:0;stroke-opacity:1"
       d="m 152.58787,229.03217 c 0.44838,-1.683 4.14877,-2.24383 3.69272,-9.00812 -0.98181,-3.75941 -2.92296,-4.6179 -5.20601,-6.98865 -2.03652,-2.1245 -2.46924,-2.80776 -2.59315,-6.39845 0,-4.1033 3.32638,-7.42968 7.42968,-7.42968 4.10331,0 7.75012,2.70484 9.2089,6.54008 5.89289,15.4928 -7.68933,21.92602 -12.53214,23.28482 z"
       id="path819-6-5-2"
       inkscape:connector-curvature="0"
       sodipodi:nodetypes="cccccsc" />
    <path
       style="fill:#ffffff;fill-opacity:1;stroke:none;stroke-width:0.75384361;stroke-miterlimit:4;stroke-dasharray:none;stroke-dashoffset:0;stroke-opacity:1"
       d="m 156.89091,293.95194 c 0.44838,-1.683 4.14877,-2.24383 3.69272,-9.00812 -0.98181,-3.75941 -2.92296,-4.6179 -5.20601,-6.98865 -2.03652,-2.1245 -2.46924,-2.80776 -2.59315,-6.39845 0,-4.1033 3.32638,-7.42968 7.42968,-7.42968 4.10331,0 7.75012,2.70484 9.2089,6.54008 5.89289,15.4928 -7.68933,21.92602 -12.53214,23.28482 z"
       id="path819-6-5-9"
       inkscape:connector-curvature="0"
       sodipodi:nodetypes="cccccsc" />
  </g>
</svg>
