<?xml version="1.0" encoding="UTF-8" standalone="no"?>
<!-- Created with Inkscape (http://www.inkscape.org/) -->

<svg
   xmlns:osb="http://www.openswatchbook.org/uri/2009/osb"
   xmlns:dc="http://purl.org/dc/elements/1.1/"
   xmlns:cc="http://creativecommons.org/ns#"
   xmlns:rdf="http://www.w3.org/1999/02/22-rdf-syntax-ns#"
   xmlns:svg="http://www.w3.org/2000/svg"
   xmlns="http://www.w3.org/2000/svg"
   xmlns:xlink="http://www.w3.org/1999/xlink"
   xmlns:sodipodi="http://sodipodi.sourceforge.net/DTD/sodipodi-0.dtd"
   xmlns:inkscape="http://www.inkscape.org/namespaces/inkscape"
   width="1702.6772mm"
   height="2072.1292mm"
   viewBox="0 0 1702.6772 2072.1292"
   version="1.1"
   id="svg8"
   inkscape:version="0.92.3 (2405546, 2018-03-11)"
   sodipodi:docname="flower.svg"
   inkscape:export-filename="/home/jakmeier/fun/gamedev/browser_game/happy_town_frontend/static/flowers.png"
   inkscape:export-xdpi="3.677377"
   inkscape:export-ydpi="3.677377">
  <defs
     id="defs2">
    <linearGradient
       inkscape:collect="always"
       id="linearGradient2600">
      <stop
         style="stop-color:#ff2cff;stop-opacity:1;"
         offset="0"
         id="stop2596" />
      <stop
         style="stop-color:#ff2cff;stop-opacity:0;"
         offset="1"
         id="stop2598" />
    </linearGradient>
    <linearGradient
       id="linearGradient2518"
       osb:paint="solid">
      <stop
         style="stop-color:#fcb5ff;stop-opacity:1;"
         offset="0"
         id="stop2516" />
    </linearGradient>
    <linearGradient
       inkscape:collect="always"
       xlink:href="#linearGradient2600"
       id="linearGradient6408"
       gradientUnits="userSpaceOnUse"
       x1="83.6735"
       y1="302.5871"
       x2="538.11066"
       y2="302.5871" />
  </defs>
  <sodipodi:namedview
     id="base"
     pagecolor="#ffffff"
     bordercolor="#666666"
     borderopacity="1.0"
     inkscape:pageopacity="0.0"
     inkscape:pageshadow="2"
     inkscape:zoom="0.08"
     inkscape:cx="2124.0792"
     inkscape:cy="6260.2949"
     inkscape:document-units="mm"
     inkscape:current-layer="layer1"
     showgrid="false"
     inkscape:window-width="3750"
     inkscape:window-height="2049"
     inkscape:window-x="90"
     inkscape:window-y="55"
     inkscape:window-maximized="1" />
  <metadata
     id="metadata5">
    <rdf:RDF>
      <cc:Work
         rdf:about="">
        <dc:format>image/svg+xml</dc:format>
        <dc:type
           rdf:resource="http://purl.org/dc/dcmitype/StillImage" />
        <dc:title></dc:title>
      </cc:Work>
    </rdf:RDF>
  </metadata>
  <g
     inkscape:label="Layer 1"
     inkscape:groupmode="layer"
     id="layer1"
     transform="translate(343.36155,456.20422)">
    <path
       style="opacity:1;fill:#00ff00;fill-opacity:1;stroke:none;stroke-width:50;stroke-linecap:butt;stroke-linejoin:round;stroke-miterlimit:4;stroke-dasharray:none;stroke-opacity:1;paint-order:markers stroke fill"
       id="path6406"
       d="m 885.08463,374.46722 c -0.0988,26.83193 1.33906,53.65192 2.00213,80.47683 0.077,28.09875 1.75252,56.13924 3.00379,84.19872 1.01539,23.80994 1.18284,47.64228 1.37842,71.46941 0.1137,18.29573 0.17608,36.59156 0.15799,54.88763 -0.16812,18.44101 -0.18362,36.85423 0.81346,55.27109 1.21428,20.35865 1.82851,40.74432 2.19459,61.13367 0.26873,18.88641 0.28162,37.77615 0.25458,56.6642 -0.0377,19.6424 -0.008,39.2848 -0.0101,58.9272 0.46906,17.07041 -0.22376,34.07828 -1.39017,51.10104 -1.6605,19.94763 -4.58465,39.74928 -7.35169,59.56329 -1.89563,20.0486 -5.71883,39.8109 -9.39487,59.5842 -3.86999,21.0705 -9.21428,41.8231 -14.15474,62.6563 -5.08023,18.9202 -11.61722,37.4208 -17.87234,55.9793 -4.44571,14.9498 -9.48716,29.7154 -15.05743,44.2815 -6.88121,16.1925 -14.12899,32.2229 -21.4598,48.2159 -8.33072,18.6338 -18.01045,36.6101 -27.52545,54.6523 -9.58625,17.509 -15.81896,36.4576 -21.2611,55.578 -4.29178,14.1 -7.39682,28.4809 -9.05211,43.119 -0.82293,10.4259 -2.3165,20.7784 -3.23413,31.1965 -0.67212,8.6102 -0.53766,17.225 -1.68225,25.7922 -1.73133,10.9013 -2.08701,21.9464 -2.36622,32.9605 -0.19174,9.7239 -0.17518,19.4501 -0.15372,29.1753 0.0114,8.2754 0.005,16.5508 -0.0101,24.8261 0,5.7922 0.0151,11.5844 0.0277,17.3766 0,0 -43.90393,22.3709 -43.90393,22.3709 v 0 c 0.0114,-5.7994 0.0251,-11.5989 0.0193,-17.3984 -0.0233,-8.2666 -0.0465,-16.5333 -0.049,-24.7999 0.0251,-9.7928 0.0917,-19.5858 0.2956,-29.3769 0.24508,-11.1379 0.33708,-22.3349 1.9391,-33.3802 1.24169,-8.5016 1.49775,-16.9899 1.83531,-25.5794 0.89046,-10.4692 2.43787,-20.8629 3.25258,-31.3323 1.59287,-14.9296 4.54263,-29.6365 9.01057,-43.9891 5.3373,-19.3882 11.3751,-38.6851 20.84549,-56.5144 9.40416,-18.0466 19.36271,-35.8288 27.66999,-54.4266 7.24143,-15.9101 14.32398,-31.8819 21.34626,-47.8886 5.90614,-14.3824 10.76905,-29.2227 15.26731,-44.1021 6.26681,-18.4854 12.80938,-36.9001 18.23617,-55.6496 4.92159,-20.7398 10.23149,-41.3991 14.12713,-62.3681 3.60326,-19.7433 7.89993,-39.3957 9.59953,-59.4346 2.64729,-19.6995 5.68582,-39.3508 7.33256,-59.17161 1.08109,-16.94577 2.16519,-33.85577 1.61502,-50.85438 0.008,-19.64457 0.0563,-39.28911 0.0271,-58.93368 -0.0328,-18.86453 0.006,-37.72948 -0.22045,-56.59311 -0.29814,-20.33206 -0.79127,-40.66495 -2.10503,-60.961 -1.07746,-18.48234 -1.23277,-36.95494 -1.03576,-55.46836 0,-18.32208 0.097,-36.64395 0.0605,-54.96603 -0.0665,-23.78874 -0.28837,-47.58118 -1.20361,-71.35481 -1.15872,-28.12839 -2.73111,-56.2411 -2.7899,-84.40293 -0.70583,-26.74824 -2.04581,-53.47102 -2.7913,-80.21317 0,0 43.76303,-22.2984 43.76303,-22.2984 z"
       inkscape:connector-curvature="0" />
    <path
       style="opacity:1;fill:#00ff00;fill-opacity:1;stroke:none;stroke-width:55.00251389;stroke-linecap:butt;stroke-linejoin:round;stroke-miterlimit:4;stroke-dasharray:none;stroke-opacity:1;paint-order:markers stroke fill"
       id="path6394"
       d="m 677.28837,-85.257142 c 0.25337,30.212798 3.88954,60.191864 6.90663,90.1316552 3.97058,32.7960928 6.53296,65.8001198 9.57697,98.7303068 1.77109,21.43697 3.99708,42.81706 5.55164,64.27992 0.52822,15.15692 1.7158,30.25233 2.68936,45.37155 0.75838,10.51045 0.92136,21.05468 0.96988,31.59802 0.68144,14.84638 1.45968,29.68064 1.85047,44.54451 0.36391,15.47655 0.41855,30.96075 0.47808,46.44249 0.50088,12.87324 -0.6104,25.64496 -1.97213,38.38601 -1.76633,15.45104 -5.12601,30.54023 -9.58485,45.15029 -4.38049,15.44326 -10.68959,29.90704 -17.2757,44.1046 -7.23363,15.14317 -14.60733,30.19139 -21.94642,45.26152 -6.8753,13.99981 -13.95563,27.84579 -21.04318,41.68916 -6.52812,13.62092 -13.17237,27.13414 -20.30767,40.30399 -5.65198,9.96635 -11.13359,20.07172 -16.73466,30.07834 -5.70434,9.87107 -11.79248,19.40994 -17.92304,28.89626 -7.85071,11.99577 -15.31813,24.34239 -22.51458,36.92136 -5.08315,8.37928 -9.46806,17.32033 -14.1673,26.01055 -4.79015,9.87491 -10.13217,19.30666 -14.5269,29.45445 -3.65537,9.19056 -7.0559,18.49837 -9.92132,28.09154 -2.91383,9.57337 -5.27401,19.36705 -6.87562,29.38167 -1.18337,9.41398 -2.40778,18.8191 -3.84048,28.1824 -1.58953,10.7954 -2.00435,21.76588 -2.27843,32.70453 -0.15087,7.26113 -0.13848,14.52497 -0.12345,21.78775 -0.0963,7.45897 -0.0537,14.87002 0.56332,22.29504 0.50766,6.75743 1.03367,13.4278 2.51788,19.97788 0.48173,3.23156 1.90503,6.04817 2.98572,9.01856 1.01327,3.16891 1.95858,6.31856 2.74166,9.58835 1.87421,10.20225 2.54119,20.71202 3.52965,31.09188 0.94589,9.32119 1.42663,18.68866 1.61825,28.07246 0.13025,7.3402 0.11681,14.6821 0.10943,22.0234 -0.0217,8.1575 -0.0452,16.315 -0.0367,24.4725 0.40489,7.3618 -0.48395,14.587 -1.28723,21.8489 -0.69546,5.8985 -0.57422,11.8716 -1.47579,17.7318 0,0 -31.42925,18.3809 -31.42925,18.3809 v 0 c 1.15639,-5.7524 1.17706,-11.5605 1.65352,-17.4472 0.72308,-7.1302 2.01871,-14.1659 1.53474,-21.3998 0.0143,-8.1517 0,-16.3033 0,-24.455 0.01,-7.3193 0.0338,-14.639 -0.0349,-21.9579 -0.15052,-9.2902 -0.48723,-18.5761 -1.3488,-27.81549 -0.91916,-10.10616 -1.73463,-20.3053 -3.45453,-30.25295 -0.82698,-3.08832 -1.61306,-6.17131 -2.64493,-9.15259 -1.07461,-3.1844 -2.63631,-6.15761 -3.14381,-9.57446 -1.50415,-6.79177 -2.23898,-13.6271 -2.65104,-20.64754 -0.70573,-7.53625 -0.98838,-15.04817 -0.81587,-22.63699 0,-7.32878 0.0164,-14.65848 0.19341,-21.98475 0.29837,-11.11278 0.65736,-22.2525 2.03824,-33.26089 1.39552,-9.37225 2.79136,-18.74478 3.85331,-28.18322 1.43063,-10.22571 3.71235,-20.23314 6.63253,-29.98368 2.77942,-9.79957 6.136,-19.26213 9.78405,-28.63167 4.25167,-10.34622 9.58498,-19.79392 14.30605,-29.81707 4.69402,-8.78387 9.19689,-17.72773 14.26771,-26.20187 7.24752,-12.5947 14.60269,-25.09226 22.44815,-37.15825 6.13126,-9.37876 12.11148,-18.90954 17.87596,-28.62099 5.87782,-9.79691 11.0018,-20.25178 16.90859,-30.03605 7.17826,-13.13806 14.07615,-26.46743 20.3998,-40.24207 7.15915,-13.78005 14.10531,-27.71727 21.10878,-41.61235 7.34941,-15.0288 14.66014,-30.08881 21.92827,-45.17117 6.62585,-14.00042 13.11603,-28.2307 17.47755,-43.53184 4.69519,-14.21727 7.99052,-29.06757 9.87467,-44.21871 1.36811,-12.57766 2.60385,-25.17776 2.18435,-37.8965 0.003,-15.4582 -0.0212,-30.91829 -0.36406,-46.3721 -0.4022,-14.86815 -1.0708,-29.71538 -2.02878,-44.54706 -0.0944,-10.46377 -0.22492,-20.93181 -0.83026,-31.3746 -0.8809,-15.14206 -2.08002,-30.25298 -2.53553,-45.42778 -1.3852,-21.50499 -3.54658,-42.92113 -5.16583,-64.40073 -2.90788,-32.976062 -5.32635,-66.026639 -9.27523,-98.855956 -3.10314,-29.9544864 -6.73894,-59.885538 -7.92541,-90.067865 0,0 30.92442,-19.067451 30.92442,-19.067451 z"
       inkscape:connector-curvature="0" />
    <use
       x="0"
       y="0"
       xlink:href="#g6362"
       id="use6376"
       transform="matrix(0.77448897,0,0,0.77448897,610.11903,-253.21088)"
       width="100%"
       height="100%" />
    <path
       style="opacity:1;fill:#00ff00;fill-opacity:1;stroke:none;stroke-width:58.16200638;stroke-linecap:butt;stroke-linejoin:round;stroke-miterlimit:4;stroke-dasharray:none;stroke-opacity:1;paint-order:markers stroke fill"
       id="path6392"
       d="m 101.09827,151.03913 c -2.731411,24.43454 -6.876289,48.73937 -10.154628,73.12551 -4.039414,25.97274 -3.978941,51.99855 -2.14777,78.0678 1.481312,18.0589 4.829314,35.95895 7.323274,53.93238 2.413856,12.85695 3.82383,25.78455 4.607794,38.76522 0.463,13.21223 1.95593,26.38078 2.78615,39.5803 0.71615,12.36065 1.81278,24.72935 3.31212,37.04622 1.33841,11.48421 3.08866,22.93896 5.32513,34.33239 2.30376,11.12313 3.49522,22.36449 5.57005,33.51516 1.87941,9.62095 4.7797,19.11475 8.14342,28.46515 2.29161,6.62032 4.8561,13.20804 6.66627,19.92668 2.2548,7.71108 5.28037,15.24797 7.48776,22.97528 2.96409,9.22363 5.46969,18.55439 7.33203,27.96357 2.00297,9.64884 4.19631,19.27006 6.20158,28.9184 1.26684,8.47324 2.97973,16.89641 4.08895,25.38505 1.62302,9.27622 3.00393,18.565 3.77501,27.91358 0.15741,7.65003 0.88575,15.22874 1.93861,22.82657 1.28008,9.57352 1.39888,19.21181 1.5595,28.82961 -0.0567,10.27123 0.51338,20.55957 -0.11912,30.82197 -0.92879,6.74403 -1.56821,13.51863 -2.58792,20.25327 -1.22497,5.86992 -2.20582,11.76097 -2.73493,17.69804 -0.79254,5.72 -2.28242,11.35929 -4.3249,16.87023 -2.52986,5.58922 -3.81995,11.45508 -6.10625,17.10456 -2.55118,4.29728 -3.76856,8.86693 -4.87569,13.5041 -1.40561,5.36499 -3.20141,10.69701 -5.6492,15.81773 -1.73528,3.83488 -3.99498,7.4568 -5.63734,11.31992 -2.46762,4.83621 -5.0719,9.60441 -7.09429,14.57865 -2.27948,5.4088 -5.00698,10.72994 -8.09495,15.87551 -2.35033,4.27578 -4.04964,8.75472 -6.23312,13.08972 -2.76289,5.33493 -5.10682,10.81121 -7.28438,16.3177 -2.30071,5.0554 -4.298074,10.19253 -6.52573,15.26965 -2.470571,5.38304 -4.70671,10.85045 -7.503293,16.13155 -1.961866,3.9883 -4.301312,7.8345 -6.36398,11.7901 -2.15107,6.102 -4.082516,12.236 -6.610455,18.2547 -3.168066,6.8587 -6.105761,13.7839 -9.185197,20.6688 -2.784899,6.7008 -5.937098,13.298 -8.788906,19.9787 -2.097816,4.898 -2.754066,10.0327 -3.079399,15.1721 -0.764739,4.8912 -1.658409,9.7882 -2.723659,14.6455 -1.850863,4.6998 -2.381709,9.5997 -3.284879,14.4456 -1.361258,4.8963 -2.291679,9.8395 -2.787424,14.8383 -0.03107,5.5626 -1.251883,11.0309 -2.145636,16.5281 -0.86771,5.8341 -1.085223,11.7097 -1.240892,17.5784 0.364474,5.7453 -0.733688,11.3898 -1.737998,17.0513 -0.874387,4.8763 -1.118555,9.801 -1.26112,14.7198 -0.78025,5.741 -1.944517,11.4303 -2.515494,17.1937 -0.52095,6.2511 -0.567664,12.5194 -0.600639,18.7821 -0.01115,5.0912 0.0066,10.1825 0.01554,15.2738 0.05679,6.1262 -1.339899,12.1827 -2.114334,18.2638 -0.744159,6.0976 -0.846895,12.227 -0.944013,18.3482 -0.0602,7.18 -0.0394,14.3602 -0.02284,21.5403 0.02114,8.0817 -1.394461,16.1114 -2.145216,24.163 -0.62273,7.2011 -0.769282,14.4198 -0.839186,21.6356 0.06078,4.9126 -0.424853,9.8319 0.676385,14.6846 2.075253,4.0624 3.14803,8.3623 4.707527,12.5471 0.911203,1.9933 1.570487,4.0434 2.191401,6.1041 0,0 -39.84592291,17.2759 -39.84592291,17.2759 v 0 c -0.53201509,-1.9817 -1.11004019,-3.9516 -2.01690119,-5.8499 -1.7448174,-4.2715 -2.5112843,-8.7951 -4.9492876,-12.9025 -1.3284233,-5.0924 -1.1636397,-10.1877 -1.0133691,-15.3795 0.09462,-7.2959 0.2496051,-14.5953 0.8170814,-21.8787 0.6669532,-7.9738 2.0641325,-15.9174 2.22461,-23.9028 0.00171,-7.1908 -0.011147,-14.3814 0.013615,-21.572 0.022886,-6.2101 0.031909,-12.4305 0.7133511,-18.6218 0.7001198,-5.9788 2.0694052,-11.9272 2.26134,-17.9194 -0.00494,-5.1022 -0.015722,-10.2045 0.00552,-15.3067 0.042742,-6.3392 0.1239008,-12.6799 0.4943061,-19.0131 0.4599763,-5.7011 1.1609555,-11.3866 2.55793504,-16.9958 0.097041,-5.0456 0.25392467,-10.0999 1.03975136,-15.1125 0.9258233,-5.5462 2.4863749,-11.0316 2.0136586,-16.6652 0.07257,-5.9808 0.3043471,-11.9646 1.0485171,-17.9191 0.7269088,-5.4581 2.261226,-10.8351 2.1842669,-16.3443 0.3778894,-5.1174 1.0446115,-10.2211 2.576184,-15.2101 1.3234722,-4.825 1.0996192,-9.8908 3.1416712,-14.6056 1.76172,-4.5187 1.556793,-9.4374 3.134796,-14.023 0.217664,-5.423 0.654534,-10.8696 2.59343,-16.1021 2.658202,-6.7764 6.172919,-13.3114 8.786602,-20.1051 3.152403,-6.86 5.972479,-13.8038 9.17566,-20.6465 2.813803,-5.9241 4.909496,-12.0218 6.500854,-18.2295 1.627431,-4.1669 4.235044,-7.9562 6.250003,-11.9767 2.82403,-5.235 5.383441,-10.5448 7.67066,-15.9558 2.303453,-5.008 4.026227,-10.17116 6.614104,-15.0768 1.964223,-5.62782 4.488359,-11.14131 7.092505,-16.59176 2.12194,-4.42258 4.382943,-8.78283 6.085363,-13.32669 3.026271,-5.05424 5.986865,-10.13452 8.451636,-15.3934 1.806928,-5.11525 4.256349,-10.01339 6.783643,-14.8808 1.179562,-1.81994 1.549991,-3.68963 2.526955,-5.57759 0.316465,-0.61154 0.71419,-1.19376 1.071285,-1.79061 0.408957,-0.56014 0.901676,-1.08573 1.226867,-1.68037 0.388066,-0.70968 0.600477,-1.47355 0.900717,-2.2103 2.504218,-4.9479 4.6841,-10.00776 6.00877,-15.26109 1.319,-4.72881 1.68115,-9.66282 4.56358,-14.03925 3.04669,-5.42365 3.69661,-11.39437 6.22036,-16.96427 2.39536,-5.1903 3.56279,-10.58984 4.80472,-16.01953 0.44028,-6.02688 1.2795,-12.0225 2.64831,-17.9622 1.30672,-6.6415 1.46971,-13.41239 2.82682,-20.05942 1.08567,-10.16785 0.19871,-20.40993 0.38774,-30.60416 -0.15651,-9.48986 -0.30944,-18.99787 -1.51529,-28.4472 -1.07085,-7.66227 -2.05968,-15.28142 -1.98592,-23.00943 -0.66798,-9.30921 -1.87189,-18.57415 -3.68909,-27.78648 -1.04007,-8.43222 -2.85475,-16.77256 -3.95541,-25.1984 -1.89912,-9.67406 -4.15199,-19.29975 -6.15896,-28.95967 -1.79007,-9.33068 -4.27914,-18.58319 -7.2402,-27.71696 -2.196815,-7.7434 -5.219408,-15.29339 -7.633284,-22.98654 -1.680105,-6.65514 -4.281789,-13.15693 -6.400363,-19.72831 -3.455711,-9.49952 -6.39109,-19.16117 -8.275714,-28.94695 C 75.909991,545.16178 74.669407,533.94413 72.458668,522.82434 70.13175,511.369 68.493633,499.82502 67.079482,488.27576 65.474374,475.90821 64.469217,463.46534 63.681041,451.0507 62.932028,437.84314 61.436977,424.6736 60.895182,411.46104 60.203407,398.53627 58.862327,385.65871 56.484197,372.85695 54.224171,354.76192 50.916091,336.75759 49.439721,318.59956 48.643267,306.25628 47.604878,293.84723 47.93773,281.47963 c 0.373615,-13.88223 2.294543,-27.73363 3.601619,-41.5663 3.137796,-24.20972 7.420648,-48.32287 9.348877,-72.62751 0,0 40.209984,-16.24669 40.209984,-16.24669 z"
       inkscape:connector-curvature="0" />
    <g
       id="g6362">
      <use
         height="100%"
         width="100%"
         transform="rotate(73.236559,90.03295,164.23744)"
         id="use928"
         xlink:href="#path824-3"
         y="0"
         x="0" />
      <path
         sodipodi:nodetypes="cscc"
         inkscape:connector-curvature="0"
         id="path824-3"
         d="m 109.25793,259.85118 c 8.07124,10.08766 170.89858,330.42049 347.10449,99.17528 C 673.7575,73.726348 197.64086,246.93763 200.09407,162.62578 c 20.23838,-3.26761 -101.667104,82.56695 -90.83614,97.2254 z"
         style="fill:#00c5ff;fill-opacity:1;stroke:url(#linearGradient6408);stroke-width:50;stroke-linecap:butt;stroke-linejoin:round;stroke-miterlimit:4;stroke-dasharray:none;stroke-opacity:1;paint-order:markers stroke fill" />
      <use
         height="100%"
         width="100%"
         transform="rotate(-67.435847,62.063813,155.5491)"
         id="use924"
         xlink:href="#path824-3"
         y="0"
         x="0" />
      <use
         height="100%"
         width="100%"
         transform="rotate(-143.41478,85.488046,157.51944)"
         id="use868"
         xlink:href="#path824-3"
         y="0"
         x="0" />
      <use
         height="100%"
         width="100%"
         transform="rotate(152.29124,93.984255,177.38803)"
         id="use870"
         xlink:href="#path824-3"
         y="0"
         x="0" />
      <path
         inkscape:transform-center-y="-7.8908572"
         inkscape:transform-center-x="8.5434482"
         d="M 198.90179,258.89962 91.772998,223.32084 1.7311052,291.40083 2.463914,178.52084 -90.108477,113.92379 17.473219,79.738895 50.302228,-28.264268 116.05856,63.488293 228.9204,61.335722 161.97835,152.22681 Z"
         inkscape:randomized="0"
         inkscape:rounded="0"
         inkscape:flatsided="false"
         sodipodi:arg2="1.4074275"
         sodipodi:arg1="0.77910894"
         sodipodi:r2="84.993393"
         sodipodi:r1="169.98679"
         sodipodi:cy="139.45914"
         sodipodi:cx="77.949409"
         sodipodi:sides="5"
         id="path817"
         style="opacity:1;fill:#000080;fill-opacity:1;stroke:none;stroke-width:0.26458332"
         sodipodi:type="star" />
      <path
         transform="rotate(46.624054,77.949409,139.45914)"
         sodipodi:type="star"
         style="opacity:1;fill:#000080;fill-opacity:1;stroke:none;stroke-width:0.26458332"
         id="path878"
         sodipodi:sides="5"
         sodipodi:cx="77.949409"
         sodipodi:cy="139.45914"
         sodipodi:r1="169.98679"
         sodipodi:r2="84.993393"
         sodipodi:arg1="0.77910894"
         sodipodi:arg2="1.4074275"
         inkscape:flatsided="false"
         inkscape:rounded="0"
         inkscape:randomized="0"
         d="M 198.90179,258.89962 91.772998,223.32084 1.7311052,291.40083 2.463914,178.52084 -90.108477,113.92379 17.473219,79.738895 50.302228,-28.264268 116.05856,63.488293 228.9204,61.335722 161.97835,152.22681 Z"
         inkscape:transform-center-x="1.1584716"
         inkscape:transform-center-y="15.126572" />
      <path
         inkscape:transform-center-y="-2.4410137"
         inkscape:transform-center-x="-13.893218"
         d="M 198.90179,258.89962 91.772998,223.32084 1.7311052,291.40083 2.463914,178.52084 -90.108477,113.92379 17.473219,79.738895 50.302228,-28.264268 116.05856,63.488293 228.9204,61.335722 161.97835,152.22681 Z"
         inkscape:randomized="0"
         inkscape:rounded="0"
         inkscape:flatsided="false"
         sodipodi:arg2="1.4074275"
         sodipodi:arg1="0.77910894"
         sodipodi:r2="84.993393"
         sodipodi:r1="169.98679"
         sodipodi:cy="139.45914"
         sodipodi:cx="77.949409"
         sodipodi:sides="5"
         id="path880"
         style="opacity:1;fill:#000080;fill-opacity:1;stroke:none;stroke-width:0.26458332"
         sodipodi:type="star"
         transform="rotate(24.696852,77.94941,139.45914)" />
      <circle
         r="101.67559"
         cy="146.63"
         cx="79.421097"
         id="path815"
         style="opacity:1;fill:#0071ff;fill-opacity:1;stroke:none;stroke-width:0.26458332" />
      <path
         sodipodi:nodetypes="cscc"
         inkscape:connector-curvature="0"
         id="path824"
         d="M 131.89787,93.001172 C 133.67736,80.205105 254.43359,-258.23808 -34.641904,-227.28273 -391.29043,-189.0914 61.769938,37.680513 -1.1557625,93.848659 -17.439616,81.394549 128.69519,110.94335 131.89787,93.001172 Z"
         style="fill:none;stroke:none;stroke-width:0.26458332px;stroke-linecap:butt;stroke-linejoin:miter;stroke-opacity:1" />
    </g>
    <use
       x="0"
       y="0"
       xlink:href="#g6362"
       id="use6382"
       transform="matrix(1.0565164,0,0,1.0283618,790.79289,215.91847)"
       width="100%"
       height="100%" />
  </g>
</svg>
