<?xml version="1.0" encoding="UTF-8" standalone="no"?>
<!-- Created with Inkscape (http://www.inkscape.org/) -->

<svg
   xmlns:dc="http://purl.org/dc/elements/1.1/"
   xmlns:cc="http://creativecommons.org/ns#"
   xmlns:rdf="http://www.w3.org/1999/02/22-rdf-syntax-ns#"
   xmlns:svg="http://www.w3.org/2000/svg"
   xmlns="http://www.w3.org/2000/svg"
   xmlns:sodipodi="http://sodipodi.sourceforge.net/DTD/sodipodi-0.dtd"
   xmlns:inkscape="http://www.inkscape.org/namespaces/inkscape"
   width="507mm"
   height="507mm"
   viewBox="0 0 507 507"
   version="1.1"
   id="svg8"
   inkscape:version="0.92.3 (2405546, 2018-03-11)"
   sodipodi:docname="half_grown_tree.svg">
  <defs
     id="defs2">
    <meshgradient
       inkscape:collect="always"
       id="meshgradient2482"
       gradientUnits="userSpaceOnUse"
       x="207.56039"
       y="3.6973338">
      <meshrow
         id="meshrow2484">
        <meshpatch
           id="meshpatch2486">
          <stop
             path="c 29.4338,-29.4338  77.1555,-29.4338  106.589,0"
             style="stop-color:#ffffff;stop-opacity:1"
             id="stop2488" />
          <stop
             path="c 29.4338,29.4338  29.4338,77.1555  0,106.589"
             style="stop-color:#99ff55;stop-opacity:1"
             id="stop2490" />
          <stop
             path="c -29.4338,29.4338  -77.1555,29.4338  -106.589,1.42109e-14"
             style="stop-color:#ffffff;stop-opacity:1"
             id="stop2492" />
          <stop
             path="c -29.4338,-29.4338  -29.4338,-77.1555  0,-106.589"
             style="stop-color:#99ff55;stop-opacity:1"
             id="stop2494" />
        </meshpatch>
      </meshrow>
    </meshgradient>
  </defs>
  <sodipodi:namedview
     id="base"
     pagecolor="#ffffff"
     bordercolor="#666666"
     borderopacity="1.0"
     inkscape:pageopacity="0.0"
     inkscape:pageshadow="2"
     inkscape:zoom="0.061871843"
     inkscape:cx="-10026.01"
     inkscape:cy="1592.3065"
     inkscape:document-units="mm"
     inkscape:current-layer="layer1"
     showgrid="false"
     inkscape:window-width="3750"
     inkscape:window-height="2049"
     inkscape:window-x="90"
     inkscape:window-y="55"
     inkscape:window-maximized="1" />
  <metadata
     id="metadata5">
    <rdf:RDF>
      <cc:Work
         rdf:about="">
        <dc:format>image/svg+xml</dc:format>
        <dc:type
           rdf:resource="http://purl.org/dc/dcmitype/StillImage" />
        <dc:title></dc:title>
      </cc:Work>
    </rdf:RDF>
  </metadata>
  <g
     inkscape:groupmode="layer"
     id="layer2"
     inkscape:label="back"
     transform="translate(0.84336209,6.622014)">
    <ellipse
       style="opacity:1;fill:#000000;fill-opacity:0.528777;stroke:none;stroke-width:20;stroke-linecap:round;stroke-linejoin:round;stroke-miterlimit:4;stroke-dasharray:none;stroke-opacity:1;paint-order:markers stroke fill"
       id="path2500"
       cx="263.04004"
       cy="464.94678"
       rx="128.02797"
       ry="35.431202" />
    <path
       style="opacity:1;fill:#874c25;fill-opacity:1;stroke:none;stroke-width:20;stroke-linecap:round;stroke-linejoin:round;stroke-miterlimit:4;stroke-dasharray:none;stroke-opacity:1;paint-order:markers stroke fill"
       d="m 228.48402,363.70531 h 70.12701 c 0,0 -8.81078,78.42005 -16.04255,111.92173 -2.41369,11.18161 -31.3823,20.40644 -40.53667,2.78543 -4.72021,-9.08583 -13.54779,-114.70716 -13.54779,-114.70716 z"
       id="rect2497"
       inkscape:connector-curvature="0"
       sodipodi:nodetypes="ccssc" />
  </g>
  <g
     inkscape:label="Layer 1"
     inkscape:groupmode="layer"
     id="layer1"
     transform="translate(0.84336209,209.62201)">
    <path
       sodipodi:type="star"
       style="opacity:1;fill:#009600;fill-opacity:1;stroke:none;stroke-width:9.08188629;stroke-linecap:round;stroke-linejoin:round;stroke-miterlimit:4;stroke-dasharray:none;stroke-opacity:1;paint-order:markers stroke fill"
       id="path2503-5"
       sodipodi:sides="12"
       sodipodi:cx="272.26605"
       sodipodi:cy="-9.6658211"
       sodipodi:r1="41.329247"
       sodipodi:r2="45.921387"
       sodipodi:arg1="0.91332639"
       sodipodi:arg2="1.1751258"
       inkscape:flatsided="false"
       inkscape:rounded="0.5"
       inkscape:randomized="0"
       d="m 297.52302,23.047969 c -4.85406,3.74762 -1.89901,7.296034 -7.55763,9.659634 -5.65861,2.3636 -6.10551,-2.23247 -12.18305,-1.413966 -6.07756,0.818504 -5.29261,5.369046 -11.37492,4.586674 -6.08231,-0.782371 -4.17129,-4.986129 -9.84386,-7.316059 -5.67256,-2.32993 -7.26805,2.003426 -12.1443,-1.715281 -4.87624,-3.718707 -1.11938,-6.403761 -4.867,-11.257822 -3.74762,-4.854061 -7.29603,-1.89901 -9.65963,-7.5576279 -2.3636,-5.6586176 2.23247,-6.1055096 1.41396,-12.1830591 -0.8185,-6.07755 -5.36904,-5.2926077 -4.58667,-11.374915 0.78237,-6.082307 4.98613,-4.171292 7.31606,-9.843856 2.32993,-5.672565 -2.00343,-7.268056 1.71528,-12.144302 3.71871,-4.876247 6.40376,-1.11938 11.25782,-4.867 4.85406,-3.747621 1.89901,-7.296034 7.55763,-9.659634 5.65862,-2.3636 6.10551,2.232469 12.18306,1.413965 6.07755,-0.818504 5.29261,-5.369045 11.37491,-4.586674 6.08231,0.782372 4.1713,4.98613 9.84386,7.31606 5.67257,2.32993 7.26806,-2.003426 12.1443,1.715281 4.87625,3.718707 1.11938,6.403761 4.867,11.257821 3.74762,4.854061 7.29604,1.89901 9.65964,7.557629 2.3636,5.658617 -2.23247,6.105509 -1.41397,12.183059 0.8185,6.0775503 5.36905,5.2926076 4.58667,11.3749149 -0.78237,6.0823065 -4.98613,4.17129178 -7.31605,9.843856 -2.32993,5.6725651 2.00342,7.2680551 -1.71529,12.1443021 -3.7187,4.876247 -6.40376,1.11938 -11.25782,4.867 z"
       inkscape:transform-center-x="-3.3524503"
       inkscape:transform-center-y="-6.8013147"
       transform="matrix(1.5604268,2.6059727,-1.0019939,1.4345124,-99.981276,-639.33392)" />
    <path
       sodipodi:type="star"
       style="opacity:1;fill:#009600;fill-opacity:1;stroke:none;stroke-width:9.10443783;stroke-linecap:round;stroke-linejoin:round;stroke-miterlimit:4;stroke-dasharray:none;stroke-opacity:1;paint-order:markers stroke fill"
       id="path2503-5-3"
       sodipodi:sides="12"
       sodipodi:cx="272.26605"
       sodipodi:cy="-9.6658211"
       sodipodi:r1="41.329247"
       sodipodi:r2="45.921387"
       sodipodi:arg1="0.91332639"
       sodipodi:arg2="1.1751258"
       inkscape:flatsided="false"
       inkscape:rounded="0.5"
       inkscape:randomized="0"
       d="m 297.52302,23.047969 c -4.85406,3.74762 -1.89901,7.296034 -7.55763,9.659634 -5.65861,2.3636 -6.10551,-2.23247 -12.18305,-1.413966 -6.07756,0.818504 -5.29261,5.369046 -11.37492,4.586674 -6.08231,-0.782371 -4.17129,-4.986129 -9.84386,-7.316059 -5.67256,-2.32993 -7.26805,2.003426 -12.1443,-1.715281 -4.87624,-3.718707 -1.11938,-6.403761 -4.867,-11.257822 -3.74762,-4.854061 -7.29603,-1.89901 -9.65963,-7.5576279 -2.3636,-5.6586176 2.23247,-6.1055096 1.41396,-12.1830591 -0.8185,-6.07755 -5.36904,-5.2926077 -4.58667,-11.374915 0.78237,-6.082307 4.98613,-4.171292 7.31606,-9.843856 2.32993,-5.672565 -2.00343,-7.268056 1.71528,-12.144302 3.71871,-4.876247 6.40376,-1.11938 11.25782,-4.867 4.85406,-3.747621 1.89901,-7.296034 7.55763,-9.659634 5.65862,-2.3636 6.10551,2.232469 12.18306,1.413965 6.07755,-0.818504 5.29261,-5.369045 11.37491,-4.586674 6.08231,0.782372 4.1713,4.98613 9.84386,7.31606 5.67257,2.32993 7.26806,-2.003426 12.1443,1.715281 4.87625,3.718707 1.11938,6.403761 4.867,11.257821 3.74762,4.854061 7.29604,1.89901 9.65964,7.557629 2.3636,5.658617 -2.23247,6.105509 -1.41397,12.183059 0.8185,6.0775503 5.36905,5.2926076 4.58667,11.3749149 -0.78237,6.0823065 -4.98613,4.17129178 -7.31605,9.843856 -2.32993,5.6725651 2.00342,7.2680551 -1.71529,12.1443021 -3.7187,4.876247 -6.40376,1.11938 -11.25782,4.867 z"
       inkscape:transform-center-x="2.5783885"
       inkscape:transform-center-y="-7.5346932"
       transform="matrix(2.2028265,-1.0301008,0.41789341,1.9952334,-375.11292,395.886)" />
    <path
       style="opacity:1;fill:#009600;fill-opacity:1;stroke:none;stroke-width:19.99999809;stroke-linecap:round;stroke-linejoin:round;stroke-miterlimit:4;stroke-dasharray:none;stroke-opacity:1;paint-order:markers stroke fill"
       inkscape:transform-center-x="-2.5031864"
       inkscape:transform-center-y="-2.0800823"
       d="m 270.55378,188.85403 c -3.39361,-6.74124 -11.95686,8.84972 -18.03904,-7.59677 -3.06231,-8.28063 -6.80312,-3.19681 -8.54194,-12.99074 -1.73881,-9.79395 13.923,-10.83883 13.2206,-21.20005 -0.7024,-10.36121 2.40161,-8.66055 2.78349,-18.88293 0.38189,-10.22236 -2.74335,-11.35442 -1.30321,-20.74132 1.44015,-9.38689 3.92705,-4.09414 6.32731,-12.00586 2.40027,-7.91172 -0.22015,-12.764403 2.97666,-18.66178 3.1968,-5.897376 4.40025,1.569302 8.17574,-1.911841 3.77549,-3.481127 2.36204,-10.75417 6.45893,-11.58183 4.09688,-0.82766 3.6944,6.812244 7.83348,8.694466 4.13908,1.882223 4.31133,-5.862379 8.21053,-1.398543 3.89921,4.463836 1.99865,10.22985 5.39225,16.971086 3.39361,6.741232 5.10541,0.600251 7.76214,9.159492 2.65674,8.55925 -0.23265,10.90638 1.50617,20.70033 1.73882,9.79394 4.53148,6.90204 5.23388,17.26323 0.7024,10.36122 -2.4016,8.66057 -2.78349,18.88293 -0.38188,10.22238 5.79413,14.06676 11.68386,18.77293 30.98426,24.75786 6.27115,24.53339 0.33768,22.78943 -16.06168,-4.72088 -6.9062,2.63698 -10.10301,8.53435 -3.19681,5.89738 -14.31953,-0.25703 -18.09502,3.2241 -3.77549,3.48113 -2.36205,10.75418 -6.45893,11.58183 -4.09688,0.82766 -3.6944,-6.81225 -7.83348,-8.69445 -4.13908,-1.88223 -4.31133,5.86236 -8.21054,1.39852 -3.8992,-4.46382 -3.14046,-15.56535 -6.53406,-22.30658 z"
       id="path2503-5-1"
       inkscape:connector-curvature="0"
       sodipodi:nodetypes="sssssssscsssssssssssscccs" />
    <path
       style="opacity:1;fill:#2db10e;fill-opacity:1;stroke:none;stroke-width:19.99999809;stroke-linecap:round;stroke-linejoin:round;stroke-miterlimit:4;stroke-dasharray:none;stroke-opacity:1;paint-order:markers stroke fill"
       inkscape:transform-center-x="2.0508815"
       inkscape:transform-center-y="-6.7496504"
       d="m 323.47282,69.573596 c -4.84646,3.556338 1.25764,7.339919 0.43985,15.122103 -0.3966,3.773787 -8.90123,1.930097 -10.3489,6.127337 -1.42903,4.143145 4.08284,8.273329 3.55039,13.141774 -0.65703,6.00734 -7.31133,15.32161 -10.88732,14.1612 -13.62697,-4.42196 -13.8546,-30.869411 -33.57068,3.90784 -2.64876,4.67217 -14.65105,-9.23193 -16.80919,-7.28052 -5.57395,5.04005 -1.11618,23.02322 -13.16934,21.24231 -16.98503,-2.50963 -13.25899,-26.89497 -28.55197,-7.62133 -10.74562,13.54264 -16.41401,-6.03746 -33.53459,3.36149 -13.22785,7.2619 -3.60101,-13.87382 -15.88271,-17.10834 -13.6028,-3.58245 -28.29061,10.82881 -28.10519,-8.13948 0.12437,-12.722561 8.27522,-18.515452 4.63695,-28.69819 -11.05342,-0.51335 -21.97254,3.521729 -18.73955,-10.77245 2.41449,-10.675251 7.57499,-27.392767 20.46572,-36.55365 -8.84086,-2.670531 -8.94409,-24.6217983 0.076,-35.0818782 9.02018,-10.4600788 14.09736,-16.9204788 29.75769,-19.3068098 -11.21362,-3.452502 -13.82449,-12.55243 -10.85801,-21.214264 8.19513,-19.872429 43.15596,-2.641305 53.01475,10.449549 3.4864,-22.507596 13.30015,-25.93045 30.14189,-26.35232 17.59461,-0.440739 34.97111,21.779216 50.98835,22.878177 16.01727,1.098959 40.15163,-13.064858 54.31697,-9.124365 14.16537,3.940471 7.29842,-1.801927 -1.68815,15.00281 10.62254,-17.856717 21.39132,-20.468041 43.39359,12.779034 4.06169,6.137548 5.76768,48.961756 -8.15869,30.212839 -12.97575,-17.469143 -5.82699,6.15075 -6.55599,17.179691 -0.72897,11.028935 -13.44402,-2.0687 -18.49048,9.054828 -5.04646,11.123533 27.03862,19.2487 8.76716,37.910446 -22.30406,13.740741 -31.81953,-14.361613 -44.19855,-5.277831 z"
       id="path2503-2"
       inkscape:connector-curvature="0"
       sodipodi:nodetypes="sssssssssssscscscccssscsscccs" />
    <path
       style="opacity:1;fill:#2bd211;fill-opacity:1;stroke:none;stroke-width:19.99999809;stroke-linecap:round;stroke-linejoin:round;stroke-miterlimit:4;stroke-dasharray:none;stroke-opacity:1;paint-order:markers stroke fill"
       inkscape:transform-center-x="1.5865834"
       inkscape:transform-center-y="-6.7496516"
       d="m 311.12816,18.570014 c -3.74926,3.556346 0.97294,7.339925 0.34029,15.122116 -0.30682,3.773786 -6.8861,1.930091 -8.00601,6.127335 -1.10552,4.143142 3.15852,8.273327 2.74661,13.141762 -0.5083,6.00734 -5.65612,15.321611 -8.42255,14.161197 -10.54195,-4.42195 -10.71804,-30.869398 -25.9706,3.907842 -2.0491,4.672181 -11.3342,-9.231936 -13.00375,-7.280511 -4.31207,5.040047 -0.86349,23.023211 -10.18793,21.242304 -13.1398,-2.509626 -10.25729,-26.894972 -22.08809,-7.621331 -8.31292,13.542648 -12.69804,-6.037459 -25.94269,3.361489 -10.23319,7.261902 -2.78577,-13.873817 -12.28703,-17.108342 -10.52325,-3.582453 -21.88589,10.828819 -21.74245,-8.139483 0.0962,-12.722549 6.4018,-18.515442 3.5872,-28.698181 -8.55106,-0.513345 -16.99819,3.521732 -14.49712,-10.772449 1.86788,-10.6752509 5.86008,-27.392769 15.8325,-36.553646 -6.83939,-2.670536 -6.91925,-24.621803 0.0588,-35.081911 6.9781,-10.460085 10.90585,-16.92049 23.02084,-19.306823 -8.67497,-3.452503 -10.69476,-12.552423 -8.39985,-21.214259 6.33981,-19.872433 33.38586,-2.641303 41.01272,10.449548 2.69711,-22.507601 10.28913,-25.930451 23.31807,-26.352321 13.61136,-0.44074 27.05398,21.779217 39.44508,22.878179 12.39112,1.098954 31.06171,-13.064859 42.02014,-9.12437 10.95848,3.940477 5.64614,-1.801929 -1.30595,15.002811 8.21768,-17.85672 16.54853,-20.46804 33.5697,12.779038 3.14217,6.137542 4.46193,48.961795 -6.31164,30.212877 -10.03817,-17.469182 -4.50783,6.150753 -5.07179,17.179688 -0.56394,11.028935 -10.40043,-2.068695 -14.30443,9.054829 -3.904,11.1235341 20.91733,19.2487047 6.78234,37.910446 -17.25463,13.740745 -24.61589,-14.3616098 -34.19244,-5.277834 z"
       id="path2503-2-9"
       inkscape:connector-curvature="0"
       sodipodi:nodetypes="sssssssssssscscscccssscsscccs" />
    <path
       style="opacity:1;fill:#4ae70b;fill-opacity:1;stroke:none;stroke-width:20;stroke-linecap:round;stroke-linejoin:round;stroke-miterlimit:4;stroke-dasharray:none;stroke-opacity:1;paint-order:markers stroke fill"
       inkscape:transform-center-x="1.3593428"
       inkscape:transform-center-y="-5.1474511"
       d="m 314.53154,-43.724508 c -3.21231,2.712152 0.83358,5.597607 0.29154,11.532494 -0.26287,2.877984 -5.89986,1.471939 -6.8594,4.67286 -0.94719,3.159665 2.70616,6.309449 2.35324,10.022241 -0.43549,4.581346 -4.84606,11.6846386 -7.21627,10.7996854 -9.03216,-3.3722934 -9.18304,-23.5417804 -22.25115,2.9802147 -1.75563,3.56311054 -9.71093,-7.0405021 -11.14138,-5.5523017 -3.6945,3.8436651 -0.73982,17.5580343 -8.72884,16.1998645 -11.25793,-1.9139003 -8.78825,-20.5107279 -18.92467,-5.8121842 -7.12235,10.3279333 -10.87945,-4.6043053 -22.22722,2.5635437 -8.76762,5.5380898 -2.3868,-10.5804906 -10.5273,-13.0472216 -9.01612,-2.7320658 -18.75138,8.2583246 -18.62848,-6.2073718 0.0824,-9.702535 5.48492,-14.120341 3.07343,-21.88595 -7.32636,-0.391493 -14.56371,2.68576 -12.42085,-8.215339 1.60037,-8.141232 5.02082,-20.890439 13.56498,-27.876756 -5.85985,-2.036615 -5.92827,-18.777204 0.0504,-26.754321 5.97867,-7.97711 9.34389,-12.90396 19.72379,-14.72384 -7.43255,-2.63296 -9.16308,-9.5728 -7.19685,-16.17856 5.43185,-15.15522 28.60441,-2.01433 35.13896,7.96912 2.31084,-17.1649 8.81554,-19.77524 19.9785,-20.09698 11.66197,-0.33611 23.17937,16.60941 33.79583,17.44751 10.61649,0.83809 26.6131,-9.96364 36.0021,-6.9585 9.38901,3.00512 1.85014,13.13692 -4.10627,25.95268 7.04077,-13.61803 22.66882,-6.1022 27.03239,1.48927 2.69123,4.682 8.53977,31.084656 -0.69083,16.786269 -8.60053,-13.322409 -5.59173,6.191868 -6.07493,14.602805 -0.48317,8.410945 -7.96752,5.677925 -11.31239,14.161006 -3.34489,8.483107 18.70771,12.177652 12.72904,20.154769 -5.97865,7.977113 -27.22238,-10.952534 -35.42738,-4.025007 z"
       id="path2503"
       inkscape:connector-curvature="0"
       sodipodi:nodetypes="sssssssssssscscscccssscsscccs" />
  </g>
</svg>
