<?xml version="1.0" encoding="UTF-8" standalone="no"?>
<!-- Created with Inkscape (http://www.inkscape.org/) -->

<svg
   xmlns:dc="http://purl.org/dc/elements/1.1/"
   xmlns:cc="http://creativecommons.org/ns#"
   xmlns:rdf="http://www.w3.org/1999/02/22-rdf-syntax-ns#"
   xmlns:svg="http://www.w3.org/2000/svg"
   xmlns="http://www.w3.org/2000/svg"
   xmlns:sodipodi="http://sodipodi.sourceforge.net/DTD/sodipodi-0.dtd"
   xmlns:inkscape="http://www.inkscape.org/namespaces/inkscape"
   width="507mm"
   height="507mm"
   viewBox="0 0 507 507"
   version="1.1"
   id="svg8"
   inkscape:version="0.92.3 (2405546, 2018-03-11)"
   sodipodi:docname="tree.svg">
  <defs
     id="defs2">
    <meshgradient
       inkscape:collect="always"
       id="meshgradient2482"
       gradientUnits="userSpaceOnUse"
       x="207.56039"
       y="3.6973338">
      <meshrow
         id="meshrow2484">
        <meshpatch
           id="meshpatch2486">
          <stop
             path="c 29.4338,-29.4338  77.1555,-29.4338  106.589,0"
             style="stop-color:#ffffff;stop-opacity:1"
             id="stop2488" />
          <stop
             path="c 29.4338,29.4338  29.4338,77.1555  0,106.589"
             style="stop-color:#99ff55;stop-opacity:1"
             id="stop2490" />
          <stop
             path="c -29.4338,29.4338  -77.1555,29.4338  -106.589,1.42109e-14"
             style="stop-color:#ffffff;stop-opacity:1"
             id="stop2492" />
          <stop
             path="c -29.4338,-29.4338  -29.4338,-77.1555  0,-106.589"
             style="stop-color:#99ff55;stop-opacity:1"
             id="stop2494" />
        </meshpatch>
      </meshrow>
    </meshgradient>
  </defs>
  <sodipodi:namedview
     id="base"
     pagecolor="#ffffff"
     bordercolor="#666666"
     borderopacity="1.0"
     inkscape:pageopacity="0.0"
     inkscape:pageshadow="2"
     inkscape:zoom="0.24748737"
     inkscape:cx="0.38928184"
     inkscape:cy="820.03636"
     inkscape:document-units="mm"
     inkscape:current-layer="layer2"
     showgrid="false"
     inkscape:window-width="3750"
     inkscape:window-height="2049"
     inkscape:window-x="90"
     inkscape:window-y="55"
     inkscape:window-maximized="1" />
  <metadata
     id="metadata5">
    <rdf:RDF>
      <cc:Work
         rdf:about="">
        <dc:format>image/svg+xml</dc:format>
        <dc:type
           rdf:resource="http://purl.org/dc/dcmitype/StillImage" />
        <dc:title></dc:title>
      </cc:Work>
    </rdf:RDF>
  </metadata>
  <g
     inkscape:groupmode="layer"
     id="layer2"
     inkscape:label="back"
     transform="translate(0.84336209,6.622014)">
    <ellipse
       style="opacity:1;fill:#000000;fill-opacity:0.528777;stroke:none;stroke-width:20;stroke-linecap:round;stroke-linejoin:round;stroke-miterlimit:4;stroke-dasharray:none;stroke-opacity:1;paint-order:markers stroke fill"
       id="path2500"
       cx="255.13393"
       cy="459.55655"
       rx="209.77678"
       ry="40.821426" />
    <path
       style="opacity:1;fill:#874c25;fill-opacity:1;stroke:none;stroke-width:20;stroke-linecap:round;stroke-linejoin:round;stroke-miterlimit:4;stroke-dasharray:none;stroke-opacity:1;paint-order:markers stroke fill"
       d="m 198.51309,342.91301 h 114.90474 c 0,0 59.20151,105.50604 11.49259,126.33575 -46.43384,20.273 -201.45935,11.14997 -159.53875,-8.28536 37.7206,-17.48812 33.14142,-118.05039 33.14142,-118.05039 z"
       id="rect2497"
       inkscape:connector-curvature="0"
       sodipodi:nodetypes="ccssc" />
  </g>
  <g
     inkscape:label="Layer 1"
     inkscape:groupmode="layer"
     id="layer1"
     transform="translate(0.84336209,209.62201)">
    <path
       transform="matrix(0.99778523,-0.06651794,-0.11680782,0.99315454,0,0)"
       style="opacity:1;fill:#0a620a;fill-opacity:1;stroke:none;stroke-width:28.53982925;stroke-linecap:round;stroke-linejoin:round;stroke-miterlimit:4;stroke-dasharray:none;stroke-opacity:1;paint-order:markers stroke fill"
       d="m 504.37308,98.779221 c 0,26.487909 -9.85982,51.118729 -27.38294,72.538879 -2.91895,3.56811 -15.47995,2.93002 -13.4497,8.06534 6.04363,15.28679 0.19844,21.70906 -15.9038,19.7159 -11.49212,-1.42251 1.55855,7.56864 -7.36248,27.9685 -6.64505,15.19534 -17.45545,-5.6323 -37.11476,-9.48014 -11.75429,5.30132 3.546,13.88922 -7.25066,22.04772 -10.75471,8.1268 -17.26169,-0.3775 -61.39715,-15.07713 -24.70426,18.96274 -56.59381,-20.30109 -75.33723,-19.77893 -36.99843,1.0307 -30.62327,50.12404 -64.14422,23.06838 -12.91405,-10.42328 -25.88594,9.91611 -38.32928,10.37561 -8.90376,0.3288 -16.03774,-8.52375 -23.48919,-16.52739 -10.87345,-4.50587 -24.68326,-2.36873 -29.17095,-5.71862 -8.469437,-6.32213 -9.635104,-19.53905 -16.38631,-17.10843 -17.329703,6.23917 -56.616197,-8.70032 -28.051993,-25.87028 -20.787482,24.14676 -35.444032,0.73243 -38.627724,-13.45138 -3.66103,-16.31042 16.897957,-46.6245 16.897957,-60.768029 0,-83.935578 104.42968,-151.978806 233.25021,-151.978806 128.82054,-4e-6 233.25022,68.043226 233.25022,151.978806 z"
       id="path815"
       inkscape:connector-curvature="0"
       sodipodi:nodetypes="ssssscscssscsscssss" />
    <path
       sodipodi:type="star"
       style="opacity:1;fill:#008600;fill-opacity:1;stroke:none;stroke-width:6.38452864;stroke-linecap:round;stroke-linejoin:round;stroke-miterlimit:4;stroke-dasharray:none;stroke-opacity:1;paint-order:markers stroke fill"
       id="path2503-5"
       sodipodi:sides="12"
       sodipodi:cx="272.26605"
       sodipodi:cy="-9.6658211"
       sodipodi:r1="41.329247"
       sodipodi:r2="45.921387"
       sodipodi:arg1="0.91332639"
       sodipodi:arg2="1.1751258"
       inkscape:flatsided="false"
       inkscape:rounded="0.5"
       inkscape:randomized="0"
       d="m 297.52302,23.047969 c -4.85406,3.74762 -1.89901,7.296034 -7.55763,9.659634 -5.65861,2.3636 -6.10551,-2.23247 -12.18305,-1.413966 -6.07756,0.818504 -5.29261,5.369046 -11.37492,4.586674 -6.08231,-0.782371 -4.17129,-4.986129 -9.84386,-7.316059 -5.67256,-2.32993 -7.26805,2.003426 -12.1443,-1.715281 -4.87624,-3.718707 -1.11938,-6.403761 -4.867,-11.257822 -3.74762,-4.854061 -7.29603,-1.89901 -9.65963,-7.5576279 -2.3636,-5.6586176 2.23247,-6.1055096 1.41396,-12.1830591 -0.8185,-6.07755 -5.36904,-5.2926077 -4.58667,-11.374915 0.78237,-6.082307 4.98613,-4.171292 7.31606,-9.843856 2.32993,-5.672565 -2.00343,-7.268056 1.71528,-12.144302 3.71871,-4.876247 6.40376,-1.11938 11.25782,-4.867 4.85406,-3.747621 1.89901,-7.296034 7.55763,-9.659634 5.65862,-2.3636 6.10551,2.232469 12.18306,1.413965 6.07755,-0.818504 5.29261,-5.369045 11.37491,-4.586674 6.08231,0.782372 4.1713,4.98613 9.84386,7.31606 5.67257,2.32993 7.26806,-2.003426 12.1443,1.715281 4.87625,3.718707 1.11938,6.403761 4.867,11.257821 3.74762,4.854061 7.29604,1.89901 9.65964,7.557629 2.3636,5.658617 -2.23247,6.105509 -1.41397,12.183059 0.8185,6.0775503 5.36905,5.2926076 4.58667,11.3749149 -0.78237,6.0823065 -4.98613,4.17129178 -7.31605,9.843856 -2.32993,5.6725651 2.00342,7.2680551 -1.71529,12.1443021 -3.7187,4.876247 -6.40376,1.11938 -11.25782,4.867 z"
       inkscape:transform-center-x="-5.8878155"
       inkscape:transform-center-y="-7.836014"
       transform="matrix(2.7405368,3.0024248,-1.7597756,1.6527478,-405.0963,-798.82153)" />
    <path
       sodipodi:type="star"
       style="opacity:1;fill:#008600;fill-opacity:1;stroke:none;stroke-width:6.38452864;stroke-linecap:round;stroke-linejoin:round;stroke-miterlimit:4;stroke-dasharray:none;stroke-opacity:1;paint-order:markers stroke fill"
       id="path2503-5-3"
       sodipodi:sides="12"
       sodipodi:cx="272.26605"
       sodipodi:cy="-9.6658211"
       sodipodi:r1="41.329247"
       sodipodi:r2="45.921387"
       sodipodi:arg1="0.91332639"
       sodipodi:arg2="1.1751258"
       inkscape:flatsided="false"
       inkscape:rounded="0.5"
       inkscape:randomized="0"
       d="m 297.52302,23.047969 c -4.85406,3.74762 -1.89901,7.296034 -7.55763,9.659634 -5.65861,2.3636 -6.10551,-2.23247 -12.18305,-1.413966 -6.07756,0.818504 -5.29261,5.369046 -11.37492,4.586674 -6.08231,-0.782371 -4.17129,-4.986129 -9.84386,-7.316059 -5.67256,-2.32993 -7.26805,2.003426 -12.1443,-1.715281 -4.87624,-3.718707 -1.11938,-6.403761 -4.867,-11.257822 -3.74762,-4.854061 -7.29603,-1.89901 -9.65963,-7.5576279 -2.3636,-5.6586176 2.23247,-6.1055096 1.41396,-12.1830591 -0.8185,-6.07755 -5.36904,-5.2926077 -4.58667,-11.374915 0.78237,-6.082307 4.98613,-4.171292 7.31606,-9.843856 2.32993,-5.672565 -2.00343,-7.268056 1.71528,-12.144302 3.71871,-4.876247 6.40376,-1.11938 11.25782,-4.867 4.85406,-3.747621 1.89901,-7.296034 7.55763,-9.659634 5.65862,-2.3636 6.10551,2.232469 12.18306,1.413965 6.07755,-0.818504 5.29261,-5.369045 11.37491,-4.586674 6.08231,0.782372 4.1713,4.98613 9.84386,7.31606 5.67257,2.32993 7.26806,-2.003426 12.1443,1.715281 4.87625,3.718707 1.11938,6.403761 4.867,11.257821 3.74762,4.854061 7.29604,1.89901 9.65964,7.557629 2.3636,5.658617 -2.23247,6.105509 -1.41397,12.183059 0.8185,6.0775503 5.36905,5.2926076 4.58667,11.3749149 -0.78237,6.0823065 -4.98613,4.17129178 -7.31605,9.843856 -2.32993,5.6725651 2.00342,7.2680551 -1.71529,12.1443021 -3.7187,4.876247 -6.40376,1.11938 -11.25782,4.867 z"
       inkscape:transform-center-x="4.5509025"
       inkscape:transform-center-y="-8.6809621"
       transform="matrix(3.8880038,-1.1868122,0.73758473,2.2987724,-870.79738,403.03362)" />
    <path
       transform="matrix(0.32579526,1.9108731,-1.0617591,0.40257477,206.76521,-426.75116)"
       style="opacity:1;fill:#008600;fill-opacity:1;stroke:none;stroke-width:13.60813713;stroke-linecap:round;stroke-linejoin:round;stroke-miterlimit:4;stroke-dasharray:none;stroke-opacity:1;paint-order:markers stroke fill"
       inkscape:transform-center-x="-4.1015268"
       inkscape:transform-center-y="-2.3965311"
       d="m 294.15271,23.77587 c -4.85406,3.74762 1.36047,18.869469 -9.81095,24.827684 -5.62469,2.999899 -3.88795,9.305687 -9.96549,10.124191 -6.07756,0.818504 -1.88654,-22.065062 -7.96885,-22.847434 -6.08231,-0.782371 -4.17129,-4.986129 -9.84386,-7.316059 -5.67256,-2.32993 -7.26805,2.003426 -12.1443,-1.715281 -4.87624,-3.718707 -1.11938,-6.403761 -4.867,-11.257822 -3.74762,-4.854061 -7.29603,-1.89901 -9.65963,-7.5576279 -2.3636,-5.6586176 2.23247,-6.1055096 1.41396,-12.1830591 -0.8185,-6.07755 -5.36904,-5.2926077 -4.58667,-11.374915 0.78237,-6.082307 4.98613,-4.171292 7.31606,-9.843856 2.32993,-5.672565 -2.00343,-7.268056 1.71528,-12.144302 3.71871,-4.876247 6.40376,-1.11938 11.25782,-4.867 4.85406,-3.747621 1.89901,-7.296034 7.55763,-9.659634 5.65862,-2.3636 6.10551,2.232469 12.18306,1.413965 6.07755,-0.818504 5.29261,-5.369045 11.37491,-4.586674 6.08231,0.782372 4.1713,4.98613 9.84386,7.31606 5.67257,2.32993 9.73575,-5.954215 14.19956,-13.673648 23.48288,-40.609788 15.80894,-4.826838 13.00934,3.470743 -7.57842,22.461231 -0.61561,10.468857 1.74799,16.127476 2.3636,5.658618 -4.51842,20.711669 -3.69992,26.789219 0.8185,6.0775503 5.36905,5.2926076 4.58667,11.3749149 -0.78237,6.0823065 -4.98613,4.17129178 -7.31605,9.843856 -2.32993,5.6725651 2.00342,7.2680551 -1.71529,12.1443021 -3.7187,4.876247 -9.77407,1.847281 -14.62813,5.594901 z"
       id="path2503-5-1"
       inkscape:connector-curvature="0"
       sodipodi:nodetypes="sssssssscsssssssssssscccs" />
    <path
       style="opacity:1;fill:#1fa70d;fill-opacity:1;stroke:none;stroke-width:19.99999809;stroke-linecap:round;stroke-linejoin:round;stroke-miterlimit:4;stroke-dasharray:none;stroke-opacity:1;paint-order:markers stroke fill"
       inkscape:transform-center-x="3.3603779"
       inkscape:transform-center-y="-7.776491"
       d="m 360.34766,36.65915 c -7.94103,4.097371 2.06067,8.456556 0.72071,17.422661 -0.64984,4.347901 -14.58487,2.223726 -16.95691,7.059501 -2.3415,4.773451 6.68983,9.531969 5.8174,15.141055 -1.07657,6.921245 -11.97979,17.652514 -17.83913,16.315572 -22.32811,-5.094676 -22.70108,-35.565633 -55.00634,4.502348 -4.34005,5.382963 -24.00608,-10.636407 -27.54224,-8.388115 -9.13305,5.806799 -1.8289,26.525788 -21.57827,24.473938 -27.83037,-2.89142 -21.72517,-30.986555 -46.78307,-8.78078 -17.60694,15.60292 -26.89474,-6.955949 -54.9472,3.87289 -21.67414,8.36666 -5.90034,-15.984475 -26.02419,-19.711074 C 77.919911,84.439689 53.853601,101.04337 54.157419,79.189387 54.361203,64.531326 67.716549,57.85715 61.755162,46.125291 43.643877,45.533844 25.752656,50.182788 31.049981,33.714005 35.006184,21.414706 43.461772,2.153919 64.583539,-8.4006282 50.097591,-11.477433 49.928437,-36.768193 64.708125,-48.819587 79.487901,-60.870979 87.806975,-68.314214 113.46679,-71.063582 95.093017,-75.041321 90.815049,-85.52564 95.6757,-95.505217 c 13.4279,-22.895663 70.71203,-3.043132 86.86589,12.039261 5.71255,-25.931724 21.7926,-29.875304 49.38819,-30.361354 28.82917,-0.50779 57.30096,25.092534 83.54558,26.358682 26.24468,1.266146 65.78938,-15.052442 88.99962,-10.512474 23.21028,4.539943 11.95863,-2.076058 -2.76607,17.28522 17.40527,-20.573298 35.05017,-23.581888 71.10139,14.723135 6.65518,7.071266 9.45048,56.4104107 -13.36819,34.809182 -21.26107,-20.126761 -9.54766,7.086476 -10.74214,19.793273 -1.19445,12.7067902 -22.02834,-2.383415 -30.29709,10.43235857 C 410.13407,11.877846 462.70623,21.239112 432.76801,42.739909 396.22229,58.571057 380.63098,26.193433 360.34766,36.65915 Z"
       id="path2503-2"
       inkscape:connector-curvature="0"
       sodipodi:nodetypes="sssssssssssscscscccssscsscccs" />
    <path
       style="opacity:1;fill:#14c710;fill-opacity:1;stroke:none;stroke-width:19.99999809;stroke-linecap:round;stroke-linejoin:round;stroke-miterlimit:4;stroke-dasharray:none;stroke-opacity:1;paint-order:markers stroke fill"
       inkscape:transform-center-x="2.5996153"
       inkscape:transform-center-y="-7.776491"
       d="m 340.12065,-22.103714 c -6.14324,4.09738 1.59418,8.456563 0.55757,17.422675 -0.50272,4.34789989 -11.28302,2.22372 -13.11803,7.0594995 -1.81141,4.7734473 5.17531,9.5319655 4.50038,15.1410455 -0.83285,6.92125 -9.26768,17.65252 -13.80053,16.31557 -17.27323,-5.09467 -17.56177,-35.565625 -42.55344,4.50235 -3.3575,5.38297 -18.57134,-10.63641 -21.30694,-8.38811 -7.06543,5.8068 -1.41485,26.52578 -16.69316,24.47394 -21.52986,-2.89142 -16.80681,-30.98656 -36.19184,-8.78078 -13.62091,15.60292 -20.80604,-6.95595 -42.5077,3.87288 -16.76732,8.36667 -4.56456,-15.98447 -20.13258,-19.71107 -17.2426,-4.12746 -35.86055,12.47623 -35.62551,-9.37776 0.15765,-14.6580576 10.48949,-21.33223508 5.8777,-33.064096 -14.011097,-0.591441 -27.851921,4.0575009 -23.753858,-12.411284 3.060556,-12.2993 9.601881,-31.56009 25.941918,-42.11463 -11.2065,-3.07681 -11.337357,-28.36757 0.0964,-40.418996 11.43378,-12.0514 17.8695,-19.49464 37.72018,-22.24401 -14.21413,-3.97774 -17.52361,-14.46205 -13.76335,-24.44163 10.38794,-22.89567 54.70352,-3.04313 67.2003,12.03926 4.41928,-25.93173 16.85897,-29.87531 38.20719,-30.36136 22.30253,-0.50779 44.32858,25.09254 64.63168,26.35869 20.30314,1.26614 50.89533,-15.05245 68.85098,-10.51248 17.95571,4.53995 9.25132,-2.07606 -2.13984,17.28522 13.46486,-20.5733 27.11516,-23.58189 55.00473,14.72314 5.14852,7.07126 7.31098,56.410456 -10.34177,34.809226 -16.44777,-20.126806 -7.38617,7.08648 -8.31023,19.79327 -0.92404,12.70679 -17.04135,-2.38341 -23.43814,10.43236 -6.3968,12.81578 34.27353,22.17705 11.11302,43.677842 -28.27212,15.83115289 -40.33371,-16.546472 -56.02511,-6.080762 z"
       id="path2503-2-9"
       inkscape:connector-curvature="0"
       sodipodi:nodetypes="sssssssssssscscscccssscsscccs" />
    <path
       style="opacity:1;fill:#25e70b;fill-opacity:1;stroke:none;stroke-width:20;stroke-linecap:round;stroke-linejoin:round;stroke-miterlimit:4;stroke-dasharray:none;stroke-opacity:1;paint-order:markers stroke fill"
       inkscape:transform-center-x="2.2273475"
       inkscape:transform-center-y="-5.9305437"
       d="m 345.69717,-93.875233 c -5.26344,3.124757 1.36584,6.449182 0.47769,13.286956 -0.43072,3.315818 -9.66706,1.695868 -11.23928,5.383752 -1.552,3.640352 4.4341,7.269319 3.85584,11.546946 -0.71356,5.278316 -7.94039,13.462247 -11.82403,12.442664 -14.7994,-3.885328 -15.04662,-27.123241 -36.45902,3.433601 -2.87665,4.105174 -15.91158,-8.111589 -18.25541,-6.396985 -6.05352,4.42841 -1.21222,20.229175 -14.3024,18.664384 -18.44639,-2.205066 -14.39976,-23.631068 -31.00851,-6.696404 -11.67014,11.899144 -17.82623,-5.304768 -36.41982,2.953541 -14.36595,6.380611 -3.91083,-12.190123 -17.24922,-15.032123 -14.77313,-3.147701 -30.72458,9.514681 -30.52321,-7.151712 0.13508,-11.178602 8.98717,-16.268498 5.0359,-25.215506 -12.00442,-0.451051 -23.86299,3.09435 -20.35185,-9.465156 2.62223,-9.379775 8.22672,-24.068545 22.22653,-32.117705 -9.6015,-2.34645 -9.71361,-21.63382 0.0825,-30.82451 9.79619,-9.19069 15.31018,-14.86708 32.31789,-16.96382 -12.17841,-3.03352 -15.01392,-11.02913 -11.79221,-18.63984 8.90021,-17.46081 46.86899,-2.32077 57.576,9.18148 3.78637,-19.77623 14.44446,-22.78369 32.73523,-23.15437 19.10841,-0.38725 37.97993,19.13623 55.37525,20.10183 17.39537,0.9656 43.60618,-11.47942 58.99027,-8.01711 15.38412,3.4623 3.03151,15.13547 -6.72822,29.90092 11.53647,-15.68977 37.1434,-7.03054 44.2932,1.71584 4.40965,5.39428 13.99262,35.81363 -1.13194,19.34 -14.09217,-15.34918 -9.16218,7.13385 -9.95391,16.82436 -0.79168,9.69052 -13.05496,6.54172 -18.53561,16.31535 -5.48069,9.77366 30.65302,14.030264 20.85682,23.220956 -9.79616,9.190688 -44.6045,-12.618766 -58.04858,-4.637339 z"
       id="path2503"
       inkscape:connector-curvature="0"
       sodipodi:nodetypes="sssssssssssscscscccssscsscccs" />
  </g>
</svg>
