<?xml version="1.0" encoding="UTF-8" standalone="no"?>
<!-- Created with Inkscape (http://www.inkscape.org/) -->

<svg
   xmlns:dc="http://purl.org/dc/elements/1.1/"
   xmlns:cc="http://creativecommons.org/ns#"
   xmlns:rdf="http://www.w3.org/1999/02/22-rdf-syntax-ns#"
   xmlns:svg="http://www.w3.org/2000/svg"
   xmlns="http://www.w3.org/2000/svg"
   xmlns:sodipodi="http://sodipodi.sourceforge.net/DTD/sodipodi-0.dtd"
   xmlns:inkscape="http://www.inkscape.org/namespaces/inkscape"
   width="600mm"
   height="200mm"
   viewBox="0 0 600 200"
   version="1.1"
   id="svg1042"
   inkscape:version="0.92.5 (2060ec1f9f, 2020-04-08)"
   sodipodi:docname="duck_shapes.svg">
  <defs
     id="defs1036">
    <filter
       id="filter5752"
       style="color-interpolation-filters:sRGB;"
       inkscape:menu-tooltip="Soft bevel, slightly depressed middle"
       inkscape:menu="Bevels"
       inkscape:label="Button">
      <feGaussianBlur
         id="feGaussianBlur5726"
         result="result0"
         in="SourceAlpha"
         stdDeviation="2.3" />
      <feMorphology
         id="feMorphology5728"
         result="result1"
         radius="6.6"
         in="SourceAlpha" />
      <feGaussianBlur
         id="feGaussianBlur5730"
         in="result1"
         stdDeviation="8.9" />
      <feColorMatrix
         id="feColorMatrix5732"
         result="result91"
         values="1 0 0 0 0 0 1 0 0 0 0 0 1 0 0 0 0 0 0.3 0" />
      <feComposite
         id="feComposite5734"
         in2="result91"
         result="result2"
         operator="out"
         in="result0" />
      <feGaussianBlur
         id="feGaussianBlur5736"
         result="result4"
         stdDeviation="1.7" />
      <feDiffuseLighting
         id="feDiffuseLighting5740"
         surfaceScale="10">
        <feDistantLight
           id="feDistantLight5738"
           elevation="45"
           azimuth="225" />
      </feDiffuseLighting>
      <feBlend
         id="feBlend5742"
         mode="multiply"
         in2="SourceGraphic" />
      <feComposite
         id="feComposite5744"
         result="result3"
         operator="in"
         in2="SourceAlpha" />
      <feSpecularLighting
         id="feSpecularLighting5748"
         specularExponent="17.9"
         surfaceScale="5"
         in="result4">
        <feDistantLight
           id="feDistantLight5746"
           elevation="45"
           azimuth="225" />
      </feSpecularLighting>
      <feComposite
         id="feComposite5750"
         operator="atop"
         in2="result3" />
    </filter>
    <filter
       id="filter5780"
       style="color-interpolation-filters:sRGB;"
       inkscape:menu-tooltip="Soft bevel, slightly depressed middle"
       inkscape:menu="Bevels"
       inkscape:label="Button">
      <feGaussianBlur
         id="feGaussianBlur5754"
         result="result0"
         in="SourceAlpha"
         stdDeviation="2.3" />
      <feMorphology
         id="feMorphology5756"
         result="result1"
         radius="6.6"
         in="SourceAlpha" />
      <feGaussianBlur
         id="feGaussianBlur5758"
         in="result1"
         stdDeviation="8.9" />
      <feColorMatrix
         id="feColorMatrix5760"
         result="result91"
         values="1 0 0 0 0 0 1 0 0 0 0 0 1 0 0 0 0 0 0.3 0" />
      <feComposite
         id="feComposite5762"
         in2="result91"
         result="result2"
         operator="out"
         in="result0" />
      <feGaussianBlur
         id="feGaussianBlur5764"
         result="result4"
         stdDeviation="1.7" />
      <feDiffuseLighting
         id="feDiffuseLighting5768"
         surfaceScale="10">
        <feDistantLight
           id="feDistantLight5766"
           elevation="45"
           azimuth="225" />
      </feDiffuseLighting>
      <feBlend
         id="feBlend5770"
         mode="multiply"
         in2="SourceGraphic" />
      <feComposite
         id="feComposite5772"
         result="result3"
         operator="in"
         in2="SourceAlpha" />
      <feSpecularLighting
         id="feSpecularLighting5776"
         specularExponent="17.9"
         surfaceScale="5"
         in="result4">
        <feDistantLight
           id="feDistantLight5774"
           elevation="45"
           azimuth="225" />
      </feSpecularLighting>
      <feComposite
         id="feComposite5778"
         operator="atop"
         in2="result3" />
    </filter>
    <filter
       id="filter5808"
       style="color-interpolation-filters:sRGB;"
       inkscape:menu-tooltip="Soft bevel, slightly depressed middle"
       inkscape:menu="Bevels"
       inkscape:label="Button">
      <feGaussianBlur
         id="feGaussianBlur5782"
         result="result0"
         in="SourceAlpha"
         stdDeviation="2.3" />
      <feMorphology
         id="feMorphology5784"
         result="result1"
         radius="6.6"
         in="SourceAlpha" />
      <feGaussianBlur
         id="feGaussianBlur5786"
         in="result1"
         stdDeviation="8.9" />
      <feColorMatrix
         id="feColorMatrix5788"
         result="result91"
         values="1 0 0 0 0 0 1 0 0 0 0 0 1 0 0 0 0 0 0.3 0" />
      <feComposite
         id="feComposite5790"
         in2="result91"
         result="result2"
         operator="out"
         in="result0" />
      <feGaussianBlur
         id="feGaussianBlur5792"
         result="result4"
         stdDeviation="1.7" />
      <feDiffuseLighting
         id="feDiffuseLighting5796"
         surfaceScale="10">
        <feDistantLight
           id="feDistantLight5794"
           elevation="45"
           azimuth="225" />
      </feDiffuseLighting>
      <feBlend
         id="feBlend5798"
         mode="multiply"
         in2="SourceGraphic" />
      <feComposite
         id="feComposite5800"
         result="result3"
         operator="in"
         in2="SourceAlpha" />
      <feSpecularLighting
         id="feSpecularLighting5804"
         specularExponent="17.9"
         surfaceScale="5"
         in="result4">
        <feDistantLight
           id="feDistantLight5802"
           elevation="45"
           azimuth="225" />
      </feSpecularLighting>
      <feComposite
         id="feComposite5806"
         operator="atop"
         in2="result3" />
    </filter>
    <filter
       id="filter5836"
       style="color-interpolation-filters:sRGB;"
       inkscape:menu-tooltip="Soft bevel, slightly depressed middle"
       inkscape:menu="Bevels"
       inkscape:label="Button">
      <feGaussianBlur
         id="feGaussianBlur5810"
         result="result0"
         in="SourceAlpha"
         stdDeviation="2.3" />
      <feMorphology
         id="feMorphology5812"
         result="result1"
         radius="6.6"
         in="SourceAlpha" />
      <feGaussianBlur
         id="feGaussianBlur5814"
         in="result1"
         stdDeviation="8.9" />
      <feColorMatrix
         id="feColorMatrix5816"
         result="result91"
         values="1 0 0 0 0 0 1 0 0 0 0 0 1 0 0 0 0 0 0.3 0" />
      <feComposite
         id="feComposite5818"
         in2="result91"
         result="result2"
         operator="out"
         in="result0" />
      <feGaussianBlur
         id="feGaussianBlur5820"
         result="result4"
         stdDeviation="1.7" />
      <feDiffuseLighting
         id="feDiffuseLighting5824"
         surfaceScale="10">
        <feDistantLight
           id="feDistantLight5822"
           elevation="45"
           azimuth="225" />
      </feDiffuseLighting>
      <feBlend
         id="feBlend5826"
         mode="multiply"
         in2="SourceGraphic" />
      <feComposite
         id="feComposite5828"
         result="result3"
         operator="in"
         in2="SourceAlpha" />
      <feSpecularLighting
         id="feSpecularLighting5832"
         specularExponent="17.9"
         surfaceScale="5"
         in="result4">
        <feDistantLight
           id="feDistantLight5830"
           elevation="45"
           azimuth="225" />
      </feSpecularLighting>
      <feComposite
         id="feComposite5834"
         operator="atop"
         in2="result3" />
    </filter>
    <filter
       id="filter5864"
       style="color-interpolation-filters:sRGB;"
       inkscape:menu-tooltip="Soft bevel, slightly depressed middle"
       inkscape:menu="Bevels"
       inkscape:label="Button">
      <feGaussianBlur
         id="feGaussianBlur5838"
         result="result0"
         in="SourceAlpha"
         stdDeviation="2.3" />
      <feMorphology
         id="feMorphology5840"
         result="result1"
         radius="6.6"
         in="SourceAlpha" />
      <feGaussianBlur
         id="feGaussianBlur5842"
         in="result1"
         stdDeviation="8.9" />
      <feColorMatrix
         id="feColorMatrix5844"
         result="result91"
         values="1 0 0 0 0 0 1 0 0 0 0 0 1 0 0 0 0 0 0.3 0" />
      <feComposite
         id="feComposite5846"
         in2="result91"
         result="result2"
         operator="out"
         in="result0" />
      <feGaussianBlur
         id="feGaussianBlur5848"
         result="result4"
         stdDeviation="1.7" />
      <feDiffuseLighting
         id="feDiffuseLighting5852"
         surfaceScale="10">
        <feDistantLight
           id="feDistantLight5850"
           elevation="45"
           azimuth="225" />
      </feDiffuseLighting>
      <feBlend
         id="feBlend5854"
         mode="multiply"
         in2="SourceGraphic" />
      <feComposite
         id="feComposite5856"
         result="result3"
         operator="in"
         in2="SourceAlpha" />
      <feSpecularLighting
         id="feSpecularLighting5860"
         specularExponent="17.9"
         surfaceScale="5"
         in="result4">
        <feDistantLight
           id="feDistantLight5858"
           elevation="45"
           azimuth="225" />
      </feSpecularLighting>
      <feComposite
         id="feComposite5862"
         operator="atop"
         in2="result3" />
    </filter>
    <filter
       id="filter5892"
       style="color-interpolation-filters:sRGB;"
       inkscape:menu-tooltip="Soft bevel, slightly depressed middle"
       inkscape:menu="Bevels"
       inkscape:label="Button">
      <feGaussianBlur
         id="feGaussianBlur5866"
         result="result0"
         in="SourceAlpha"
         stdDeviation="2.3" />
      <feMorphology
         id="feMorphology5868"
         result="result1"
         radius="6.6"
         in="SourceAlpha" />
      <feGaussianBlur
         id="feGaussianBlur5870"
         in="result1"
         stdDeviation="8.9" />
      <feColorMatrix
         id="feColorMatrix5872"
         result="result91"
         values="1 0 0 0 0 0 1 0 0 0 0 0 1 0 0 0 0 0 0.3 0" />
      <feComposite
         id="feComposite5874"
         in2="result91"
         result="result2"
         operator="out"
         in="result0" />
      <feGaussianBlur
         id="feGaussianBlur5876"
         result="result4"
         stdDeviation="1.7" />
      <feDiffuseLighting
         id="feDiffuseLighting5880"
         surfaceScale="10">
        <feDistantLight
           id="feDistantLight5878"
           elevation="45"
           azimuth="225" />
      </feDiffuseLighting>
      <feBlend
         id="feBlend5882"
         mode="multiply"
         in2="SourceGraphic" />
      <feComposite
         id="feComposite5884"
         result="result3"
         operator="in"
         in2="SourceAlpha" />
      <feSpecularLighting
         id="feSpecularLighting5888"
         specularExponent="17.9"
         surfaceScale="5"
         in="result4">
        <feDistantLight
           id="feDistantLight5886"
           elevation="45"
           azimuth="225" />
      </feSpecularLighting>
      <feComposite
         id="feComposite5890"
         operator="atop"
         in2="result3" />
    </filter>
  </defs>
  <sodipodi:namedview
     id="base"
     pagecolor="#ffffff"
     bordercolor="#666666"
     borderopacity="1.0"
     inkscape:pageopacity="0.0"
     inkscape:pageshadow="2"
     inkscape:zoom="0.175"
     inkscape:cx="-41.616706"
     inkscape:cy="627.97441"
     inkscape:document-units="mm"
     inkscape:current-layer="layer1"
     showgrid="false"
     inkscape:pagecheckerboard="true"
     inkscape:window-width="3740"
     inkscape:window-height="2032"
     inkscape:window-x="100"
     inkscape:window-y="1134"
     inkscape:window-maximized="1" />
  <metadata
     id="metadata1039">
    <rdf:RDF>
      <cc:Work
         rdf:about="">
        <dc:format>image/svg+xml</dc:format>
        <dc:type
           rdf:resource="http://purl.org/dc/dcmitype/StillImage" />
        <dc:title></dc:title>
      </cc:Work>
    </rdf:RDF>
  </metadata>
  <g
     inkscape:label="Layer 1"
     inkscape:groupmode="layer"
     id="layer1"
     transform="translate(0,-97)">
    <g
       transform="matrix(1.1458552,0,0,1.4422704,31.398983,-461.08709)"
       id="layer1-2"
       inkscape:label="Layer 1"
       style="fill:#000000;fill-opacity:1">
      <g
         style="fill:#000000;fill-opacity:1"
         inkscape:label="Layer 1"
         id="layer1-3"
         transform="matrix(1.0885797,0,0,0.96053544,-3.7298582,215.89167)">
        <path
           style="opacity:1;fill:#000000;fill-opacity:1;stroke:none;stroke-width:2.07520127;stroke-linecap:round;stroke-linejoin:round;stroke-miterlimit:4;stroke-dasharray:none;stroke-dashoffset:0;stroke-opacity:0.44978165;paint-order:markers stroke fill"
           d="m 43.117008,218.70636 c 1.31484,-0.006 2.59564,0.20634 3.81165,0.65806 7.683025,2.85413 7.884968,18.61158 7.888923,19.01544 9.155361,-1.21596 19.357433,-1.98504 29.631267,-1.98504 16.267652,0 28.859912,6.0892 40.693642,6.84763 10.70231,0.6859 18.38155,-5.61077 19.81739,-3.90168 14.16177,16.85676 -25.02349,53.7934 -62.967728,53.55408 -38.167784,-0.24073 -58.693204,-4.20652 -63.997644,-17.52288 -10.47018,-12.48789 -5.05502,-25.29791 2.95003,-28.86959 8.20646,-3.66155 4.81083,-7.54267 4.73592,-11.24561 -2.12379,-5.09901 11.96648,-16.34045 17.43655,-16.55041 z"
           id="path815"
           inkscape:connector-curvature="0"
           sodipodi:nodetypes="cscscsscscc" />
        <path
           style="opacity:1;fill:#000000;fill-opacity:1;stroke:none;stroke-width:2.82102942;stroke-linecap:round;stroke-linejoin:round;stroke-miterlimit:4;stroke-dasharray:none;stroke-dashoffset:0;stroke-opacity:0.44978165;paint-order:markers stroke fill"
           d="m 26.350483,197.11989 c 14.143241,0 26.401924,5.18793 32.014583,20.83645 3.162636,8.81766 -6.721115,19.70164 -20.864359,19.70164 -6.0974,0 -11.494981,-1.41432 -15.666744,-3.77083 -1.508188,1.12533 -3.350437,2.00937 -5.327324,2.55644 -5.350396,1.47136 -12.7485748,3.34433 -14.5356103,0.31135 -0.2129605,-0.36144 -1.5319401,-2.65639 -1.64465525,-3.06628 2.46123615,-3.99122 10.67226255,-7.63532 12.75153555,-11.28659 0.134514,-0.0354 -0.135215,0.0321 0,0 -0.07701,-0.56104 -0.11679,-1.13006 -0.11679,-1.70584 0,-9.36768 -0.753864,-23.57634 13.389364,-23.57634 z"
           id="path819"
           inkscape:connector-curvature="0"
           sodipodi:nodetypes="sssccscccss" />
      </g>
    </g>
    <g
       transform="matrix(-0.10248449,0,0,0.10248449,238.36551,152.97348)"
       id="layer1-8"
       inkscape:label="Layer 1">
      <path
         style="opacity:1;fill:#000000;fill-opacity:1;stroke-width:0.26458332"
         d="M -52.160675,157.52678 A 379.11014,231.69942 0 0 1 -431.27081,389.2262 379.11014,231.69942 0 0 1 -810.38095,157.52678 379.11014,231.69942 0 0 1 -431.27081,-74.172638 379.11014,231.69942 0 0 1 -52.160675,157.52678 Z"
         id="path815-4" />
      <path
         style="opacity:1;fill:#000000;fill-opacity:1;stroke-width:0.26458332"
         d="M -26.080353,-128.97917 A 212.04465,212.04465 0 0 1 -238.125,83.065475 212.04465,212.04465 0 0 1 -450.16965,-128.97917 212.04465,212.04465 0 0 1 -238.125,-341.02382 212.04465,212.04465 0 0 1 -26.080353,-128.97917 Z"
         id="path823" />
      <path
         sodipodi:nodetypes="cc"
         inkscape:connector-curvature="0"
         id="path825"
         d="m -51.40476,-123.30952 c 428.625,-26.45833 146.654754,75.595236 3.023807,75.595236"
         style="fill:#000000;stroke:none;stroke-width:0.26458332px;stroke-linecap:butt;stroke-linejoin:miter;stroke-opacity:1;fill-opacity:1" />
      <path
         transform="scale(0.26458333)"
         inkscape:connector-curvature="0"
         id="path827"
         d="m -149.0616,-203.90889 c 26.59488,-68.50718 44.94817,-154.24216 50.128331,-234.16793 l 1.983026,-30.59651 11.760834,-1.48217 c 58.019426,-7.31194 397.622749,-12.61735 488.903699,-7.63784 138.62591,7.56226 213.03068,20.85759 244.56537,43.70121 16.412,11.8888 19.02543,20.63433 10.83051,36.24318 -40.76503,77.64509 -422.81483,186.85786 -740.81079,211.76821 -20.26391,1.58737 -45.51923,2.88614 -56.12293,2.88614 H -157.103 Z"
         style="opacity:1;fill:#000000;fill-opacity:1;stroke-width:2.85714293" />
      <path
         sodipodi:nodetypes="cc"
         inkscape:connector-curvature="0"
         id="path837"
         d="M -547.30951,-0.0892841 C -731.00595,79.28571 -1007.6845,-619.21429 -805.84522,196.45834"
         style="fill:#000000;stroke:none;stroke-width:0.26458332px;stroke-linecap:butt;stroke-linejoin:miter;stroke-opacity:1;fill-opacity:1" />
      <path
         transform="scale(0.26458333)"
         inkscape:connector-curvature="0"
         id="path839"
         d="m -3078.8499,599.55001 c -131.4052,-539.720998 -204.3152,-901.16728 -226.0675,-1120.71428 -6.135,-61.92161 -6.2274,-148.03913 -0.1916,-178.52049 12.5092,-63.17151 40.3675,-80.10398 90.5898,-55.06095 50.0277,24.94602 107.4827,77.23568 255.7618,232.76794 225.8516,236.89932 305.3721,312.74612 412.5395,393.48098 l 38.6392,29.108944 -43.9854,22.683229 c -277.4437,143.077343 -457.2189,345.308087 -501.5896,564.242797 -8.4893,41.88823 -11.1127,77.4814 -9.5192,129.15469 0.8602,27.89286 1.2895,50.71428 0.954,50.71428 -0.3354,0 -8.0444,-30.53571 -17.131,-67.85714 z"
         style="opacity:1;fill:#000000;fill-opacity:1;stroke:none;stroke-width:2.85714293" />
    </g>
    <g
       transform="matrix(-0.10248449,0,0,0.10248449,324.70871,238.58952)"
       id="layer1-8-5"
       inkscape:label="Layer 1">
      <path
         inkscape:connector-curvature="0"
         style="opacity:1;fill:#000000;fill-opacity:1;stroke-width:0.26458332"
         d="M -52.160675,157.52678 A 379.11014,231.69942 0 0 1 -431.27081,389.2262 379.11014,231.69942 0 0 1 -810.38095,157.52678 379.11014,231.69942 0 0 1 -431.27081,-74.172638 379.11014,231.69942 0 0 1 -52.160675,157.52678 Z"
         id="path815-4-0" />
      <path
         inkscape:connector-curvature="0"
         style="opacity:1;fill:#000000;fill-opacity:1;stroke-width:0.26458332"
         d="M -26.080353,-128.97917 A 212.04465,212.04465 0 0 1 -238.125,83.065475 212.04465,212.04465 0 0 1 -450.16965,-128.97917 212.04465,212.04465 0 0 1 -238.125,-341.02382 212.04465,212.04465 0 0 1 -26.080353,-128.97917 Z"
         id="path823-3" />
      <path
         sodipodi:nodetypes="cc"
         inkscape:connector-curvature="0"
         id="path825-6"
         d="m -51.40476,-123.30952 c 428.625,-26.45833 146.654754,75.595236 3.023807,75.595236"
         style="fill:#000000;fill-opacity:1;stroke:none;stroke-width:0.26458332px;stroke-linecap:butt;stroke-linejoin:miter;stroke-opacity:1" />
      <path
         transform="scale(0.26458333)"
         inkscape:connector-curvature="0"
         id="path827-1"
         d="m -149.0616,-203.90889 c 26.59488,-68.50718 44.94817,-154.24216 50.128331,-234.16793 l 1.983026,-30.59651 11.760834,-1.48217 c 58.019426,-7.31194 397.622749,-12.61735 488.903699,-7.63784 138.62591,7.56226 213.03068,20.85759 244.56537,43.70121 16.412,11.8888 19.02543,20.63433 10.83051,36.24318 -40.76503,77.64509 -422.81483,186.85786 -740.81079,211.76821 -20.26391,1.58737 -45.51923,2.88614 -56.12293,2.88614 H -157.103 Z"
         style="opacity:1;fill:#000000;fill-opacity:1;stroke-width:2.85714293" />
      <path
         sodipodi:nodetypes="cc"
         inkscape:connector-curvature="0"
         id="path837-0"
         d="M -547.30951,-0.0892841 C -731.00595,79.28571 -1007.6845,-619.21429 -805.84522,196.45834"
         style="fill:#000000;fill-opacity:1;stroke:none;stroke-width:0.26458332px;stroke-linecap:butt;stroke-linejoin:miter;stroke-opacity:1" />
      <path
         transform="scale(0.26458333)"
         inkscape:connector-curvature="0"
         id="path839-6"
         d="m -3078.8499,599.55001 c -131.4052,-539.720998 -204.3152,-901.16728 -226.0675,-1120.71428 -6.135,-61.92161 -6.2274,-148.03913 -0.1916,-178.52049 12.5092,-63.17151 40.3675,-80.10398 90.5898,-55.06095 50.0277,24.94602 107.4827,77.23568 255.7618,232.76794 225.8516,236.89932 305.3721,312.74612 412.5395,393.48098 l 38.6392,29.108944 -43.9854,22.683229 c -277.4437,143.077343 -457.2189,345.308087 -501.5896,564.242797 -8.4893,41.88823 -11.1127,77.4814 -9.5192,129.15469 0.8602,27.89286 1.2895,50.71428 0.954,50.71428 -0.3354,0 -8.0444,-30.53571 -17.131,-67.85714 z"
         style="opacity:1;fill:#000000;fill-opacity:1;stroke:none;stroke-width:2.85714293" />
    </g>
    <g
       transform="matrix(-0.10248449,0,0,0.10248449,398.33175,148.1565)"
       id="layer1-8-3"
       inkscape:label="Layer 1">
      <path
         inkscape:connector-curvature="0"
         style="opacity:1;fill:#000000;fill-opacity:1;stroke-width:0.26458332"
         d="M -52.160675,157.52678 A 379.11014,231.69942 0 0 1 -431.27081,389.2262 379.11014,231.69942 0 0 1 -810.38095,157.52678 379.11014,231.69942 0 0 1 -431.27081,-74.172638 379.11014,231.69942 0 0 1 -52.160675,157.52678 Z"
         id="path815-4-2" />
      <path
         inkscape:connector-curvature="0"
         style="opacity:1;fill:#000000;fill-opacity:1;stroke-width:0.26458332"
         d="M -26.080353,-128.97917 A 212.04465,212.04465 0 0 1 -238.125,83.065475 212.04465,212.04465 0 0 1 -450.16965,-128.97917 212.04465,212.04465 0 0 1 -238.125,-341.02382 212.04465,212.04465 0 0 1 -26.080353,-128.97917 Z"
         id="path823-0" />
      <path
         sodipodi:nodetypes="cc"
         inkscape:connector-curvature="0"
         id="path825-61"
         d="m -51.40476,-123.30952 c 428.625,-26.45833 146.654754,75.595236 3.023807,75.595236"
         style="fill:#000000;fill-opacity:1;stroke:none;stroke-width:0.26458332px;stroke-linecap:butt;stroke-linejoin:miter;stroke-opacity:1" />
      <path
         transform="scale(0.26458333)"
         inkscape:connector-curvature="0"
         id="path827-5"
         d="m -149.0616,-203.90889 c 26.59488,-68.50718 44.94817,-154.24216 50.128331,-234.16793 l 1.983026,-30.59651 11.760834,-1.48217 c 58.019426,-7.31194 397.622749,-12.61735 488.903699,-7.63784 138.62591,7.56226 213.03068,20.85759 244.56537,43.70121 16.412,11.8888 19.02543,20.63433 10.83051,36.24318 -40.76503,77.64509 -422.81483,186.85786 -740.81079,211.76821 -20.26391,1.58737 -45.51923,2.88614 -56.12293,2.88614 H -157.103 Z"
         style="opacity:1;fill:#000000;fill-opacity:1;stroke-width:2.85714293" />
      <path
         sodipodi:nodetypes="cc"
         inkscape:connector-curvature="0"
         id="path837-5"
         d="M -547.30951,-0.0892841 C -731.00595,79.28571 -1007.6845,-619.21429 -805.84522,196.45834"
         style="fill:#000000;fill-opacity:1;stroke:none;stroke-width:0.26458332px;stroke-linecap:butt;stroke-linejoin:miter;stroke-opacity:1" />
      <path
         transform="scale(0.26458333)"
         inkscape:connector-curvature="0"
         id="path839-4"
         d="m -3078.8499,599.55001 c -131.4052,-539.720998 -204.3152,-901.16728 -226.0675,-1120.71428 -6.135,-61.92161 -6.2274,-148.03913 -0.1916,-178.52049 12.5092,-63.17151 40.3675,-80.10398 90.5898,-55.06095 50.0277,24.94602 107.4827,77.23568 255.7618,232.76794 225.8516,236.89932 305.3721,312.74612 412.5395,393.48098 l 38.6392,29.108944 -43.9854,22.683229 c -277.4437,143.077343 -457.2189,345.308087 -501.5896,564.242797 -8.4893,41.88823 -11.1127,77.4814 -9.5192,129.15469 0.8602,27.89286 1.2895,50.71428 0.954,50.71428 -0.3354,0 -8.0444,-30.53571 -17.131,-67.85714 z"
         style="opacity:1;fill:#000000;fill-opacity:1;stroke:none;stroke-width:2.85714293" />
    </g>
    <g
       transform="matrix(-0.10248449,0,0,0.10248449,484.67494,233.77254)"
       id="layer1-8-5-7"
       inkscape:label="Layer 1">
      <path
         inkscape:connector-curvature="0"
         style="opacity:1;fill:#000000;fill-opacity:1;stroke-width:0.26458332"
         d="M -52.160675,157.52678 A 379.11014,231.69942 0 0 1 -431.27081,389.2262 379.11014,231.69942 0 0 1 -810.38095,157.52678 379.11014,231.69942 0 0 1 -431.27081,-74.172638 379.11014,231.69942 0 0 1 -52.160675,157.52678 Z"
         id="path815-4-0-6" />
      <path
         inkscape:connector-curvature="0"
         style="opacity:1;fill:#000000;fill-opacity:1;stroke-width:0.26458332"
         d="M -26.080353,-128.97917 A 212.04465,212.04465 0 0 1 -238.125,83.065475 212.04465,212.04465 0 0 1 -450.16965,-128.97917 212.04465,212.04465 0 0 1 -238.125,-341.02382 212.04465,212.04465 0 0 1 -26.080353,-128.97917 Z"
         id="path823-3-5" />
      <path
         sodipodi:nodetypes="cc"
         inkscape:connector-curvature="0"
         id="path825-6-6"
         d="m -51.40476,-123.30952 c 428.625,-26.45833 146.654754,75.595236 3.023807,75.595236"
         style="fill:#000000;fill-opacity:1;stroke:none;stroke-width:0.26458332px;stroke-linecap:butt;stroke-linejoin:miter;stroke-opacity:1" />
      <path
         transform="scale(0.26458333)"
         inkscape:connector-curvature="0"
         id="path827-1-9"
         d="m -149.0616,-203.90889 c 26.59488,-68.50718 44.94817,-154.24216 50.128331,-234.16793 l 1.983026,-30.59651 11.760834,-1.48217 c 58.019426,-7.31194 397.622749,-12.61735 488.903699,-7.63784 138.62591,7.56226 213.03068,20.85759 244.56537,43.70121 16.412,11.8888 19.02543,20.63433 10.83051,36.24318 -40.76503,77.64509 -422.81483,186.85786 -740.81079,211.76821 -20.26391,1.58737 -45.51923,2.88614 -56.12293,2.88614 H -157.103 Z"
         style="opacity:1;fill:#000000;fill-opacity:1;stroke-width:2.85714293" />
      <path
         sodipodi:nodetypes="cc"
         inkscape:connector-curvature="0"
         id="path837-0-3"
         d="M -547.30951,-0.0892841 C -731.00595,79.28571 -1007.6845,-619.21429 -805.84522,196.45834"
         style="fill:#000000;fill-opacity:1;stroke:none;stroke-width:0.26458332px;stroke-linecap:butt;stroke-linejoin:miter;stroke-opacity:1" />
      <path
         transform="scale(0.26458333)"
         inkscape:connector-curvature="0"
         id="path839-6-7"
         d="m -3078.8499,599.55001 c -131.4052,-539.720998 -204.3152,-901.16728 -226.0675,-1120.71428 -6.135,-61.92161 -6.2274,-148.03913 -0.1916,-178.52049 12.5092,-63.17151 40.3675,-80.10398 90.5898,-55.06095 50.0277,24.94602 107.4827,77.23568 255.7618,232.76794 225.8516,236.89932 305.3721,312.74612 412.5395,393.48098 l 38.6392,29.108944 -43.9854,22.683229 c -277.4437,143.077343 -457.2189,345.308087 -501.5896,564.242797 -8.4893,41.88823 -11.1127,77.4814 -9.5192,129.15469 0.8602,27.89286 1.2895,50.71428 0.954,50.71428 -0.3354,0 -8.0444,-30.53571 -17.131,-67.85714 z"
         style="opacity:1;fill:#000000;fill-opacity:1;stroke:none;stroke-width:2.85714293" />
    </g>
  </g>
</svg>
