<?xml version="1.0" encoding="UTF-8" standalone="no"?>
<!-- Created with Inkscape (http://www.inkscape.org/) -->

<svg
   xmlns:dc="http://purl.org/dc/elements/1.1/"
   xmlns:cc="http://creativecommons.org/ns#"
   xmlns:rdf="http://www.w3.org/1999/02/22-rdf-syntax-ns#"
   xmlns:svg="http://www.w3.org/2000/svg"
   xmlns="http://www.w3.org/2000/svg"
   xmlns:sodipodi="http://sodipodi.sourceforge.net/DTD/sodipodi-0.dtd"
   xmlns:inkscape="http://www.inkscape.org/namespaces/inkscape"
   width="91.470863mm"
   height="126.80952mm"
   viewBox="0 0 91.470863 126.80952"
   version="1.1"
   id="svg8"
   inkscape:version="0.92.5 (2060ec1f9f, 2020-04-08)"
   sodipodi:docname="duties.svg">
  <defs
     id="defs2" />
  <sodipodi:namedview
     id="base"
     pagecolor="#ffffff"
     bordercolor="#666666"
     borderopacity="1.0"
     inkscape:pageopacity="0.0"
     inkscape:pageshadow="2"
     inkscape:zoom="0.7"
     inkscape:cx="140.51193"
     inkscape:cy="253.50259"
     inkscape:document-units="mm"
     inkscape:current-layer="layer1-3"
     showgrid="false"
     inkscape:window-width="3696"
     inkscape:window-height="2032"
     inkscape:window-x="144"
     inkscape:window-y="54"
     inkscape:window-maximized="1" />
  <metadata
     id="metadata5">
    <rdf:RDF>
      <cc:Work
         rdf:about="">
        <dc:format>image/svg+xml</dc:format>
        <dc:type
           rdf:resource="http://purl.org/dc/dcmitype/StillImage" />
        <dc:title />
      </cc:Work>
    </rdf:RDF>
  </metadata>
  <g
     inkscape:label="Layer 1"
     inkscape:groupmode="layer"
     id="layer1"
     transform="translate(-63.287304,-21.028782)">
    <path
       style="fill:#969696;fill-opacity:1;stroke:none;stroke-width:31.17924309;stroke-linecap:round;stroke-miterlimit:4;stroke-dasharray:none;stroke-dashoffset:0;stroke-opacity:0.62085308"
       d="m 109.02299,21.028782 a 45.735118,55.444155 0 0 0 -45.735186,55.444242 45.735118,55.444155 0 0 0 0.0057,0.18982 h -0.0062 V 147.83831 H 154.75717 V 76.662844 h -0.007 a 45.735118,55.444155 0 0 0 0.008,-0.18982 45.735118,55.444155 0 0 0 -45.73519,-55.444242 z"
       id="path815"
       inkscape:connector-curvature="0" />
    <g
       transform="translate(497.57665,368.86918)"
       id="layer1-3"
       inkscape:label="Layer 1">
      <rect
         style="fill:none;fill-opacity:1;stroke:#ffffff;stroke-width:7.42358446;stroke-linecap:square;stroke-linejoin:miter;stroke-miterlimit:4.19999981;stroke-dasharray:none;stroke-dashoffset:0;stroke-opacity:1;paint-order:normal"
         id="rect875"
         width="20.237799"
         height="20.237799"
         x="-419.95517"
         y="-303.29004" />
      <rect
         style="fill:none;fill-opacity:1;stroke:#ffffff;stroke-width:7.42358446;stroke-linecap:square;stroke-linejoin:miter;stroke-miterlimit:4.19999981;stroke-dasharray:none;stroke-dashoffset:0;stroke-opacity:1;paint-order:normal"
         id="rect875-1"
         width="20.237799"
         height="20.237799"
         x="-419.71313"
         y="-258.09045" />
      <path
         style="fill:none;stroke:#ffffff;stroke-width:3.67252588;stroke-linecap:butt;stroke-linejoin:miter;stroke-miterlimit:4;stroke-dasharray:none;stroke-opacity:1"
         d="m -388.46757,-287.5424 c 4.64004,-10.36892 1.09177,-18.09047 4.64004,-10.58955 3.54826,7.50094 3.48003,13.01631 5.80005,6.83909 2.32002,-6.17723 1.97883,-9.92769 4.64004,-7.28032 2.6612,2.64739 2.59296,12.57509 5.73181,8.16278 3.13885,-4.41229 3.40765,-12.83954 3.88944,-7.50092 0.4818,5.33862 -0.75059,13.89878 2.79768,9.04522 3.54826,-4.85353 1.09177,-15.88431 4.70827,-9.04522 3.6165,6.83909 4.77367,13.56586 7.77605,6.50616"
         id="path824"
         inkscape:connector-curvature="0"
         sodipodi:nodetypes="ccsccccsc" />
      <path
         style="fill:none;stroke:#ffffff;stroke-width:3.94416189;stroke-linecap:butt;stroke-linejoin:miter;stroke-miterlimit:4;stroke-dasharray:none;stroke-opacity:1"
         d="m -355.20292,-242.56514 c -5.35182,10.36892 8.09518,6.93197 4.00261,-0.56895 -4.09256,-7.50094 -0.47254,-14.41948 -6.68977,-6.83909 -4.26911,5.20513 -2.28238,9.92769 -5.35182,7.28032 -5.87576,-3.51602 -2.99072,-12.57509 -6.61107,-8.16278 -3.62035,4.41229 -3.93038,12.83954 -4.48608,7.50092 -0.55569,-5.33862 -1.00516,-14.56695 -5.09772,-9.71339 -4.09257,4.85353 -1.7977,9.34492 -3.55964,9.71339 -4.40722,0.92166 -5.35182,-16.10492 -8.81476,-9.04522"
         id="path824-3"
         inkscape:connector-curvature="0"
         sodipodi:nodetypes="ccsccccsc" />
    </g>
  </g>
</svg>
