<?xml version="1.0" encoding="UTF-8" standalone="no"?>
<!-- Created with Inkscape (http://www.inkscape.org/) -->

<svg
   xmlns:dc="http://purl.org/dc/elements/1.1/"
   xmlns:cc="http://creativecommons.org/ns#"
   xmlns:rdf="http://www.w3.org/1999/02/22-rdf-syntax-ns#"
   xmlns:svg="http://www.w3.org/2000/svg"
   xmlns="http://www.w3.org/2000/svg"
   xmlns:sodipodi="http://sodipodi.sourceforge.net/DTD/sodipodi-0.dtd"
   xmlns:inkscape="http://www.inkscape.org/namespaces/inkscape"
   width="210mm"
   height="210mm"
   viewBox="0 0 210 210"
   version="1.1"
   id="svg8"
   inkscape:version="0.92.4 (unknown)"
   sodipodi:docname="travellers_button.svg">
  <defs
     id="defs2" />
  <sodipodi:namedview
     id="base"
     pagecolor="#ffffff"
     bordercolor="#666666"
     borderopacity="1.0"
     inkscape:pageopacity="0.0"
     inkscape:pageshadow="2"
     inkscape:zoom="0.98994949"
     inkscape:cx="641.42857"
     inkscape:cy="302.85714"
     inkscape:document-units="mm"
     inkscape:current-layer="layer1"
     showgrid="false"
     inkscape:window-width="3750"
     inkscape:window-height="2049"
     inkscape:window-x="90"
     inkscape:window-y="55"
     inkscape:window-maximized="1" />
  <metadata
     id="metadata5">
    <rdf:RDF>
      <cc:Work
         rdf:about="">
        <dc:format>image/svg+xml</dc:format>
        <dc:type
           rdf:resource="http://purl.org/dc/dcmitype/StillImage" />
        <dc:title></dc:title>
      </cc:Work>
    </rdf:RDF>
  </metadata>
  <g
     inkscape:label="Layer 1"
     inkscape:groupmode="layer"
     id="layer1"
     transform="translate(0,-87)">
    <g
       transform="matrix(1.0885797,0,0,0.96053544,47.585891,-101.62453)"
       id="layer1-3"
       inkscape:label="Layer 1"
       style="fill:#d40000;fill-opacity:1">
      <path
         sodipodi:nodetypes="cscscsscscc"
         inkscape:connector-curvature="0"
         id="path815"
         d="m 43.117008,218.70636 c 1.31484,-0.006 2.59564,0.20634 3.81165,0.65806 7.683025,2.85413 7.884968,18.61158 7.888923,19.01544 9.155361,-1.21596 19.357433,-1.98504 29.631267,-1.98504 16.267652,0 28.859912,6.0892 40.693642,6.84763 10.70231,0.6859 18.38155,-5.61077 19.81739,-3.90168 14.16177,16.85676 -25.02349,53.7934 -62.967728,53.55408 -38.167784,-0.24073 -58.693204,-4.20652 -63.997644,-17.52288 -10.47018,-12.48789 -5.05502,-25.29791 2.95003,-28.86959 8.20646,-3.66155 4.81083,-7.54267 4.73592,-11.24561 -2.12379,-5.09901 11.96648,-16.34045 17.43655,-16.55041 z"
         style="opacity:1;fill:#d40000;fill-opacity:1;stroke:none;stroke-width:2.07520127;stroke-linecap:round;stroke-linejoin:round;stroke-miterlimit:4;stroke-dasharray:none;stroke-dashoffset:0;stroke-opacity:0.44978165;paint-order:markers stroke fill" />
      <path
         sodipodi:nodetypes="sssccscccss"
         inkscape:connector-curvature="0"
         id="path819"
         d="m 26.350483,197.11989 c 14.143241,0 26.401924,5.18793 32.014583,20.83645 3.162636,8.81766 -6.721115,19.70164 -20.864359,19.70164 -6.0974,0 -11.494981,-1.41432 -15.666744,-3.77083 -1.508188,1.12533 -3.350437,2.00937 -5.327324,2.55644 -5.350396,1.47136 -12.7485748,3.34433 -14.5356103,0.31135 -0.2129605,-0.36144 -1.5319401,-2.65639 -1.64465525,-3.06628 2.46123615,-3.99122 10.67226255,-7.63532 12.75153555,-11.28659 0.134514,-0.0354 -0.135215,0.0321 0,0 -0.07701,-0.56104 -0.11679,-1.13006 -0.11679,-1.70584 0,-9.36768 -0.753864,-23.57634 13.389364,-23.57634 z"
         style="opacity:1;fill:#d40000;fill-opacity:1;stroke:none;stroke-width:2.82102942;stroke-linecap:round;stroke-linejoin:round;stroke-miterlimit:4;stroke-dasharray:none;stroke-dashoffset:0;stroke-opacity:0.44978165;paint-order:markers stroke fill" />
    </g>
    <g
       transform="matrix(-1.0885797,0,0,0.96053545,163.467,6.174291)"
       id="layer1-3-9"
       inkscape:label="Layer 1"
       style="fill:#008000;fill-opacity:1">
      <path
         sodipodi:nodetypes="cscscsscscc"
         inkscape:connector-curvature="0"
         id="path815-1"
         d="m 43.117008,218.70636 c 1.31484,-0.006 2.59564,0.20634 3.81165,0.65806 7.683025,2.85413 7.884968,18.61158 7.888923,19.01544 9.155361,-1.21596 19.357433,-1.98504 29.631267,-1.98504 16.267652,0 28.859912,6.0892 40.693642,6.84763 10.70231,0.6859 18.38155,-5.61077 19.81739,-3.90168 14.16177,16.85676 -25.02349,53.7934 -62.967728,53.55408 -38.167784,-0.24073 -58.693204,-4.20652 -63.997644,-17.52288 -10.47018,-12.48789 -5.05502,-25.29791 2.95003,-28.86959 8.20646,-3.66155 4.81083,-7.54267 4.73592,-11.24561 -2.12379,-5.09901 11.96648,-16.34045 17.43655,-16.55041 z"
         style="opacity:1;fill:#008000;fill-opacity:1;stroke:none;stroke-width:2.07520127;stroke-linecap:round;stroke-linejoin:round;stroke-miterlimit:4;stroke-dasharray:none;stroke-dashoffset:0;stroke-opacity:0.44978165;paint-order:markers stroke fill" />
      <path
         sodipodi:nodetypes="sssccscccss"
         inkscape:connector-curvature="0"
         id="path819-2"
         d="m 26.350483,197.11989 c 14.143241,0 26.401924,5.18793 32.014583,20.83645 3.162636,8.81766 -6.721115,19.70164 -20.864359,19.70164 -6.0974,0 -11.494981,-1.41432 -15.666744,-3.77083 -1.508188,1.12533 -3.350437,2.00937 -5.327324,2.55644 -5.350396,1.47136 -12.7485748,3.34433 -14.5356103,0.31135 -0.2129605,-0.36144 -1.5319401,-2.65639 -1.64465525,-3.06628 2.46123615,-3.99122 10.67226255,-7.63532 12.75153555,-11.28659 0.134514,-0.0354 -0.135215,0.0321 0,0 -0.07701,-0.56104 -0.11679,-1.13006 -0.11679,-1.70584 0,-9.36768 -0.753864,-23.57634 13.389364,-23.57634 z"
         style="opacity:1;fill:#008000;fill-opacity:1;stroke:none;stroke-width:2.82102942;stroke-linecap:round;stroke-linejoin:round;stroke-miterlimit:4;stroke-dasharray:none;stroke-dashoffset:0;stroke-opacity:0.44978165;paint-order:markers stroke fill" />
    </g>
    <rect
       style="opacity:1;fill:#008000;fill-opacity:1;stroke:none;stroke-width:10;stroke-linecap:round;stroke-linejoin:round;stroke-miterlimit:4;stroke-dasharray:none;stroke-dashoffset:0;stroke-opacity:0.44978165;paint-order:markers stroke fill"
       id="rect867"
       width="28.900188"
       height="13.631792"
       x="162.04263"
       y="246.67671"
       ry="0.42522243" />
    <path
       style="opacity:1;fill:#008000;fill-opacity:1;stroke:none;stroke-width:10;stroke-linecap:round;stroke-linejoin:round;stroke-miterlimit:4;stroke-dasharray:none;stroke-dashoffset:0;stroke-opacity:0.44978165;paint-order:markers stroke fill"
       d="m 189.64446,273.16584 19.75812,-19.66413 c 0.16696,-0.16617 0.16761,-0.43448 0.001,-0.60146 l -19.66412,-19.75812 z"
       id="rect869"
       inkscape:connector-curvature="0"
       sodipodi:nodetypes="csscc" />
    <rect
       style="opacity:1;fill:#d40000;fill-opacity:1;stroke:none;stroke-width:10;stroke-linecap:round;stroke-linejoin:round;stroke-miterlimit:4;stroke-dasharray:none;stroke-dashoffset:0;stroke-opacity:0.44978165;paint-order:markers stroke fill"
       id="rect867-7"
       width="28.900188"
       height="13.631793"
       x="-47.797012"
       y="134.43732"
       ry="0.42522246"
       transform="scale(-1,1)" />
    <path
       style="opacity:1;fill:#d40000;fill-opacity:1;stroke:none;stroke-width:10;stroke-linecap:round;stroke-linejoin:round;stroke-miterlimit:4;stroke-dasharray:none;stroke-dashoffset:0;stroke-opacity:0.44978165;paint-order:markers stroke fill"
       d="M 20.195186,160.92645 0.43706572,141.26232 c -0.16696,-0.16617 -0.16761,-0.43448 -0.001,-0.60146 L 20.100186,120.90274 Z"
       id="rect869-0"
       inkscape:connector-curvature="0"
       sodipodi:nodetypes="csscc" />
  </g>
</svg>
