<?xml version="1.0" encoding="UTF-8" standalone="no"?>
<!-- Created with Inkscape (http://www.inkscape.org/) -->

<svg
   xmlns:dc="http://purl.org/dc/elements/1.1/"
   xmlns:cc="http://creativecommons.org/ns#"
   xmlns:rdf="http://www.w3.org/1999/02/22-rdf-syntax-ns#"
   xmlns:svg="http://www.w3.org/2000/svg"
   xmlns="http://www.w3.org/2000/svg"
   xmlns:sodipodi="http://sodipodi.sourceforge.net/DTD/sodipodi-0.dtd"
   xmlns:inkscape="http://www.inkscape.org/namespaces/inkscape"
   width="1052.9258mm"
   height="730.25mm"
   viewBox="0 0 1052.9258 730.25"
   version="1.1"
   id="svg8"
   inkscape:version="0.92.4 (unknown)"
   sodipodi:docname="simple_duck_happy.svg"
   inkscape:export-filename="/home/jakmeier/fun/gamedev/paddlers/paddlers-frontend/static/ducks/yellow_duck_happy.png"
   inkscape:export-xdpi="3.6184886"
   inkscape:export-ydpi="3.6184886">
  <defs
     id="defs2" />
  <sodipodi:namedview
     id="base"
     pagecolor="#ffffff"
     bordercolor="#666666"
     borderopacity="1.0"
     inkscape:pageopacity="0.0"
     inkscape:pageshadow="2"
     inkscape:zoom="0.22627418"
     inkscape:cx="2511.2147"
     inkscape:cy="1702.33"
     inkscape:document-units="mm"
     inkscape:current-layer="layer1"
     showgrid="false"
     inkscape:window-width="3750"
     inkscape:window-height="2049"
     inkscape:window-x="90"
     inkscape:window-y="55"
     inkscape:window-maximized="1"
     inkscape:pagecheckerboard="true" />
  <metadata
     id="metadata5">
    <rdf:RDF>
      <cc:Work
         rdf:about="">
        <dc:format>image/svg+xml</dc:format>
        <dc:type
           rdf:resource="http://purl.org/dc/dcmitype/StillImage" />
        <dc:title />
      </cc:Work>
    </rdf:RDF>
  </metadata>
  <g
     inkscape:label="Layer 1"
     inkscape:groupmode="layer"
     id="layer1"
     transform="translate(876.57102,341.02382)">
    <ellipse
       style="opacity:1;fill:#fff41d;fill-opacity:1;stroke:none;stroke-width:0.26458332"
       id="path815"
       ry="231.69942"
       rx="379.11014"
       cy="157.52678"
       cx="268.94403"
       transform="scale(-1,1)" />
    <path
       style="fill:#e2b400;fill-opacity:1;stroke:none;stroke-width:0.26458332px;stroke-linecap:butt;stroke-linejoin:miter;stroke-opacity:1"
       d="m -878.31173,-59.294122 c 0,0 212.25143,-27.123373 211.73954,-20.847321 -0.98559,12.083892 26.28069,27.8516 20.33647,33.103417 -6.18244,5.462292 -45.74403,0.215054 -55.45196,2.910761 -164.21305,45.5988067 -176.62405,-15.166857 -176.62405,-15.166857 z"
       id="path838"
       inkscape:connector-curvature="0"
       sodipodi:nodetypes="csssc" />
    <circle
       style="opacity:1;fill:#ffdd55;fill-opacity:1;stroke-width:0.26458332"
       id="path823"
       cx="462.08984"
       cy="-128.97917"
       r="212.04465"
       transform="scale(-1,1)" />
    <path
       style="fill:none;stroke:none;stroke-width:0.26458332px;stroke-linecap:butt;stroke-linejoin:miter;stroke-opacity:1"
       d="m -648.81008,-123.30952 c -428.62502,-26.45833 -146.65475,75.595236 -3.0238,75.595236"
       id="path825"
       inkscape:connector-curvature="0"
       sodipodi:nodetypes="cc" />
    <path
       style="fill:none;stroke:none;stroke-width:0.26458332px;stroke-linecap:butt;stroke-linejoin:miter;stroke-opacity:1"
       d="M -152.90533,-0.0892841 C 30.791115,79.28571 307.46966,-619.21429 105.63038,196.45834"
       id="path837"
       inkscape:connector-curvature="0"
       sodipodi:nodetypes="cc" />
    <path
       style="opacity:1;fill:#ffdd55;fill-opacity:1;stroke:none;stroke-width:0.75595242"
       d="m 113.86835,159.16011 c 34.76763,-142.801184 57.97616,-238.178359 59.81369,-296.52232 2.67903,-85.06285 -7.05645,-175.23559 -14.05692,-185.14259 -7.00047,-9.907 -18.12198,13.53238 -31.40996,20.15835 -13.2365,6.6003 -29.690531,113.67867 -46.121275,164.769 -26.513382,82.441627 -80.7963703,82.74741 -109.15108,104.108508 l -10.22328,7.701742 11.6378,6.001604 c 73.40698,37.85588 120.9725,91.362764 132.712245,149.289246 2.24612,11.08292 2.94023,20.50028 2.51862,34.17217 -0.2276,7.37999 -0.34118,13.41816 -0.25241,13.41816 0.0887,0 2.12841,-8.07924 4.53257,-17.95387 z"
       id="path839"
       inkscape:connector-curvature="0"
       sodipodi:nodetypes="sszssscsccss" />
    <path
       style="opacity:1;fill:#ffffff;fill-opacity:1;stroke:none;stroke-width:0.35553193"
       d="m -471.59159,-126.3221 c 0,0 36.06798,-3.66631 26.43564,-35.55636 -9.63235,-31.89005 -45.77208,-43.08665 -72.44161,-53.10334 -47.55706,-17.86177 -80.35549,27.88025 -85.93737,60.77688 27.97687,37.98487 131.94334,27.88282 131.94334,27.88282 z"
       id="path879"
       inkscape:connector-curvature="0"
       sodipodi:nodetypes="csscc" />
    <ellipse
       style="opacity:1;fill:#000000;fill-opacity:1;stroke:none;stroke-width:0.26458332"
       id="path890"
       cx="539.67126"
       cy="-123.06606"
       rx="30.401907"
       ry="31.571213"
       transform="matrix(-0.99766749,-0.06826108,-0.06826108,0.99766749,0,0)" />
    <ellipse
       style="opacity:1;fill:#ffffff;fill-opacity:1;stroke:#cccccc;stroke-width:10.00036716;stroke-linecap:round;stroke-linejoin:bevel;stroke-miterlimit:4;stroke-dasharray:none;stroke-dashoffset:0;stroke-opacity:1;paint-order:markers stroke fill"
       id="path821"
       cx="-549.53839"
       cy="-141.64311"
       rx="9.9352121"
       ry="9.2021208"
       transform="matrix(0.99804631,0.06247843,-0.07457346,0.99721552,0,0)" />
    <path
       style="opacity:1;fill:#ffcc00;fill-opacity:1;stroke-width:0.75595242"
       d="m -669.26895,-85.848517 c -5.78285,-18.563903 -5.8077,-40.888313 -5.73158,-62.079563 l 0.0291,-8.11226 -3.07769,-0.60366 c -15.18312,-2.97799 -109.19428,11.67764 -130.50294,0.23354 -34.23018,-18.38375 -54.57511,-14.60154 -64.66899,-2.78013 -4.54693,2.84183 -4.9778,4.94276 -3.51347,9.37137 10.33078,31.24354 93.90693,72.555363 189.36251,67.460143 5.37028,-0.28666 11.96341,1.58395 14.76244,1.77546 l 5.08912,0.3482 z"
       id="path827-3"
       inkscape:connector-curvature="0"
       sodipodi:nodetypes="sscsscssscs" />
  </g>
</svg>
