<?xml version="1.0" encoding="UTF-8" standalone="no"?>
<!-- Created with Inkscape (http://www.inkscape.org/) -->

<svg
   xmlns:dc="http://purl.org/dc/elements/1.1/"
   xmlns:cc="http://creativecommons.org/ns#"
   xmlns:rdf="http://www.w3.org/1999/02/22-rdf-syntax-ns#"
   xmlns:svg="http://www.w3.org/2000/svg"
   xmlns="http://www.w3.org/2000/svg"
   xmlns:sodipodi="http://sodipodi.sourceforge.net/DTD/sodipodi-0.dtd"
   xmlns:inkscape="http://www.inkscape.org/namespaces/inkscape"
   width="1052.9258mm"
   height="730.25mm"
   viewBox="0 0 1052.9258 730.25"
   version="1.1"
   id="svg8"
   inkscape:version="0.92.3 (2405546, 2018-03-11)"
   sodipodi:docname="simple_duck_sad.svg">
  <defs
     id="defs2" />
  <sodipodi:namedview
     id="base"
     pagecolor="#ffffff"
     bordercolor="#666666"
     borderopacity="1.0"
     inkscape:pageopacity="0.0"
     inkscape:pageshadow="2"
     inkscape:zoom="0.11313709"
     inkscape:cx="5975.2226"
     inkscape:cy="-727.0678"
     inkscape:document-units="mm"
     inkscape:current-layer="layer1"
     showgrid="false"
     inkscape:window-width="3750"
     inkscape:window-height="2049"
     inkscape:window-x="90"
     inkscape:window-y="55"
     inkscape:window-maximized="1" />
  <metadata
     id="metadata5">
    <rdf:RDF>
      <cc:Work
         rdf:about="">
        <dc:format>image/svg+xml</dc:format>
        <dc:type
           rdf:resource="http://purl.org/dc/dcmitype/StillImage" />
        <dc:title />
      </cc:Work>
    </rdf:RDF>
  </metadata>
  <g
     inkscape:label="Layer 1"
     inkscape:groupmode="layer"
     id="layer1"
     transform="translate(876.57102,341.02382)">
    <ellipse
       style="opacity:1;fill:#784421;fill-opacity:1;stroke-width:0.26458332;stroke:none"
       id="path815"
       ry="231.69942"
       rx="379.11014"
       cy="157.52678"
       cx="-431.27081" />
    <circle
       style="opacity:1;fill:#1f4d00;fill-opacity:1;stroke-width:0.26458332"
       id="path823"
       cx="-238.125"
       cy="-128.97917"
       r="212.04465" />
    <path
       style="fill:none;stroke:none;stroke-width:0.26458332px;stroke-linecap:butt;stroke-linejoin:miter;stroke-opacity:1"
       d="m -51.40476,-123.30952 c 428.625,-26.45833 146.654754,75.595236 3.023807,75.595236"
       id="path825"
       inkscape:connector-curvature="0"
       sodipodi:nodetypes="cc" />
    <path
       style="opacity:1;fill:#ffcc00;fill-opacity:1;stroke-width:2.85714293"
       d="m -149.0616,-203.90889 c 26.59488,-68.50718 44.94817,-154.24216 50.128331,-234.16793 l 1.983026,-30.59651 11.760834,-1.48217 c 58.019426,-7.31194 397.622749,-12.61735 488.903699,-7.63784 138.62591,7.56226 213.03068,20.85759 244.56537,43.70121 16.412,11.8888 19.02543,20.63433 10.83051,36.24318 -40.76503,77.64509 -422.81483,186.85786 -740.81079,211.76821 -20.26391,1.58737 -45.51923,2.88614 -56.12293,2.88614 H -157.103 Z"
       id="path827"
       inkscape:connector-curvature="0"
       transform="scale(0.26458333)" />
    <path
       style="fill:none;stroke:none;stroke-width:0.26458332px;stroke-linecap:butt;stroke-linejoin:miter;stroke-opacity:1"
       d="M -547.30951,-0.0892841 C -731.00595,79.28571 -1007.6845,-619.21429 -805.84522,196.45834"
       id="path837"
       inkscape:connector-curvature="0"
       sodipodi:nodetypes="cc" />
    <path
       style="opacity:1;fill:#000000;fill-opacity:1;stroke:none;stroke-width:0.75595242"
       d="m -814.08319,159.16011 c -34.76763,-142.801184 -54.0584,-238.433845 -59.81369,-296.52232 -1.62322,-16.38342 -1.64767,-39.16868 -0.0507,-47.23354 3.30973,-16.71413 10.68057,-21.19418 23.96855,-14.56821 13.2365,6.6003 28.43813,20.43527 67.67031,61.58651 59.75657,62.679611 80.79637,82.74741 109.15108,104.108508 l 10.22328,7.701742 -11.6378,6.001604 c -73.40698,37.85588 -120.9725,91.362764 -132.71225,149.289246 -2.24612,11.08292 -2.94023,20.50028 -2.51862,34.17217 0.2276,7.37999 0.34118,13.41816 0.25241,13.41816 -0.0887,0 -2.12841,-8.07924 -4.53257,-17.95387 z"
       id="path839"
       inkscape:connector-curvature="0" />
    <path
       style="opacity:1;fill:#ffffff;fill-opacity:1;stroke:none;stroke-width:0.35553193"
       id="path879"
       sodipodi:type="arc"
       sodipodi:cx="-174.24464"
       sodipodi:cy="-204.12579"
       sodipodi:rx="61.615547"
       sodipodi:ry="99.271019"
       sodipodi:start="6.2512921"
       sodipodi:end="2.5703271"
       d="m -112.66043,-207.29133 a 61.615547,99.271019 0 0 1 -43.28263,97.95631 61.615547,99.271019 0 0 1 -70.13365,-41.11522"
       sodipodi:open="true" />
    <path
       style="fill:none;stroke:#000000;stroke-width:0.26458332px;stroke-linecap:butt;stroke-linejoin:miter;stroke-opacity:1"
       d="m -196.62065,-165.60866 54.37264,-28.64795"
       id="path883"
       inkscape:connector-curvature="0" />
    <ellipse
       style="opacity:1;fill:#000000;fill-opacity:1;stroke:none;stroke-width:0.26458332"
       id="path890"
       cx="-139.67834"
       cy="-148.44809"
       rx="15.200954"
       ry="15.785606" />
  </g>
</svg>
