<?xml version="1.0" encoding="UTF-8" standalone="no"?>
<!-- Created with Inkscape (http://www.inkscape.org/) -->

<svg
   xmlns:dc="http://purl.org/dc/elements/1.1/"
   xmlns:cc="http://creativecommons.org/ns#"
   xmlns:rdf="http://www.w3.org/1999/02/22-rdf-syntax-ns#"
   xmlns:svg="http://www.w3.org/2000/svg"
   xmlns="http://www.w3.org/2000/svg"
   xmlns:sodipodi="http://sodipodi.sourceforge.net/DTD/sodipodi-0.dtd"
   xmlns:inkscape="http://www.inkscape.org/namespaces/inkscape"
   width="150mm"
   height="100mm"
   viewBox="0 0 150 100"
   version="1.1"
   id="svg8"
   inkscape:version="0.92.4 (unknown)"
   sodipodi:docname="duck.svg">
  <defs
     id="defs2" />
  <sodipodi:namedview
     id="base"
     pagecolor="#ffffff"
     bordercolor="#666666"
     borderopacity="1.0"
     inkscape:pageopacity="0.0"
     inkscape:pageshadow="2"
     inkscape:zoom="2.8"
     inkscape:cx="53.54402"
     inkscape:cy="179.1412"
     inkscape:document-units="mm"
     inkscape:current-layer="layer1"
     showgrid="false"
     inkscape:window-width="3750"
     inkscape:window-height="2049"
     inkscape:window-x="90"
     inkscape:window-y="55"
     inkscape:window-maximized="1"
     inkscape:pagecheckerboard="true" />
  <metadata
     id="metadata5">
    <rdf:RDF>
      <cc:Work
         rdf:about="">
        <dc:format>image/svg+xml</dc:format>
        <dc:type
           rdf:resource="http://purl.org/dc/dcmitype/StillImage" />
        <dc:title />
      </cc:Work>
    </rdf:RDF>
  </metadata>
  <g
     inkscape:label="Layer 1"
     inkscape:groupmode="layer"
     id="layer1"
     transform="translate(0,-197)">
    <path
       style="opacity:1;fill:#000000;fill-opacity:1;stroke:none;stroke-width:2.07520127;stroke-linecap:round;stroke-linejoin:round;stroke-miterlimit:4;stroke-dasharray:none;stroke-dashoffset:0;stroke-opacity:0.44978165;paint-order:markers stroke fill"
       d="m 43.117008,218.70636 c 1.31484,-0.006 2.59564,0.20634 3.81165,0.65806 7.683025,2.85413 7.884968,18.61158 7.888923,19.01544 9.155361,-1.21596 19.357433,-1.98504 29.631267,-1.98504 16.267652,0 28.859912,6.0892 40.693642,6.84763 10.70231,0.6859 18.38155,-5.61077 19.81739,-3.90168 14.16177,16.85676 -25.02349,53.7934 -62.967728,53.55408 -38.167784,-0.24073 -58.693204,-4.20652 -63.997644,-17.52288 -10.47018,-12.48789 -5.05502,-25.29791 2.95003,-28.86959 8.20646,-3.66155 4.81083,-7.54267 4.73592,-11.24561 -2.12379,-5.09901 11.96648,-16.34045 17.43655,-16.55041 z"
       id="path815"
       inkscape:connector-curvature="0"
       sodipodi:nodetypes="cscscsscscc" />
    <path
       style="opacity:1;fill:#000000;fill-opacity:1;stroke:none;stroke-width:2.82102942;stroke-linecap:round;stroke-linejoin:round;stroke-miterlimit:4;stroke-dasharray:none;stroke-dashoffset:0;stroke-opacity:0.44978165;paint-order:markers stroke fill"
       d="m 26.350483,197.11989 c 14.143241,0 26.401924,5.18793 32.014583,20.83645 3.162636,8.81766 -6.721115,19.70164 -20.864359,19.70164 -6.0974,0 -11.494981,-1.41432 -15.666744,-3.77083 -1.508188,1.12533 -3.350437,2.00937 -5.327324,2.55644 -5.350396,1.47136 -12.7485748,3.34433 -14.5356103,0.31135 -0.2129605,-0.36144 -1.5319401,-2.65639 -1.64465525,-3.06628 2.46123615,-3.99122 10.67226255,-7.63532 12.75153555,-11.28659 0.134514,-0.0354 -0.135215,0.0321 0,0 -0.07701,-0.56104 -0.11679,-1.13006 -0.11679,-1.70584 0,-9.36768 -0.753864,-23.57634 13.389364,-23.57634 z"
       id="path819"
       inkscape:connector-curvature="0"
       sodipodi:nodetypes="sssccscccss" />
  </g>
</svg>
