<?xml version="1.0" encoding="UTF-8" standalone="no"?>
<!-- Created with Inkscape (http://www.inkscape.org/) -->

<svg
   xmlns:dc="http://purl.org/dc/elements/1.1/"
   xmlns:cc="http://creativecommons.org/ns#"
   xmlns:rdf="http://www.w3.org/1999/02/22-rdf-syntax-ns#"
   xmlns:svg="http://www.w3.org/2000/svg"
   xmlns="http://www.w3.org/2000/svg"
   xmlns:sodipodi="http://sodipodi.sourceforge.net/DTD/sodipodi-0.dtd"
   xmlns:inkscape="http://www.inkscape.org/namespaces/inkscape"
   width="350mm"
   height="350mm"
   viewBox="0 0 350 350"
   version="1.1"
   id="svg8"
   inkscape:version="0.92.3 (2405546, 2018-03-11)"
   sodipodi:docname="roger.svg"
   inkscape:export-filename="/home/jakmeier/fun/gamedev/paddlers/paddlers-frontend/static/ducks/roger.png"
   inkscape:export-xdpi="14.514286"
   inkscape:export-ydpi="14.514286">
  <defs
     id="defs2">
    <inkscape:path-effect
       effect="bspline"
       id="path-effect833"
       is_visible="true"
       weight="33.333333"
       steps="2"
       helper_size="0"
       apply_no_weight="true"
       apply_with_weight="true"
       only_selected="false" />
  </defs>
  <sodipodi:namedview
     id="base"
     pagecolor="#ffffff"
     bordercolor="#666666"
     borderopacity="1.0"
     inkscape:pageopacity="0.0"
     inkscape:pageshadow="2"
     inkscape:zoom="2"
     inkscape:cx="663.84185"
     inkscape:cy="716.51817"
     inkscape:document-units="mm"
     inkscape:current-layer="layer1"
     showgrid="false"
     inkscape:pagecheckerboard="true"
     inkscape:window-width="3750"
     inkscape:window-height="2049"
     inkscape:window-x="90"
     inkscape:window-y="55"
     inkscape:window-maximized="1"
     inkscape:snap-others="false"
     inkscape:snap-nodes="false" />
  <metadata
     id="metadata5">
    <rdf:RDF>
      <cc:Work
         rdf:about="">
        <dc:format>image/svg+xml</dc:format>
        <dc:type
           rdf:resource="http://purl.org/dc/dcmitype/StillImage" />
        <dc:title />
      </cc:Work>
    </rdf:RDF>
  </metadata>
  <g
     inkscape:label="Layer 1"
     inkscape:groupmode="layer"
     id="layer1"
     transform="translate(23.037432,81.083169)">
    <ellipse
       style="opacity:1;fill:#6c5353;fill-opacity:1;stroke:none;stroke-width:20;stroke-linecap:round;stroke-linejoin:round;stroke-miterlimit:4;stroke-dasharray:none;stroke-opacity:1;paint-order:markers stroke fill"
       id="path819-3"
       cx="96.308327"
       cy="154.95654"
       rx="28.348215"
       ry="75.028275" />
    <path
       style="opacity:1;fill:#ffa200;fill-opacity:1;stroke:none;stroke-width:20;stroke-linecap:round;stroke-linejoin:round;stroke-miterlimit:4;stroke-dasharray:none;stroke-opacity:1;paint-order:markers stroke fill"
       d="m 169.49992,246.37394 c -11.2378,2.74868 -37.16171,4.00524 -37.16171,4.00524 17.59864,-16.25255 22.59096,-9.504 -5.93411,-12.53273 21.45572,-13.11702 27.76671,-10.89504 -0.21545,-13.30889 0,0 7.30928,-5.28702 20.41176,-8.72922 47.37899,-11.50512 69.71145,18.43117 22.89951,30.5656 z"
       id="path836"
       inkscape:connector-curvature="0"
       sodipodi:nodetypes="cccccc" />
    <path
       style="opacity:1;fill:#ffa200;fill-opacity:1;stroke:none;stroke-width:20;stroke-linecap:round;stroke-linejoin:round;stroke-miterlimit:4;stroke-dasharray:none;stroke-opacity:1;paint-order:markers stroke fill"
       d="m 213.97071,248.6854 c -11.06542,7.61993 -36.87763,20.23144 -36.87763,20.23144 16.65673,-23.60443 22.02069,-19.20441 -6.62956,-9.63673 20.68404,-22.23525 27.11001,-22.83608 -0.9636,-12.90617 0,0 7.00037,-8.37437 19.88851,-17.4906 46.65693,-32.04441 70.63768,-12.6081 24.58228,19.80206 z"
       id="path836-7"
       inkscape:connector-curvature="0"
       sodipodi:nodetypes="cccccc" />
    <path
       style="opacity:1;fill:#deaa87;fill-opacity:1;stroke:none;stroke-width:20;stroke-linecap:round;stroke-linejoin:round;stroke-miterlimit:4;stroke-dasharray:none;stroke-opacity:1;paint-order:markers stroke fill"
       d="m 234.38734,164.65568 c 22.04727,44.30888 2.67386,71.80815 -32.78041,62.49808 C 157.09182,215.46436 92.076905,177.53492 83.747823,151.08455 69.864848,106.99688 79.872843,83.042303 120.64418,83.535089 c 40.77135,0.492787 91.69589,36.811711 113.74316,81.120591 z"
       id="path815"
       inkscape:connector-curvature="0"
       sodipodi:nodetypes="sssss" />
    <path
       style="opacity:1;fill:#aa0000;fill-opacity:1;stroke:none;stroke-width:20;stroke-linecap:round;stroke-linejoin:round;stroke-miterlimit:4;stroke-dasharray:none;stroke-opacity:1;paint-order:markers stroke fill"
       d="m 115.44067,-6.0649857 c 1.35263,0.1105838 -18.660268,-17.6729573 -9.67516,-37.1599813 4.11878,-8.932872 22.66019,-25.807045 38.38294,-30.278299 17.45802,-4.96473 38.70561,-1.693893 48.69663,9.815879 0,0 -13.87214,-13.091952 -46.25981,2.420371 -12.99047,6.221885 -20.91579,16.351033 -17.75774,24.10919 0,0 12.31205,-15.332783 30.14899,-21.349839 19.45235,-5.2099 39.11368,-0.594474 41.85183,6.531461 0,0 -0.98829,-6.823396 -33.04042,4.904859 -8.51217,3.114705 -21.25158,13.990977 -13.37166,17.802984 0,0 13.02472,-11.544843 26.22562,-13.454364 16.51473,-2.388871 27.64133,1.286194 32.98331,6.829492 0,0 -5.98716,-6.514237 -31.555,7.118934 -21.2696,11.341284 -26.38734,25.5936153 -25.46889,25.7685508"
       id="path4844"
       inkscape:connector-curvature="0"
       sodipodi:nodetypes="csscscccscscsc" />
    <path
       style="opacity:1;fill:#d38d5f;fill-opacity:1;stroke:none;stroke-width:20;stroke-linecap:round;stroke-linejoin:round;stroke-miterlimit:4;stroke-dasharray:none;stroke-opacity:1;paint-order:markers stroke fill"
       d="m 156.60131,-3.0057482 c 16.91995,7.8843168 30.71974,28.3495072 21.50331,56.2562022 -9.48139,28.708981 -23.81247,52.117556 -53.18663,52.117556 -29.374172,0 -53.186639,-23.333825 -53.186639,-52.117556 0,-6.349712 -0.865752,-13.830355 0.424286,-21.130865 3.345194,-18.930921 9.642926,-36.6722699 43.285033,-38.1845747"
       id="path817"
       inkscape:connector-curvature="0"
       sodipodi:nodetypes="cssssc" />
    <ellipse
       style="opacity:1;fill:#6c5353;fill-opacity:1;stroke:none;stroke-width:20;stroke-linecap:round;stroke-linejoin:round;stroke-miterlimit:4;stroke-dasharray:none;stroke-opacity:1;paint-order:markers stroke fill"
       id="path819"
       cx="93.666428"
       cy="226.29671"
       rx="28.348215"
       ry="75.028275"
       transform="rotate(-31.958573)" />
    <path
       style="opacity:1;fill:#ffffff;fill-opacity:1;stroke:none;stroke-width:20;stroke-linecap:round;stroke-linejoin:round;stroke-miterlimit:4;stroke-dasharray:none;stroke-opacity:1;paint-order:markers stroke fill"
       d="m 110.14237,29.644616 c 1.83956,3.20246 5.95072,15.33081 5.59302,16.768424 -0.42266,1.698794 -9.80212,2.720492 -13.16969,3.83747 -12.117348,0.307177 -19.134916,-9.779089 -18.42914,-20.941804 5.99969,-14.541631 22.83542,-4.940044 26.00581,0.33591 z"
       id="path872"
       inkscape:connector-curvature="0"
       sodipodi:nodetypes="csccc" />
    <path
       style="opacity:1;fill:#ffffff;fill-opacity:1;stroke:none;stroke-width:20;stroke-linecap:round;stroke-linejoin:round;stroke-miterlimit:4;stroke-dasharray:none;stroke-opacity:1;paint-order:markers stroke fill"
       d="m 146.61107,49.30815 c -3.14255,0.347087 -17.2475,-1.664553 -17.70782,-3.059651 -0.54394,-1.648549 2.10904,-11.54496 4.47458,-15.604553 6.81815,-8.799152 16.99233,-12.860963 28.80502,-2.154465 0.39892,11.132308 -9.29168,20.087062 -15.57178,20.818669 z"
       id="path872-5"
       inkscape:connector-curvature="0"
       sodipodi:nodetypes="csccc" />
    <circle
       style="opacity:1;fill:#0026ff;fill-opacity:0.4627451;stroke:none;stroke-width:1.5;stroke-linecap:round;stroke-linejoin:miter;stroke-miterlimit:4;stroke-dasharray:none;stroke-dashoffset:0;stroke-opacity:1;paint-order:markers stroke fill"
       id="path848"
       cx="100.61377"
       cy="36.767654"
       r="12.36927" />
    <circle
       style="opacity:1;fill:#0026ff;fill-opacity:0.4614265;stroke:none;stroke-width:1.5;stroke-linecap:round;stroke-linejoin:miter;stroke-miterlimit:4;stroke-dasharray:none;stroke-dashoffset:0;stroke-opacity:1;paint-order:markers stroke fill"
       id="path848-9"
       cx="147.01176"
       cy="36.393475"
       r="12.369271" />
    <path
       style="opacity:1;fill:#d38d5f;fill-opacity:1;stroke:none;stroke-width:20;stroke-linecap:round;stroke-linejoin:round;stroke-miterlimit:4;stroke-dasharray:none;stroke-opacity:1;paint-order:markers stroke fill"
       d="M 115.4409,-6.0654367 C 81.798786,-4.5531307 75.500875,13.188393 72.155682,32.119311 c -1.29004,7.300511 -0.424265,14.781299 -0.424265,21.131009 0,28.783732 23.81276,52.11723 53.186943,52.11723 29.37415,0 43.70502,-23.408248 53.18641,-52.11723 C 187.3212,25.343629 173.52164,4.8781243 156.60169,-3.0061917 Z M 94.165707,21.633131 c 0.66758,-0.02735 1.34143,-0.0021 2.0159,0.06873 0.67447,0.07091 1.349603,0.187859 2.019003,0.343133 0.6694,0.155273 1.33304,0.348906 1.9854,0.57464 0.65237,0.225737 1.29332,0.48355 1.91668,0.765847 0.62337,0.282295 1.22937,0.589198 1.81178,0.914154 0.58241,0.324959 1.14122,0.667927 1.6707,1.021644 0.52948,0.353716 1.02989,0.718179 1.49448,1.086755 0.4646,0.368577 0.89332,0.740994 1.28106,1.110527 0.38774,0.369533 0.73408,0.736365 1.03301,1.092957 0.29893,0.356589 0.55064,0.703265 0.74879,1.033013 0.22995,0.400306 0.49513,0.939855 0.7829,1.580779 0.28777,0.640929 0.598,1.383062 0.91726,2.187983 0.63852,1.609841 1.31378,3.471148 1.92029,5.277196 0.60651,1.806049 1.14458,3.556714 1.50844,4.945952 0.18193,0.694618 0.32027,1.299093 0.40204,1.774568 0.0818,0.475475 0.10673,0.822304 0.062,1.002006 -0.0264,0.106175 -0.0876,0.209502 -0.18035,0.310575 -0.0927,0.10107 -0.2167,0.19975 -0.36845,0.2961 -0.3035,0.1927 -0.71819,0.37636 -1.21388,0.55243 -0.49569,0.17606 -1.07281,0.34449 -1.70222,0.50694 -0.62941,0.16245 -1.31072,0.31892 -2.01538,0.47077 -1.40933,0.3037 -2.91105,0.58928 -4.27054,0.86868 -1.3595,0.27941 -2.57702,0.55275 -3.41892,0.832 -0.75733,0.0192 -1.49438,-0.002 -2.21123,-0.062 -0.71685,-0.0597 -1.41316,-0.15787 -2.08825,-0.29197 -0.67508,-0.1341 -1.32907,-0.30457 -1.961123,-0.50849 -0.63204,-0.20393 -1.24214,-0.44135 -1.82986,-0.71056 -0.58772,-0.2692 -1.15339,-0.56975 -1.6955,-0.89968 -0.54211,-0.32993 -1.06075,-0.68928 -1.555979,-1.07539 -0.495223,-0.386103 -0.966814,-0.799396 -1.413867,-1.23713 -0.447056,-0.437735 -0.869503,-0.900115 -1.267108,-1.38493 -0.397602,-0.484812 -0.770369,-0.991947 -1.117243,-1.519285 -0.346874,-0.527344 -0.667869,-1.074888 -0.962731,-1.64021 -0.294862,-0.565325 -0.563552,-1.148427 -0.805119,-1.747182 -0.24157,-0.598754 -0.456377,-1.213077 -0.643372,-1.840714 -0.186997,-0.627637 -0.34635,-1.268328 -0.477491,-1.920295 -0.13114,-0.651971 -0.233986,-1.31521 -0.30799,-1.98696 -0.074,-0.671751 -0.11929,-1.352167 -0.134877,-2.039152 -0.01558,-0.686985 -0.0013,-1.380239 0.04289,-2.077911 0.37498,-0.908851 0.792263,-1.723829 1.245917,-2.451012 0.453657,-0.727184 0.943629,-1.366565 1.463995,-1.925979 0.520367,-0.559416 1.07078,-1.03881 1.645894,-1.444358 0.575114,-0.405548 1.174758,-0.737457 1.792655,-1.003038 0.6179,-0.265583 1.254009,-0.464582 1.902726,-0.604099 0.64872,-0.139518 1.31008,-0.21966 1.97766,-0.247012 z m 53.597763,0.443899 c 0.62814,-0.01849 1.26564,0.0037 1.91203,0.06873 0.64639,0.06505 1.30196,0.173101 1.96577,0.326593 0.66381,0.153496 1.33603,0.352619 2.01641,0.599448 0.68039,0.24683 1.36888,0.541187 2.065,0.886251 0.69611,0.345065 1.39945,0.740879 2.11046,1.189075 0.71101,0.448196 1.42932,0.949105 2.15439,1.505334 0.72507,0.556228 1.45692,1.167423 2.19522,1.836581 0.0249,0.695769 0.0108,1.383056 -0.0398,2.060339 -0.0506,0.677281 -0.1373,1.344552 -0.25684,2.000393 -0.11953,0.655841 -0.27184,1.300218 -0.45372,1.931668 -0.18187,0.631446 -0.39333,1.250045 -0.63096,1.854149 -0.23763,0.604105 -0.50179,1.194041 -0.78859,1.767851 -0.28679,0.57381 -0.59616,1.131686 -0.92552,1.672249 -0.32936,0.540562 -0.67853,1.0635 -1.04387,1.567862 -0.36533,0.504362 -0.7468,0.99 -1.14153,1.455208 -0.39472,0.465212 -0.80256,0.910146 -1.22008,1.333254 -0.41752,0.423106 -0.84475,0.824461 -1.27847,1.20251 -0.86744,0.7561 -1.76089,1.418975 -2.65359,1.977145 -0.44635,0.27908 -0.89254,0.53188 -1.33532,0.75706 -0.44277,0.22517 -0.88203,0.42287 -1.31464,0.59117 -0.43262,0.16831 -0.85849,0.30751 -1.27435,0.416 -0.41585,0.10849 -0.82188,0.1863 -1.21439,0.23203 -0.39282,0.0434 -0.95701,0.0498 -1.64435,0.0253 -0.68733,-0.0245 -1.49759,-0.0799 -2.38331,-0.16071 -1.77145,-0.16159 -3.84391,-0.42409 -5.83221,-0.74104 -0.99414,-0.15848 -1.96696,-0.33068 -2.87114,-0.51057 -0.90418,-0.17989 -1.73964,-0.36739 -2.45773,-0.55707 -0.71808,-0.18968 -1.31906,-0.38163 -1.75493,-0.56947 -0.21794,-0.0939 -0.39464,-0.186743 -0.524,-0.278026 -0.12936,-0.09128 -0.21101,-0.181007 -0.23978,-0.268201 -0.068,-0.206068 -0.0861,-0.540895 -0.061,-0.977201 0.0251,-0.436306 0.0933,-0.97391 0.19792,-1.585431 0.20919,-1.223047 0.56377,-2.741843 1.00924,-4.335653 0.44548,-1.59381 0.98156,-3.262879 1.55443,-4.787305 0.28644,-0.762214 0.58218,-1.487916 0.88005,-2.150258 0.29787,-0.662339 0.59779,-1.260917 0.89349,-1.768366 0.42613,-0.549947 0.86529,-1.081664 1.31723,-1.592152 0.45193,-0.510487 0.91682,-0.999929 1.39371,-1.466058 0.4769,-0.466133 0.96608,-0.909143 1.4671,-1.326018 0.50101,-0.416875 1.0141,-0.807749 1.5384,-1.170472 0.5243,-0.362722 1.05988,-0.697301 1.60662,-1.000971 0.54675,-0.303673 1.10442,-0.576252 1.67277,-0.815973 0.56835,-0.23972 1.14721,-0.446143 1.73633,-0.617016 0.58912,-0.170873 1.18877,-0.306464 1.79782,-0.403593 0.60905,-0.09713 1.22756,-0.156181 1.8557,-0.174667 z"
       id="path817-5"
       inkscape:connector-curvature="0" />
    <path
       style="opacity:1;fill:#ffa200;fill-opacity:1;stroke:none;stroke-width:19.99999809;stroke-linecap:round;stroke-linejoin:round;stroke-miterlimit:4;stroke-dasharray:none;stroke-opacity:1;paint-order:markers stroke fill"
       d="m 134.85379,57.391555 c 4.0811,1.043249 7.4175,4.305184 7.15499,9.534206 -0.60568,12.064287 -23.85152,40.352499 -40.22014,57.387379 -23.463276,24.41832 -56.610361,34.21017 -67.834868,26.11363 -11.224505,-8.09654 10.810732,-18.73571 34.274008,-43.15403 10.091535,-10.502296 27.979217,-34.184434 27.83157,-45.710806 -0.05341,-4.169571 2.846415,-5.787625 7.21421,-6.21093 4.63385,-0.44909 11.71757,-3.66031 15.03413,-3.553878 4.37445,0.140381 12.79683,4.636009 16.5461,5.594429 z"
       id="path869"
       inkscape:connector-curvature="0"
       sodipodi:nodetypes="sssssssss" />
    <ellipse
       inkscape:transform-center-x="-0.6002777"
       transform="matrix(0.97045982,0.24126279,-0.24262048,0.97012128,0,0)"
       inkscape:transform-center-y="-2.5393776"
       ry="7.110261"
       rx="6.9320798"
       cy="10.666018"
       cx="109.39962"
       id="use907"
       style="opacity:1;fill:#000000;fill-opacity:1;stroke:none;stroke-width:35.12421799;stroke-linecap:round;stroke-linejoin:round;stroke-miterlimit:4;stroke-dasharray:none;stroke-opacity:1;paint-order:markers stroke fill" />
    <ellipse
       style="opacity:1;fill:#ffffff;fill-opacity:1;stroke:none;stroke-width:1.9000001;stroke-linecap:round;stroke-linejoin:miter;stroke-miterlimit:4;stroke-dasharray:none;stroke-dashoffset:0;stroke-opacity:1;paint-order:markers stroke fill"
       id="path824"
       cx="101.49142"
       cy="30.986492"
       rx="3.4210162"
       ry="2.5423329" />
    <ellipse
       inkscape:transform-center-x="-0.6002777"
       transform="matrix(0.97045982,0.24126279,-0.24262048,0.97012128,0,0)"
       inkscape:transform-center-y="-2.5393776"
       ry="7.110261"
       rx="6.9320793"
       cy="-0.89122272"
       cx="154.32056"
       id="use907-1"
       style="opacity:1;fill:#000000;fill-opacity:1;stroke:none;stroke-width:35.12421799;stroke-linecap:round;stroke-linejoin:round;stroke-miterlimit:4;stroke-dasharray:none;stroke-opacity:1;paint-order:markers stroke fill" />
    <ellipse
       style="opacity:1;fill:#ffffff;fill-opacity:1;stroke:none;stroke-width:1.9000001;stroke-linecap:round;stroke-linejoin:miter;stroke-miterlimit:4;stroke-dasharray:none;stroke-dashoffset:0;stroke-opacity:1;paint-order:markers stroke fill"
       id="path824-2"
       cx="147.88942"
       cy="30.612318"
       rx="3.4210162"
       ry="2.5423329" />
    <path
       style="fill:none;stroke:#784421;stroke-width:2;stroke-linecap:round;stroke-linejoin:miter;stroke-miterlimit:4;stroke-dasharray:none;stroke-opacity:1"
       d="m 127.96152,46.070551 c 0,0 1.74998,-11.57005 4.88707,-15.955789 2.68543,-3.75431 5.72208,-6.377502 9.78375,-7.874344 2.23822,-0.824849 5.10732,-1.277924 8.21447,-0.529167 5.95542,1.435132 11.33594,6.777791 11.33594,6.777791"
       id="path837"
       inkscape:connector-curvature="0"
       sodipodi:nodetypes="csssc" />
    <path
       style="fill:none;stroke:#784421;stroke-width:2;stroke-linecap:round;stroke-linejoin:miter;stroke-miterlimit:4;stroke-dasharray:none;stroke-opacity:1"
       d="m 116.33119,45.585311 c 0,0 -2.37836,-11.768488 -5.51545,-16.154227 -2.68543,-3.75431 -6.08588,-6.179065 -10.14755,-7.675907 -2.238217,-0.824849 -8.00834,-1.170865 -10.331134,-0.363805 -5.04773,1.753848 -6.689812,6.884757 -6.672658,6.877009"
       id="path837-3"
       inkscape:connector-curvature="0"
       sodipodi:nodetypes="csssc" />
  </g>
</svg>
