<?xml version="1.0" encoding="UTF-8" standalone="no"?>
<!-- Created with Inkscape (http://www.inkscape.org/) -->

<svg
   xmlns:dc="http://purl.org/dc/elements/1.1/"
   xmlns:cc="http://creativecommons.org/ns#"
   xmlns:rdf="http://www.w3.org/1999/02/22-rdf-syntax-ns#"
   xmlns:svg="http://www.w3.org/2000/svg"
   xmlns="http://www.w3.org/2000/svg"
   xmlns:sodipodi="http://sodipodi.sourceforge.net/DTD/sodipodi-0.dtd"
   xmlns:inkscape="http://www.inkscape.org/namespaces/inkscape"
   width="350mm"
   height="350mm"
   viewBox="0 0 350 350"
   version="1.1"
   id="svg8"
   inkscape:version="0.92.5 (0.92.5+68)"
   sodipodi:docname="roger_celebrating.svg"
   inkscape:export-filename="/home/jakmeier/fun/gamedev/paddlers/paddlers-frontend/static/ducks/roger_sad.png"
   inkscape:export-xdpi="43.542858"
   inkscape:export-ydpi="43.542858">
  <defs
     id="defs2">
    <inkscape:path-effect
       effect="bspline"
       id="path-effect833"
       is_visible="true"
       weight="33.333333"
       steps="2"
       helper_size="0"
       apply_no_weight="true"
       apply_with_weight="true"
       only_selected="false" />
  </defs>
  <sodipodi:namedview
     id="base"
     pagecolor="#ffffff"
     bordercolor="#666666"
     borderopacity="1.0"
     inkscape:pageopacity="0.0"
     inkscape:pageshadow="2"
     inkscape:zoom="0.70710678"
     inkscape:cx="876.61619"
     inkscape:cy="657.99546"
     inkscape:document-units="mm"
     inkscape:current-layer="layer1"
     showgrid="false"
     inkscape:pagecheckerboard="true"
     inkscape:window-width="3750"
     inkscape:window-height="2049"
     inkscape:window-x="90"
     inkscape:window-y="1135"
     inkscape:window-maximized="1"
     inkscape:snap-others="false"
     inkscape:snap-nodes="false" />
  <metadata
     id="metadata5">
    <rdf:RDF>
      <cc:Work
         rdf:about="">
        <dc:format>image/svg+xml</dc:format>
        <dc:type
           rdf:resource="http://purl.org/dc/dcmitype/StillImage" />
        <dc:title />
      </cc:Work>
    </rdf:RDF>
  </metadata>
  <g
     inkscape:label="Layer 1"
     inkscape:groupmode="layer"
     id="layer1"
     transform="translate(23.037432,81.083169)">
    <path
       style="opacity:1;fill:#ffa200;fill-opacity:1;stroke:none;stroke-width:18.29515648;stroke-linecap:round;stroke-linejoin:round;stroke-miterlimit:4;stroke-dasharray:none;stroke-opacity:1;paint-order:markers stroke fill"
       d="m 188.68618,238.85612 c 4.41142,9.61963 18.23372,28.92308 18.23372,28.92308 1.65949,-21.85039 -6.0152,-21.59753 12.35736,-2.86261 -2.77959,-22.83546 -7.95726,-26.09905 9.66607,-7.40418 0,0 -0.36,-8.24417 -5.33311,-19.59482 -18.65847,-40.50933 -52.80913,-39.52157 -34.92401,0.93856 z"
       id="path836"
       inkscape:connector-curvature="0"
       sodipodi:nodetypes="cccccc" />
    <path
       style="opacity:1;fill:#ffa200;fill-opacity:1;stroke:none;stroke-width:21.12526894;stroke-linecap:round;stroke-linejoin:round;stroke-miterlimit:4;stroke-dasharray:none;stroke-opacity:1;paint-order:markers stroke fill"
       d="m 104.8335,223.10617 c -7.109692,12.09174 -18.060848,39.68286 -18.060848,39.68286 23.941218,-19.6475 18.556918,-24.54457 11.235551,5.55225 22.009167,-23.55477 21.965487,-30.12108 14.186157,-0.5639 0,0 8.37517,-8.0731 16.91907,-22.18536 29.88534,-50.97437 6.0699,-72.89583 -24.27993,-22.48585 z"
       id="path836-7"
       inkscape:connector-curvature="0"
       sodipodi:nodetypes="cccccc" />
    <path
       style="opacity:1;fill:#deaa87;fill-opacity:1;stroke:none;stroke-width:19.32769585;stroke-linecap:round;stroke-linejoin:round;stroke-miterlimit:4;stroke-dasharray:none;stroke-opacity:1;paint-order:markers stroke fill"
       d="m 109.69586,199.37895 c 14.95226,29.13904 64.79002,26.24899 82.76929,15.33167 48.44952,-29.41935 16.67897,-81.77432 6.47355,-122.945007 -20.5514,-82.9083087 -79.02101,-38.19996 -85.16015,1.86133 -6.96818,45.471257 -29.23766,56.729857 -4.08269,105.752007 z"
       id="path815"
       inkscape:connector-curvature="0"
       sodipodi:nodetypes="sssss" />
    <path
       style="opacity:1;fill:#6c5353;fill-opacity:1;stroke:none;stroke-width:18.29515457;stroke-linecap:round;stroke-linejoin:round;stroke-miterlimit:4;stroke-dasharray:none;stroke-opacity:1;paint-order:markers stroke fill"
       d="m 242.48456,54.875418 c 24.79791,-31.574597 19.68424,-87.232688 16.88861,-106.333007 -2.6012,-17.772119 -15.7918,40.547382 -40.58973,72.121988 -24.79794,31.574607 -56.32475,53.672343 -34.53937,75.021794 10.2288,10.024117 33.44256,-9.23619 58.24049,-40.810775 z"
       id="path819-3"
       inkscape:connector-curvature="0"
       sodipodi:nodetypes="sssss" />
    <path
       style="opacity:1;fill:#aa0000;fill-opacity:1;stroke:none;stroke-width:12.9634819;stroke-linecap:round;stroke-linejoin:round;stroke-miterlimit:4;stroke-dasharray:none;stroke-opacity:1;paint-order:markers stroke fill"
       d="m 176.83913,-32.847314 c -1.12879,-0.123352 12.22634,-10.437333 3.23441,-21.600425 -4.12189,-5.117174 -20.95343,-16.214946 -34.49954,-20.593519 -15.04114,-4.861813 -32.65932,-6.015118 -40.20713,-1.456726 0,0 10.69323,-4.851423 39.0627,7.391582 11.3788,4.910598 18.78867,11.146029 16.70724,14.694349 0,0 -11.48155,-9.480694 -26.91893,-14.931196 -16.73563,-5.252513 -32.92113,-5.507031 -34.696324,-2.226255 0,0 0.326698,-3.358793 28.134614,6.903985 7.38501,2.725518 18.89658,9.983491 12.55465,10.885189 0,0 -11.80077,-7.637916 -23.03791,-10.370663 -14.058,-3.418755 -23.139049,-3.018977 -27.219813,-0.894108 0,0 4.551354,-2.535695 27.049563,7.838927 18.71604,8.630532 10.373,24.99735 9.61391,24.96466"
       id="path4844"
       inkscape:connector-curvature="0"
       sodipodi:nodetypes="csscscccscscsc" />
    <path
       style="opacity:1;fill:#d38d5f;fill-opacity:1;stroke:none;stroke-width:18.29515648;stroke-linecap:round;stroke-linejoin:round;stroke-miterlimit:4;stroke-dasharray:none;stroke-opacity:1;paint-order:markers stroke fill"
       d="m 126.59079,-32.273919 c -15.51903,7.122763 -28.250371,25.7702576 -19.96709,51.346373 8.52142,26.311407 21.50702,47.799908 48.37681,47.955044 26.8698,0.155136 48.77532,-21.063539 48.92734,-47.393247 0.0335,-5.808353 0.86499,-12.6466427 -0.27653,-19.33154538 -2.96,-17.33457862 -8.62709,-33.59660362 -39.39298,-35.15765662"
       id="path817"
       inkscape:connector-curvature="0"
       sodipodi:nodetypes="cssssc" />
    <path
       style="opacity:1;fill:#6c5353;fill-opacity:1;stroke:none;stroke-width:18.54696846;stroke-linecap:round;stroke-linejoin:round;stroke-miterlimit:4;stroke-dasharray:none;stroke-opacity:1;paint-order:markers stroke fill"
       d="M 94.988123,24.323946 C 68.830878,-3.8684227 40.212513,-61.367985 39.303339,-46.89984 38.249218,-30.125358 43.571356,28.07499 70.899918,56.656047 98.228489,85.237093 113.82191,107.23746 125.6963,98.921673 150.01566,81.890523 121.88407,53.312498 94.988123,24.323946 Z"
       id="path819"
       inkscape:connector-curvature="0"
       sodipodi:nodetypes="sssss" />
    <path
       style="opacity:1;fill:#ffffff;fill-opacity:1;stroke:none;stroke-width:18.29515648;stroke-linecap:round;stroke-linejoin:round;stroke-miterlimit:4;stroke-dasharray:none;stroke-opacity:1;paint-order:markers stroke fill"
       d="m 168.91632,-2.1618794 c -2.24133,4.576961 -3.93623,9.4439927 -5.14257,14.3930834 0.12864,2.963708 4.75189,2.420146 6.9076,3.316834 2.84099,0.461244 5.6118,1.720879 8.52468,0.961346 6.71219,-0.916627 11.92757,-6.7433317 13.10229,-13.2596414 0.42046,-2.66557598 1.10161,-5.366541 -1.76609,-7.537825 -2.40941,-1.824294 -4.60152,-2.954223 -7.43712,-3.27531 -5.58454,-0.632361 -11.46636,0.857296 -14.18879,5.401513 z"
       id="path872"
       inkscape:connector-curvature="0"
       sodipodi:nodetypes="cccccssc" />
    <path
       style="opacity:1;fill:#ffffff;fill-opacity:1;stroke:none;stroke-width:18.29515648;stroke-linecap:round;stroke-linejoin:round;stroke-miterlimit:4;stroke-dasharray:none;stroke-opacity:1;paint-order:markers stroke fill"
       d="m 135.54923,15.996196 c 4.98125,0.02827 11.90542,-0.936711 14.82068,-2.052242 3.13865,-1.065112 0.27555,-5.5721427 0.13178,-7.8831737 -1.1668,-3.8425697 -2.29557,-8.1628707 -5.89993,-10.4727837 -4.19876,-3.121035 -10.28616,-3.552885 -14.86391,-2.165559 -2.97714,0.35131 -4.99489,2.249901 -8.41911,3.084185 -0.27064,7.786051 4.77943,15.4071314 11.86127,18.5200664 0.73058,0.288341 1.58815,0.873046 2.36918,0.969507 z"
       id="path872-5"
       inkscape:connector-curvature="0"
       sodipodi:nodetypes="ccccccccc" />
    <path
       style="opacity:1;fill:#0026ff;fill-opacity:0.4627451;stroke:none;stroke-width:1.37213671;stroke-linecap:round;stroke-linejoin:miter;stroke-miterlimit:4;stroke-dasharray:none;stroke-dashoffset:0;stroke-opacity:1;paint-order:markers stroke fill"
       d="m 166.24061,4.6846035 c -0.32098,7.3359005 7.66126,13.2796495 14.59599,10.8939785 7.09843,-1.862689 10.43038,-11.2412615 6.094,-17.1634935 -2.43355,-3.912311 -8.27819,-6.5518704 -12.48741,-5.2400414 -2.40842,0.750599 -4.14325,2.2690862 -5.77303,4.4635372 -1.59066,1.97049802 -2.42125,4.5139822 -2.42955,7.0460192 z"
       id="path848"
       inkscape:connector-curvature="0"
       sodipodi:nodetypes="cccscc" />
    <path
       style="opacity:1;fill:#0026ff;fill-opacity:0.4614265;stroke:none;stroke-width:1.37213671;stroke-linecap:round;stroke-linejoin:miter;stroke-miterlimit:4;stroke-dasharray:none;stroke-dashoffset:0;stroke-opacity:1;paint-order:markers stroke fill"
       d="m 127.85188,4.3387811 c -0.32098,7.3358999 7.66127,13.2796509 14.596,10.8939769 7.09842,-1.862689 10.43037,-11.2412599 6.094,-17.1634949 -1.91611,-3.080441 -5.31374,-4.738613 -8.78888,-4.916677 -0.81485,-0.04175 -1.63396,-0.0021 -2.43924,0.119622 -2.70985,0.409699 -5.26299,1.74936 -6.9697,4.047397 -1.59066,1.97049802 -2.48388,4.487138 -2.49218,7.019176 z"
       id="path848-9"
       inkscape:connector-curvature="0"
       sodipodi:nodetypes="cccsscc" />
    <path
       style="opacity:1;fill:#d38d5f;fill-opacity:1;stroke:none;stroke-width:18.29515648;stroke-linecap:round;stroke-linejoin:round;stroke-miterlimit:4;stroke-dasharray:none;stroke-opacity:1;paint-order:markers stroke fill"
       d="m 164.25813,-34.855364 c 30.76588,1.56105 36.43315,17.823236 39.39317,35.15781562 1.14149,6.68490168 0.31003,13.52332538 0.27648,19.33167638 -0.15203,26.329702 -22.05779,47.548085 -48.9276,47.392947 -26.86978,-0.155136 -39.8552,-21.643345 -48.37662,-47.954745 -8.283277,-25.5761114 4.44786,-44.223901 19.96689,-51.346654 z m 19.31503,25.4494196 c -0.61052,-0.0285 -1.22705,-0.0089 -1.84439,0.0522 -0.61733,0.06129 -1.23552,0.164717 -1.84868,0.303212 -0.61315,0.138498 -1.22123,0.312123 -1.81916,0.515164 -0.59794,0.203048 -1.18561,0.435492 -1.75731,0.690433 -0.57171,0.25493 -1.12766,0.532473 -1.66215,0.826642 -0.53446,0.294179 -1.04745,0.604957 -1.53365,0.925723 -0.48621,0.320757 -0.94587,0.651511 -1.3728,0.986203 -0.42694,0.334703 -0.82108,0.673102 -1.1777,1.009082 -0.35664,0.335979 -0.67539,0.669707 -0.95072,0.994318 -0.27533,0.324608 -0.50739,0.640399 -0.69041,0.940986 -0.21246,0.364962 -0.45787,0.857111 -0.7245,1.44187102 -0.26661,0.584765 -0.55431,1.261988 -0.8506,1.99659798 -0.59259,1.469217 -1.22011,3.168267 -1.78445,4.8171337 -0.56434,1.648869 -1.06578,3.247434 -1.40595,4.5163077 -0.17009,0.634436 -0.29983,1.186644 -0.37714,1.62115 -0.0773,0.434506 -0.10192,0.751636 -0.0624,0.916223 0.0235,0.09726 0.079,0.192102 0.16332,0.285048 0.0843,0.09295 0.19719,0.183865 0.33548,0.272802 0.27661,0.177873 1.01691,0.649659 1.46941,0.813335 0.4525,0.163668 0.53444,0.211565 1.10934,0.363488 0.57488,0.151924 0.33953,0.03666 1.89726,0.28619 2.55614,0.241684 3.21246,0.494109 5.09251,0.545578 2.19286,0.06003 5.53272,-0.133237 6.15267,-0.24302 0.74363,-0.131683 4.07605,-0.64464 5.25822,-1.193445 1.60598,-1.241835 2.16684,-1.626478 3.40839,-3.120139 0.36626,-0.441379 0.70992,-0.903309 1.03,-1.3838537 0.32008,-0.480553 0.61662,-0.979719 0.88932,-1.495287 0.27272,-0.515568 0.52157,-1.047538 0.74571,-1.59397 0.22412,-0.54643 0.42388,-1.107243 0.59823,-1.6803827 0.17437,-0.573138 0.32352,-1.158364 0.44693,-1.754054 0.12342,-0.595692 0.22097,-1.201843 0.29223,-1.815929 0.0713,-0.61408598 0.11627,-1.23625498 0.1341,-1.86459098 0.018,-0.62832302 0.008,-1.26255902 -0.0283,-1.90098002 -0.33822,-0.833346 -0.71562,-1.581045 -1.12675,-2.248625 -0.41115,-0.667584 -0.85596,-1.255039 -1.329,-1.769503 -0.47306,-0.514475 -0.974,-0.955899 -1.49795,-1.32991 -0.52393,-0.374012 -1.07071,-0.680791 -1.63452,-0.926992 -0.56382,-0.2462 -1.14464,-0.431594 -1.73732,-0.562645 -0.59267,-0.131051 -1.19722,-0.207851 -1.80775,-0.236395 z m -49.0305,0.122984 c -0.57447,-0.02024 -1.15775,-0.003 -1.74936,0.05274 -0.59163,0.05604 -1.19189,0.151465 -1.79991,0.288363 -0.60803,0.136908 -1.22398,0.315501 -1.84766,0.537694 -0.62369,0.222192 -1.25503,0.48782 -1.89362,0.799785 -0.63858,0.311964 -1.28405,0.670323 -1.93681,1.076546 -0.65276,0.406233 -1.31247,0.860642 -1.97865,1.365621 -0.66619,0.504973 -1.33888,1.060194 -2.01776,1.668402 -0.0265,0.636321 -0.017,1.265091 0.0255,1.88489 0.0427,0.61980402 0.11851,1.23064402 0.22438,1.83120002 0.10587,0.600557 0.24179,1.19080098 0.40483,1.76937598 0.16304,0.578571 0.3532,1.145546 0.56738,1.699401 0.21418,0.553857 0.4527,1.094891 0.71202,1.621296 0.25932,0.5264037 0.53936,1.0383497 0.83779,1.5345657 0.29841,0.496214 0.61504,0.976411 0.94658,1.439704 0.33151,0.463289 0.6779,0.909539 1.03652,1.33717 0.3586,0.4276317 0.72931,0.8367867 1.10901,1.2260257 0.37969,0.389237 0.76838,0.758631 1.16312,1.10674 0.78949,0.696217 1.60326,1.307296 2.4169,1.822592 0.40684,0.257646 0.81364,0.491249 1.21749,0.699569 0.40382,0.208311 0.80459,0.391475 1.19943,0.547712 0.39484,0.156244 0.78367,0.285826 1.16351,0.387263 0.37981,0.101441 0.75083,0.174757 1.10962,0.218661 0.35911,0.04177 0.87516,0.05061 1.50404,0.03183 0.62885,-0.01878 1.37033,-0.06518 2.18095,-0.134422 1.62128,-0.138457 3.51843,-0.367632 5.33889,-0.647057 0.91022,-0.139718 1.80101,-0.292099 2.62905,-0.451878 0.82804,-0.159777 1.59326,-0.326878 2.25113,-0.496595 0.65785,-0.169716 1.20861,-0.342127 1.60831,-0.511651 0.19986,-0.08474 0.36199,-0.168737 0.4808,-0.251555 0.11881,-0.08281 0.19398,-0.164459 0.22075,-0.244067 0.0633,-0.188141 0.0816,-0.494327 0.061,-0.893562 -0.0206,-0.399235 -0.0802,-0.89137 -0.17268,-1.451307 -0.18488,-1.1198777 -0.50121,-2.5110577 -0.90029,-3.9713377 -0.39908,-1.4602787 -0.88064,-2.9898797 -1.39662,-4.3873617 -0.25799,-0.698742 -0.52468,-1.36413498 -0.79365,-1.97157998 -0.26898,-0.607442 -0.54017,-1.156571 -0.80799,-1.62231902 -0.38689,-0.505311 -0.7858,-0.994014 -1.19652,-1.463366 -0.0617,-0.07046 -0.12357,-0.140488 -0.18577,-0.210076 -0.35208,-0.393956 -0.80799,-0.690546 -1.17665,-1.055064 -0.58851,-0.361589 -1.08003,-0.748543 -1.64473,-1.083326 -0.38951,-0.230929 -0.67874,-0.375242 -1.20002,-0.63676 -0.56896,-0.285444 -1.09474,-0.419023 -1.69761,-0.654296 -0.53297,-0.207994 -2.64842,-0.519972 -3.16706,-0.742257 -0.48791,-0.147458 0.119,-0.326056 -2.01118,-0.683728 -0.55662,-0.09204 -0.25991,-1.363403 -0.8344,-1.383624 z"
       id="path817-5"
       inkscape:connector-curvature="0"
       sodipodi:nodetypes="cssssccccscccccscccssscccscscssccccsccscccsccsccccccccccsccscscccccccccsccsccccsccccccscasscccc" />
    <path
       style="opacity:1;fill:#000000;fill-opacity:1;stroke:none;stroke-width:15.97248268;stroke-linecap:round;stroke-linejoin:round;stroke-miterlimit:4;stroke-dasharray:none;stroke-opacity:1;paint-order:markers stroke fill"
       d="m 143.92057,23.926421 c -3.43012,0.337552 -3.79747,2.255949 -3.6453,5.861293 0.17108,4.053633 2.19061,7.910623 3.11453,10.838487 1.63037,5.166506 3.30429,12.034586 12.9693,25.637515 5.87451,8.267998 8.94035,11.18511 14.44392,15.969948 8.943,7.775085 20.76027,12.30148 32.96653,5.795522 10.41189,-5.549555 4.55551,-3.437773 -14.10062,-20.852049 -21.78951,-20.33907 -8.51183,-33.208844 -14.85531,-39.595201 -2.4822,-2.49896 -3.53405,-3.467789 -7.49904,-3.131275 -3.09361,0.262559 -9.59311,-4.120458 -12.52305,-3.959087 -5.01627,0.276275 -6.32497,2.987484 -10.87096,3.434847 z"
       id="path869-3"
       inkscape:connector-curvature="0"
       sodipodi:nodetypes="sssssssssss" />
    <path
       style="opacity:1;fill:#ffa200;fill-opacity:1;stroke:none;stroke-width:15.89006329;stroke-linecap:round;stroke-linejoin:round;stroke-miterlimit:4;stroke-dasharray:none;stroke-opacity:1;paint-order:markers stroke fill"
       d="m 142.6856,24.483795 c -2.89867,0.395329 -3.16297,6.098156 -1.04051,9.711236 4.89693,8.336019 28.89945,31.40226 46.49596,37.231199 25.22334,8.355415 30.00905,8.002047 38.5139,-0.667705 7.69739,-7.846609 1.40047,-9.707883 -22.58021,-20.298097 -10.47457,-4.625714 -24.93522,-18.148688 -30.29585,-25.628157 -2.09761,-2.926691 -3.64649,-3.607526 -6.99716,-3.213413 -2.61429,0.307499 -8.10678,-4.82573 -10.58275,-4.636739 -4.23907,0.323564 -9.67173,6.977741 -13.51338,7.501676 z"
       id="path869"
       inkscape:connector-curvature="0"
       sodipodi:nodetypes="sssssssss" />
    <path
       style="opacity:1;fill:#000000;fill-opacity:1;stroke:none;stroke-width:32.13014984;stroke-linecap:round;stroke-linejoin:round;stroke-miterlimit:4;stroke-dasharray:none;stroke-opacity:1;paint-order:markers stroke fill"
       d="m 174.84111,2.6180012 c 0.82998,4.3103451 6.53988,6.5660501 9.98228,3.7437761 3.84795,-2.6962521 3.10674,-9.2689791 -1.19656,-11.1167181 -3.92558,-2.09089 -9.08489,1.231619 -8.97356,5.62820502 -0.0147,0.58636698 0.0488,1.17487798 0.18784,1.74473698 z"
       id="use907"
       inkscape:connector-curvature="0" />
    <path
       style="opacity:1;fill:#ffffff;fill-opacity:1;stroke:none;stroke-width:2.00691867;stroke-linecap:round;stroke-linejoin:miter;stroke-miterlimit:4;stroke-dasharray:none;stroke-dashoffset:0;stroke-opacity:1;paint-order:markers stroke fill"
       d="m 178.38882,-2.3091645 c -0.20997,1.91351302 2.51945,3.981134 4.71476,2.78765502 2.71687,-1.325371 1.85847,-5.60331002 -1.5883,-5.79021402 -1.93855,-0.03953 -3.18726,1.558562 -3.12646,3.002559 z"
       id="path824"
       inkscape:connector-curvature="0" />
    <path
       style="opacity:1;fill:#000000;fill-opacity:1;stroke:none;stroke-width:32.13014984;stroke-linecap:round;stroke-linejoin:round;stroke-miterlimit:4;stroke-dasharray:none;stroke-opacity:1;paint-order:markers stroke fill"
       d="m 135.92814,3.7840512 c 0.83002,4.3103451 6.53992,6.5660518 9.98232,3.7437801 3.84793,-2.6962561 3.10672,-9.2689821 -1.19658,-11.1167211 -3.92557,-2.090891 -9.08487,1.231619 -8.97352,5.628204 -0.0148,0.586358 0.0487,1.174877 0.18778,1.744737 z"
       id="use907-1"
       inkscape:connector-curvature="0" />
    <path
       style="opacity:1;fill:#ffffff;fill-opacity:1;stroke:none;stroke-width:2.00691867;stroke-linecap:round;stroke-linejoin:miter;stroke-miterlimit:4;stroke-dasharray:none;stroke-dashoffset:0;stroke-opacity:1;paint-order:markers stroke fill"
       d="m 139.28497,-1.2328081 c -0.20997,1.91351202 2.51944,3.981133 4.71475,2.787654 2.71687,-1.32537098 1.85849,-5.6033091 -1.58829,-5.7902131 -1.93856,-0.03953 -3.18725,1.5585631 -3.12646,3.0025591 z"
       id="path824-2"
       inkscape:connector-curvature="0" />
    <path
       style="fill:none;stroke:#784421;stroke-width:1.82951546;stroke-linecap:round;stroke-linejoin:miter;stroke-miterlimit:4;stroke-dasharray:none;stroke-opacity:1"
       d="m 152.52681,12.425485 c -0.94598,-5.1056017 -1.74196,-10.4981954 -4.61419,-14.9356034 -2.04894,-2.981868 -5.59203,-4.790792 -9.0193,-5.02572 -3.37621,-0.231428 -7.57837,-0.377765 -11.18723,0.581202 -2.19945,0.584447 -3.8117,1.55208 -6.09459,3.077014"
       id="path837"
       inkscape:connector-curvature="0"
       sodipodi:nodetypes="ccsac" />
    <path
       style="fill:none;stroke:#784421;stroke-width:1.82951546;stroke-linecap:round;stroke-linejoin:miter;stroke-miterlimit:4;stroke-dasharray:none;stroke-opacity:1"
       d="m 163.09065,12.22416 c 1.2682,-5.1610767 2.37992,-10.5753664 5.36459,-15.0648974 2.36063,-3.152506 5.74811,-5.340583 9.6777,-5.707402 3.75464,-0.350486 4.83419,-0.08683 8.44895,0.850053 1.73189,0.448876 4.68751,2.520637 5.69535,4.249697"
       id="path837-3"
       inkscape:connector-curvature="0"
       sodipodi:nodetypes="ccssc" />
  </g>
</svg>
