<?xml version="1.0" standalone="no"?>
<!DOCTYPE svg PUBLIC "-//W3C//DTD SVG 20010904//EN"
 "http://www.w3.org/TR/2001/REC-SVG-20010904/DTD/svg10.dtd">
<svg version="1.0" xmlns="http://www.w3.org/2000/svg"
 width="700.000000pt" height="700.000000pt" viewBox="0 0 700.000000 700.000000"
 preserveAspectRatio="xMidYMid meet">
<metadata>
Created by potrace 1.11, written by Peter Selinger 2001-2013
</metadata>
<g transform="translate(0.000000,700.000000) scale(0.100000,-0.100000)"
fill="#000000" stroke="none">
<path d="M3269 6995 c-2 -1 -42 -6 -89 -9 -47 -3 -96 -8 -110 -10 -14 -3 -47
-7 -73 -11 -26 -3 -71 -10 -100 -16 -29 -5 -68 -12 -87 -15 -19 -3 -38 -8 -41
-10 -3 -2 -21 -6 -40 -9 -60 -10 -150 -35 -279 -77 -507 -164 -945 -445 -1300
-833 -195 -214 -365 -441 -494 -658 -71 -122 -201 -388 -240 -492 -8 -22 -28
-77 -45 -122 -40 -105 -103 -329 -131 -463 -28 -137 -26 -127 -36 -190 -4 -30
-8 -57 -9 -60 -1 -3 -5 -39 -9 -80 -4 -41 -9 -86 -11 -100 -25 -180 -25 -606
0 -780 2 -19 7 -57 11 -85 5 -43 14 -94 40 -225 57 -286 230 -729 382 -980 12
-19 29 -48 38 -65 100 -180 371 -525 544 -693 201 -196 320 -293 552 -455 38
-26 70 -47 74 -47 3 0 24 -13 47 -28 216 -146 693 -347 946 -398 12 -3 51 -11
85 -19 33 -7 79 -16 101 -20 23 -3 51 -7 64 -10 13 -2 49 -7 80 -11 31 -3 65
-8 76 -11 42 -9 425 -11 517 -3 193 18 268 31 536 97 298 72 453 125 654 221
427 206 792 502 1116 905 75 93 257 360 308 452 184 331 315 660 398 999 36
145 39 159 56 261 5 33 12 71 14 85 10 53 15 98 22 170 3 41 9 107 13 145 12
128 3 522 -14 630 -2 17 -7 48 -10 70 -16 119 -28 186 -50 285 -53 244 -144
500 -260 731 -69 137 -87 171 -95 179 -3 3 -12 19 -21 35 -178 329 -324 530
-559 766 -172 173 -303 279 -509 414 -168 109 -352 208 -504 271 -91 37 -100
40 -127 52 -67 28 -339 111 -420 127 -8 2 -33 8 -55 14 -22 5 -53 12 -70 15
-16 3 -70 12 -120 20 -49 8 -117 18 -150 21 -33 4 -71 9 -85 12 -28 5 -526 13
-531 8z"/>
</g>
</svg>
